<?xml version="1.0" standalone="no"?><!DOCTYPE svg PUBLIC "-//W3C//DTD SVG 1.1//EN" "http://www.w3.org/Graphics/SVG/1.1/DTD/svg11.dtd"><svg height="200" node-id="1" sillyvg="true" template-height="200" template-width="200" version="1.1" viewBox="0 0 200 200" width="200" xmlns="http://www.w3.org/2000/svg" xmlns:xlink="http://www.w3.org/1999/xlink"><defs node-id="161"><linearGradient gradientUnits="objectBoundingBox" id="linear-gradient" node-id="5" spreadMethod="pad" x1="1.351" x2="2.159" y1="0.625" y2="0.625"><stop offset="0" stop-color="#5c2a4f"></stop><stop offset="1" stop-color="#a74a00"></stop></linearGradient><linearGradient gradientUnits="objectBoundingBox" id="linear-gradient-2" node-id="8" spreadMethod="pad" x1="-2.011" x2="-1.029" y1="0.361" y2="0.361"><stop offset="0" stop-color="#5c2a4f"></stop><stop offset="1" stop-color="#a74a00"></stop></linearGradient><clipPath id="clip-path" node-id="3"><path d="M 200.00 100.00 L 199.77 106.67 L 199.14 113.15 L 198.11 119.45 L 196.70 125.60 L 194.90 131.61 L 192.11 138.97 L 188.82 145.99 L 185.02 152.68 L 180.71 159.06 L 175.91 165.10 L 170.71 170.71 L 165.10 175.91 L 159.06 180.71 L 152.68 185.02 L 145.99 188.82 L 138.97 192.11 L 131.61 194.90 L 125.60 196.70 L 119.45 198.11 L 113.15 199.14 L 106.67 199.77 L 100.00 200.00 L 93.33 199.77 L 86.85 199.14 L 80.55 198.11 L 74.40 196.70 L 68.39 194.90 L 61.03 192.11 L 54.01 188.82 L 47.32 185.02 L 40.94 180.71 L 34.90 175.91 L 29.29 170.71 L 24.09 165.10 L 19.29 159.06 L 14.98 152.68 L 11.18 145.99 L 7.89 138.97 L 5.10 131.61 L 3.30 125.60 L 1.89 119.45 L 0.86 113.15 L 0.23 106.67 L 0.00 100.00 L 0.23 93.33 L 0.86 86.85 L 1.89 80.55 L 3.30 74.40 L 5.10 68.39 L 7.89 61.03 L 11.18 54.01 L 14.98 47.32 L 19.29 40.94 L 24.09 34.90 L 29.29 29.29 L 34.90 24.09 L 40.94 19.29 L 47.32 14.98 L 54.01 11.18 L 61.03 7.89 L 68.39 5.10 L 74.40 3.30 L 80.55 1.89 L 86.85 0.86 L 93.33 0.23 L 100.00 0.00 L 106.67 0.23 L 113.15 0.86 L 119.45 1.89 L 125.60 3.30 L 131.61 5.10 L 138.97 7.89 L 145.99 11.18 L 152.68 14.98 L 159.06 19.29 L 165.10 24.09 L 170.71 29.29 L 175.91 34.90 L 180.71 40.94 L 185.02 47.32 L 188.82 54.01 L 192.11 61.03 L 194.90 68.39 L 196.70 74.40 L 198.11 80.55 L 199.14 86.85 L 199.77 93.33 L 200.00 100.00 Z" fill="#000000" fill-rule="nonzero" id="椭圆_245" node-id="4" stroke="none" target-height="200" target-width="200" target-x="0" target-y="0"></path></clipPath></defs><g node-id="174"><g clip-path="url(#clip-path)" group-id="1" id="组_325" node-id="10"><path d="M 19.08 -30.40 L 222.18 4.51 L 185.20 219.63 L -17.90 184.72 Z" fill="#ffe6b3" fill-rule="nonzero" group-id="1,2" id="矩形_144" node-id="11" stroke="none" target-height="250.0301" target-width="240.07825" target-x="-17.898272" target-y="-30.399"></path><path d="M -5.83 70.90 L 219.91 70.90 L 219.91 78.40 L -5.83 78.40 Z" fill="#fff7e9" fill-rule="nonzero" group-id="1,3" id="矩形_145" node-id="15" stroke="none" target-height="7.5" target-width="225.739" target-x="-5.834" target-y="70.899"></path><path d="M -5.83 56.27 L 219.91 56.27 L 219.91 63.77 L -5.83 63.77 Z" fill="#fff7e9" fill-rule="nonzero" group-id="1,4" id="矩形_146" node-id="16" stroke="none" target-height="7.5" target-width="225.739" target-x="-5.834" target-y="56.275"></path><path d="M -5.83 41.28 L 219.91 41.28 L 219.91 48.78 L -5.83 48.78 Z" fill="#fff7e9" fill-rule="nonzero" group-id="1,5" id="矩形_147" node-id="17" stroke="none" target-height="7.5" target-width="225.739" target-x="-5.834" target-y="41.276"></path><path d="M -5.83 25.53 L 219.91 25.53 L 219.91 33.03 L -5.83 33.03 Z" fill="#fff7e9" fill-rule="nonzero" group-id="1,6" id="矩形_148" node-id="18" stroke="none" target-height="7.5" target-width="225.739" target-x="-5.834" target-y="25.527"></path><path d="M -5.83 10.28 L 219.91 10.28 L 219.91 17.78 L -5.83 17.78 Z" fill="#fff7e9" fill-rule="nonzero" group-id="1,7" id="矩形_149" node-id="19" stroke="none" target-height="7.5" target-width="225.739" target-x="-5.834" target-y="10.277"></path><path d="M -5.83 -4.85 L 219.91 -4.85 L 219.91 2.65 L -5.83 2.65 Z" fill="#fff7e9" fill-rule="nonzero" group-id="1,8" id="矩形_150" node-id="20" stroke="none" target-height="7.5" target-width="225.739" target-x="-5.834" target-y="-4.848"></path><path d="M -5.83 85.15 L 219.91 85.15 L 219.91 92.65 L -5.83 92.65 Z" fill="#fff7e9" fill-rule="nonzero" group-id="1,9" id="矩形_151" node-id="21" stroke="none" target-height="7.5" target-width="225.739" target-x="-5.834" target-y="85.149"></path><path d="M -5.83 99.40 L 219.91 99.40 L 219.91 106.90 L -5.83 106.90 Z" fill="#fff7e9" fill-rule="nonzero" group-id="1,10" id="矩形_152" node-id="22" stroke="none" target-height="7.5" target-width="225.739" target-x="-5.834" target-y="99.399"></path><path d="M -5.83 113.65 L 219.91 113.65 L 219.91 121.15 L -5.83 121.15 Z" fill="#fff7e9" fill-rule="nonzero" group-id="1,11" id="矩形_153" node-id="23" stroke="none" target-height="7.5" target-width="225.739" target-x="-5.834" target-y="113.649"></path><path d="M -5.83 127.90 L 219.91 127.90 L 219.91 135.40 L -5.83 135.40 Z" fill="#fff7e9" fill-rule="nonzero" group-id="1,12" id="矩形_154" node-id="24" stroke="none" target-height="7.5" target-width="225.739" target-x="-5.834" target-y="127.899"></path><path d="M -5.83 142.15 L 219.91 142.15 L 219.91 149.65 L -5.83 149.65 Z" fill="#fff7e9" fill-rule="nonzero" group-id="1,13" id="矩形_155" node-id="25" stroke="none" target-height="7.5" target-width="225.739" target-x="-5.834" target-y="142.149"></path><path d="M -5.83 156.40 L 219.91 156.40 L 219.91 163.90 L -5.83 163.90 Z" fill="#fff7e9" fill-rule="nonzero" group-id="1,14" id="矩形_156" node-id="26" stroke="none" target-height="7.5" target-width="225.739" target-x="-5.834" target-y="156.399"></path><path d="M -5.83 170.65 L 219.91 170.65 L 219.91 178.15 L -5.83 178.15 Z" fill="#fff7e9" fill-rule="nonzero" group-id="1,15" id="矩形_157" node-id="27" stroke="none" target-height="7.5" target-width="225.739" target-x="-5.834" target-y="170.649"></path><path d="M -5.83 184.90 L 219.91 184.90 L 219.91 192.40 L -5.83 192.40 Z" fill="#fff7e9" fill-rule="nonzero" group-id="1,16" id="矩形_158" node-id="28" stroke="none" target-height="7.5" target-width="225.739" target-x="-5.834" target-y="184.899"></path><path d="M -5.83 63.77 L 219.91 63.77 L 219.91 71.28 L -5.83 71.28 Z" fill="#ede1cc" fill-rule="nonzero" group-id="1,17,24" id="矩形_159" node-id="30" stroke="none" target-height="7.5" target-width="225.739" target-x="-5.834" target-y="63.775"></path><path d="M -5.83 48.40 L 219.91 48.40 L 219.91 55.90 L -5.83 55.90 Z" fill="#ede1cc" fill-rule="nonzero" group-id="1,17,25" id="矩形_160" node-id="31" stroke="none" target-height="7.5" target-width="225.739" target-x="-5.834" target-y="48.401"></path><path d="M -5.83 33.40 L 219.91 33.40 L 219.91 40.90 L -5.83 40.90 Z" fill="#ede1cc" fill-rule="nonzero" group-id="1,17,26" id="矩形_161" node-id="32" stroke="none" target-height="7.5" target-width="225.739" target-x="-5.834" target-y="33.401"></path><path d="M -5.83 17.65 L 219.91 17.65 L 219.91 25.15 L -5.83 25.15 Z" fill="#ede1cc" fill-rule="nonzero" group-id="1,17,27" id="矩形_162" node-id="33" stroke="none" target-height="7.5" target-width="225.739" target-x="-5.834" target-y="17.652"></path><path d="M -5.83 2.90 L 219.91 2.90 L 219.91 10.40 L -5.83 10.40 Z" fill="#ede1cc" fill-rule="nonzero" group-id="1,17" id="矩形_163" node-id="34" stroke="none" target-height="7.5" target-width="225.739" target-x="-5.834" target-y="2.903"></path><path d="M -5.83 78.03 L 219.91 78.03 L 219.91 85.53 L -5.83 85.53 Z" fill="#ede1cc" fill-rule="nonzero" group-id="1,17,28" id="矩形_164" node-id="35" stroke="none" target-height="7.5" target-width="225.739" target-x="-5.834" target-y="78.025"></path><path d="M -5.83 92.28 L 219.91 92.28 L 219.91 99.78 L -5.83 99.78 Z" fill="#ede1cc" fill-rule="nonzero" group-id="1,17,29" id="矩形_165" node-id="36" stroke="none" target-height="7.5" target-width="225.739" target-x="-5.834" target-y="92.275"></path><path d="M -5.83 106.53 L 219.91 106.53 L 219.91 114.03 L -5.83 114.03 Z" fill="#ede1cc" fill-rule="nonzero" group-id="1,17,30" id="矩形_166" node-id="37" stroke="none" target-height="7.5" target-width="225.739" target-x="-5.834" target-y="106.525"></path><path d="M -5.83 120.78 L 219.91 120.78 L 219.91 128.28 L -5.83 128.28 Z" fill="#ede1cc" fill-rule="nonzero" group-id="1,17,31" id="矩形_167" node-id="38" stroke="none" target-height="7.4999924" target-width="225.739" target-x="-5.834" target-y="120.775"></path><path d="M -5.83 135.03 L 219.91 135.03 L 219.91 142.53 L -5.83 142.53 Z" fill="#ede1cc" fill-rule="nonzero" group-id="1,17,32" id="矩形_168" node-id="39" stroke="none" target-height="7.5" target-width="225.739" target-x="-5.834" target-y="135.025"></path><path d="M -5.83 149.28 L 219.91 149.28 L 219.91 156.78 L -5.83 156.78 Z" fill="#ede1cc" fill-rule="nonzero" group-id="1,17,33" id="矩形_169" node-id="40" stroke="none" target-height="7.5" target-width="225.739" target-x="-5.834" target-y="149.275"></path><path d="M -5.83 163.53 L 219.91 163.53 L 219.91 171.03 L -5.83 171.03 Z" fill="#ede1cc" fill-rule="nonzero" group-id="1,17,34" id="矩形_170" node-id="41" stroke="none" target-height="7.5" target-width="225.739" target-x="-5.834" target-y="163.525"></path><path d="M -5.83 177.78 L 219.91 177.78 L 219.91 185.28 L -5.83 185.28 Z" fill="#ede1cc" fill-rule="nonzero" group-id="1,17,35" id="矩形_171" node-id="42" stroke="none" target-height="7.5" target-width="225.739" target-x="-5.834" target-y="177.775"></path><path d="M -5.83 192.03 L 219.91 192.03 L 219.91 199.53 L -5.83 199.53 Z" fill="#ede1cc" fill-rule="nonzero" group-id="1,17,36" id="矩形_172" node-id="43" stroke="none" target-height="7.5" target-width="225.739" target-x="-5.834" target-y="192.025"></path><path d="M -5.83 199.15 L 219.91 199.15 L 219.91 206.65 L -5.83 206.65 Z" fill="#f4d9a4" fill-rule="nonzero" group-id="1,18" id="矩形_173" node-id="44" stroke="none" target-height="7.5" target-width="225.739" target-x="-5.834" target-y="199.149"></path><path d="M 135.03 109.68 L 134.83 113.44 L 134.29 117.02 L 133.41 120.46 L 132.19 123.76 L 130.08 127.96 L 127.50 131.78 L 124.44 135.26 L 120.96 138.32 L 117.14 140.90 L 112.94 143.01 L 109.64 144.23 L 106.21 145.11 L 102.62 145.65 L 98.87 145.85 L 95.11 145.65 L 91.53 145.11 L 88.09 144.23 L 84.79 143.01 L 80.59 140.90 L 76.77 138.32 L 73.29 135.26 L 70.23 131.78 L 67.65 127.96 L 65.54 123.76 L 64.33 120.46 L 63.45 117.02 L 62.90 113.44 L 62.70 109.68 L 62.90 105.93 L 63.45 102.34 L 64.33 98.91 L 65.54 95.61 L 67.65 91.41 L 70.23 87.59 L 73.29 84.11 L 76.77 81.05 L 80.59 78.47 L 84.79 76.36 L 88.09 75.14 L 91.53 74.26 L 95.11 73.72 L 98.87 73.52 L 102.62 73.72 L 106.21 74.26 L 109.64 75.14 L 112.94 76.36 L 117.14 78.47 L 120.96 81.05 L 124.44 84.11 L 127.50 87.59 L 130.08 91.41 L 132.19 95.61 L 133.41 98.91 L 134.29 102.34 L 134.83 105.93 L 135.03 109.68 Z" fill="#f2f6f9" fill-rule="nonzero" group-id="1,19,37" id="椭圆_238" node-id="46" stroke="none" target-height="72.334" target-width="72.334" target-x="62.699997" target-y="73.517"></path><path d="M 131.87 109.68 L 131.55 114.22 L 130.69 118.48 L 129.27 122.53 L 127.35 126.36 L 125.00 129.85 L 122.20 133.02 L 119.03 135.81 L 115.54 138.17 L 111.71 140.09 L 107.67 141.50 L 103.40 142.37 L 98.87 142.69 L 94.33 142.37 L 90.07 141.50 L 86.02 140.09 L 82.19 138.17 L 78.70 135.81 L 75.53 133.02 L 72.74 129.85 L 70.39 126.36 L 68.46 122.53 L 67.05 118.48 L 66.18 114.22 L 65.87 109.68 L 66.18 105.15 L 67.05 100.88 L 68.46 96.84 L 70.39 93.01 L 72.74 89.52 L 75.53 86.35 L 78.70 83.56 L 82.19 81.20 L 86.02 79.28 L 90.07 77.86 L 94.33 77.00 L 98.87 76.68 L 103.40 77.00 L 107.67 77.86 L 111.71 79.28 L 115.54 81.20 L 119.03 83.56 L 122.20 86.35 L 125.00 89.52 L 127.35 93.01 L 129.27 96.84 L 130.69 100.88 L 131.55 105.15 L 131.87 109.68 Z" fill="#a3c1ce" fill-rule="nonzero" group-id="1,19,38" id="椭圆_239" node-id="47" stroke="none" target-height="66.002" target-width="66.002" target-x="65.866" target-y="76.683"></path><path d="M 133.36 109.68 L 133.03 114.42 L 132.12 118.88 L 130.65 123.11 L 128.64 127.11 L 126.18 130.76 L 123.26 134.07 L 119.94 136.99 L 116.30 139.45 L 112.29 141.47 L 108.06 142.94 L 103.60 143.85 L 98.87 144.18 L 94.13 143.85 L 89.67 142.94 L 85.44 141.47 L 81.44 139.45 L 77.79 136.99 L 74.48 134.07 L 71.56 130.76 L 69.10 127.11 L 67.08 123.11 L 65.61 118.88 L 64.70 114.42 L 64.37 109.68 L 64.70 104.94 L 65.61 100.48 L 67.08 96.26 L 69.10 92.25 L 71.56 88.61 L 74.48 85.29 L 77.79 82.37 L 81.44 79.91 L 85.44 77.90 L 89.67 76.42 L 94.13 75.52 L 98.87 75.19 L 103.60 75.52 L 108.06 76.42 L 112.29 77.90 L 116.30 79.91 L 119.94 82.37 L 123.26 85.29 L 126.18 88.61 L 128.64 92.25 L 130.65 96.26 L 132.12 100.48 L 133.03 104.94 L 133.36 109.68 Z" fill="none" group-id="1,19,39" id="椭圆_240" node-id="48" stroke="#badae5" stroke-linecap="butt" stroke-width="1" target-height="68.98801" target-width="68.988" target-x="64.372" target-y="75.188995"></path><path d="M 75.65 98.29 L 75.01 98.20 L 73.89 97.68 L 73.51 97.17 L 73.43 96.34 L 73.70 95.52 L 74.13 95.03 L 75.26 94.58 L 76.19 94.52 L 76.23 93.99 L 76.51 92.93 L 76.81 92.46 L 77.26 92.17 L 78.52 92.22 L 79.68 92.71 L 79.96 92.26 L 80.68 91.45 L 81.15 91.17 L 81.63 91.10 L 82.64 91.61 L 83.45 92.42 L 83.78 92.84 L 84.46 92.26 L 85.16 91.97 L 86.00 92.04 L 86.68 92.59 L 87.04 93.32 L 87.21 94.26 L 87.73 94.31 L 88.78 94.67 L 89.24 95.06 L 89.56 95.67 L 89.68 96.59 L 89.35 97.46 L 88.65 98.07 L 87.75 98.29 L 87.43 99.14 L 86.91 99.88 L 85.83 100.73 L 84.39 101.31 L 81.97 101.58 L 79.52 101.31 L 77.97 100.73 L 76.75 99.88 L 76.11 99.14 L 75.65 98.29 Z" fill="#ffffff" fill-rule="nonzero" group-id="1,19,40,60" id="路径_3298" node-id="50" stroke="#e4eaed" stroke-linecap="butt" stroke-width="1" target-height="10.488037" target-width="16.247559" target-x="73.43115" target-y="91.0957"></path><path d="M 75.65 98.29 L 77.63 97.58 L 79.64 97.15 L 81.70 97.01 L 83.76 97.15 L 85.77 97.58 L 87.75 98.29" fill="none" group-id="1,19,40,61" id="路径_3299" node-id="51" stroke="#e4eaed" stroke-linecap="butt" stroke-width="1" target-height="1.277832" target-width="12.100098" target-x="75.65039" target-y="97.01123"></path><path d="M 76.19 94.52 L 76.76 94.91 L 77.84 95.93 L 78.26 96.62 L 78.43 97.38" fill="none" group-id="1,19,40,62" id="路径_3300" node-id="52" stroke="#e4eaed" stroke-linecap="butt" stroke-width="1" target-height="2.8510742" target-width="2.2441406" target-x="76.18701" target-y="94.523926"></path><path d="M 79.68 92.71 L 79.96 93.65 L 80.32 95.55 L 80.29 96.47 L 80.03 96.99" fill="none" group-id="1,19,40,63" id="路径_3301" node-id="53" stroke="#e4eaed" stroke-linecap="butt" stroke-width="1" target-height="4.284912" target-width="0.6357422" target-x="79.68408" target-y="92.708984"></path><path d="M 83.78 92.84 L 83.77 93.77 L 83.51 95.62 L 83.15 96.48 L 82.63 96.99" fill="none" group-id="1,19,40,64" id="路径_3302" node-id="54" stroke="#e4eaed" stroke-linecap="butt" stroke-width="1" target-height="4.1499023" target-width="1.1557617" target-x="82.62842" target-y="92.84302"></path><path d="M 87.21 94.25 L 87.01 94.97 L 86.23 96.35 L 85.56 96.92 L 84.60 97.26" fill="none" group-id="1,19,40,65" id="路径_3303" node-id="55" stroke="#e4eaed" stroke-linecap="butt" stroke-width="1" target-height="3.006836" target-width="2.612793" target-x="84.59912" target-y="94.25488"></path><path d="M 93.02 97.90 L 92.38 97.81 L 91.25 97.29 L 90.88 96.78 L 90.80 95.95 L 91.07 95.13 L 91.50 94.64 L 92.63 94.19 L 93.55 94.14 L 93.59 93.60 L 93.87 92.54 L 94.18 92.07 L 94.63 91.78 L 95.89 91.83 L 97.05 92.32 L 97.33 91.87 L 98.05 91.07 L 98.51 90.78 L 99.00 90.71 L 100.00 91.22 L 100.82 92.03 L 101.15 92.46 L 101.83 91.88 L 102.53 91.58 L 103.37 91.65 L 104.04 92.20 L 104.40 92.94 L 104.58 93.87 L 105.10 93.92 L 106.14 94.29 L 106.61 94.68 L 106.93 95.28 L 107.04 96.20 L 106.72 97.07 L 106.02 97.69 L 105.12 97.90 L 104.80 98.76 L 104.27 99.49 L 103.19 100.34 L 101.75 100.92 L 99.33 101.20 L 96.89 100.92 L 95.34 100.34 L 94.12 99.49 L 93.47 98.76 L 93.02 97.90 Z" fill="#ffffff" fill-rule="nonzero" group-id="1,19,41,66" id="路径_3304" node-id="57" stroke="#e4eaed" stroke-linecap="butt" stroke-width="1" target-height="10.488037" target-width="16.248047" target-x="90.796875" target-y="90.708984"></path><path d="M 93.02 97.90 L 95.00 97.19 L 97.01 96.77 L 99.07 96.63 L 101.12 96.77 L 103.13 97.19 L 105.12 97.90" fill="none" group-id="1,19,41,67" id="路径_3305" node-id="58" stroke="#e4eaed" stroke-linecap="butt" stroke-width="1" target-height="1.2773438" target-width="12.100098" target-x="93.015625" target-y="96.62549"></path><path d="M 93.55 94.14 L 94.13 94.52 L 95.20 95.54 L 95.62 96.23 L 95.80 96.99" fill="none" group-id="1,19,41,68" id="路径_3306" node-id="59" stroke="#e4eaed" stroke-linecap="butt" stroke-width="1" target-height="2.8498535" target-width="2.2441406" target-x="93.55371" target-y="94.13794"></path><path d="M 97.05 92.32 L 97.33 93.26 L 97.68 95.16 L 97.65 96.08 L 97.39 96.60" fill="none" group-id="1,19,41,69" id="路径_3307" node-id="60" stroke="#e4eaed" stroke-linecap="butt" stroke-width="1" target-height="4.2851563" target-width="0.6352539" target-x="97.04883" target-y="92.31885"></path><path d="M 101.15 92.46 L 101.14 93.38 L 100.87 95.23 L 100.51 96.10 L 99.99 96.61" fill="none" group-id="1,19,41,70" id="路径_3308" node-id="61" stroke="#e4eaed" stroke-linecap="butt" stroke-width="1" target-height="4.151123" target-width="1.1557617" target-x="99.99365" target-y="92.45679"></path><path d="M 104.58 93.87 L 104.38 94.58 L 103.60 95.96 L 102.92 96.54 L 101.96 96.88" fill="none" group-id="1,19,41,71" id="路径_3309" node-id="62" stroke="#e4eaed" stroke-linecap="butt" stroke-width="1" target-height="3.00708" target-width="2.6132813" target-x="101.96484" target-y="93.8689"></path><path d="M 111.24 97.71 L 110.61 97.63 L 109.48 97.11 L 109.11 96.59 L 109.02 95.76 L 109.30 94.95 L 109.72 94.46 L 110.86 94.00 L 111.78 93.95 L 111.82 93.41 L 112.10 92.36 L 112.41 91.88 L 112.86 91.60 L 114.12 91.64 L 115.28 92.13 L 115.56 91.69 L 116.27 90.88 L 116.74 90.59 L 117.22 90.52 L 118.23 91.03 L 119.04 91.85 L 119.38 92.27 L 120.06 91.69 L 120.75 91.39 L 121.59 91.46 L 122.27 92.01 L 122.63 92.75 L 122.80 93.68 L 123.33 93.73 L 124.37 94.10 L 124.84 94.49 L 125.16 95.09 L 125.27 96.01 L 124.94 96.88 L 124.25 97.50 L 123.34 97.72 L 123.02 98.57 L 122.50 99.31 L 121.42 100.16 L 119.98 100.73 L 117.56 101.01 L 115.12 100.73 L 113.56 100.15 L 112.35 99.30 L 111.70 98.57 L 111.24 97.71 Z" fill="#ffffff" fill-rule="nonzero" group-id="1,19,42,72" id="路径_3310" node-id="64" stroke="#e4eaed" stroke-linecap="butt" stroke-width="1" target-height="10.488037" target-width="16.246582" target-x="109.0249" target-y="90.520996"></path><path d="M 111.24 97.71 L 113.22 97.00 L 115.24 96.58 L 117.29 96.43 L 119.35 96.58 L 121.36 97.00 L 123.34 97.71" fill="none" group-id="1,19,42,73" id="路径_3311" node-id="65" stroke="#e4eaed" stroke-linecap="butt" stroke-width="1" target-height="1.277832" target-width="12.100098" target-x="111.243164" target-y="96.43408"></path><path d="M 111.78 93.94 L 112.36 94.33 L 113.43 95.35 L 113.85 96.04 L 114.03 96.79" fill="none" group-id="1,19,42,74" id="路径_3312" node-id="66" stroke="#e4eaed" stroke-linecap="butt" stroke-width="1" target-height="2.8500977" target-width="2.2441406" target-x="111.78467" target-y="93.944824"></path><path d="M 115.28 92.13 L 115.56 93.08 L 115.91 94.97 L 115.88 95.89 L 115.62 96.42" fill="none" group-id="1,19,42,75" id="路径_3313" node-id="67" stroke="#e4eaed" stroke-linecap="butt" stroke-width="1" target-height="4.2851563" target-width="0.6357422" target-x="115.276855" target-y="92.13281"></path><path d="M 119.38 92.27 L 119.37 93.19 L 119.10 95.04 L 118.74 95.91 L 118.22 96.42" fill="none" group-id="1,19,42,76" id="路径_3314" node-id="68" stroke="#e4eaed" stroke-linecap="butt" stroke-width="1" target-height="4.151123" target-width="1.15625" target-x="118.2207" target-y="92.266846"></path><path d="M 122.81 93.68 L 122.61 94.39 L 121.83 95.77 L 121.15 96.35 L 120.19 96.69" fill="none" group-id="1,19,42,77" id="路径_3315" node-id="69" stroke="#e4eaed" stroke-linecap="butt" stroke-width="1" target-height="3.00708" target-width="2.6137695" target-x="120.191895" target-y="93.678955"></path><path d="M 75.52 121.76 L 74.89 121.68 L 73.76 121.16 L 73.39 120.64 L 73.31 119.81 L 73.58 119.00 L 74.00 118.51 L 75.14 118.05 L 76.06 118.00 L 76.10 117.46 L 76.38 116.41 L 76.69 115.93 L 77.14 115.65 L 78.40 115.69 L 79.56 116.18 L 79.84 115.74 L 80.55 114.93 L 81.02 114.64 L 81.51 114.57 L 82.51 115.08 L 83.32 115.90 L 83.66 116.32 L 84.34 115.74 L 85.03 115.44 L 85.88 115.51 L 86.55 116.06 L 86.91 116.80 L 87.08 117.73 L 87.60 117.78 L 88.65 118.15 L 89.12 118.54 L 89.44 119.14 L 89.55 120.06 L 89.22 120.93 L 88.53 121.55 L 87.62 121.76 L 87.30 122.62 L 86.78 123.36 L 85.70 124.20 L 84.26 124.78 L 81.84 125.06 L 79.40 124.78 L 77.84 124.20 L 76.63 123.35 L 75.98 122.62 L 75.52 121.76 Z" fill="#ffffff" fill-rule="nonzero" group-id="1,19,43,78" id="路径_3316" node-id="71" stroke="#e4eaed" stroke-linecap="butt" stroke-width="1" target-height="10.487793" target-width="16.24707" target-x="73.305176" target-y="114.571045"></path><path d="M 75.52 121.76 L 77.51 121.05 L 79.52 120.63 L 81.57 120.49 L 83.63 120.63 L 85.64 121.05 L 87.62 121.76" fill="none" group-id="1,19,43,79" id="路径_3317" node-id="72" stroke="#e4eaed" stroke-linecap="butt" stroke-width="1" target-height="1.277832" target-width="12.100098" target-x="75.52295" target-y="120.48511"></path><path d="M 76.06 118.00 L 76.63 118.39 L 77.71 119.41 L 78.13 120.09 L 78.30 120.85" fill="none" group-id="1,19,43,80" id="路径_3318" node-id="73" stroke="#e4eaed" stroke-linecap="butt" stroke-width="1" target-height="2.8500977" target-width="2.2436523" target-x="76.06055" target-y="117.99902"></path><path d="M 79.56 116.18 L 79.84 117.13 L 80.19 119.02 L 80.16 119.94 L 79.90 120.47" fill="none" group-id="1,19,43,81" id="路径_3319" node-id="74" stroke="#e4eaed" stroke-linecap="butt" stroke-width="1" target-height="4.2851563" target-width="0.6357422" target-x="79.558105" target-y="116.18384"></path><path d="M 83.66 116.32 L 83.65 117.25 L 83.38 119.10 L 83.02 119.96 L 82.50 120.47" fill="none" group-id="1,19,43,82" id="路径_3320" node-id="75" stroke="#e4eaed" stroke-linecap="butt" stroke-width="1" target-height="4.1499023" target-width="1.15625" target-x="82.50098" target-y="116.318115"></path><path d="M 87.08 117.73 L 86.88 118.44 L 86.10 119.82 L 85.43 120.40 L 84.47 120.74" fill="none" group-id="1,19,43,83" id="路径_3321" node-id="76" stroke="#e4eaed" stroke-linecap="butt" stroke-width="1" target-height="3.00708" target-width="2.612793" target-x="84.47217" target-y="117.72998"></path><path d="M 92.79 121.76 L 92.16 121.68 L 91.03 121.16 L 90.66 120.64 L 90.58 119.81 L 90.85 119.00 L 91.28 118.51 L 92.41 118.05 L 93.33 118.00 L 93.37 117.46 L 93.65 116.41 L 93.96 115.93 L 94.41 115.65 L 95.67 115.69 L 96.83 116.18 L 97.11 115.74 L 97.82 114.93 L 98.29 114.64 L 98.78 114.57 L 99.78 115.08 L 100.59 115.90 L 100.93 116.32 L 101.61 115.74 L 102.30 115.44 L 103.15 115.51 L 103.82 116.06 L 104.18 116.80 L 104.36 117.73 L 104.88 117.78 L 105.92 118.15 L 106.39 118.54 L 106.71 119.14 L 106.82 120.06 L 106.49 120.93 L 105.80 121.55 L 104.89 121.76 L 104.57 122.62 L 104.05 123.36 L 102.97 124.20 L 101.53 124.78 L 99.11 125.06 L 96.67 124.79 L 95.11 124.20 L 93.90 123.35 L 93.25 122.62 L 92.79 121.76 Z" fill="#ffffff" fill-rule="nonzero" group-id="1,19,44,84" id="路径_3322" node-id="78" stroke="#e4eaed" stroke-linecap="butt" stroke-width="1" target-height="10.487793" target-width="16.246582" target-x="90.57617" target-y="114.571045"></path><path d="M 92.79 121.76 L 94.78 121.05 L 96.79 120.63 L 98.84 120.49 L 100.90 120.63 L 102.91 121.05 L 104.89 121.76" fill="none" group-id="1,19,44,85" id="路径_3323" node-id="79" stroke="#e4eaed" stroke-linecap="butt" stroke-width="1" target-height="1.277832" target-width="12.099609" target-x="92.79443" target-y="120.48511"></path><path d="M 93.33 118.00 L 93.91 118.39 L 94.98 119.41 L 95.40 120.09 L 95.57 120.85" fill="none" group-id="1,19,44,86" id="路径_3324" node-id="80" stroke="#e4eaed" stroke-linecap="butt" stroke-width="1" target-height="2.8500977" target-width="2.2441406" target-x="93.33008" target-y="117.99902"></path><path d="M 96.83 116.18 L 97.11 117.13 L 97.46 119.02 L 97.43 119.94 L 97.17 120.47" fill="none" group-id="1,19,44,87" id="路径_3325" node-id="81" stroke="#e4eaed" stroke-linecap="butt" stroke-width="1" target-height="4.2851563" target-width="0.6357422" target-x="96.82715" target-y="116.18384"></path><path d="M 100.93 116.32 L 100.92 117.25 L 100.65 119.10 L 100.29 119.96 L 99.77 120.47" fill="none" group-id="1,19,44,88" id="路径_3326" node-id="82" stroke="#e4eaed" stroke-linecap="butt" stroke-width="1" target-height="4.1499023" target-width="1.15625" target-x="99.77197" target-y="116.318115"></path><path d="M 104.36 117.73 L 104.16 118.44 L 103.38 119.82 L 102.70 120.40 L 101.74 120.74" fill="none" group-id="1,19,44,89" id="路径_3327" node-id="83" stroke="#e4eaed" stroke-linecap="butt" stroke-width="1" target-height="3.00708" target-width="2.612793" target-x="101.743164" target-y="117.72998"></path><path d="M 111.02 121.76 L 110.39 121.68 L 109.26 121.16 L 108.88 120.64 L 108.80 119.81 L 109.08 119.00 L 109.50 118.51 L 110.64 118.05 L 111.56 118.00 L 111.60 117.46 L 111.88 116.41 L 112.19 115.93 L 112.64 115.65 L 113.90 115.69 L 115.06 116.18 L 115.34 115.74 L 116.05 114.93 L 116.52 114.64 L 117.00 114.57 L 118.01 115.08 L 118.82 115.90 L 119.16 116.32 L 119.84 115.74 L 120.53 115.44 L 121.37 115.51 L 122.05 116.06 L 122.41 116.80 L 122.58 117.73 L 123.10 117.78 L 124.15 118.15 L 124.61 118.54 L 124.94 119.14 L 125.05 120.06 L 124.72 120.93 L 124.02 121.55 L 123.12 121.76 L 122.80 122.62 L 122.28 123.36 L 121.20 124.20 L 119.76 124.78 L 117.34 125.06 L 114.90 124.78 L 113.34 124.20 L 112.12 123.35 L 111.48 122.62 L 111.02 121.76 Z" fill="#ffffff" fill-rule="nonzero" group-id="1,19,45,90" id="路径_3328" node-id="85" stroke="#e4eaed" stroke-linecap="butt" stroke-width="1" target-height="10.487793" target-width="16.24707" target-x="108.80322" target-y="114.571045"></path><path d="M 111.02 121.76 L 113.00 121.05 L 115.01 120.63 L 117.07 120.49 L 119.13 120.63 L 121.14 121.05 L 123.12 121.76" fill="none" group-id="1,19,45,91" id="路径_3329" node-id="86" stroke="#e4eaed" stroke-linecap="butt" stroke-width="1" target-height="1.277832" target-width="12.100098" target-x="111.020996" target-y="120.48511"></path><path d="M 111.56 118.00 L 112.13 118.39 L 113.21 119.41 L 113.63 120.09 L 113.80 120.85" fill="none" group-id="1,19,45,92" id="路径_3330" node-id="87" stroke="#e4eaed" stroke-linecap="butt" stroke-width="1" target-height="2.8500977" target-width="2.2441406" target-x="111.55908" target-y="117.99902"></path><path d="M 115.05 116.18 L 115.33 117.13 L 115.69 119.02 L 115.66 119.94 L 115.40 120.47" fill="none" group-id="1,19,45,93" id="路径_3331" node-id="88" stroke="#e4eaed" stroke-linecap="butt" stroke-width="1" target-height="4.2851563" target-width="0.6352539" target-x="115.05469" target-y="116.18384"></path><path d="M 119.16 116.32 L 119.14 117.25 L 118.88 119.10 L 118.52 119.96 L 118.00 120.47" fill="none" group-id="1,19,45,94" id="路径_3332" node-id="89" stroke="#e4eaed" stroke-linecap="butt" stroke-width="1" target-height="4.1499023" target-width="1.1557617" target-x="117.99951" target-y="116.318115"></path><path d="M 122.58 117.73 L 122.38 118.44 L 121.60 119.82 L 120.93 120.40 L 119.97 120.74" fill="none" group-id="1,19,45,95" id="路径_3333" node-id="90" stroke="#e4eaed" stroke-linecap="butt" stroke-width="1" target-height="3.00708" target-width="2.6142578" target-x="119.970215" target-y="117.72998"></path><path d="M 69.24 111.27 L 68.61 111.18 L 67.48 110.66 L 67.10 110.15 L 67.02 109.32 L 67.29 108.50 L 67.72 108.01 L 68.86 107.56 L 69.78 107.50 L 69.82 106.97 L 70.10 105.91 L 70.40 105.44 L 70.85 105.15 L 72.11 105.20 L 73.27 105.69 L 73.56 105.24 L 74.27 104.43 L 74.74 104.15 L 75.22 104.08 L 76.23 104.59 L 77.04 105.40 L 77.37 105.82 L 78.05 105.24 L 78.75 104.95 L 79.59 105.02 L 80.27 105.57 L 80.63 106.30 L 80.80 107.24 L 81.32 107.29 L 82.37 107.65 L 82.83 108.04 L 83.16 108.65 L 83.27 109.57 L 82.94 110.44 L 82.24 111.05 L 81.34 111.27 L 81.02 112.12 L 80.50 112.86 L 79.42 113.71 L 77.98 114.29 L 75.56 114.56 L 73.11 114.29 L 71.56 113.71 L 70.34 112.86 L 69.70 112.12 L 69.24 111.27 Z" fill="#ffffff" fill-rule="nonzero" group-id="1,19,46,96" id="路径_3334" node-id="92" stroke="#e4eaed" stroke-linecap="butt" stroke-width="1" target-height="10.486816" target-width="16.246582" target-x="67.02295" target-y="104.07617"></path><path d="M 69.24 111.27 L 71.22 110.55 L 73.23 110.13 L 75.29 109.99 L 77.35 110.13 L 79.36 110.55 L 81.34 111.27" fill="none" group-id="1,19,46,97" id="路径_3335" node-id="93" stroke="#e4eaed" stroke-linecap="butt" stroke-width="1" target-height="1.277832" target-width="12.100098" target-x="69.24072" target-y="109.987305"></path><path d="M 69.78 107.50 L 70.35 107.89 L 71.43 108.91 L 71.85 109.60 L 72.02 110.35" fill="none" group-id="1,19,46,98" id="路径_3336" node-id="94" stroke="#e4eaed" stroke-linecap="butt" stroke-width="1" target-height="2.8500977" target-width="2.2426758" target-x="69.77832" target-y="107.50391"></path><path d="M 73.27 105.69 L 73.55 106.63 L 73.91 108.53 L 73.88 109.45 L 73.62 109.98" fill="none" group-id="1,19,46,99" id="路径_3337" node-id="95" stroke="#e4eaed" stroke-linecap="butt" stroke-width="1" target-height="4.2851563" target-width="0.6357422" target-x="73.273926" target-y="105.68994"></path><path d="M 77.38 105.82 L 77.36 106.75 L 77.10 108.60 L 76.74 109.46 L 76.22 109.98" fill="none" group-id="1,19,46,100" id="路径_3338" node-id="96" stroke="#e4eaed" stroke-linecap="butt" stroke-width="1" target-height="4.150879" target-width="1.15625" target-x="76.21875" target-y="105.82422"></path><path d="M 80.80 107.24 L 80.60 107.95 L 79.82 109.33 L 79.15 109.90 L 78.19 110.24" fill="none" group-id="1,19,46,101" id="路径_3339" node-id="97" stroke="#e4eaed" stroke-linecap="butt" stroke-width="1" target-height="3.00708" target-width="2.612793" target-x="78.18994" target-y="107.236084"></path><path d="M 85.32 110.69 L 84.68 110.61 L 83.56 110.09 L 83.18 109.57 L 83.10 108.74 L 83.37 107.92 L 83.80 107.44 L 84.93 106.98 L 85.86 106.93 L 85.90 106.39 L 86.18 105.33 L 86.48 104.86 L 86.93 104.57 L 88.19 104.62 L 89.35 105.11 L 89.63 104.66 L 90.35 103.86 L 90.82 103.57 L 91.30 103.50 L 92.31 104.01 L 93.12 104.82 L 93.45 105.25 L 94.13 104.67 L 94.83 104.37 L 95.67 104.44 L 96.35 104.99 L 96.71 105.73 L 96.88 106.66 L 97.40 106.71 L 98.45 107.08 L 98.91 107.47 L 99.23 108.07 L 99.35 108.99 L 99.02 109.86 L 98.32 110.48 L 97.42 110.69 L 97.10 111.55 L 96.58 112.28 L 95.50 113.13 L 94.06 113.71 L 91.64 113.99 L 89.19 113.71 L 87.64 113.13 L 86.42 112.28 L 85.78 111.55 L 85.32 110.69 Z" fill="#ffffff" fill-rule="nonzero" group-id="1,19,47,102" id="路径_3340" node-id="99" stroke="#e4eaed" stroke-linecap="butt" stroke-width="1" target-height="10.487061" target-width="16.24707" target-x="83.10205" target-y="103.5"></path><path d="M 85.32 110.70 L 87.30 109.98 L 89.31 109.56 L 91.37 109.42 L 93.43 109.56 L 95.44 109.98 L 97.42 110.70" fill="none" group-id="1,19,47,103" id="路径_3341" node-id="100" stroke="#e4eaed" stroke-linecap="butt" stroke-width="1" target-height="1.2775879" target-width="12.100098" target-x="85.319824" target-y="109.41748"></path><path d="M 85.85 106.93 L 86.43 107.31 L 87.50 108.33 L 87.92 109.02 L 88.10 109.78" fill="none" group-id="1,19,47,104" id="路径_3342" node-id="101" stroke="#e4eaed" stroke-linecap="butt" stroke-width="1" target-height="2.8498535" target-width="2.2426758" target-x="85.85449" target-y="106.92798"></path><path d="M 89.35 105.11 L 89.63 106.06 L 89.99 107.95 L 89.96 108.87 L 89.70 109.40" fill="none" group-id="1,19,47,105" id="路径_3343" node-id="102" stroke="#e4eaed" stroke-linecap="butt" stroke-width="1" target-height="4.284912" target-width="0.6357422" target-x="89.35303" target-y="105.11304"></path><path d="M 93.45 105.25 L 93.44 106.17 L 93.17 108.02 L 92.82 108.89 L 92.30 109.40" fill="none" group-id="1,19,47,106" id="路径_3344" node-id="103" stroke="#e4eaed" stroke-linecap="butt" stroke-width="1" target-height="4.151123" target-width="1.15625" target-x="92.296875" target-y="105.24585"></path><path d="M 96.88 106.66 L 96.68 107.37 L 95.90 108.75 L 95.23 109.33 L 94.27 109.67" fill="none" group-id="1,19,47,107" id="路径_3345" node-id="104" stroke="#e4eaed" stroke-linecap="butt" stroke-width="1" target-height="3.006836" target-width="2.612793" target-x="94.26904" target-y="106.658936"></path><path d="M 101.40 110.69 L 100.76 110.61 L 99.63 110.09 L 99.26 109.57 L 99.18 108.74 L 99.45 107.92 L 99.88 107.44 L 101.01 106.98 L 101.94 106.93 L 101.97 106.39 L 102.25 105.33 L 102.56 104.86 L 103.01 104.57 L 104.27 104.62 L 105.43 105.11 L 105.71 104.66 L 106.43 103.86 L 106.89 103.57 L 107.38 103.50 L 108.39 104.01 L 109.20 104.82 L 109.53 105.25 L 110.21 104.67 L 110.91 104.37 L 111.75 104.44 L 112.43 104.99 L 112.78 105.73 L 112.96 106.66 L 113.48 106.71 L 114.52 107.08 L 114.99 107.47 L 115.31 108.07 L 115.43 108.99 L 115.10 109.86 L 114.40 110.47 L 113.50 110.69 L 113.18 111.55 L 112.66 112.28 L 111.58 113.13 L 110.14 113.71 L 107.72 113.99 L 105.27 113.71 L 103.72 113.13 L 102.50 112.28 L 101.86 111.55 L 101.40 110.69 Z" fill="#ffffff" fill-rule="nonzero" group-id="1,19,48,108" id="路径_3346" node-id="106" stroke="#e4eaed" stroke-linecap="butt" stroke-width="1" target-height="10.487061" target-width="16.247559" target-x="99.1792" target-y="103.5"></path><path d="M 101.40 110.70 L 103.38 109.98 L 105.39 109.56 L 107.45 109.42 L 109.51 109.56 L 111.52 109.98 L 113.50 110.70" fill="none" group-id="1,19,48,109" id="路径_3347" node-id="107" stroke="#e4eaed" stroke-linecap="butt" stroke-width="1" target-height="1.2775879" target-width="12.099609" target-x="101.39844" target-y="109.41748"></path><path d="M 101.94 106.93 L 102.51 107.31 L 103.58 108.33 L 104.00 109.02 L 104.18 109.78" fill="none" group-id="1,19,48,110" id="路径_3348" node-id="108" stroke="#e4eaed" stroke-linecap="butt" stroke-width="1" target-height="2.8498535" target-width="2.2441406" target-x="101.93506" target-y="106.92798"></path><path d="M 105.43 105.11 L 105.71 106.06 L 106.07 107.95 L 106.04 108.87 L 105.78 109.40" fill="none" group-id="1,19,48,111" id="路径_3349" node-id="109" stroke="#e4eaed" stroke-linecap="butt" stroke-width="1" target-height="4.284912" target-width="0.6357422" target-x="105.43115" target-y="105.11304"></path><path d="M 109.53 105.25 L 109.52 106.17 L 109.25 108.02 L 108.89 108.89 L 108.38 109.40" fill="none" group-id="1,19,48,112" id="路径_3350" node-id="110" stroke="#e4eaed" stroke-linecap="butt" stroke-width="1" target-height="4.151123" target-width="1.15625" target-x="108.375" target-y="105.24585"></path><path d="M 112.96 106.66 L 112.76 107.37 L 111.98 108.75 L 111.30 109.33 L 110.35 109.67" fill="none" group-id="1,19,48,113" id="路径_3351" node-id="111" stroke="#e4eaed" stroke-linecap="butt" stroke-width="1" target-height="3.006836" target-width="2.612793" target-x="110.34619" target-y="106.658936"></path><path d="M 85.32 134.28 L 84.68 134.19 L 83.56 133.67 L 83.18 133.16 L 83.10 132.33 L 83.37 131.52 L 83.80 131.03 L 84.93 130.57 L 85.86 130.52 L 85.90 129.98 L 86.18 128.92 L 86.48 128.45 L 86.93 128.17 L 88.19 128.21 L 89.35 128.70 L 89.63 128.25 L 90.35 127.45 L 90.82 127.16 L 91.30 127.09 L 92.31 127.60 L 93.12 128.42 L 93.45 128.84 L 94.13 128.26 L 94.83 127.96 L 95.67 128.03 L 96.35 128.58 L 96.71 129.32 L 96.88 130.25 L 97.40 130.30 L 98.45 130.67 L 98.91 131.06 L 99.23 131.66 L 99.35 132.58 L 99.02 133.45 L 98.32 134.07 L 97.42 134.28 L 97.10 135.14 L 96.58 135.88 L 95.50 136.72 L 94.06 137.30 L 91.64 137.58 L 89.19 137.30 L 87.64 136.72 L 86.42 135.87 L 85.78 135.14 L 85.32 134.28 Z" fill="#ffffff" fill-rule="nonzero" group-id="1,19,49,114" id="路径_3352" node-id="113" stroke="#e4eaed" stroke-linecap="butt" stroke-width="1" target-height="10.488037" target-width="16.24707" target-x="83.10205" target-y="127.09009"></path><path d="M 85.32 134.28 L 87.30 133.57 L 89.31 133.15 L 91.37 133.00 L 93.43 133.15 L 95.44 133.57 L 97.42 134.28" fill="none" group-id="1,19,49,115" id="路径_3353" node-id="114" stroke="#e4eaed" stroke-linecap="butt" stroke-width="1" target-height="1.2775879" target-width="12.100098" target-x="85.319824" target-y="133.0044"></path><path d="M 85.85 130.52 L 86.43 130.90 L 87.50 131.92 L 87.92 132.61 L 88.10 133.37" fill="none" group-id="1,19,49,116" id="路径_3354" node-id="115" stroke="#e4eaed" stroke-linecap="butt" stroke-width="1" target-height="2.8510742" target-width="2.2426758" target-x="85.85449" target-y="130.51782"></path><path d="M 89.35 128.70 L 89.63 129.64 L 89.99 131.54 L 89.96 132.46 L 89.70 132.99" fill="none" group-id="1,19,49,117" id="路径_3355" node-id="116" stroke="#e4eaed" stroke-linecap="butt" stroke-width="1" target-height="4.284912" target-width="0.6357422" target-x="89.35303" target-y="128.70215"></path><path d="M 93.45 128.84 L 93.44 129.76 L 93.17 131.61 L 92.82 132.48 L 92.30 132.99" fill="none" group-id="1,19,49,118" id="路径_3356" node-id="117" stroke="#e4eaed" stroke-linecap="butt" stroke-width="1" target-height="4.1501465" target-width="1.15625" target-x="92.296875" target-y="128.83691"></path><path d="M 96.88 130.25 L 96.68 130.96 L 95.90 132.34 L 95.23 132.92 L 94.27 133.26" fill="none" group-id="1,19,49,119" id="路径_3357" node-id="118" stroke="#e4eaed" stroke-linecap="butt" stroke-width="1" target-height="3.00708" target-width="2.612793" target-x="94.26904" target-y="130.24902"></path><path d="M 83.79 86.48 L 83.16 86.39 L 82.03 85.87 L 81.65 85.36 L 81.57 84.53 L 81.84 83.71 L 82.27 83.23 L 83.41 82.77 L 84.33 82.72 L 84.37 82.18 L 84.65 81.12 L 84.96 80.65 L 85.41 80.36 L 86.67 80.41 L 87.83 80.90 L 88.11 80.45 L 88.82 79.65 L 89.29 79.36 L 89.77 79.29 L 90.78 79.80 L 91.59 80.61 L 91.93 81.04 L 92.61 80.46 L 93.30 80.16 L 94.14 80.23 L 94.82 80.78 L 95.18 81.52 L 95.35 82.45 L 95.87 82.50 L 96.92 82.87 L 97.38 83.26 L 97.71 83.86 L 97.82 84.78 L 97.49 85.65 L 96.79 86.26 L 95.89 86.48 L 95.57 87.34 L 95.05 88.07 L 93.97 88.92 L 92.53 89.50 L 90.11 89.78 L 87.67 89.50 L 86.11 88.92 L 84.89 88.07 L 84.25 87.34 L 83.79 86.48 Z" fill="#ffffff" fill-rule="nonzero" group-id="1,19,50,120" id="路径_3358" node-id="120" stroke="#e4eaed" stroke-linecap="butt" stroke-width="1" target-height="10.488037" target-width="16.246094" target-x="81.57324" target-y="79.28882"></path><path d="M 83.79 86.48 L 85.77 85.77 L 87.78 85.34 L 89.84 85.20 L 91.90 85.35 L 93.91 85.77 L 95.89 86.48" fill="none" group-id="1,19,50,121" id="路径_3359" node-id="121" stroke="#e4eaed" stroke-linecap="butt" stroke-width="1" target-height="1.2775879" target-width="12.100098" target-x="83.791504" target-y="85.20361"></path><path d="M 84.33 82.72 L 84.90 83.10 L 85.98 84.12 L 86.40 84.81 L 86.57 85.57" fill="none" group-id="1,19,50,122" id="路径_3360" node-id="122" stroke="#e4eaed" stroke-linecap="butt" stroke-width="1" target-height="2.8500977" target-width="2.2441406" target-x="84.328125" target-y="82.71704"></path><path d="M 87.82 80.90 L 88.10 81.84 L 88.46 83.74 L 88.43 84.66 L 88.17 85.19" fill="none" group-id="1,19,50,123" id="路径_3361" node-id="123" stroke="#e4eaed" stroke-linecap="butt" stroke-width="1" target-height="4.284912" target-width="0.6357422" target-x="87.82471" target-y="80.9021"></path><path d="M 91.92 81.04 L 91.91 81.96 L 91.64 83.81 L 91.28 84.67 L 90.77 85.19" fill="none" group-id="1,19,50,124" id="路径_3362" node-id="124" stroke="#e4eaed" stroke-linecap="butt" stroke-width="1" target-height="4.150879" target-width="1.1557617" target-x="90.76514" target-y="81.03613"></path><path d="M 95.35 82.45 L 95.15 83.16 L 94.37 84.54 L 93.70 85.12 L 92.74 85.45" fill="none" group-id="1,19,50,125" id="路径_3363" node-id="125" stroke="#e4eaed" stroke-linecap="butt" stroke-width="1" target-height="3.006836" target-width="2.6142578" target-x="92.739746" target-y="82.448"></path><path d="M 101.40 134.28 L 100.76 134.19 L 99.63 133.67 L 99.26 133.16 L 99.18 132.33 L 99.45 131.52 L 99.88 131.03 L 101.01 130.57 L 101.94 130.52 L 101.97 129.98 L 102.25 128.92 L 102.56 128.45 L 103.01 128.17 L 104.27 128.21 L 105.43 128.70 L 105.71 128.25 L 106.43 127.45 L 106.89 127.16 L 107.38 127.09 L 108.39 127.60 L 109.20 128.42 L 109.53 128.84 L 110.21 128.26 L 110.91 127.96 L 111.75 128.03 L 112.43 128.58 L 112.78 129.32 L 112.96 130.25 L 113.48 130.30 L 114.52 130.67 L 114.99 131.06 L 115.31 131.66 L 115.43 132.58 L 115.10 133.45 L 114.40 134.07 L 113.50 134.28 L 113.18 135.14 L 112.66 135.88 L 111.58 136.72 L 110.14 137.30 L 107.72 137.58 L 105.27 137.30 L 103.72 136.72 L 102.50 135.87 L 101.86 135.14 L 101.40 134.28 Z" fill="#ffffff" fill-rule="nonzero" group-id="1,19,51,126" id="路径_3364" node-id="127" stroke="#e4eaed" stroke-linecap="butt" stroke-width="1" target-height="10.488037" target-width="16.248047" target-x="99.1792" target-y="127.09009"></path><path d="M 101.40 134.28 L 103.38 133.57 L 105.39 133.15 L 107.45 133.00 L 109.51 133.15 L 111.52 133.57 L 113.50 134.28" fill="none" group-id="1,19,51,127" id="路径_3365" node-id="128" stroke="#e4eaed" stroke-linecap="butt" stroke-width="1" target-height="1.2775879" target-width="12.099609" target-x="101.39844" target-y="133.0044"></path><path d="M 101.94 130.52 L 102.51 130.90 L 103.58 131.92 L 104.00 132.61 L 104.18 133.37" fill="none" group-id="1,19,51,128" id="路径_3366" node-id="129" stroke="#e4eaed" stroke-linecap="butt" stroke-width="1" target-height="2.8510742" target-width="2.2441406" target-x="101.93506" target-y="130.51782"></path><path d="M 105.43 128.70 L 105.71 129.64 L 106.07 131.54 L 106.04 132.46 L 105.78 132.99" fill="none" group-id="1,19,51,129" id="路径_3367" node-id="130" stroke="#e4eaed" stroke-linecap="butt" stroke-width="1" target-height="4.284912" target-width="0.6357422" target-x="105.43115" target-y="128.70215"></path><path d="M 109.53 128.84 L 109.52 129.76 L 109.25 131.61 L 108.89 132.48 L 108.38 132.99" fill="none" group-id="1,19,51,130" id="路径_3368" node-id="131" stroke="#e4eaed" stroke-linecap="butt" stroke-width="1" target-height="4.1501465" target-width="1.15625" target-x="108.375" target-y="128.83691"></path><path d="M 112.96 130.25 L 112.76 130.96 L 111.98 132.34 L 111.30 132.92 L 110.35 133.26" fill="none" group-id="1,19,51,131" id="路径_3369" node-id="132" stroke="#e4eaed" stroke-linecap="butt" stroke-width="1" target-height="3.00708" target-width="2.612793" target-x="110.34619" target-y="130.24902"></path><path d="M 102.49 86.48 L 101.85 86.39 L 100.73 85.87 L 100.35 85.36 L 100.27 84.53 L 100.54 83.71 L 100.97 83.23 L 102.10 82.77 L 103.03 82.72 L 103.07 82.18 L 103.35 81.12 L 103.65 80.65 L 104.10 80.36 L 105.36 80.41 L 106.52 80.90 L 106.80 80.45 L 107.52 79.65 L 107.99 79.36 L 108.47 79.29 L 109.48 79.80 L 110.29 80.61 L 110.62 81.04 L 111.30 80.46 L 112.00 80.16 L 112.84 80.23 L 113.52 80.78 L 113.88 81.52 L 114.05 82.45 L 114.57 82.50 L 115.61 82.87 L 116.08 83.26 L 116.40 83.86 L 116.52 84.78 L 116.19 85.65 L 115.49 86.26 L 114.59 86.48 L 114.27 87.34 L 113.74 88.07 L 112.67 88.92 L 111.23 89.50 L 108.81 89.78 L 106.36 89.50 L 104.81 88.92 L 103.59 88.07 L 102.95 87.34 L 102.49 86.48 Z" fill="#ffffff" fill-rule="nonzero" group-id="1,19,52,132" id="路径_3370" node-id="134" stroke="#e4eaed" stroke-linecap="butt" stroke-width="1" target-height="10.488037" target-width="16.24707" target-x="100.27002" target-y="79.28882"></path><path d="M 102.49 86.48 L 104.47 85.77 L 106.48 85.35 L 108.54 85.20 L 110.60 85.34 L 112.61 85.77 L 114.59 86.48" fill="none" group-id="1,19,52,133" id="路径_3371" node-id="135" stroke="#e4eaed" stroke-linecap="butt" stroke-width="1" target-height="1.2775879" target-width="12.100098" target-x="102.48828" target-y="85.20361"></path><path d="M 103.02 82.72 L 103.60 83.10 L 104.67 84.12 L 105.09 84.81 L 105.27 85.57" fill="none" group-id="1,19,52,134" id="路径_3372" node-id="136" stroke="#e4eaed" stroke-linecap="butt" stroke-width="1" target-height="2.8500977" target-width="2.243164" target-x="103.0249" target-y="82.71704"></path><path d="M 106.52 80.90 L 106.80 81.84 L 107.16 83.74 L 107.13 84.66 L 106.87 85.19" fill="none" group-id="1,19,52,135" id="路径_3373" node-id="137" stroke="#e4eaed" stroke-linecap="butt" stroke-width="1" target-height="4.284912" target-width="0.6357422" target-x="106.520996" target-y="80.9021"></path><path d="M 110.62 81.04 L 110.61 81.96 L 110.34 83.81 L 109.98 84.67 L 109.47 85.19" fill="none" group-id="1,19,52,136" id="路径_3374" node-id="138" stroke="#e4eaed" stroke-linecap="butt" stroke-width="1" target-height="4.150879" target-width="1.1557617" target-x="109.46533" target-y="81.03613"></path><path d="M 114.05 82.45 L 113.85 83.16 L 113.07 84.54 L 112.40 85.12 L 111.44 85.45" fill="none" group-id="1,19,52,137" id="路径_3375" node-id="139" stroke="#e4eaed" stroke-linecap="butt" stroke-width="1" target-height="3.006836" target-width="2.6142578" target-x="111.43701" target-y="82.448"></path><path d="M 117.48 110.69 L 116.84 110.61 L 115.71 110.09 L 115.34 109.57 L 115.26 108.74 L 115.53 107.92 L 115.96 107.44 L 117.09 106.98 L 118.01 106.93 L 118.05 106.39 L 118.33 105.33 L 118.64 104.86 L 119.09 104.57 L 120.35 104.62 L 121.51 105.11 L 121.79 104.66 L 122.51 103.86 L 122.97 103.57 L 123.46 103.50 L 124.46 104.01 L 125.28 104.82 L 125.61 105.25 L 126.29 104.67 L 126.99 104.37 L 127.83 104.44 L 128.51 104.99 L 128.86 105.73 L 129.04 106.66 L 129.56 106.71 L 130.60 107.08 L 131.07 107.47 L 131.39 108.07 L 131.51 108.99 L 131.18 109.86 L 130.48 110.47 L 129.58 110.69 L 129.26 111.55 L 128.73 112.28 L 127.66 113.13 L 126.21 113.71 L 123.80 113.99 L 121.35 113.71 L 119.80 113.13 L 118.58 112.28 L 117.94 111.55 L 117.48 110.69 Z" fill="#ffffff" fill-rule="nonzero" group-id="1,19,53,138" id="路径_3376" node-id="141" stroke="#e4eaed" stroke-linecap="butt" stroke-width="1" target-height="10.487061" target-width="16.24707" target-x="115.25879" target-y="103.5"></path><path d="M 117.48 110.70 L 119.46 109.98 L 121.47 109.56 L 123.53 109.42 L 125.58 109.56 L 127.60 109.98 L 129.58 110.70" fill="none" group-id="1,19,53,139" id="路径_3377" node-id="142" stroke="#e4eaed" stroke-linecap="butt" stroke-width="1" target-height="1.2775879" target-width="12.099609" target-x="117.47705" target-y="109.41748"></path><path d="M 118.01 106.93 L 118.59 107.31 L 119.66 108.33 L 120.08 109.02 L 120.26 109.78" fill="none" group-id="1,19,53,140" id="路径_3378" node-id="143" stroke="#e4eaed" stroke-linecap="butt" stroke-width="1" target-height="2.8498535" target-width="2.2441406" target-x="118.01367" target-y="106.92798"></path><path d="M 121.51 105.11 L 121.79 106.06 L 122.15 107.95 L 122.11 108.87 L 121.85 109.40" fill="none" group-id="1,19,53,141" id="路径_3379" node-id="144" stroke="#e4eaed" stroke-linecap="butt" stroke-width="1" target-height="4.284912" target-width="0.6357422" target-x="121.509766" target-y="105.11304"></path><path d="M 125.61 105.25 L 125.60 106.17 L 125.33 108.02 L 124.97 108.89 L 124.45 109.40" fill="none" group-id="1,19,53,142" id="路径_3380" node-id="145" stroke="#e4eaed" stroke-linecap="butt" stroke-width="1" target-height="4.151123" target-width="1.15625" target-x="124.45459" target-y="105.24585"></path><path d="M 129.04 106.66 L 128.84 107.37 L 128.06 108.75 L 127.38 109.33 L 126.43 109.67" fill="none" group-id="1,19,53,143" id="路径_3381" node-id="146" stroke="#e4eaed" stroke-linecap="butt" stroke-width="1" target-height="3.006836" target-width="2.6137695" target-x="126.42578" target-y="106.658936"></path><path d="M 56.55 96.43 L 56.29 98.34 L 55.57 100.03 L 54.46 101.47 L 53.02 102.58 L 51.33 103.30 L 49.42 103.56 L 47.51 103.30 L 45.82 102.58 L 44.38 101.47 L 43.27 100.03 L 42.55 98.34 L 42.29 96.43 L 42.55 94.52 L 43.27 92.83 L 44.38 91.39 L 45.82 90.28 L 47.51 89.56 L 49.42 89.31 L 51.33 89.56 L 53.02 90.28 L 54.46 91.39 L 55.57 92.83 L 56.29 94.52 L 56.55 96.43 Z" fill="#f8fdff" fill-rule="nonzero" group-id="1,19,54" id="椭圆_241" node-id="147" stroke="#dfe5e8" stroke-linecap="butt" stroke-width="1" target-height="14.251999" target-width="14.251999" target-x="42.293" target-y="89.305"></path><path d="M 53.78 96.43 L 53.61 97.61 L 53.19 98.63 L 52.50 99.51 L 51.62 100.20 L 50.60 100.62 L 49.42 100.79 L 48.24 100.62 L 47.22 100.20 L 46.34 99.51 L 45.65 98.63 L 45.23 97.61 L 45.06 96.43 L 45.23 95.25 L 45.65 94.23 L 46.34 93.35 L 47.22 92.66 L 48.24 92.24 L 49.42 92.07 L 50.60 92.24 L 51.62 92.66 L 52.50 93.35 L 53.19 94.23 L 53.61 95.25 L 53.78 96.43 Z" fill="#261919" fill-rule="nonzero" group-id="1,19,55" id="椭圆_242" node-id="148" stroke="none" target-height="8.713997" target-width="8.714001" target-x="45.062" target-y="92.074"></path><path d="M 56.55 123.13 L 56.29 125.03 L 55.57 126.72 L 54.46 128.16 L 53.02 129.28 L 51.33 129.99 L 49.42 130.25 L 47.51 129.99 L 45.82 129.28 L 44.38 128.16 L 43.27 126.72 L 42.55 125.03 L 42.29 123.13 L 42.55 121.22 L 43.27 119.53 L 44.38 118.09 L 45.82 116.97 L 47.51 116.26 L 49.42 116.00 L 51.33 116.26 L 53.02 116.97 L 54.46 118.09 L 55.57 119.53 L 56.29 121.22 L 56.55 123.13 Z" fill="#f8fdff" fill-rule="nonzero" group-id="1,19,56" id="椭圆_243" node-id="149" stroke="#dfe5e8" stroke-linecap="butt" stroke-width="1" target-height="14.251999" target-width="14.251999" target-x="42.293" target-y="116"></path><path d="M 53.78 123.13 L 53.61 124.31 L 53.19 125.32 L 52.50 126.21 L 51.62 126.89 L 50.60 127.32 L 49.42 127.48 L 48.24 127.32 L 47.22 126.89 L 46.34 126.21 L 45.65 125.32 L 45.23 124.31 L 45.06 123.13 L 45.23 121.94 L 45.65 120.93 L 46.34 120.05 L 47.22 119.36 L 48.24 118.94 L 49.42 118.77 L 50.60 118.94 L 51.62 119.36 L 52.50 120.05 L 53.19 120.93 L 53.61 121.94 L 53.78 123.13 Z" fill="#671919" fill-rule="nonzero" group-id="1,19,57" id="椭圆_244" node-id="150" stroke="none" target-height="8.713997" target-width="8.714001" target-x="45.062" target-y="118.769"></path><text align="center" editable="true" ellipsis="false" fill="#261919" flags="1" font-family="'Noto Sans CJK SC'" font-size="8" font-stretch="normal" font-style="normal" font-weight="400" group-id="1" height="11.84" id="冬至_" letter-spacing="0" node-id="151" stroke="none" target-x="48.488" target-y="41.039" vertical-align="center" width="24" x="48.488" xml:space="preserve" y="50.319">冬至。</text><path d="M 46.72 40.08 L 44.56 40.08 L 44.56 40.08 L 43.81 40.08 L 43.81 43.00 L 44.56 43.00 L 44.56 40.83 L 46.72 40.83 Z" fill="#261919" fill-rule="nonzero" group-id="1,20" id="路径_3382" node-id="154" stroke="none" target-height="2.9169922" target-width="2.9179688" target-x="43.806885" target-y="40.083008"></path><path d="M 145.60 91.03 L 145.60 91.89 L 152.05 92.29 L 158.49 92.18 L 164.92 91.55 L 164.92 91.03 Z" fill="#593d2b" fill-rule="nonzero" group-id="1,21,58" id="路径_3383" node-id="156" stroke="none" target-height="1.2661133" target-width="19.325684" target-x="145.59619" target-y="91.028076"></path><path d="M 146.47 85.60 L 149.94 85.71 L 154.78 85.80 L 159.75 85.76 L 163.59 85.52 L 164.08 85.56 L 164.50 85.79 L 164.79 86.18 L 164.90 86.66 L 164.90 91.03 L 163.22 91.15 L 159.10 91.40 L 153.88 91.58 L 148.93 91.52 L 146.83 91.32 L 145.59 91.03 L 145.52 86.53 L 145.80 85.86 L 146.47 85.60 Z" fill="#724f37" fill-rule="nonzero" group-id="1,21,59" id="路径_3384" node-id="157" stroke="none" target-height="6.0625" target-width="19.37207" target-x="145.52295" target-y="85.51709"></path><path d="M 151.93 82.09 L 148.98 145.35 L 149.13 145.63 L 149.59 145.77 L 151.79 145.79 L 152.25 145.66 L 152.42 145.39 L 153.85 82.13 L 153.74 81.93 L 153.41 81.82 L 152.42 81.80 L 152.07 81.89 L 151.93 82.09 Z" fill="url(#linear-gradient)" fill-rule="nonzero" group-id="1,22" id="路径_3385" node-id="158" stroke="none" target-height="63.991943" target-width="4.8740234" target-x="148.98096" target-y="81.798096"></path><path d="M 156.23 82.10 L 156.30 145.39 L 156.46 145.66 L 156.93 145.79 L 159.12 145.77 L 159.58 145.63 L 159.73 145.36 L 158.16 82.10 L 158.03 81.90 L 157.69 81.80 L 156.71 81.79 L 156.36 81.89 L 156.23 82.10 Z" fill="url(#linear-gradient-2)" fill-rule="nonzero" group-id="1,23" id="路径_3386" node-id="159" stroke="none" target-height="63.998047" target-width="3.5009766" target-x="156.23389" target-y="81.793945"></path></g></g></svg>