<?xml version="1.0" standalone="no"?><!DOCTYPE svg PUBLIC "-//W3C//DTD SVG 1.1//EN" "http://www.w3.org/Graphics/SVG/1.1/DTD/svg11.dtd"><svg height="200" node-id="1" sillyvg="true" template-height="200" template-width="200" version="1.1" viewBox="0 0 200 200" width="200" xmlns="http://www.w3.org/2000/svg" xmlns:xlink="http://www.w3.org/1999/xlink"><defs node-id="51"><linearGradient gradientUnits="objectBoundingBox" id="linear-gradient" node-id="5" spreadMethod="pad" x1="0.49999997" x2="0.49999997" y1="1.0729998" y2="-0.07299999"><stop offset="0" stop-color="#f3fdff"></stop><stop offset="1" stop-color="#77c7c7"></stop></linearGradient><linearGradient gradientUnits="objectBoundingBox" id="linear-gradient-2" node-id="8" spreadMethod="pad" x1="0" x2="1" y1="0.5" y2="0.5"><stop offset="0" stop-color="#24784f"></stop><stop offset="1" stop-color="#155545"></stop></linearGradient><linearGradient gradientUnits="objectBoundingBox" id="linear-gradient-3" node-id="11" spreadMethod="pad" x1="0" x2="1" y1="0.5" y2="0.5"><stop offset="0" stop-color="#9edaa0"></stop><stop offset="1" stop-color="#77c7c7"></stop></linearGradient><linearGradient gradientUnits="objectBoundingBox" id="linear-gradient-4" node-id="14" spreadMethod="pad" x1="11.033" x2="11.033" y1="1" y2="0"><stop offset="0" stop-color="#24784f"></stop><stop offset="1" stop-color="#155545"></stop></linearGradient><linearGradient gradientUnits="objectBoundingBox" id="linear-gradient-7" node-id="15" spreadMethod="pad" x1="0.5" x2="0.5" y1="1" y2="0"><stop offset="0" stop-color="#24784f"></stop><stop offset="1" stop-color="#155545"></stop></linearGradient><clipPath id="clip-path" node-id="3"><path d="M 200.00 100.00 L 199.77 106.67 L 199.14 113.15 L 198.11 119.45 L 196.70 125.60 L 194.90 131.61 L 192.11 138.97 L 188.82 145.99 L 185.02 152.68 L 180.71 159.06 L 175.91 165.10 L 170.71 170.71 L 165.10 175.91 L 159.06 180.71 L 152.68 185.02 L 145.99 188.82 L 138.97 192.11 L 131.61 194.90 L 125.60 196.70 L 119.45 198.11 L 113.15 199.14 L 106.67 199.77 L 100.00 200.00 L 93.33 199.77 L 86.85 199.14 L 80.55 198.11 L 74.40 196.70 L 68.39 194.90 L 61.03 192.11 L 54.01 188.82 L 47.32 185.02 L 40.94 180.71 L 34.90 175.91 L 29.29 170.71 L 24.09 165.10 L 19.29 159.06 L 14.98 152.68 L 11.18 145.99 L 7.89 138.97 L 5.10 131.61 L 3.30 125.60 L 1.89 119.45 L 0.86 113.15 L 0.23 106.67 L 0.00 100.00 L 0.23 93.33 L 0.86 86.85 L 1.89 80.55 L 3.30 74.40 L 5.10 68.39 L 7.89 61.03 L 11.18 54.01 L 14.98 47.32 L 19.29 40.94 L 24.09 34.90 L 29.29 29.29 L 34.90 24.09 L 40.94 19.29 L 47.32 14.98 L 54.01 11.18 L 61.03 7.89 L 68.39 5.10 L 74.40 3.30 L 80.55 1.89 L 86.85 0.86 L 93.33 0.23 L 100.00 0.00 L 106.67 0.23 L 113.15 0.86 L 119.45 1.89 L 125.60 3.30 L 131.61 5.10 L 138.97 7.89 L 145.99 11.18 L 152.68 14.98 L 159.06 19.29 L 165.10 24.09 L 170.71 29.29 L 175.91 34.90 L 180.71 40.94 L 185.02 47.32 L 188.82 54.01 L 192.11 61.03 L 194.90 68.39 L 196.70 74.40 L 198.11 80.55 L 199.14 86.85 L 199.77 93.33 L 200.00 100.00 Z" fill="#000000" fill-rule="nonzero" id="椭圆_103" node-id="4" stroke="none" target-height="200" target-width="200" target-x="0" target-y="0"></path></clipPath></defs><g node-id="82"><g clip-path="url(#clip-path)" group-id="1" id="组_223" node-id="17"><path d="M 18.48 -30.96 L 221.58 3.95 L 184.60 219.07 L -18.50 184.15 Z" fill="url(#linear-gradient)" fill-rule="nonzero" group-id="1,2" id="矩形_75" node-id="18" stroke="none" target-height="250.0301" target-width="240.07826" target-x="-18.502272" target-y="-30.962"></path><path d="M 97.73 96.37 L 97.86 97.47 L 98.17 98.30 L 98.67 98.90 L 99.23 99.09 L 99.79 98.90 L 100.29 98.30 L 100.61 97.47 L 100.73 96.37 L 100.61 95.28 L 100.29 94.45 L 99.79 93.85 L 99.23 93.65 L 98.68 93.85 L 98.17 94.45 L 97.86 95.28 L 97.73 96.37 Z M 90.03 103.48 L 90.03 110.63 L 98.18 110.63 L 98.18 107.59 L 98.33 107.21 L 98.71 107.06 L 99.76 107.06 L 100.14 107.21 L 100.29 107.59 L 100.29 110.63 L 108.45 110.63 L 108.45 103.48 Z M 88.44 111.10 L 88.44 118.25 L 98.18 118.25 L 98.18 115.20 L 98.33 114.83 L 98.71 114.67 L 99.76 114.67 L 100.14 114.83 L 100.29 115.20 L 100.29 118.25 L 110.04 118.25 L 110.04 111.09 Z M 86.74 118.71 L 86.74 125.86 L 98.18 125.86 L 98.18 122.82 L 98.33 122.44 L 98.71 122.29 L 99.76 122.29 L 100.14 122.44 L 100.29 122.82 L 100.29 125.86 L 111.74 125.86 L 111.74 118.71 Z M 85.20 126.33 L 85.20 133.48 L 98.18 133.48 L 98.18 130.44 L 98.33 130.06 L 98.71 129.91 L 99.76 129.91 L 100.14 130.06 L 100.29 130.44 L 100.29 133.48 L 113.27 133.48 L 113.27 126.33 Z M 83.78 133.95 L 83.78 141.10 L 98.18 141.10 L 98.18 138.05 L 98.33 137.68 L 98.71 137.52 L 99.76 137.52 L 100.14 137.68 L 100.29 138.05 L 100.29 141.10 L 114.69 141.10 L 114.69 133.95 Z M 82.07 141.56 L 82.07 148.71 L 98.18 148.71 L 98.18 145.67 L 98.33 145.29 L 98.71 145.14 L 99.76 145.14 L 100.14 145.29 L 100.29 145.67 L 100.29 148.71 L 116.40 148.71 L 116.40 141.56 Z" fill="url(#linear-gradient-2)" fill-opacity="0.64" fill-rule="nonzero" group-id="1,3" id="路径_2979" node-id="19" stroke="none" target-height="55.059967" target-width="34.331055" target-x="82.06995" target-y="93.651"></path><path d="M 0.00 142.78 L 207.23 142.78 L 207.23 205.41 L 0.00 205.41 Z" fill="url(#linear-gradient-3)" fill-rule="nonzero" group-id="1,4" id="矩形_76" node-id="20" stroke="none" target-height="62.62201" target-width="207.228" target-x="0" target-y="142.784"></path><path d="M 158.90 107.53 L 158.04 107.33 L 157.23 107.36 L 156.31 107.75 L 155.57 108.56 L 154.99 110.31 L 154.31 110.44 L 153.78 110.72 L 153.34 111.28 L 153.24 112.05 L 153.69 113.48 L 154.34 114.38 L 155.09 114.96 L 155.97 115.28 L 157.39 115.45 L 158.61 115.35 L 159.87 115.07 L 160.88 115.81 L 161.96 116.32 L 163.43 116.62 L 164.44 116.58 L 165.54 116.21 L 166.78 115.45 L 168.04 115.28 L 169.19 114.96 L 170.36 114.34 L 170.99 113.77 L 171.39 113.00 L 171.55 111.97 L 171.20 110.62 L 170.57 110.04 L 169.71 109.84 L 168.88 109.92 L 167.97 110.20 L 168.02 109.46 L 167.75 107.99 L 167.33 107.34 L 166.59 106.91 L 165.62 106.84 L 163.95 107.32 L 163.46 106.44 L 162.73 105.79 L 161.84 105.43 L 160.83 105.38 L 159.75 105.62 L 159.22 106.01 L 158.92 106.54 L 158.85 107.01 L 158.90 107.53 Z" fill="#ffffff" fill-opacity="0.6" fill-rule="nonzero" group-id="1,5" id="路径_2980" node-id="21" stroke="none" target-height="11.248352" target-width="18.309082" target-x="153.23682" target-y="105.37598"></path><path d="M 81.69 143.48 L 80.70 141.02 L 77.96 134.92 L 76.07 131.19 L 73.78 127.14 L 71.24 123.20 L 68.50 119.61 L 66.48 117.41 L 64.47 115.65 L 62.45 114.28 L 60.27 113.31 L 58.12 112.93 L 55.94 113.10 L 52.24 114.28 L 49.53 115.68 L 47.22 117.39 L 45.50 119.07 L 42.83 122.26 L 41.64 123.52 L 40.49 124.27 L 39.67 124.51 L 38.67 124.48 L 37.44 124.11 L 36.66 123.52 L 35.65 122.19 L 34.32 119.74 L 32.56 115.75 L 30.45 110.30 L 26.04 97.87 L 21.28 84.56 L 18.78 78.11 L 16.37 72.46 L 13.81 67.30 L 11.53 63.67 L 9.77 61.64 L 8.27 60.61 L 6.94 60.27 L 5.30 60.55 L 3.46 61.39 L 1.35 62.93 L -1.56 65.86 L -4.79 70.03 L -7.83 74.70 L -10.91 80.18 L -13.76 85.96 L -16.41 92.05 L -18.78 98.25 L -20.74 104.27 L -22.31 110.22 L -23.31 115.48 L -24.40 125.20 L -24.65 131.86 L -24.40 137.60 L -23.98 140.78 L -23.31 143.48 Z" fill="url(#linear-gradient-4)" fill-rule="nonzero" group-id="1,6" id="路径_2981" node-id="22" stroke="none" target-height="83.215" target-width="106.333374" target-x="-24.646362" target-y="60.268982"></path><path d="M 50.50 144.50 L 125.00 144.50 L 123.01 142.46 L 117.72 137.37 L 110.14 130.75 L 105.82 127.35 L 101.29 124.13 L 96.62 121.26 L 92.17 119.04 L 89.13 117.90 L 86.36 117.24 L 83.82 117.00 L 80.81 117.25 L 77.89 117.93 L 75.02 119.04 L 70.94 121.28 L 67.08 124.13 L 63.52 127.36 L 60.33 130.75 L 57.43 134.24 L 55.09 137.37 L 51.70 142.46 L 50.50 144.50 Z" fill="none" group-id="1,7" id="路径_2982" node-id="23" stroke="none" target-height="27.5" target-width="74.5" target-x="50.499023" target-y="117"></path><path d="M 81.50 141.88 L 82.23 140.32 L 83.10 138.80 L 84.47 136.85 L 86.16 135.00 L 88.30 133.29 L 89.91 132.40 L 91.73 131.78 L 93.79 131.44 L 95.86 131.49 L 98.24 132.02 L 101.00 133.12 L 103.28 134.02 L 104.95 134.28 L 106.19 134.09 L 107.31 133.50 L 108.24 132.60 L 109.02 131.31 L 109.88 129.10 L 110.62 126.44 L 112.15 121.11 L 113.26 118.74 L 114.73 116.96 L 115.95 116.14 L 117.50 115.68 L 119.50 115.62 L 121.88 116.19 L 124.01 117.25 L 125.94 118.84 L 127.61 120.75 L 129.12 122.93 L 130.44 125.41 L 132.08 129.26 L 133.30 133.00 L 134.81 139.27 L 135.25 141.88 Z" fill="none" group-id="1,8" id="路径_2984" node-id="27" stroke="none" target-height="26.25" target-width="53.75" target-x="81.4989" target-y="115.625"></path><path d="M 102.85 147.25 L 104.25 145.29 L 108.10 140.67 L 110.71 138.01 L 113.81 135.32 L 117.20 132.95 L 120.83 131.12 L 123.38 130.30 L 125.96 129.93 L 128.60 130.00 L 133.19 130.90 L 136.20 131.93 L 138.74 133.21 L 140.47 134.34 L 142.04 135.42 L 143.43 136.15 L 144.95 136.48 L 147.10 136.25 L 148.06 135.79 L 149.27 134.80 L 150.82 133.04 L 152.96 130.09 L 155.51 126.19 L 160.85 117.56 L 163.69 113.14 L 166.52 109.06 L 169.49 105.34 L 172.21 102.58 L 174.19 101.10 L 175.96 100.29 L 177.60 100.00 L 179.63 100.24 L 181.87 100.93 L 184.39 102.14 L 188.00 104.50 L 191.81 107.68 L 195.42 111.29 L 198.86 115.29 L 201.96 119.50 L 204.53 123.62 L 206.61 127.78 L 207.85 131.35 L 208.93 136.89 L 209.18 140.65 L 208.94 143.91 L 208.51 145.72 L 207.85 147.25 Z" fill="url(#linear-gradient-7)" fill-rule="nonzero" group-id="1,9" id="路径_2985" node-id="28" stroke="none" target-height="47.25299" target-width="106.33313" target-x="102.84802" target-y="100"></path><text align="center" editable="true" ellipsis="false" fill="#155545" flags="1" font-family="'Noto Sans CJK SC'" font-size="9" font-stretch="normal" font-style="normal" font-weight="400" group-id="1" height="13.32" id="处暑_" letter-spacing="0" node-id="29" stroke="none" target-x="48.351" target-y="45.679" vertical-align="center" width="27" x="48.351" xml:space="preserve" y="56.119">处暑。</text><path d="M 44.85 45.58 L 42.68 45.58 L 42.68 45.58 L 41.93 45.58 L 41.93 48.50 L 42.68 48.50 L 42.68 46.34 L 44.85 46.34 Z" fill="#155545" fill-rule="nonzero" group-id="1,10" id="路径_2986" node-id="32" stroke="none" target-height="2.9169922" target-width="2.9179688" target-x="41.93103" target-y="45.584015"></path><path d="M 22.77 146.53 L 52.61 146.53 L 51.48 144.54 L 50.19 142.61 L 48.22 140.16 L 45.89 137.84 L 43.04 135.78 L 40.94 134.72 L 38.65 134.06 L 36.14 133.78 L 33.64 134.07 L 31.53 134.74 L 29.72 135.78 L 27.37 137.84 L 25.60 140.16 L 24.24 142.61 L 23.41 144.54 L 22.77 146.53 Z" fill="none" group-id="1,11" id="路径_2987" node-id="33" stroke="none" target-height="12.748047" target-width="29.848999" target-x="22.765015" target-y="133.78497"></path><path d="M 37.24 151.41 L 73.24 151.41 L 72.36 149.81 L 69.81 146.00 L 67.99 143.77 L 65.71 141.44 L 63.13 139.36 L 60.18 137.63 L 58.07 136.78 L 55.81 136.24 L 53.36 136.03 L 50.94 136.25 L 48.81 136.79 L 46.94 137.63 L 44.41 139.37 L 42.34 141.44 L 40.63 143.76 L 39.35 146.00 L 37.73 149.81 L 37.24 151.41 Z" fill="none" group-id="1,12" id="路径_2988" node-id="34" stroke="none" target-height="15.374023" target-width="36" target-x="37.23889" target-y="136.03302"></path><path d="M 51.60 154.00 L 50.35 152.80 L 48.92 151.72 L 46.66 150.41 L 44.04 149.36 L 40.63 148.62 L 38.24 148.46 L 35.50 148.65 L 32.35 149.25 L 30.30 149.55 L 28.72 149.40 L 27.49 148.89 L 26.43 148.04 L 25.52 146.92 L 24.76 145.47 L 23.88 143.09 L 23.13 140.34 L 21.61 134.86 L 20.55 132.37 L 19.18 130.38 L 18.03 129.35 L 16.61 128.64 L 14.85 128.25 L 12.69 128.32 L 11.10 128.79 L 9.94 129.60 L 9.02 130.73 L 8.31 132.10 L 7.82 133.75 L 7.38 136.36 L 7.13 139.09 L 6.88 141.76 L 6.50 143.96 L 6.05 145.28 L 5.42 146.18 L 4.60 146.75 L 2.29 148.01 L 0.50 149.52 L -0.96 151.21 L -1.88 152.56 L -2.65 154.00 Z" fill="none" group-id="1,13" id="路径_2989" node-id="35" stroke="none" target-height="25.75" target-width="54.25" target-x="-2.6519775" target-y="128.24997"></path><path d="M 131.90 43.15 L 131.04 42.95 L 130.23 42.98 L 129.31 43.37 L 128.57 44.18 L 127.99 45.93 L 127.31 46.06 L 126.78 46.34 L 126.34 46.89 L 126.24 47.67 L 126.69 49.10 L 127.34 50.00 L 128.09 50.58 L 128.97 50.90 L 130.39 51.07 L 131.61 50.97 L 132.87 50.69 L 133.88 51.43 L 134.96 51.94 L 136.43 52.24 L 137.44 52.20 L 138.54 51.83 L 139.78 51.07 L 141.04 50.90 L 142.19 50.58 L 143.36 49.96 L 143.99 49.39 L 144.39 48.62 L 144.55 47.59 L 144.20 46.24 L 143.57 45.66 L 142.71 45.46 L 141.88 45.54 L 140.97 45.82 L 141.02 45.08 L 140.75 43.62 L 140.33 42.96 L 139.59 42.53 L 138.62 42.46 L 136.95 42.94 L 136.46 42.06 L 135.73 41.42 L 134.84 41.05 L 133.83 41.00 L 132.75 41.24 L 132.22 41.63 L 131.92 42.16 L 131.85 42.63 L 131.90 43.15 Z" fill="#ffffff" fill-opacity="0.3" fill-rule="nonzero" group-id="1,14" id="路径_2990" node-id="36" stroke="none" target-height="11.247101" target-width="18.309082" target-x="126.23682" target-y="40.996994"></path><path d="M 21.19 78.12 L 20.44 77.90 L 19.68 77.81 L 18.69 77.88 L 17.73 78.22 L 16.76 79.00 L 16.03 80.17 L 15.44 82.21 L 14.83 82.29 L 13.64 82.82 L 13.16 83.36 L 12.88 84.21 L 12.94 85.24 L 13.53 86.87 L 14.59 88.31 L 15.90 89.17 L 17.40 89.63 L 18.91 89.76 L 21.51 89.49 L 22.61 89.21 L 23.47 89.89 L 24.41 90.46 L 25.76 91.06 L 27.26 91.43 L 29.01 91.45 L 30.78 90.98 L 32.78 89.76 L 33.89 89.64 L 36.34 89.03 L 37.64 88.41 L 38.75 87.51 L 39.51 86.31 L 39.78 84.66 L 39.47 83.06 L 38.89 82.20 L 38.04 81.69 L 37.09 81.53 L 35.32 81.77 L 34.53 82.04 L 34.59 80.96 L 34.51 79.94 L 34.19 78.81 L 33.57 77.85 L 32.49 77.21 L 31.62 77.08 L 30.38 77.23 L 28.61 77.81 L 27.89 76.52 L 26.82 75.58 L 25.51 75.03 L 24.03 74.96 L 22.44 75.32 L 21.66 75.89 L 21.23 76.66 L 21.11 77.36 L 21.19 78.12 Z" fill="#ffffff" fill-opacity="0.8" fill-rule="nonzero" group-id="1,15" id="路径_2991" node-id="37" stroke="none" target-height="16.492676" target-width="26.899658" target-x="12.877441" target-y="74.958984"></path><path d="M 111.81 169.10 L 112.07 168.36 L 112.73 166.98 L 113.19 166.44 L 113.62 166.26 L 114.00 166.46 L 114.26 167.02 L 114.44 168.42 L 114.44 169.17 Z" fill="#ddefd3" fill-rule="nonzero" group-id="1,16,18" id="路径_2992" node-id="39" stroke="none" target-height="2.9110107" target-width="2.6311035" target-x="111.81299" target-y="166.258"></path><path d="M 127.49 168.75 L 127.49 167.88 L 127.36 167.09 L 127.02 166.26 L 126.43 165.64 L 125.40 165.35 L 122.53 165.46 L 118.60 165.77 L 115.12 166.10 L 113.62 166.25 L 114.44 169.16 Z" fill="#ebffe1" fill-rule="nonzero" group-id="1,16,19" id="路径_2993" node-id="40" stroke="none" target-height="3.8109741" target-width="13.86499" target-x="113.62402" target-y="165.35004"></path><path d="M 100.00 167.26 L 101.42 168.09 L 102.93 168.62 L 104.56 168.86 L 108.32 168.89 L 115.28 168.92 L 123.35 168.85 L 130.42 168.60 L 133.19 168.33 L 134.40 168.06 L 133.52 169.47 L 132.46 170.71 L 130.79 172.08 L 129.50 172.79 L 127.94 173.27 L 126.06 173.48 L 120.75 173.42 L 114.71 173.29 L 109.76 173.16 L 107.70 173.10 L 106.03 172.38 L 104.46 171.56 L 102.65 170.37 L 101.06 168.92 L 100.00 167.26 Z" fill="#647770" fill-rule="nonzero" group-id="1,16,20" id="路径_2994" node-id="41" stroke="none" target-height="6.223999" target-width="34.401978" target-x="100" target-y="167.26001"></path><path d="M 127.28 159.76 L 128.66 158.38 L 129.33 158.38 L 129.33 169.57 L 128.30 169.57 L 128.30 160.02 Z" fill="#647770" fill-rule="nonzero" group-id="1,16,21" id="路径_2995" node-id="42" stroke="none" target-height="11.186951" target-width="2.0540771" target-x="127.27698" target-y="158.383"></path><path d="M 108.15 165.82 L 110.85 165.82 L 110.85 166.35 L 108.15 166.35 Z" fill="#647770" fill-rule="nonzero" group-id="1,16,22" id="矩形_77" node-id="43" stroke="none" target-height="0.5299988" target-width="2.6959991" target-x="108.151" target-y="165.819"></path><path d="M 108.92 166.35 L 109.98 166.35 L 109.98 167.41 L 108.92 167.41 Z" fill="#647770" fill-rule="nonzero" group-id="1,16,23" id="矩形_78" node-id="44" stroke="none" target-height="1.0559998" target-width="1.0559998" target-x="108.921" target-y="166.349"></path><path d="M 108.02 167.41 L 110.99 167.41 L 110.99 168.92 L 108.02 168.92 Z" fill="#647770" fill-rule="nonzero" group-id="1,16,24" id="矩形_79" node-id="45" stroke="none" target-height="1.5110016" target-width="2.9680023" target-x="108.023" target-y="167.405"></path><path d="M 163.29 69.07 L 162.60 69.60 L 161.32 70.84 L 160.80 71.59 L 160.60 72.25 L 159.47 72.64 L 160.89 72.98 L 161.45 73.34 L 162.10 73.45 L 163.29 73.18 L 166.07 73.23 L 166.07 72.55 L 163.19 72.55 L 162.82 71.69 L 162.71 70.80 L 162.87 69.91 L 163.29 69.07 Z" fill="#150a0f" fill-rule="nonzero" group-id="1,17,25" id="路径_2996" node-id="47" stroke="none" target-height="4.371704" target-width="6.596924" target-x="159.47302" target-y="69.074005"></path><path d="M 145.64 70.83 L 146.97 70.10 L 148.38 69.70 L 149.90 69.61 L 151.44 70.02 L 152.52 70.56 L 153.71 71.26 L 153.71 71.57 L 152.88 71.31 L 151.10 70.98 L 150.17 71.01 L 149.46 71.26 L 148.24 72.02 L 147.96 71.94 L 147.60 71.26 L 147.13 70.97 L 146.46 70.84 L 145.64 70.83 Z" fill="#150a0f" fill-rule="nonzero" group-id="1,17,26" id="路径_2997" node-id="48" stroke="none" target-height="2.403656" target-width="8.064087" target-x="145.64294" target-y="69.612"></path><path d="M 141.88 72.02 L 137.68 72.02 L 138.27 70.30 L 137.26 70.69 L 135.39 71.56 L 134.60 72.09 L 134.36 72.45 L 138.02 72.75 L 141.69 72.45" fill="#150a0f" fill-rule="nonzero" group-id="1,17,27" id="路径_2998" node-id="49" stroke="none" target-height="2.453888" target-width="7.5230713" target-x="134.35791" target-y="70.29599"></path></g></g></svg>