<?xml version="1.0" standalone="no"?><!DOCTYPE svg PUBLIC "-//W3C//DTD SVG 1.1//EN" "http://www.w3.org/Graphics/SVG/1.1/DTD/svg11.dtd"><svg height="200" node-id="1" sillyvg="true" template-height="200" template-width="200" version="1.1" viewBox="0 0 200 200" width="200" xmlns="http://www.w3.org/2000/svg" xmlns:xlink="http://www.w3.org/1999/xlink"><defs node-id="107"><linearGradient gradientUnits="objectBoundingBox" id="linear-gradient" node-id="5" spreadMethod="pad" x1="0" x2="1" y1="0.5" y2="0.5"><stop offset="0" stop-color="#172833"></stop><stop offset="1" stop-color="#3d699a"></stop></linearGradient><clipPath id="clip-path" node-id="3"><path d="M 200.00 100.00 L 199.77 106.67 L 199.14 113.15 L 198.11 119.45 L 196.70 125.60 L 194.90 131.61 L 192.11 138.97 L 188.82 145.99 L 185.02 152.68 L 180.71 159.06 L 175.91 165.10 L 170.71 170.71 L 165.10 175.91 L 159.06 180.71 L 152.68 185.02 L 145.99 188.82 L 138.97 192.11 L 131.61 194.90 L 125.60 196.70 L 119.45 198.11 L 113.15 199.14 L 106.67 199.77 L 100.00 200.00 L 93.33 199.77 L 86.85 199.14 L 80.55 198.11 L 74.40 196.70 L 68.39 194.90 L 61.03 192.11 L 54.01 188.82 L 47.32 185.02 L 40.94 180.71 L 34.90 175.91 L 29.29 170.71 L 24.09 165.10 L 19.29 159.06 L 14.98 152.68 L 11.18 145.99 L 7.89 138.97 L 5.10 131.61 L 3.30 125.60 L 1.89 119.45 L 0.86 113.15 L 0.23 106.67 L 0.00 100.00 L 0.23 93.33 L 0.86 86.85 L 1.89 80.55 L 3.30 74.40 L 5.10 68.39 L 7.89 61.03 L 11.18 54.01 L 14.98 47.32 L 19.29 40.94 L 24.09 34.90 L 29.29 29.29 L 34.90 24.09 L 40.94 19.29 L 47.32 14.98 L 54.01 11.18 L 61.03 7.89 L 68.39 5.10 L 74.40 3.30 L 80.55 1.89 L 86.85 0.86 L 93.33 0.23 L 100.00 0.00 L 106.67 0.23 L 113.15 0.86 L 119.45 1.89 L 125.60 3.30 L 131.61 5.10 L 138.97 7.89 L 145.99 11.18 L 152.68 14.98 L 159.06 19.29 L 165.10 24.09 L 170.71 29.29 L 175.91 34.90 L 180.71 40.94 L 185.02 47.32 L 188.82 54.01 L 192.11 61.03 L 194.90 68.39 L 196.70 74.40 L 198.11 80.55 L 199.14 86.85 L 199.77 93.33 L 200.00 100.00 Z" fill="#000000" fill-rule="nonzero" id="椭圆_639" node-id="4" stroke="none" target-height="200" target-width="200" target-x="0" target-y="0"></path></clipPath></defs><g node-id="114"><g clip-path="url(#clip-path)" group-id="1" id="组_416" node-id="9"><path d="M 19.08 -30.40 L 222.18 4.51 L 185.20 219.63 L -17.90 184.72 Z" fill="#f0f8ff" fill-rule="nonzero" group-id="1,2" id="矩形_180" node-id="10" stroke="none" target-height="250.0301" target-width="240.07825" target-x="-17.898272" target-y="-30.399"></path><path d="M -3.50 -14.12 L 208.03 -14.12 L 208.03 93.89 L -3.50 93.89 Z" fill="url(#linear-gradient)" fill-rule="nonzero" group-id="1,3" id="矩形_181" node-id="13" stroke="none" target-height="108.011" target-width="211.521" target-x="-3.495" target-y="-14.122"></path><text align="center" editable="true" ellipsis="false" fill="#ffffff" flags="1" font-family="'Noto Sans CJK SC'" font-size="8" font-stretch="normal" font-style="normal" font-weight="400" group-id="1" height="11.84" id="大寒_" letter-spacing="0" node-id="14" stroke="none" target-x="48.488" target-y="41.039" vertical-align="center" width="24" x="48.488" xml:space="preserve" y="50.319">大寒。</text><path d="M 46.72 40.08 L 43.81 40.08 L 43.81 43.00 L 44.56 43.00 L 44.56 40.83 L 46.72 40.83 Z" fill="#ffffff" fill-rule="nonzero" group-id="1,4" id="路径_3445" node-id="17" stroke="none" target-height="2.9169922" target-width="2.9179688" target-x="43.807007" target-y="40.083008"></path><path d="M -2.52 91.99 L 209.00 95.79 L 207.09 201.91 L -4.43 198.10 Z" fill="#f0f8ff" fill-rule="nonzero" group-id="1,5" id="矩形_182" node-id="18" stroke="none" target-height="109.91838" target-width="213.431" target-x="-4.428998" target-y="91.987"></path><path d="M 17.67 126.99 L 20.09 127.48 L 22.59 127.80 L 26.04 127.96 L 29.66 127.76 L 33.52 126.99 L 34.95 126.43 L 35.71 125.87 L 36.04 125.33 L 36.02 124.37 L 35.31 123.25 L 34.15 122.23 L 32.53 121.20 L 30.74 120.33 L 28.89 119.64 L 27.05 119.17 L 25.59 119.02 L 23.81 119.26 L 21.78 119.95 L 19.84 120.96 L 18.18 122.15 L 16.88 123.54 L 16.30 124.79 L 16.30 125.58 L 16.71 126.29 L 17.67 126.99 Z" fill="#414f56" fill-rule="nonzero" group-id="1,6,24" id="路径_3446" node-id="20" stroke="none" target-height="8.938477" target-width="19.733032" target-x="16.303833" target-y="119.02197"></path><path d="M 18.38 119.70 L 19.19 120.30 L 20.14 120.75 L 21.73 121.19 L 23.58 121.32 L 26.19 121.01 L 27.80 121.17 L 29.35 121.20 L 31.17 121.04 L 32.89 120.56 L 34.17 119.70 L 34.10 119.19 L 33.12 118.04 L 31.74 116.91 L 29.93 115.78 L 27.99 114.94 L 26.28 114.64 L 24.56 114.91 L 22.67 115.66 L 20.90 116.70 L 19.52 117.80 L 18.54 118.98 L 18.38 119.70 Z" fill="#46555b" fill-rule="nonzero" group-id="1,6,25" id="路径_3447" node-id="21" stroke="none" target-height="6.680664" target-width="15.7821045" target-x="18.383911" target-y="114.64111"></path><path d="M 18.84 115.40 L 19.60 115.97 L 20.49 116.40 L 21.99 116.81 L 23.73 116.93 L 26.20 116.64 L 27.71 116.79 L 29.18 116.82 L 30.89 116.67 L 32.51 116.22 L 33.72 115.40 L 33.66 114.92 L 32.73 113.84 L 31.43 112.77 L 29.72 111.71 L 27.90 110.92 L 26.28 110.63 L 24.66 110.89 L 22.88 111.59 L 21.21 112.58 L 19.91 113.62 L 18.98 114.73 L 18.84 115.40 Z" fill="#49595e" fill-rule="nonzero" group-id="1,6,26" id="路径_3448" node-id="22" stroke="none" target-height="6.2993164" target-width="14.880981" target-x="18.835083" target-y="110.63379"></path><path d="M 18.84 110.90 L 19.60 111.46 L 20.49 111.89 L 21.99 112.30 L 23.73 112.43 L 26.20 112.13 L 27.71 112.29 L 29.18 112.32 L 30.89 112.17 L 32.51 111.72 L 33.72 110.90 L 33.67 110.62 L 33.00 110.06 L 30.75 108.81 L 28.12 107.42 L 26.96 106.70 L 26.28 106.13 L 24.55 107.19 L 21.96 108.48 L 19.67 109.79 L 18.95 110.45 L 18.84 110.90 Z" fill="#576975" fill-rule="nonzero" group-id="1,6,27" id="路径_3449" node-id="23" stroke="none" target-height="6.298828" target-width="14.880981" target-x="18.835083" target-y="106.12891"></path><path d="M 40.42 136.99 L 42.84 137.48 L 45.34 137.80 L 48.79 137.96 L 52.41 137.76 L 56.26 136.99 L 57.69 136.43 L 58.46 135.87 L 58.79 135.33 L 58.77 134.37 L 58.06 133.25 L 56.90 132.23 L 55.28 131.20 L 53.49 130.33 L 51.64 129.64 L 49.80 129.17 L 48.34 129.02 L 46.56 129.26 L 44.53 129.95 L 42.59 130.96 L 40.93 132.15 L 39.63 133.54 L 39.05 134.79 L 39.05 135.58 L 39.46 136.29 L 40.42 136.99 Z" fill="#414f56" fill-rule="nonzero" group-id="1,7,28" id="路径_3450" node-id="25" stroke="none" target-height="8.938477" target-width="19.731934" target-x="39.05371" target-y="129.02197"></path><path d="M 41.13 129.70 L 41.94 130.30 L 42.89 130.76 L 44.48 131.19 L 46.33 131.32 L 48.94 131.01 L 50.55 131.17 L 52.10 131.20 L 53.92 131.04 L 55.64 130.57 L 56.92 129.70 L 56.85 129.19 L 55.87 128.04 L 54.49 126.91 L 52.68 125.78 L 50.74 124.94 L 49.03 124.64 L 47.31 124.91 L 45.42 125.66 L 43.65 126.70 L 42.27 127.80 L 41.29 128.98 L 41.13 129.70 Z" fill="#46555b" fill-rule="nonzero" group-id="1,7,29" id="路径_3451" node-id="26" stroke="none" target-height="6.680664" target-width="15.7821045" target-x="41.13391" target-y="124.64111"></path><path d="M 41.58 125.40 L 42.35 125.97 L 43.24 126.40 L 44.74 126.81 L 46.48 126.93 L 48.94 126.64 L 50.46 126.79 L 51.92 126.82 L 53.64 126.67 L 55.26 126.22 L 56.47 125.40 L 56.40 124.92 L 55.48 123.84 L 54.17 122.77 L 52.47 121.71 L 50.65 120.92 L 49.03 120.63 L 47.41 120.89 L 45.63 121.60 L 43.96 122.58 L 42.66 123.62 L 41.73 124.73 L 41.58 125.40 Z" fill="#49595e" fill-rule="nonzero" group-id="1,7,30" id="路径_3452" node-id="27" stroke="none" target-height="6.2998047" target-width="14.880981" target-x="41.584106" target-y="120.63379"></path><path d="M 41.59 120.90 L 42.35 121.46 L 43.24 121.89 L 44.74 122.30 L 46.48 122.43 L 48.95 122.13 L 50.46 122.29 L 51.93 122.32 L 53.64 122.17 L 55.26 121.72 L 56.47 120.90 L 56.42 120.62 L 55.75 120.06 L 53.50 118.81 L 50.87 117.42 L 49.71 116.70 L 49.03 116.13 L 47.30 117.19 L 44.71 118.48 L 42.42 119.79 L 41.70 120.45 L 41.59 120.90 Z" fill="#576975" fill-rule="nonzero" group-id="1,7,31" id="路径_3453" node-id="28" stroke="none" target-height="6.298828" target-width="14.880981" target-x="41.585083" target-y="116.12891"></path><path d="M 17.42 149.24 L 19.84 149.73 L 22.34 150.05 L 25.79 150.21 L 29.41 150.01 L 33.27 149.24 L 34.70 148.68 L 35.46 148.12 L 35.79 147.58 L 35.77 146.62 L 35.06 145.50 L 33.90 144.48 L 32.28 143.45 L 30.49 142.58 L 28.64 141.89 L 26.80 141.42 L 25.34 141.27 L 23.56 141.51 L 21.53 142.20 L 19.59 143.21 L 17.93 144.40 L 16.63 145.79 L 16.05 147.04 L 16.05 147.83 L 16.46 148.54 L 17.42 149.24 Z" fill="#414f56" fill-rule="nonzero" group-id="1,8,32" id="路径_3454" node-id="30" stroke="none" target-height="8.938477" target-width="19.733276" target-x="16.05371" target-y="141.27197"></path><path d="M 18.13 141.95 L 18.94 142.55 L 19.89 143.01 L 21.48 143.44 L 23.33 143.57 L 25.94 143.26 L 27.55 143.42 L 29.10 143.45 L 30.93 143.29 L 32.64 142.81 L 33.92 141.95 L 33.85 141.44 L 32.88 140.29 L 31.49 139.16 L 29.68 138.03 L 27.74 137.19 L 26.03 136.89 L 24.31 137.16 L 22.42 137.91 L 20.65 138.95 L 19.27 140.05 L 18.29 141.23 L 18.13 141.95 Z" fill="#46555b" fill-rule="nonzero" group-id="1,8,33" id="路径_3455" node-id="31" stroke="none" target-height="6.680664" target-width="15.783081" target-x="18.133911" target-y="136.89014"></path><path d="M 18.58 137.65 L 19.35 138.22 L 20.24 138.65 L 21.74 139.06 L 23.48 139.18 L 25.94 138.89 L 27.46 139.04 L 28.92 139.07 L 30.64 138.92 L 32.26 138.47 L 33.47 137.65 L 33.40 137.17 L 32.48 136.09 L 31.17 135.02 L 29.47 133.96 L 27.64 133.17 L 26.02 132.88 L 24.41 133.14 L 22.63 133.85 L 20.96 134.83 L 19.66 135.87 L 18.73 136.98 L 18.58 137.65 Z" fill="#49595e" fill-rule="nonzero" group-id="1,8,34" id="路径_3456" node-id="32" stroke="none" target-height="6.2998047" target-width="14.880981" target-x="18.584106" target-y="132.88379"></path><path d="M 18.59 133.15 L 19.35 133.71 L 20.24 134.14 L 21.74 134.55 L 23.48 134.68 L 25.95 134.38 L 27.46 134.54 L 28.93 134.57 L 30.64 134.42 L 32.26 133.97 L 33.47 133.15 L 33.42 132.87 L 32.75 132.31 L 30.50 131.06 L 27.87 129.67 L 26.71 128.95 L 26.03 128.38 L 24.30 129.44 L 21.71 130.73 L 19.42 132.04 L 18.70 132.70 L 18.59 133.15 Z" fill="#576975" fill-rule="nonzero" group-id="1,8,35" id="路径_3457" node-id="33" stroke="none" target-height="6.2993164" target-width="14.880981" target-x="18.585083" target-y="128.3789"></path><path d="M 85.61 93.89 L 86.71 96.11 L 89.87 101.65 L 92.08 105.06 L 94.84 108.85 L 97.93 112.52 L 101.41 116.01 L 103.94 118.13 L 106.58 119.94 L 109.35 121.47 L 114.04 123.88 L 117.50 126.02 L 119.96 127.93 L 122.07 130.16 L 123.26 132.21 L 123.74 134.14 L 123.62 136.13 L 122.87 138.25 L 121.35 140.60 L 117.43 145.79 L 115.87 148.48 L 115.03 150.95 L 114.94 152.57 L 115.38 154.10 L 116.40 155.62 L 117.82 156.84 L 120.17 158.09 L 123.77 159.34 L 125.71 160.15 L 126.93 161.12 L 127.60 162.25 L 127.90 163.59 L 127.86 165.14 L 127.43 166.97 L 126.38 169.71 L 124.84 172.81 L 121.39 179.07 L 119.81 182.22 L 118.68 185.07 L 118.18 186.98 L 118.06 188.64 L 118.26 190.10 L 118.85 191.38 L 119.96 192.50 L 121.73 193.47 L 130.12 196.42 L 140.42 199.65 L 151.11 202.80 L 160.64 205.50 L 167.48 207.38 L 170.10 208.09 L 78.98 217.47 L 79.13 215.27 L 79.66 209.69 L 80.72 202.19 L 81.48 198.17 L 82.43 194.24 L 83.60 190.49 L 84.93 187.35 L 86.03 185.42 L 87.17 183.99 L 88.36 182.97 L 90.24 181.47 L 92.15 179.47 L 94.09 176.87 L 95.77 174.10 L 97.25 171.05 L 98.53 167.69 L 99.48 164.23 L 100.04 160.75 L 100.22 157.23 L 99.94 153.75 L 99.11 150.47 L 97.73 147.34 L 91.74 136.20 L 84.58 122.16 L 77.28 107.36 L 70.86 93.89" fill="#576975" fill-rule="nonzero" group-id="1,9" id="路径_3458" node-id="34" stroke="none" target-height="123.57715" target-width="99.23901" target-x="70.86304" target-y="93.88916"></path><path d="M 120.13 52.61 L 88.26 93.94 L 179.86 93.94 L 148.00 52.61 L 146.17 50.58 L 144.12 48.91 L 141.83 47.56 L 139.36 46.57 L 136.78 45.97 L 134.06 45.75 L 131.35 45.97 L 128.77 46.57 L 126.30 47.56 L 124.01 48.91 L 121.95 50.58 L 120.13 52.61 Z" fill="#39506d" fill-rule="nonzero" group-id="1,10,36" id="路径_3459" node-id="36" stroke="none" target-height="48.191406" target-width="91.599976" target-x="88.26404" target-y="45.753418"></path><path d="M 118.85 54.26 L 118.88 55.38 L 119.07 56.43 L 119.57 57.65 L 120.41 58.69 L 121.83 59.49 L 122.94 59.72 L 124.48 59.69 L 126.60 59.28 L 128.27 58.98 L 129.52 58.98 L 130.45 59.23 L 131.67 59.99 L 132.58 61.05 L 133.97 63.51 L 134.72 64.61 L 135.62 65.36 L 136.32 65.62 L 137.26 65.65 L 138.52 65.36 L 140.02 64.66 L 141.14 63.86 L 141.95 62.96 L 142.88 61.41 L 143.45 59.94 L 144.26 57.65 L 144.58 57.28 L 145.01 57.19 L 145.66 57.41 L 146.63 57.70 L 147.28 57.45 L 147.76 56.83 L 148.11 55.92 L 148.42 54.09 L 148.46 53.20 L 147.44 51.77 L 146.27 50.41 L 144.44 48.69 L 142.28 47.12 L 139.53 45.75 L 137.55 45.13 L 135.32 44.79 L 132.79 44.78 L 129.84 45.30 L 127.11 46.26 L 124.57 47.69 L 122.31 49.52 L 120.41 51.70 L 118.85 54.26 Z" fill="#425d7a" fill-rule="nonzero" group-id="1,10,37" id="路径_3460" node-id="37" stroke="none" target-height="20.864258" target-width="29.610107" target-x="118.849976" target-y="44.78418"></path><path d="M 71.39 60.23 L 45.40 93.95 L 117.36 93.95 L 91.38 60.23 L 90.07 58.78 L 88.60 57.58 L 86.95 56.61 L 85.18 55.90 L 83.33 55.47 L 81.38 55.32 L 79.43 55.47 L 77.58 55.90 L 75.81 56.61 L 74.17 57.58 L 72.70 58.78 L 71.39 60.23 Z" fill="#39506d" fill-rule="nonzero" group-id="1,11,38" id="路径_3461" node-id="39" stroke="none" target-height="38.628906" target-width="71.96008" target-x="45.401978" target-y="55.317383"></path><path d="M 69.43 62.77 L 69.45 63.64 L 69.60 64.47 L 69.99 65.43 L 70.66 66.25 L 71.77 66.87 L 73.20 67.08 L 75.52 66.71 L 77.13 66.46 L 78.26 66.56 L 79.06 66.93 L 80.05 67.88 L 80.79 69.07 L 81.46 70.29 L 82.22 71.22 L 82.83 71.61 L 83.67 71.72 L 84.89 71.49 L 86.54 70.63 L 87.58 69.60 L 88.31 68.38 L 88.75 67.23 L 89.39 65.43 L 89.80 65.08 L 90.48 65.25 L 91.18 65.46 L 91.66 65.35 L 92.03 64.96 L 92.41 64.08 L 92.60 63.08 L 92.68 61.94 L 91.89 60.81 L 90.96 59.75 L 89.53 58.39 L 87.83 57.16 L 85.67 56.09 L 83.26 55.43 L 80.38 55.32 L 78.05 55.73 L 75.91 56.49 L 73.92 57.61 L 72.15 59.05 L 70.66 60.76 L 69.43 62.77 Z" fill="#425d7a" fill-rule="nonzero" group-id="1,11,39" id="路径_3462" node-id="40" stroke="none" target-height="16.398926" target-width="23.253906" target-x="69.43103" target-y="55.32422"></path><path d="M 2.92 66.67 L -24.10 93.95 L 47.86 93.95 L 20.85 66.67 L 18.92 65.07 L 16.74 63.90 L 14.38 63.17 L 11.88 62.92 L 9.39 63.17 L 7.02 63.90 L 4.85 65.07 L 2.92 66.67 Z" fill="#39506d" fill-rule="nonzero" group-id="1,12,40" id="路径_3463" node-id="42" stroke="none" target-height="31.020996" target-width="71.96106" target-x="-24.098022" target-y="62.924805"></path><path d="M -0.07 69.68 L -0.05 70.36 L 0.10 71.00 L 0.49 71.75 L 1.14 72.38 L 2.27 72.87 L 3.70 73.03 L 6.02 72.75 L 7.64 72.55 L 8.78 72.64 L 9.56 72.92 L 10.56 73.67 L 11.29 74.58 L 11.95 75.52 L 12.72 76.26 L 13.70 76.63 L 15.39 76.47 L 17.06 75.79 L 18.08 75.00 L 18.82 74.04 L 19.25 73.15 L 19.89 71.75 L 20.29 71.48 L 20.98 71.61 L 21.95 71.76 L 22.53 71.38 L 22.91 70.70 L 23.10 69.92 L 23.18 69.03 L 21.52 67.38 L 19.68 66.05 L 17.64 65.01 L 15.47 64.29 L 13.22 63.91 L 10.88 63.88 L 8.25 64.26 L 6.15 64.85 L 4.49 65.61 L 2.29 67.06 L 0.99 68.29 L -0.07 69.68 Z" fill="#425d7a" fill-rule="nonzero" group-id="1,12,41" id="路径_3464" node-id="43" stroke="none" target-height="12.746094" target-width="23.253906" target-x="-0.06896973" target-y="63.88379"></path><path d="M 175.21 64.26 L 152.33 93.94 L 215.51 93.94 L 192.63 64.26 L 190.87 62.45 L 188.78 61.11 L 186.44 60.27 L 183.92 59.98 L 181.41 60.27 L 179.07 61.11 L 176.97 62.45 L 175.21 64.26 Z" fill="#39506d" fill-rule="nonzero" group-id="1,13,42" id="路径_3465" node-id="45" stroke="none" target-height="33.96875" target-width="63.18103" target-x="152.32996" target-y="59.976074"></path><path d="M 173.43 66.57 L 173.44 67.34 L 173.58 68.07 L 173.92 68.91 L 174.50 69.63 L 175.48 70.18 L 176.74 70.36 L 178.77 70.04 L 180.19 69.81 L 181.18 69.91 L 181.88 70.23 L 182.75 71.06 L 183.40 72.10 L 183.99 73.18 L 184.66 74.00 L 185.19 74.33 L 185.93 74.43 L 187.00 74.23 L 188.45 73.48 L 189.36 72.57 L 190.00 71.50 L 190.39 70.49 L 190.95 68.91 L 191.31 68.60 L 191.92 68.75 L 192.76 68.92 L 193.28 68.50 L 193.61 67.73 L 193.78 66.85 L 193.85 65.85 L 193.15 64.86 L 192.34 63.92 L 191.08 62.73 L 189.59 61.65 L 187.69 60.71 L 185.58 60.13 L 183.04 60.04 L 181.00 60.39 L 179.12 61.06 L 177.38 62.04 L 175.82 63.30 L 174.50 64.81 L 173.43 66.57 Z" fill="#425d7a" fill-rule="nonzero" group-id="1,13,43" id="路径_3466" node-id="46" stroke="none" target-height="14.395996" target-width="20.425049" target-x="173.4259" target-y="60.038086"></path><path d="M 147.33 98.81 L 147.33 116.02 L 175.21 114.56 L 175.21 98.27 Z" fill="#4a67b3" fill-rule="nonzero" group-id="1,14,44" id="路径_3467" node-id="48" stroke="none" target-height="17.75" target-width="27.875" target-x="147.33398" target-y="98.26904"></path><path d="M 138.00 76.15 L 146.66 98.81 L 176.83 98.81 L 168.33 76.15 Z" fill="#82a6f4" fill-rule="nonzero" group-id="1,14,45" id="路径_3468" node-id="49" stroke="none" target-height="22.666992" target-width="38.833984" target-x="137.99597" target-y="76.14502"></path><path d="M 128.74 98.27 L 138.00 77.52 L 147.34 98.81 L 147.34 116.02 L 128.73 116.02 Z" fill="#34428b" fill-rule="nonzero" group-id="1,14,46" id="路径_3469" node-id="50" stroke="none" target-height="38.5" target-width="18.600098" target-x="128.73499" target-y="77.52002"></path><path d="M 138.00 76.15 L 128.00 98.81 L 129.17 98.81 L 138.00 78.98 L 145.50 98.81 L 147.33 98.81 Z" fill="#465ec8" fill-rule="nonzero" group-id="1,14,47" id="路径_3470" node-id="51" stroke="none" target-height="22.666992" target-width="19.333008" target-x="128.00098" target-y="76.14502"></path><path d="M 163.57 98.81 L 167.78 98.81 L 167.78 102.35 L 163.57 102.35 Z" fill="#e88329" fill-rule="nonzero" group-id="1,14,48" id="矩形_183" node-id="52" stroke="none" target-height="3.5419998" target-width="4.208008" target-x="163.57101" target-y="98.811"></path><path d="M 152.91 98.81 L 157.11 98.81 L 157.11 102.35 L 152.91 102.35 Z" fill="#e88329" fill-rule="nonzero" group-id="1,14,49" id="矩形_184" node-id="53" stroke="none" target-height="3.5419998" target-width="4.208008" target-x="152.905" target-y="98.811"></path><path d="M 135.78 100.14 L 139.30 100.14 L 139.30 105.20 L 135.78 105.20 Z" fill="#e88329" fill-rule="nonzero" group-id="1,14,50" id="矩形_185" node-id="54" stroke="none" target-height="5.052002" target-width="3.5180054" target-x="135.78201" target-y="100.144"></path><path d="M 163.68 80.98 L 162.36 80.45 L 162.36 74.06 L 166.45 74.06 Z" fill="#262935" fill-rule="nonzero" group-id="1,14,51" id="路径_3471" node-id="55" stroke="none" target-height="6.916992" target-width="4.083008" target-x="162.36304" target-y="74.061035"></path><path d="M 163.68 74.06 L 166.45 74.06 L 166.45 80.98 L 163.68 80.98 Z" fill="#404659" fill-rule="nonzero" group-id="1,14,52" id="矩形_186" node-id="56" stroke="none" target-height="6.917" target-width="2.7660065" target-x="163.68001" target-y="74.061"></path><path d="M 124.71 101.89 L 124.71 113.81 L 144.02 112.80 L 144.02 101.51 Z" fill="#4a67b3" fill-rule="nonzero" group-id="1,15,53" id="路径_3472" node-id="58" stroke="none" target-height="12.29834" target-width="19.312988" target-x="124.706055" target-y="101.51465"></path><path d="M 118.24 86.19 L 124.24 101.89 L 145.14 101.89 L 139.25 86.19 Z" fill="#82a6f4" fill-rule="nonzero" group-id="1,15,54" id="路径_3473" node-id="59" stroke="none" target-height="15.700195" target-width="26.900024" target-x="118.24097" target-y="86.18701"></path><path d="M 111.82 101.52 L 118.24 87.14 L 124.71 101.89 L 124.71 113.81 L 111.82 113.81 Z" fill="#34428b" fill-rule="nonzero" group-id="1,15,55" id="路径_3474" node-id="60" stroke="none" target-height="26.672852" target-width="12.884033" target-x="111.82202" target-y="87.13916"></path><path d="M 118.24 86.19 L 111.31 101.89 L 112.12 101.89 L 118.24 88.15 L 123.44 101.89 L 124.71 101.89 Z" fill="#465ec8" fill-rule="nonzero" group-id="1,15,56" id="路径_3475" node-id="61" stroke="none" target-height="15.700195" target-width="13.397949" target-x="111.31201" target-y="86.18701"></path><path d="M 135.96 101.89 L 138.87 101.89 L 138.87 104.34 L 135.96 104.34 Z" fill="#e88329" fill-rule="nonzero" group-id="1,15,57" id="矩形_187" node-id="62" stroke="none" target-height="2.4540024" target-width="2.9160004" target-x="135.956" target-y="101.891"></path><path d="M 128.57 101.89 L 131.48 101.89 L 131.48 104.34 L 128.57 104.34 Z" fill="#e88329" fill-rule="nonzero" group-id="1,15,58" id="矩形_188" node-id="63" stroke="none" target-height="2.4540024" target-width="2.9160004" target-x="128.566" target-y="101.891"></path><path d="M 116.70 102.81 L 119.14 102.81 L 119.14 106.31 L 116.70 106.31 Z" fill="#e88329" fill-rule="nonzero" group-id="1,15,59" id="矩形_189" node-id="64" stroke="none" target-height="3.5" target-width="2.4369965" target-x="116.702995" target-y="102.814995"></path><path d="M 164.50 120.98 L 164.29 122.55 L 163.72 124.05 L 162.77 125.52 L 161.36 126.97 L 159.20 128.56 L 156.48 129.99 L 153.11 131.23 L 149.62 132.09 L 145.77 132.64 L 141.50 132.85 L 137.24 132.64 L 133.38 132.09 L 129.89 131.23 L 126.52 129.99 L 123.80 128.56 L 121.64 126.97 L 120.24 125.52 L 119.28 124.05 L 118.71 122.55 L 118.50 120.98 L 118.71 119.40 L 119.28 117.90 L 120.24 116.44 L 121.64 114.98 L 123.80 113.40 L 126.52 111.97 L 129.89 110.72 L 133.38 109.86 L 137.24 109.31 L 141.50 109.10 L 145.77 109.31 L 149.62 109.86 L 153.11 110.72 L 156.48 111.97 L 159.20 113.40 L 161.36 114.98 L 162.77 116.44 L 163.72 117.90 L 164.29 119.40 L 164.50 120.98 Z" fill="#f0f8ff" fill-rule="nonzero" group-id="1,16" id="椭圆_614" node-id="65" stroke="none" target-height="23.748001" target-width="46.000008" target-x="118.501" target-y="109.103"></path><path d="M 31.25 154.73 L 31.04 156.30 L 30.47 157.80 L 29.52 159.27 L 28.11 160.72 L 25.95 162.31 L 23.23 163.74 L 19.86 164.98 L 16.37 165.84 L 12.52 166.39 L 8.25 166.60 L 3.99 166.39 L 0.13 165.84 L -3.36 164.98 L -6.73 163.74 L -9.45 162.31 L -11.61 160.72 L -13.01 159.27 L -13.97 157.80 L -14.54 156.30 L -14.75 154.73 L -14.54 153.15 L -13.97 151.65 L -13.01 150.19 L -11.61 148.73 L -9.45 147.15 L -6.73 145.72 L -3.36 144.47 L 0.13 143.61 L 3.99 143.06 L 8.25 142.85 L 12.52 143.06 L 16.37 143.61 L 19.86 144.47 L 23.23 145.72 L 25.95 147.15 L 28.11 148.73 L 29.52 150.19 L 30.47 151.65 L 31.04 153.15 L 31.25 154.73 Z" fill="#f0f8ff" fill-rule="nonzero" group-id="1,17" id="椭圆_615" node-id="66" stroke="none" target-height="23.748001" target-width="46" target-x="-14.749" target-y="142.853"></path><path d="M 204.50 119.48 L 204.29 121.05 L 203.72 122.55 L 202.77 124.02 L 201.36 125.47 L 199.20 127.06 L 196.48 128.49 L 193.11 129.73 L 189.62 130.59 L 185.77 131.14 L 181.50 131.35 L 177.24 131.14 L 173.38 130.59 L 169.89 129.73 L 166.52 128.49 L 163.80 127.06 L 161.64 125.47 L 160.24 124.02 L 159.28 122.55 L 158.71 121.05 L 158.50 119.48 L 158.71 117.90 L 159.28 116.40 L 160.24 114.94 L 161.64 113.48 L 163.80 111.90 L 166.52 110.47 L 169.89 109.22 L 173.38 108.36 L 177.24 107.81 L 181.50 107.60 L 185.77 107.81 L 189.62 108.36 L 193.11 109.22 L 196.48 110.47 L 199.20 111.90 L 201.36 113.48 L 202.77 114.94 L 203.72 116.40 L 204.29 117.90 L 204.50 119.48 Z" fill="#f0f8ff" fill-rule="nonzero" group-id="1,18" id="椭圆_616" node-id="67" stroke="none" target-height="23.748001" target-width="46" target-x="158.501" target-y="107.603"></path><path d="M 149.32 120.88 L 151.25 121.27 L 153.25 121.52 L 155.99 121.65 L 158.88 121.49 L 161.96 120.88 L 163.32 120.29 L 163.90 119.73 L 164.03 119.16 L 163.63 118.19 L 162.42 117.05 L 160.85 116.09 L 159.00 115.27 L 157.12 114.70 L 155.64 114.52 L 154.22 114.71 L 152.60 115.26 L 151.05 116.06 L 149.72 117.02 L 148.69 118.13 L 148.23 119.12 L 148.23 119.75 L 148.55 120.32 L 149.32 120.88 Z" fill="#414f56" fill-rule="nonzero" group-id="1,19,60" id="路径_3476" node-id="69" stroke="none" target-height="7.132324" target-width="15.801636" target-x="148.22559" target-y="114.52002"></path><path d="M 149.88 115.06 L 150.53 115.53 L 151.28 115.90 L 152.56 116.24 L 154.03 116.35 L 156.11 116.10 L 157.39 116.23 L 160.09 116.13 L 161.45 115.75 L 162.48 115.06 L 162.42 114.65 L 161.65 113.73 L 160.54 112.83 L 159.09 111.93 L 157.55 111.26 L 156.18 111.02 L 154.81 111.24 L 153.30 111.83 L 151.89 112.67 L 150.79 113.54 L 150.01 114.48 L 149.88 115.06 Z" fill="#46555b" fill-rule="nonzero" group-id="1,19,61" id="路径_3477" node-id="70" stroke="none" target-height="5.3305664" target-width="12.591064" target-x="149.88489" target-y="111.02051"></path><path d="M 150.25 111.63 L 150.85 112.08 L 151.56 112.42 L 152.76 112.75 L 154.15 112.85 L 156.12 112.61 L 157.32 112.74 L 159.87 112.64 L 161.16 112.28 L 162.12 111.63 L 162.07 111.25 L 161.33 110.38 L 160.29 109.53 L 158.93 108.68 L 157.47 108.05 L 156.18 107.83 L 154.89 108.03 L 153.47 108.59 L 152.14 109.38 L 151.10 110.21 L 150.36 111.09 L 150.25 111.63 Z" fill="#49595e" fill-rule="nonzero" group-id="1,19,62" id="路径_3478" node-id="71" stroke="none" target-height="5.020996" target-width="11.871948" target-x="150.245" target-y="107.82764"></path><path d="M 150.25 108.04 L 150.85 108.49 L 151.56 108.83 L 152.76 109.16 L 154.15 109.26 L 156.12 109.02 L 157.32 109.15 L 159.87 109.05 L 161.16 108.69 L 162.12 108.04 L 162.01 107.73 L 161.03 107.06 L 158.33 105.64 L 156.96 104.85 L 156.18 104.23 L 154.15 105.41 L 151.44 106.82 L 150.43 107.57 L 150.25 108.04 Z" fill="#576975" fill-rule="nonzero" group-id="1,19,63" id="路径_3479" node-id="72" stroke="none" target-height="5.0253906" target-width="11.871948" target-x="150.245" target-y="104.23291"></path><path d="M 168.47 120.87 L 170.90 121.35 L 173.40 121.67 L 176.84 121.83 L 180.46 121.63 L 184.32 120.87 L 185.75 120.30 L 186.51 119.75 L 186.84 119.20 L 186.82 118.24 L 186.11 117.12 L 184.95 116.10 L 183.33 115.07 L 181.54 114.20 L 179.69 113.51 L 177.85 113.04 L 176.39 112.89 L 174.61 113.13 L 172.58 113.82 L 170.64 114.83 L 168.98 116.03 L 167.68 117.41 L 167.10 118.66 L 167.10 119.45 L 167.51 120.17 L 168.47 120.87 Z" fill="#414f56" fill-rule="nonzero" group-id="1,20,64" id="路径_3480" node-id="74" stroke="none" target-height="8.939941" target-width="19.733398" target-x="167.10474" target-y="112.89307"></path><path d="M 169.18 113.57 L 169.99 114.17 L 170.94 114.62 L 172.53 115.06 L 174.38 115.19 L 176.99 114.88 L 178.60 115.04 L 180.15 115.07 L 181.97 114.91 L 183.69 114.43 L 184.97 113.57 L 184.90 113.06 L 183.92 111.90 L 182.54 110.78 L 180.73 109.65 L 178.79 108.81 L 177.08 108.51 L 175.36 108.78 L 173.47 109.53 L 171.70 110.57 L 170.32 111.67 L 169.34 112.85 L 169.18 113.57 Z" fill="#46555b" fill-rule="nonzero" group-id="1,20,65" id="路径_3481" node-id="75" stroke="none" target-height="6.6816406" target-width="15.781982" target-x="169.18396" target-y="108.5083"></path><path d="M 169.64 109.27 L 170.40 109.84 L 171.29 110.27 L 172.79 110.68 L 174.53 110.80 L 177.00 110.51 L 178.51 110.66 L 179.97 110.69 L 181.69 110.54 L 183.31 110.09 L 184.52 109.27 L 184.45 108.79 L 183.53 107.71 L 182.23 106.64 L 180.52 105.58 L 178.70 104.79 L 177.08 104.50 L 175.46 104.76 L 173.68 105.47 L 172.01 106.45 L 170.71 107.49 L 169.78 108.60 L 169.64 109.27 Z" fill="#49595e" fill-rule="nonzero" group-id="1,20,66" id="路径_3482" node-id="76" stroke="none" target-height="6.2993164" target-width="14.880859" target-x="169.63501" target-y="104.50391"></path><path d="M 169.64 104.77 L 170.40 105.33 L 171.29 105.77 L 172.79 106.17 L 174.53 106.30 L 177.00 106.01 L 178.51 106.16 L 179.98 106.19 L 181.70 106.04 L 183.31 105.59 L 184.52 104.77 L 184.48 104.49 L 183.80 103.93 L 181.55 102.69 L 178.92 101.29 L 177.76 100.57 L 177.08 100.00 L 175.35 101.06 L 172.76 102.36 L 170.47 103.67 L 169.75 104.32 L 169.64 104.77 Z" fill="#576975" fill-rule="nonzero" group-id="1,20,67" id="路径_3483" node-id="77" stroke="none" target-height="6.2998047" target-width="14.880981" target-x="169.63599" target-y="100"></path><path d="M 152.34 169.09 L 154.77 169.58 L 157.27 169.90 L 160.71 170.06 L 164.33 169.86 L 168.19 169.09 L 169.62 168.53 L 170.38 167.97 L 170.71 167.43 L 170.69 166.47 L 169.98 165.35 L 168.82 164.33 L 167.20 163.30 L 165.41 162.43 L 163.56 161.74 L 161.72 161.27 L 160.27 161.12 L 158.49 161.36 L 156.46 162.05 L 154.52 163.05 L 152.85 164.25 L 151.56 165.64 L 150.98 166.89 L 150.98 167.68 L 151.39 168.39 L 152.34 169.09 Z" fill="#414f56" fill-rule="nonzero" group-id="1,21,68" id="路径_3484" node-id="79" stroke="none" target-height="8.939941" target-width="19.731812" target-x="150.97778" target-y="161.12012"></path><path d="M 153.06 161.79 L 153.86 162.39 L 154.81 162.85 L 156.41 163.28 L 158.25 163.42 L 160.86 163.10 L 162.47 163.27 L 164.02 163.30 L 165.85 163.14 L 167.56 162.66 L 168.84 161.79 L 168.78 161.28 L 167.80 160.13 L 166.41 159.00 L 164.60 157.87 L 162.67 157.04 L 160.95 156.73 L 159.24 157.00 L 157.35 157.75 L 155.58 158.80 L 154.20 159.90 L 153.21 161.08 L 153.06 161.79 Z" fill="#46555b" fill-rule="nonzero" group-id="1,21,69" id="路径_3485" node-id="80" stroke="none" target-height="6.682129" target-width="15.782959" target-x="153.05798" target-y="156.73389"></path><path d="M 153.51 157.50 L 154.27 158.06 L 155.16 158.50 L 156.67 158.90 L 158.40 159.03 L 160.87 158.74 L 162.38 158.89 L 163.85 158.92 L 165.57 158.77 L 167.18 158.32 L 168.39 157.50 L 168.33 157.02 L 167.41 155.93 L 166.10 154.87 L 164.39 153.80 L 162.57 153.02 L 160.95 152.73 L 159.33 152.98 L 157.55 153.69 L 155.88 154.68 L 154.58 155.71 L 153.65 156.82 L 153.51 157.50 Z" fill="#49595e" fill-rule="nonzero" group-id="1,21,70" id="路径_3486" node-id="81" stroke="none" target-height="6.2993164" target-width="14.880981" target-x="153.50793" target-y="152.73047"></path><path d="M 153.51 153.00 L 154.27 153.56 L 155.16 153.99 L 156.67 154.40 L 158.40 154.53 L 160.87 154.23 L 162.38 154.38 L 163.85 154.42 L 165.57 154.26 L 167.18 153.81 L 168.39 153.00 L 168.35 152.71 L 167.67 152.15 L 165.42 150.91 L 162.79 149.52 L 161.64 148.80 L 160.95 148.23 L 159.22 149.29 L 156.64 150.58 L 154.35 151.89 L 153.63 152.55 L 153.51 153.00 Z" fill="#576975" fill-rule="nonzero" group-id="1,21,71" id="路径_3487" node-id="82" stroke="none" target-height="6.2993164" target-width="14.880981" target-x="153.50793" target-y="148.22607"></path><path d="M 76.03 17.44 L 75.79 18.03 L 75.20 18.27 L 74.61 18.03 L 74.36 17.44 L 74.61 16.85 L 75.20 16.60 L 75.79 16.85 L 76.03 17.44 Z" fill="#e7eace" fill-opacity="0.35" fill-rule="nonzero" group-id="1,22,72" id="椭圆_617" node-id="84" stroke="none" target-height="1.6660004" target-width="1.6660004" target-x="74.363" target-y="16.603"></path><path d="M 28.86 48.77 L 28.62 49.36 L 28.03 49.60 L 27.44 49.36 L 27.20 48.77 L 27.44 48.18 L 28.03 47.94 L 28.62 48.18 L 28.86 48.77 Z" fill="#e7eace" fill-rule="nonzero" group-id="1,22,73" id="椭圆_618" node-id="85" stroke="none" target-height="1.6660004" target-width="1.6660004" target-x="27.196" target-y="47.936"></path><path d="M 17.86 69.77 L 17.62 70.36 L 17.03 70.60 L 16.44 70.36 L 16.20 69.77 L 16.44 69.18 L 17.03 68.94 L 17.62 69.18 L 17.86 69.77 Z" fill="#e7eace" fill-opacity="0.65" fill-rule="nonzero" group-id="1,22,74" id="椭圆_619" node-id="86" stroke="none" target-height="1.6660004" target-width="1.6660004" target-x="16.196" target-y="68.936"></path><path d="M 93.07 22.27 L 92.83 22.86 L 92.24 23.10 L 91.65 22.86 L 91.40 22.27 L 91.65 21.68 L 92.24 21.44 L 92.83 21.68 L 93.07 22.27 Z" fill="#e7eace" fill-opacity="0.15" fill-rule="nonzero" group-id="1,22,75" id="椭圆_620" node-id="87" stroke="none" target-height="1.6660004" target-width="1.6660004" target-x="91.404" target-y="21.436"></path><path d="M 55.01 13.41 L 54.76 14.00 L 54.17 14.24 L 53.58 14.00 L 53.34 13.41 L 53.58 12.82 L 54.17 12.57 L 54.76 12.82 L 55.01 13.41 Z" fill="#e7eace" fill-opacity="0.65" fill-rule="nonzero" group-id="1,22,76" id="椭圆_621" node-id="88" stroke="none" target-height="1.6660004" target-width="1.6660004" target-x="53.34" target-y="12.575"></path><path d="M 51.65 29.89 L 51.41 30.48 L 50.82 30.73 L 50.23 30.48 L 49.99 29.89 L 50.23 29.30 L 50.82 29.06 L 51.41 29.30 L 51.65 29.89 Z" fill="#e7eace" fill-rule="nonzero" group-id="1,22,77" id="椭圆_622" node-id="89" stroke="none" target-height="1.6660004" target-width="1.6660004" target-x="49.988" target-y="29.061"></path><path d="M 112.53 43.72 L 112.29 44.31 L 111.70 44.55 L 111.11 44.31 L 110.86 43.72 L 111.11 43.13 L 111.70 42.89 L 112.29 43.13 L 112.53 43.72 Z" fill="#e7eace" fill-opacity="0.35" fill-rule="nonzero" group-id="1,22,78" id="椭圆_623" node-id="90" stroke="none" target-height="1.6660004" target-width="1.6660004" target-x="110.863" target-y="42.887"></path><path d="M 27.20 81.27 L 26.95 81.86 L 26.36 82.10 L 25.77 81.86 L 25.53 81.27 L 25.77 80.68 L 26.36 80.44 L 26.95 80.68 L 27.20 81.27 Z" fill="#e7eace" fill-rule="nonzero" group-id="1,22,79" id="椭圆_624" node-id="91" stroke="none" target-height="1.6660004" target-width="1.6660004" target-x="25.529" target-y="80.436"></path><path d="M 129.57 48.55 L 129.33 49.14 L 128.74 49.39 L 128.15 49.14 L 127.90 48.55 L 128.15 47.96 L 128.74 47.72 L 129.33 47.96 L 129.57 48.55 Z" fill="#e7eace" fill-rule="nonzero" group-id="1,22,80" id="椭圆_625" node-id="92" stroke="none" target-height="1.6660004" target-width="1.6659927" target-x="127.904" target-y="47.721"></path><path d="M 91.51 39.69 L 91.26 40.28 L 90.67 40.53 L 90.08 40.28 L 89.84 39.69 L 90.08 39.10 L 90.67 38.86 L 91.26 39.10 L 91.51 39.69 Z" fill="#e7eace" fill-opacity="0.65" fill-rule="nonzero" group-id="1,22,81" id="椭圆_626" node-id="93" stroke="none" target-height="1.6660004" target-width="1.6660004" target-x="89.84" target-y="38.86"></path><path d="M 88.15 56.18 L 87.91 56.77 L 87.32 57.01 L 86.73 56.77 L 86.49 56.18 L 86.73 55.59 L 87.32 55.35 L 87.91 55.59 L 88.15 56.18 Z" fill="#e7eace" fill-rule="nonzero" group-id="1,22,82" id="椭圆_627" node-id="94" stroke="none" target-height="1.6660004" target-width="1.6660004" target-x="86.488" target-y="55.346"></path><path d="M 134.19 18.05 L 133.95 18.64 L 133.36 18.89 L 132.77 18.64 L 132.53 18.05 L 132.77 17.46 L 133.36 17.22 L 133.95 17.46 L 134.19 18.05 Z" fill="#e7eace" fill-opacity="0.65" fill-rule="nonzero" group-id="1,22,83" id="椭圆_628" node-id="95" stroke="none" target-height="1.6660004" target-width="1.6660004" target-x="132.52899" target-y="17.221"></path><path d="M 151.24 22.89 L 150.99 23.48 L 150.40 23.72 L 149.81 23.48 L 149.57 22.89 L 149.81 22.30 L 150.40 22.05 L 150.99 22.30 L 151.24 22.89 Z" fill="#e7eace" fill-rule="nonzero" group-id="1,22,84" id="椭圆_629" node-id="96" stroke="none" target-height="1.6660004" target-width="1.6660004" target-x="149.571" target-y="22.054"></path><path d="M 113.17 14.03 L 112.93 14.62 L 112.34 14.86 L 111.75 14.62 L 111.51 14.03 L 111.75 13.44 L 112.34 13.19 L 112.93 13.44 L 113.17 14.03 Z" fill="#e7eace" fill-rule="nonzero" group-id="1,22,85" id="椭圆_630" node-id="97" stroke="none" target-height="1.6660004" target-width="1.6660004" target-x="111.506" target-y="13.193"></path><path d="M 109.82 30.51 L 109.58 31.10 L 108.99 31.35 L 108.40 31.10 L 108.15 30.51 L 108.40 29.92 L 108.99 29.68 L 109.58 29.92 L 109.82 30.51 Z" fill="#e7eace" fill-rule="nonzero" group-id="1,22,86" id="椭圆_631" node-id="98" stroke="none" target-height="1.6660004" target-width="1.6660004" target-x="108.154" target-y="29.679"></path><path d="M 177.86 47.75 L 177.62 48.34 L 177.03 48.58 L 176.44 48.34 L 176.20 47.75 L 176.44 47.16 L 177.03 46.91 L 177.62 47.16 L 177.86 47.75 Z" fill="#e7eace" fill-rule="nonzero" group-id="1,22,87" id="椭圆_632" node-id="99" stroke="none" target-height="1.6660004" target-width="1.6660004" target-x="176.196" target-y="46.915"></path><path d="M 194.90 52.58 L 194.66 53.17 L 194.07 53.41 L 193.48 53.17 L 193.24 52.58 L 193.48 51.99 L 194.07 51.75 L 194.66 51.99 L 194.90 52.58 Z" fill="#e7eace" fill-rule="nonzero" group-id="1,22,88" id="椭圆_633" node-id="100" stroke="none" target-height="1.6660004" target-width="1.6660004" target-x="193.238" target-y="51.748"></path><path d="M 156.84 43.72 L 156.60 44.31 L 156.01 44.55 L 155.42 44.31 L 155.17 43.72 L 155.42 43.13 L 156.01 42.89 L 156.60 43.13 L 156.84 43.72 Z" fill="#e7eace" fill-rule="nonzero" group-id="1,22,89" id="椭圆_634" node-id="101" stroke="none" target-height="1.6660004" target-width="1.6660004" target-x="155.173" target-y="42.887"></path><path d="M 153.49 60.21 L 153.24 60.80 L 152.65 61.04 L 152.06 60.80 L 151.82 60.21 L 152.06 59.62 L 152.65 59.37 L 153.24 59.62 L 153.49 60.21 Z" fill="#e7eace" fill-opacity="0.35" fill-rule="nonzero" group-id="1,22,90" id="椭圆_635" node-id="102" stroke="none" target-height="1.6660004" target-width="1.6660004" target-x="151.821" target-y="59.373"></path><path d="M 31.83 65.62 L 31.59 66.21 L 31.00 66.46 L 30.41 66.21 L 30.17 65.62 L 30.41 65.04 L 31.00 64.79 L 31.59 65.04 L 31.83 65.62 Z" fill="#e7eace" fill-rule="nonzero" group-id="1,22,91" id="椭圆_636" node-id="103" stroke="none" target-height="1.6660004" target-width="1.6660004" target-x="30.168" target-y="64.792"></path><path d="M 39.83 68.62 L 39.59 69.21 L 39.00 69.46 L 38.41 69.21 L 38.17 68.62 L 38.41 68.04 L 39.00 67.79 L 39.59 68.04 L 39.83 68.62 Z" fill="#e7eace" fill-opacity="0.35" fill-rule="nonzero" group-id="1,22,92" id="椭圆_637" node-id="104" stroke="none" target-height="1.6660004" target-width="1.6660004" target-x="38.168" target-y="67.792"></path><path d="M 204.93 170.74 L 204.71 172.31 L 204.15 173.81 L 203.19 175.28 L 201.79 176.73 L 199.63 178.32 L 196.91 179.74 L 193.53 180.99 L 190.05 181.85 L 186.19 182.40 L 181.93 182.61 L 177.66 182.40 L 173.81 181.85 L 170.32 180.99 L 166.94 179.74 L 164.23 178.32 L 162.07 176.73 L 160.66 175.28 L 159.71 173.81 L 159.14 172.31 L 158.93 170.74 L 159.14 169.16 L 159.71 167.66 L 160.66 166.19 L 162.07 164.74 L 164.23 163.15 L 166.94 161.73 L 170.32 160.48 L 173.81 159.62 L 177.66 159.07 L 181.93 158.86 L 186.19 159.07 L 190.05 159.62 L 193.53 160.48 L 196.91 161.73 L 199.63 163.15 L 201.79 164.74 L 203.19 166.19 L 204.15 167.66 L 204.71 169.16 L 204.93 170.74 Z" fill="#f0f8ff" fill-rule="nonzero" group-id="1,23" id="椭圆_638" node-id="105" stroke="none" target-height="23.748001" target-width="46" target-x="158.926" target-y="158.862"></path></g></g></svg>