<?xml version="1.0" standalone="no"?><!DOCTYPE svg PUBLIC "-//W3C//DTD SVG 1.1//EN" "http://www.w3.org/Graphics/SVG/1.1/DTD/svg11.dtd"><svg height="200" node-id="1" sillyvg="true" template-height="200" template-width="200" version="1.1" viewBox="0 0 200 200" width="200" xmlns="http://www.w3.org/2000/svg" xmlns:xlink="http://www.w3.org/1999/xlink"><defs node-id="116"><linearGradient gradientUnits="objectBoundingBox" id="linear-gradient" node-id="5" spreadMethod="pad" x1="0.385" x2="0.616" y1="0.996" y2="0.002"><stop offset="0" stop-color="#78dcec"></stop><stop offset="0.397" stop-color="#78dcec"></stop><stop offset="1" stop-color="#78dcec" stop-opacity="0"></stop></linearGradient><clipPath id="clip-path" node-id="3"><path d="M 200.00 100.00 C 200.00 155.23 155.23 200.00 100.00 200.00 C 44.77 200.00 0.00 155.23 0.00 100.00 C -0.00 44.77 44.77 0.00 100.00 0.00 C 155.23 -0.00 200.00 44.77 200.00 100.00 Z" fill="#000000" fill-rule="nonzero" id="椭圆_50" node-id="4" stroke="none" target-height="200" target-width="200" target-x="0" target-y="0"></path></clipPath></defs><g clip-path="url(#clip-path)" id="组_193" node-id="9"><path d="M 19.98 -30.96 L 223.08 3.95 L 186.10 219.07 L -17.00 184.15 Z" fill="#9de7ed" fill-rule="nonzero" group-id="1" id="矩形_60" node-id="10" stroke="none" target-height="250.0301" target-width="240.07826" target-x="-17.002272" target-y="-30.962"></path><path d="M 288.59 136.93 L 79.59 106.29 L -12.19 149.51 L 92.07 223.94 Z" fill="#a9f5ff" fill-rule="nonzero" group-id="2" id="路径_1595" node-id="11" stroke="none" target-height="117.6521" target-width="300.786" target-x="-12.19104" target-y="106.285034"></path><path d="M 79.60 106.29 L 81.60 -26.59 L -18.93 -26.59 L -21.93 151.93 Z" fill="#96e0e2" fill-rule="nonzero" group-id="3" id="路径_1596" node-id="12" stroke="none" target-height="178.51807" target-width="103.53198" target-x="-21.934937" target-y="-26.587036"></path><path d="M 164.09 153.37 L 162.76 151.01 L 160.87 148.65 L 158.33 146.27 L 155.03 143.87 L 150.41 141.23 L 144.80 138.68 L 138.05 136.26 L 131.17 134.32 L 123.50 132.62 L 114.96 131.20 L 106.39 130.21 L 97.28 129.59 L 87.60 129.37 L 77.92 129.59 L 68.81 130.21 L 60.24 131.20 L 51.70 132.62 L 44.03 134.32 L 37.16 136.26 L 30.40 138.68 L 24.79 141.23 L 20.17 143.88 L 16.87 146.27 L 14.33 148.65 L 12.44 151.01 L 11.11 153.37 L 10.09 153.37 L 10.09 155.08 L 10.34 157.37 L 11.04 159.67 L 12.25 162.01 L 14.04 164.44 L 16.82 167.28 L 20.44 170.14 L 25.04 173.03 L 29.86 175.50 L 35.43 177.86 L 41.82 180.09 L 48.31 181.94 L 55.39 183.55 L 63.10 184.89 L 70.85 185.84 L 79.01 186.44 L 87.60 186.65 L 96.19 186.45 L 104.35 185.88 L 112.10 184.97 L 119.81 183.69 L 126.89 182.15 L 133.38 180.37 L 139.77 178.22 L 145.34 175.93 L 150.16 173.54 L 154.76 170.72 L 158.38 167.93 L 161.16 165.14 L 162.94 162.76 L 164.15 160.44 L 164.86 158.15 L 165.11 155.87 L 165.11 153.37 Z" fill="#bad1d3" fill-rule="nonzero" group-id="4,11" id="路径_1598" node-id="15" stroke="none" target-height="57.28601" target-width="155.02405" target-x="10.088013" target-y="129.36694"></path><path d="M 165.11 153.37 L 164.86 155.65 L 164.15 157.90 L 162.94 160.14 L 161.16 162.42 L 158.38 165.05 L 154.77 167.68 L 150.16 170.28 L 145.35 172.47 L 139.78 174.55 L 133.38 176.48 L 126.90 178.06 L 119.82 179.43 L 112.10 180.55 L 104.36 181.34 L 96.20 181.83 L 87.60 182.01 L 79.01 181.83 L 70.85 181.34 L 63.10 180.55 L 55.38 179.43 L 48.30 178.06 L 41.82 176.48 L 35.42 174.55 L 29.85 172.47 L 25.04 170.28 L 20.44 167.68 L 16.82 165.05 L 14.04 162.42 L 12.26 160.14 L 11.05 157.90 L 10.34 155.65 L 10.09 153.37 L 10.34 151.08 L 11.05 148.84 L 12.26 146.59 L 14.04 144.31 L 16.82 141.68 L 20.44 139.06 L 25.04 136.45 L 29.85 134.26 L 35.42 132.19 L 41.82 130.25 L 48.30 128.67 L 55.38 127.31 L 63.10 126.18 L 70.85 125.39 L 79.01 124.90 L 87.60 124.72 L 96.20 124.90 L 104.36 125.39 L 112.10 126.18 L 119.82 127.31 L 126.90 128.67 L 133.38 130.25 L 139.78 132.19 L 145.35 134.26 L 150.16 136.45 L 154.77 139.06 L 158.38 141.68 L 161.16 144.31 L 162.94 146.59 L 164.15 148.84 L 164.86 151.08 L 165.11 153.37 Z" fill="#cee7ea" fill-rule="nonzero" group-id="4" id="椭圆_36" node-id="16" stroke="none" target-height="57.288002" target-width="155.024" target-x="10.089" target-y="124.723"></path><path d="M 162.29 153.37 L 162.05 155.57 L 161.36 157.73 L 160.19 159.90 L 158.48 162.09 L 155.81 164.63 L 152.32 167.16 L 147.88 169.67 L 143.25 171.78 L 137.88 173.78 L 131.71 175.64 L 125.47 177.16 L 118.65 178.48 L 111.21 179.56 L 103.75 180.32 L 95.88 180.80 L 87.60 180.97 L 79.32 180.80 L 71.46 180.32 L 63.99 179.56 L 56.55 178.48 L 49.73 177.16 L 43.49 175.64 L 37.32 173.78 L 31.96 171.78 L 27.32 169.67 L 22.88 167.16 L 19.40 164.63 L 16.72 162.09 L 15.01 159.90 L 13.84 157.73 L 13.16 155.57 L 12.91 153.37 L 13.16 151.17 L 13.84 149.00 L 15.01 146.84 L 16.72 144.64 L 19.40 142.11 L 22.88 139.58 L 27.32 137.07 L 31.96 134.96 L 37.32 132.96 L 43.49 131.09 L 49.73 129.57 L 56.55 128.26 L 63.99 127.17 L 71.46 126.41 L 79.32 125.94 L 87.60 125.77 L 95.88 125.94 L 103.75 126.41 L 111.21 127.17 L 118.65 128.26 L 125.47 129.57 L 131.71 131.09 L 137.88 132.96 L 143.25 134.96 L 147.88 137.07 L 152.32 139.58 L 155.81 142.11 L 158.48 144.64 L 160.19 146.84 L 161.36 149.00 L 162.05 151.17 L 162.29 153.37 Z" fill="#ebfdff" fill-rule="nonzero" group-id="4,12" id="椭圆_37" node-id="17" stroke="none" target-height="55.199997" target-width="149.376" target-x="12.913" target-y="125.767"></path><path d="M 143.16 146.43 L 144.01 145.89 L 145.93 144.71 L 148.02 143.56 L 148.92 143.18 L 149.34 143.12 L 151.60 144.20 L 153.77 145.45 L 152.95 147.40 L 143.90 148.82 Z" fill="#61d8e5" fill-rule="nonzero" group-id="5,13" id="路径_1599" node-id="19" stroke="none" target-height="5.699951" target-width="10.601929" target-x="143.16309" target-y="143.1211"></path><path d="M 148.69 142.96 L 148.66 142.59 L 148.99 142.44 L 151.04 142.90 L 152.24 143.34 L 153.40 143.97 L 154.36 144.81 L 154.99 145.88 L 155.05 146.66 L 154.64 146.85 L 153.93 146.70 L 152.81 146.17 L 150.49 144.62 L 148.69 142.96 Z" fill="#d6f4f8" fill-rule="nonzero" group-id="5,14" id="路径_1600" node-id="20" stroke="none" target-height="4.414551" target-width="6.3867188" target-x="148.66052" target-y="142.43506"></path><path d="M 154.58 162.50 L 154.68 162.67 L 154.61 162.79 L 154.03 162.97 L 151.20 163.11 L 146.97 163.46 L 141.85 163.80 L 139.35 163.60 L 137.26 162.98 L 136.10 162.26 L 135.22 161.23 L 134.62 159.84 L 133.90 155.35 L 133.65 150.84 L 133.87 146.30 L 144.01 147.50 L 152.84 146.34 Z" fill="#05aae4" fill-rule="nonzero" group-id="5,15" id="路径_1601" node-id="21" stroke="none" target-height="17.499023" target-width="21.03418" target-x="133.64612" target-y="146.30298"></path><path d="M 151.15 148.53 L 150.82 148.41 L 150.34 148.01 L 150.29 147.71 L 150.49 147.27 L 151.67 146.27 L 152.52 145.82 L 153.49 145.50 L 154.50 145.39 L 155.49 145.56 L 156.24 146.14 L 156.68 147.20 L 156.83 148.44 L 156.81 149.69 L 156.53 151.40 L 156.30 153.71 L 156.22 157.42 L 156.31 159.17 L 156.47 160.05 L 156.54 160.72 L 156.31 161.50 L 155.84 162.21 L 155.19 162.79 L 154.41 163.14 L 153.56 163.15 L 152.48 162.67 L 152.00 161.96 L 152.00 161.06 L 152.56 159.93 L 153.29 159.05 L 153.42 158.85 L 153.13 158.55 L 152.59 158.03 L 152.38 157.68 L 152.29 156.98 L 152.40 156.08 L 152.88 154.40 L 153.28 152.62 L 153.23 151.34 L 152.88 150.22 L 152.36 149.44 L 151.71 148.85 L 151.15 148.53 Z" fill="#016ec0" fill-rule="nonzero" group-id="5,16" id="路径_1602" node-id="22" stroke="none" target-height="17.76538" target-width="6.548218" target-x="150.28516" target-y="145.3877"></path><path d="M 135.49 148.87 L 135.56 150.05 L 135.79 152.38 L 136.14 154.01 L 136.78 155.33 L 137.60 157.01 L 138.01 157.60 L 138.19 157.64 L 138.45 156.38 L 138.62 154.45 L 138.77 153.65 L 138.91 153.48 L 139.06 153.71 L 139.20 154.67 L 139.30 157.15 L 139.29 159.50 L 139.39 160.42 L 139.67 161.32 L 140.11 162.15 L 140.61 162.76 L 141.19 163.15 L 141.71 163.19 L 142.19 163.16 L 142.43 163.30 L 142.49 163.51 L 142.24 163.77 L 141.76 163.92 L 140.70 163.93 L 138.09 163.56 L 136.78 163.02 L 135.53 161.98 L 134.89 161.07 L 134.32 159.74 L 133.87 157.87 L 133.48 153.67 L 133.68 150.96 L 134.18 149.47 L 134.77 148.90 L 135.49 148.87 Z" fill="#0174bc" fill-rule="nonzero" group-id="5,17" id="路径_1603" node-id="23" stroke="none" target-height="15.062988" target-width="9.004761" target-x="133.48059" target-y="148.86987"></path><path d="M 140.43 154.75 L 140.55 155.85 L 140.70 157.97 L 140.58 159.38 L 140.28 159.63 L 140.03 159.53 L 139.87 159.08 L 139.86 157.53 L 140.10 155.21 L 140.28 154.78 L 140.43 154.75 Z" fill="#0671c0" fill-rule="nonzero" group-id="5,18" id="路径_1604" node-id="24" stroke="none" target-height="4.8759766" target-width="0.84069824" target-x="139.85803" target-y="154.75"></path><path d="M 149.24 152.34 L 149.29 152.98 L 149.10 153.57 L 148.69 154.05 L 148.10 154.37 L 147.43 154.45 L 146.82 154.28 L 146.32 153.90 L 146.01 153.34 L 145.95 152.70 L 146.15 152.11 L 146.56 151.63 L 147.15 151.31 L 147.82 151.24 L 148.43 151.41 L 148.92 151.78 L 149.24 152.34 Z" fill="none" group-id="5,19" id="椭圆_38" node-id="25" stroke="#43c7f9" stroke-linecap="butt" stroke-width="2" target-height="3.207428" target-width="3.3395538" target-x="145.95488" target-y="151.23766"></path><path d="M 146.68 161.04 L 146.61 161.65 L 146.11 162.05 L 145.46 162.00 L 145.06 161.53 L 145.13 160.92 L 145.63 160.52 L 146.28 160.57 L 146.68 161.04 Z" fill="none" group-id="5,20" id="椭圆_39" node-id="26" stroke="#43c7f9" stroke-linecap="butt" stroke-width="2" target-height="1.5306244" target-width="1.612793" target-x="145.06444" target-y="160.51888"></path><path d="M 148.67 157.23 L 149.37 157.64 L 149.56 158.27 L 149.12 158.77 L 148.31 158.83 L 147.60 158.42 L 147.41 157.78 L 147.86 157.29 L 148.67 157.23 Z" fill="none" group-id="5,21" id="椭圆_40" node-id="27" stroke="#43c7f9" stroke-linecap="butt" stroke-width="2" target-height="1.5951538" target-width="2.14505" target-x="147.41467" target-y="157.23116"></path><path d="M 143.26 154.79 L 143.60 155.06 L 143.64 155.39 L 143.39 155.60 L 142.95 155.58 L 142.61 155.31 L 142.57 154.98 L 142.82 154.76 L 143.26 154.79 Z" fill="none" group-id="5,22" id="椭圆_41" node-id="28" stroke="#43c7f9" stroke-linecap="butt" stroke-width="2" target-height="0.839447" target-width="1.0644073" target-x="142.57281" target-y="154.7635"></path><path d="M 137.47 150.46 L 137.81 150.73 L 137.85 151.06 L 137.60 151.27 L 137.16 151.25 L 136.82 150.98 L 136.78 150.65 L 137.03 150.44 L 137.47 150.46 Z" fill="none" group-id="5,23" id="椭圆_42" node-id="29" stroke="#43c7f9" stroke-linecap="butt" stroke-width="2" target-height="0.839447" target-width="1.0644073" target-x="136.78383" target-y="150.4355"></path><path d="M 138.79 146.75 L 139.40 147.06 L 140.55 147.90 L 141.00 148.48 L 141.19 149.11 L 141.13 151.74 L 141.00 155.32 L 141.05 157.39 L 141.18 157.36 L 141.55 156.53 L 142.24 153.91 L 142.49 152.36 L 142.56 150.95 L 142.62 148.94 L 142.48 147.79 L 142.18 147.39 L 141.51 146.91 L 140.31 146.37 L 139.48 146.24 L 138.89 146.39 L 138.79 146.75 Z" fill="#0270bf" fill-rule="nonzero" group-id="5,24" id="路径_1605" node-id="30" stroke="none" target-height="11.1484375" target-width="3.8273926" target-x="138.79297" target-y="146.23755"></path><path d="M 148.97 144.17 L 148.33 144.96 L 147.52 145.60 L 146.08 146.30 L 144.32 146.70 L 141.68 146.69 L 142.90 146.66 L 145.61 146.62 L 148.37 146.68 L 149.45 146.80 L 149.75 146.93 L 149.58 147.06 L 148.21 147.40 L 144.28 148.08 L 139.52 148.80 L 135.52 149.35 L 133.84 149.58 L 133.63 148.63 L 133.48 146.56 L 133.66 145.46 L 134.11 144.55 L 134.88 143.95 L 136.24 143.77 L 137.91 143.78 L 139.96 143.60 L 144.11 143.13 L 146.07 143.00 L 147.51 143.07 L 148.33 143.30 L 148.78 143.66 L 148.97 144.17 Z" fill="#78dcec" fill-opacity="0.67" fill-rule="nonzero" group-id="5,25" id="路径_1606" node-id="31" stroke="none" target-height="6.581787" target-width="16.272339" target-x="133.47974" target-y="142.99927"></path><path d="M 144.33 144.58 L 144.24 144.93 L 144.02 145.23 L 143.41 145.63 L 142.57 145.92 L 140.98 146.15 L 138.47 146.11 L 137.78 145.91 L 137.50 145.70 L 137.34 145.27 L 137.47 145.19 L 138.13 145.21 L 139.89 145.31 L 140.86 145.26 L 141.71 145.06 L 143.61 144.49 L 144.22 144.47 L 144.33 144.58 Z" fill="#d9f4f9" fill-rule="nonzero" group-id="5,26" id="路径_1607" node-id="32" stroke="none" target-height="1.6767578" target-width="6.986084" target-x="137.33899" target-y="144.47217"></path><path d="M 146.29 142.80 L 144.28 143.68 L 142.12 144.09 L 139.66 144.02 L 137.24 143.91 L 136.18 143.99 L 135.46 144.21 L 135.20 144.58 L 135.55 145.05 L 137.33 145.98 L 139.32 146.59 L 140.07 146.91 L 139.89 147.15 L 139.21 147.27 L 137.80 147.06 L 136.42 146.69 L 135.54 146.63 L 134.92 146.95 L 134.52 147.97 L 134.28 150.47 L 134.05 153.27 L 133.86 154.39 L 133.70 154.69 L 133.58 154.54 L 133.41 153.54 L 133.24 150.68 L 133.26 147.42 L 133.52 145.05 L 133.99 144.22 L 134.84 143.67 L 135.89 143.39 L 137.07 143.30 L 139.17 143.55 L 140.17 143.60 L 141.67 143.38 L 144.61 142.76 L 145.84 142.63 L 146.29 142.80 Z" fill="#d9f4f9" fill-rule="nonzero" group-id="5,27" id="路径_1608" node-id="33" stroke="none" target-height="12.059326" target-width="13.045654" target-x="133.24329" target-y="142.63184"></path><path d="M 115.20 139.82 L 113.77 138.90 L 110.52 136.91 L 107.00 134.98 L 105.47 134.34 L 104.76 134.23 L 102.99 134.97 L 100.49 136.31 L 98.25 137.59 L 97.29 138.16 L 98.66 141.47 L 113.95 143.86 Z" fill="#61d8e5" fill-rule="nonzero" group-id="6,28" id="路径_1609" node-id="35" stroke="none" target-height="9.63208" target-width="17.91394" target-x="97.287964" target-y="134.22998"></path><path d="M 105.86 133.95 L 105.98 133.65 L 105.91 133.33 L 105.68 133.12 L 105.36 133.07 L 101.90 133.85 L 99.86 134.60 L 97.90 135.67 L 96.75 136.57 L 95.86 137.64 L 95.21 138.89 L 95.05 139.93 L 95.26 140.39 L 95.81 140.53 L 97.01 140.27 L 98.91 139.38 L 100.84 138.19 L 102.82 136.75 L 104.63 135.22 L 105.86 133.95 Z" fill="#d6f4f8" fill-rule="nonzero" group-id="6,29" id="路径_1610" node-id="36" stroke="none" target-height="7.4611816" target-width="10.938721" target-x="95.045166" target-y="133.06909"></path><path d="M 95.92 166.98 L 95.74 167.27 L 95.87 167.46 L 96.83 167.78 L 98.30 167.94 L 101.63 168.01 L 107.14 168.43 L 113.93 169.08 L 117.45 169.18 L 120.76 168.96 L 122.90 168.58 L 124.77 167.95 L 126.40 167.10 L 127.79 165.94 L 128.87 164.43 L 129.64 162.48 L 130.47 158.45 L 130.97 154.46 L 131.23 150.52 L 131.28 147.09 L 131.09 141.70 L 130.91 139.61 L 113.77 141.64 L 98.86 139.68 Z" fill="#05aae4" fill-rule="nonzero" group-id="6,30" id="路径_1611" node-id="37" stroke="none" target-height="29.567871" target-width="35.541504" target-x="95.74219" target-y="139.60791"></path><path d="M 101.71 143.38 L 102.27 143.17 L 102.72 142.89 L 103.07 142.49 L 103.17 141.99 L 102.82 141.24 L 102.06 140.46 L 100.82 139.55 L 99.39 138.79 L 97.75 138.25 L 96.05 138.06 L 94.37 138.35 L 93.35 139.03 L 92.65 140.18 L 92.26 141.59 L 92.10 143.21 L 92.24 146.28 L 92.61 148.22 L 92.92 150.76 L 93.12 155.23 L 93.08 159.84 L 92.93 161.81 L 92.71 162.84 L 92.60 163.97 L 92.99 165.28 L 93.77 166.48 L 94.87 167.46 L 96.18 168.05 L 97.63 168.08 L 98.99 167.58 L 99.82 166.91 L 100.26 166.05 L 100.35 165.07 L 100.06 163.95 L 99.31 162.63 L 98.08 161.15 L 97.85 160.80 L 98.34 160.30 L 99.26 159.42 L 99.61 158.83 L 99.77 157.65 L 99.58 156.13 L 98.76 153.28 L 98.23 151.18 L 98.06 149.48 L 98.18 148.12 L 98.78 146.22 L 99.66 144.91 L 100.77 143.91 L 101.71 143.38 Z" fill="#016ec0" fill-rule="nonzero" group-id="6,31" id="路径_1612" node-id="38" stroke="none" target-height="30.013916" target-width="11.0703125" target-x="92.09729" target-y="138.06201"></path><path d="M 128.17 143.95 L 128.10 145.14 L 127.88 147.86 L 127.53 150.79 L 127.07 152.63 L 125.99 154.86 L 124.61 157.71 L 123.91 158.70 L 123.60 158.76 L 123.43 158.37 L 123.26 157.38 L 123.03 154.97 L 122.79 152.70 L 122.58 151.90 L 122.39 151.74 L 122.14 152.13 L 121.89 153.75 L 121.73 157.94 L 121.74 161.91 L 121.58 163.46 L 121.10 164.99 L 120.36 166.38 L 119.51 167.42 L 118.53 168.07 L 117.66 168.14 L 116.84 168.09 L 116.43 168.32 L 116.35 168.68 L 116.76 169.11 L 117.58 169.37 L 119.37 169.40 L 122.63 169.03 L 124.34 168.60 L 126.04 167.82 L 127.57 166.66 L 129.00 164.85 L 130.07 162.56 L 130.91 159.16 L 131.47 154.36 L 131.54 150.62 L 131.18 147.28 L 130.53 145.25 L 129.82 144.26 L 129.06 143.87 L 128.17 143.95 Z" fill="#0174bc" fill-rule="nonzero" group-id="6,32" id="路径_1613" node-id="39" stroke="none" target-height="25.522217" target-width="15.194702" target-x="116.34839" target-y="143.8728"></path><path d="M 119.81 153.88 L 119.69 154.99 L 119.46 157.50 L 119.35 160.15 L 119.42 161.25 L 119.57 161.70 L 119.91 162.04 L 120.21 162.14 L 120.47 162.00 L 120.72 161.36 L 120.83 160.42 L 120.79 158.57 L 120.37 154.65 L 120.07 153.92 L 119.81 153.88 Z" fill="#0671c0" fill-rule="nonzero" group-id="6,33" id="路径_1614" node-id="40" stroke="none" target-height="8.257324" target-width="1.4770508" target-x="119.350464" target-y="153.88086"></path><path d="M 108.46 148.07 L 109.47 148.61 L 110.16 149.42 L 110.49 150.42 L 110.39 151.50 L 109.86 152.44 L 109.03 153.08 L 108.00 153.37 L 106.87 153.24 L 105.86 152.70 L 105.17 151.89 L 104.84 150.89 L 104.94 149.81 L 105.47 148.87 L 106.30 148.23 L 107.33 147.95 L 108.46 148.07 Z" fill="none" group-id="6,34" id="椭圆_43" node-id="41" stroke="#43c7f9" stroke-linecap="butt" stroke-width="2" target-height="5.4197235" target-width="5.642494" target-x="104.84371" target-y="147.94559"></path><path d="M 111.03 163.63 L 111.53 163.90 L 111.87 164.30 L 112.04 164.80 L 111.99 165.34 L 111.73 165.81 L 111.31 166.13 L 110.80 166.28 L 110.23 166.21 L 109.72 165.94 L 109.38 165.54 L 109.22 165.04 L 109.26 164.50 L 109.53 164.03 L 109.95 163.71 L 110.46 163.57 L 111.03 163.63 Z" fill="none" group-id="6,35" id="椭圆_44" node-id="42" stroke="#43c7f9" stroke-linecap="butt" stroke-width="2" target-height="2.7089844" target-width="2.8211365" target-x="109.21626" target-y="163.56671"></path><path d="M 108.02 159.01 L 108.00 159.56 L 107.70 160.08 L 107.21 160.49 L 106.51 160.77 L 105.77 160.82 L 105.14 160.67 L 104.65 160.32 L 104.39 159.83 L 104.41 159.29 L 104.71 158.76 L 105.20 158.35 L 105.90 158.07 L 106.64 158.02 L 107.27 158.18 L 107.76 158.52 L 108.02 159.01 Z" fill="none" group-id="6,36" id="椭圆_45" node-id="43" stroke="#43c7f9" stroke-linecap="butt" stroke-width="2" target-height="2.8019714" target-width="3.625145" target-x="104.39293" target-y="158.02063"></path><path d="M 116.20 154.27 L 116.13 154.82 L 115.56 155.28 L 114.82 155.32 L 114.40 154.96 L 114.47 154.41 L 115.04 153.94 L 115.78 153.90 L 116.20 154.27 Z" fill="none" group-id="6,37" id="椭圆_46" node-id="44" stroke="#43c7f9" stroke-linecap="butt" stroke-width="2" target-height="1.4177704" target-width="1.7982788" target-x="114.40139" target-y="153.9038"></path><path d="M 125.98 146.95 L 125.91 147.51 L 125.34 147.97 L 124.60 148.01 L 124.18 147.64 L 124.25 147.09 L 124.82 146.63 L 125.56 146.59 L 125.98 146.95 Z" fill="none" group-id="6,38" id="椭圆_47" node-id="45" stroke="#43c7f9" stroke-linecap="butt" stroke-width="2" target-height="1.4177704" target-width="1.7982788" target-x="124.1814" target-y="146.59079"></path><path d="M 122.59 140.36 L 121.56 140.89 L 120.62 141.48 L 119.63 142.30 L 118.86 143.28 L 118.54 144.35 L 118.59 147.38 L 118.77 151.88 L 118.89 156.12 L 118.78 158.33 L 118.62 158.36 L 118.21 157.62 L 117.33 154.89 L 116.53 151.17 L 116.29 149.21 L 116.22 147.46 L 116.13 144.06 L 116.14 142.91 L 116.36 142.12 L 116.87 141.44 L 118.00 140.63 L 120.02 139.73 L 121.42 139.50 L 122.23 139.63 L 122.55 139.92 L 122.59 140.36 Z" fill="#0270bf" fill-rule="nonzero" group-id="6,39" id="路径_1615" node-id="46" stroke="none" target-height="18.862793" target-width="6.4608154" target-x="116.125244" target-y="139.49658"></path><path d="M 105.40 136.01 L 105.98 136.81 L 106.70 137.56 L 107.97 138.51 L 109.53 139.32 L 111.76 140.02 L 114.29 140.36 L 117.71 140.26 L 115.65 140.21 L 111.07 140.14 L 106.41 140.24 L 104.58 140.45 L 104.07 140.66 L 104.27 140.84 L 105.89 141.29 L 110.82 142.21 L 117.33 143.22 L 123.88 144.17 L 128.93 144.87 L 130.96 145.14 L 131.31 143.53 L 131.52 141.95 L 131.56 140.03 L 131.26 138.17 L 130.50 136.64 L 129.71 135.89 L 128.56 135.44 L 126.89 135.32 L 124.08 135.33 L 120.60 135.05 L 113.59 134.24 L 110.29 134.02 L 107.86 134.15 L 106.47 134.53 L 105.71 135.15 L 105.40 136.01 Z" fill="#78dcec" fill-opacity="0.67" fill-rule="nonzero" group-id="6,40" id="路径_1616" node-id="47" stroke="none" target-height="11.1171875" target-width="27.494263" target-x="104.06885" target-y="134.02393"></path><path d="M 113.24 136.70 L 113.38 137.29 L 113.76 137.80 L 114.79 138.48 L 116.21 138.96 L 118.90 139.35 L 121.62 139.43 L 123.13 139.28 L 124.30 138.94 L 124.77 138.60 L 125.01 138.18 L 125.04 137.87 L 124.82 137.74 L 123.71 137.76 L 120.74 137.94 L 119.09 137.85 L 117.67 137.51 L 115.75 136.85 L 114.44 136.55 L 113.42 136.52 L 113.24 136.70 Z" fill="#d9f4f9" fill-rule="nonzero" group-id="6,41" id="路径_1617" node-id="48" stroke="none" target-height="2.909912" target-width="11.804077" target-x="113.23987" target-y="136.51685"></path><path d="M 109.93 133.69 L 112.17 134.78 L 114.51 135.50 L 116.97 135.87 L 121.12 135.75 L 125.21 135.57 L 127.00 135.70 L 128.22 136.08 L 128.67 136.56 L 128.48 137.10 L 127.87 137.65 L 126.77 138.30 L 124.15 139.40 L 121.69 140.09 L 120.61 140.46 L 120.43 140.74 L 120.66 141.00 L 121.54 141.22 L 122.66 141.20 L 124.26 140.88 L 126.61 140.26 L 128.09 140.16 L 128.84 140.42 L 129.41 141.10 L 129.81 142.43 L 130.12 145.43 L 130.40 149.13 L 130.73 152.31 L 130.99 153.46 L 131.20 153.78 L 131.40 153.53 L 131.69 151.83 L 131.96 147.00 L 131.93 141.49 L 131.75 139.00 L 131.50 137.49 L 131.03 136.49 L 130.30 135.73 L 129.27 135.17 L 127.49 134.68 L 125.50 134.53 L 123.52 134.66 L 121.94 134.96 L 120.73 135.06 L 118.97 134.89 L 115.16 134.12 L 111.73 133.45 L 110.43 133.43 L 109.93 133.69 Z" fill="#d9f4f9" fill-rule="nonzero" group-id="6,42" id="路径_1618" node-id="49" stroke="none" target-height="20.351563" target-width="22.038452" target-x="109.926025" target-y="133.42847"></path><path d="M 91.19 81.16 L 92.55 154.24 L 92.26 155.81 L 91.67 157.27 L 90.81 158.57 L 89.68 159.70 L 86.30 162.43 L 81.68 164.90 L 77.33 166.65 L 73.20 167.77 L 68.97 168.32 L 64.77 168.26 L 60.55 167.58 L 56.45 166.35 L 52.14 164.47 L 47.58 161.89 L 45.09 159.60 L 43.85 158.14 L 43.03 156.50 L 42.61 154.63 L 40.52 81.50" fill="none" group-id="7,43,55,69" id="路径_1619" node-id="53" stroke="#d4f1ff" stroke-linecap="butt" stroke-width="5" target-height="87.159546" target-width="52.02307" target-x="40.52295" target-y="81.16211"></path><path d="M 42.90 150.93 L 44.40 152.51 L 46.09 154.03 L 48.77 156.00 L 51.88 157.80 L 55.88 159.48 L 58.73 160.30 L 61.94 160.83 L 65.57 161.04 L 69.18 160.84 L 73.20 160.11 L 77.69 158.77 L 81.99 156.97 L 86.77 154.35 L 92.08 150.77 L 92.08 157.20 L 90.27 158.91 L 88.26 160.55 L 85.20 162.69 L 81.70 164.66 L 77.39 166.48 L 74.33 167.40 L 71.01 168.00 L 67.38 168.26 L 63.76 168.08 L 59.89 167.34 L 55.71 165.98 L 52.76 164.64 L 49.66 162.83 L 46.38 160.50 L 42.90 157.59 Z" fill="#d4f1ff" fill-rule="nonzero" group-id="7,43,55,70" id="路径_1620" node-id="54" stroke="none" target-height="17.486328" target-width="49.178955" target-x="42.904907" target-y="150.77405"></path><path d="M 92.09 149.62 L 91.85 151.55 L 91.24 153.37 L 90.21 155.14 L 88.72 156.87 L 86.39 158.80 L 83.47 160.52 L 79.89 162.01 L 76.14 163.06 L 72.01 163.72 L 67.45 163.97 L 62.90 163.72 L 58.77 163.06 L 55.02 162.01 L 51.43 160.52 L 48.52 158.80 L 46.19 156.87 L 44.70 155.14 L 43.67 153.37 L 43.05 151.55 L 42.82 149.62 L 43.05 147.70 L 43.67 145.88 L 44.70 144.11 L 46.19 142.38 L 48.52 140.45 L 51.43 138.73 L 55.02 137.24 L 58.77 136.19 L 62.90 135.53 L 67.45 135.28 L 72.01 135.53 L 76.14 136.19 L 79.89 137.24 L 83.47 138.73 L 86.39 140.45 L 88.72 142.38 L 90.21 144.11 L 91.24 145.88 L 91.85 147.70 L 92.09 149.62 Z" fill="#78dcec" fill-opacity="0.67" fill-rule="nonzero" group-id="7,43,55,71" id="椭圆_48" node-id="55" stroke="none" target-height="28.692001" target-width="49.262005" target-x="42.823" target-y="135.27899"></path><path d="M 73.72 100.39 L 57.73 152.58 L 58.56 153.60 L 59.65 154.26 L 60.89 154.53 L 62.20 154.35 L 79.23 99.87 L 73.72 100.39 Z" fill="#05aae4" fill-rule="nonzero" group-id="7,43,55,72" id="路径_1621" node-id="56" stroke="none" target-height="54.65808" target-width="21.50293" target-x="57.72693" target-y="99.86902"></path><path d="M 40.52 83.59 L 40.77 81.11 L 41.42 78.77 L 42.49 76.54 L 44.00 74.39 L 46.46 71.89 L 49.48 69.71 L 53.15 67.85 L 57.05 66.51 L 61.32 65.68 L 66.02 65.36 L 68.74 65.55 L 71.86 66.09 L 74.99 66.87 L 78.00 67.81 L 80.84 68.86 L 83.05 69.82" fill="none" group-id="7,43,55,73" id="路径_1622" node-id="57" stroke="#ffffff" stroke-linecap="butt" stroke-width="5" target-height="18.234009" target-width="42.529053" target-x="40.517944" target-y="65.359985"></path><path d="M 83.95 70.63 L 86.19 72.42 L 88.02 74.36 L 89.49 76.45 L 90.61 78.73 L 91.29 81.10 L 91.53 83.59 L 91.28 86.08 L 90.63 88.42 L 89.56 90.65 L 88.05 92.80 L 85.59 95.29 L 82.56 97.48 L 78.90 99.34 L 75.00 100.68 L 70.73 101.51 L 66.03 101.83 L 61.33 101.51 L 57.06 100.68 L 53.16 99.34 L 49.49 97.48 L 46.47 95.29 L 44.01 92.80 L 42.50 90.65 L 41.43 88.42 L 40.78 86.08 L 40.53 83.59" fill="none" group-id="7,43,55,74" id="路径_1623" node-id="58" stroke="#d4f1ff" stroke-linecap="butt" stroke-width="5" target-height="31.203003" target-width="51" target-x="40.527954" target-y="70.62695"></path><path d="M 79.73 98.32 L 97.12 43.20 L 96.37 42.57 L 95.56 42.08 L 94.43 41.66 L 93.19 41.55 L 91.73 41.93 L 73.72 100.39 L 75.37 99.96 L 77.01 99.46 Z" fill="#05aae4" fill-rule="nonzero" group-id="7,43,55,75" id="路径_1624" node-id="59" stroke="none" target-height="58.843628" target-width="23.40503" target-x="73.71594" target-y="41.550415"></path><path d="M 69.54 101.05 L 66.12 101.22 L 62.83 101.08 L 59.66 100.62 L 56.55 99.86 L 53.68 98.85 L 51.04 97.61 L 48.57 96.08 L 46.44 94.39 L 44.64 92.52 L 43.13 90.43 L 42.06 88.22 L 41.38 85.86 L 41.16 83.43 L 41.37 81.11 L 42.00 78.86 L 43.06 76.66 L 44.98 74.02 L 47.50 71.63 L 50.70 69.47 L 54.20 67.81 L 58.17 66.59 L 62.68 65.82 L 67.25 65.67 L 71.53 66.06 L 75.56 66.97 L 79.43 68.40 L 82.74 70.21 L 85.58 72.38 L 87.44 74.32 L 88.88 76.37 L 89.93 78.56 L 90.62 80.91 L 90.84 83.35 L 90.64 85.68 L 90.04 87.94 L 89.01 90.16 L 87.14 92.83 L 84.66 95.25 L 81.50 97.42 L 78.03 99.09 L 74.07 100.31 L 69.54 101.05 Z" fill="url(#linear-gradient)" fill-rule="nonzero" group-id="7,43,55,76,97,98,99,100" id="路径_1625" node-id="64" stroke="none" target-height="35.55542" target-width="49.674683" target-x="41.162964" target-y="65.667725"></path><path d="M 46.54 94.23 L 44.04 95.15 L 41.56 95.51 L 39.03 95.32 L 36.60 94.61 L 34.39 93.41 L 32.38 91.67 L 30.82 89.52 L 29.79 87.23 L 29.29 84.75 L 29.31 82.21 L 29.87 79.77 L 30.99 77.36 L 32.63 75.26 L 34.56 73.66 L 36.81 72.49 L 39.26 71.82 L 41.77 71.70 L 44.39 72.12 L 46.85 73.13 L 48.92 74.55 L 50.65 76.40 L 51.96 78.57 L 52.77 80.95 L 53.07 83.59 L 52.86 85.83 L 52.28 87.90 L 51.31 89.84 L 50.02 91.57 L 48.43 93.03 L 46.54 94.23" fill="#ffbe57" fill-rule="nonzero" group-id="7,43,56,77" id="路径_1626" node-id="66" stroke="none" target-height="23.813599" target-width="23.782227" target-x="29.285767" target-y="71.69702"></path><path d="M 52.07 83.59 L 51.88 85.59 L 51.39 87.41 L 50.58 89.10 L 49.49 90.64 L 48.19 91.94 L 46.66 93.02 L 44.97 93.83 L 43.14 94.33 L 41.15 94.51 L 39.16 94.33 L 37.33 93.83 L 35.64 93.02 L 34.11 91.94 L 32.81 90.64 L 31.73 89.10 L 30.92 87.41 L 30.42 85.59 L 30.23 83.59 L 30.42 81.60 L 30.92 79.78 L 31.73 78.08 L 32.81 76.55 L 34.11 75.25 L 35.64 74.17 L 37.33 73.36 L 39.16 72.86 L 41.15 72.68 L 43.14 72.86 L 44.97 73.36 L 46.66 74.17 L 48.19 75.25 L 49.49 76.55 L 50.58 78.08 L 51.39 79.78 L 51.88 81.60 L 52.07 83.59 Z" fill="#ffffff" fill-rule="nonzero" group-id="7,43,56,78" id="椭圆_49" node-id="67" stroke="none" target-height="21.834" target-width="21.834" target-x="30.235" target-y="72.677"></path><path d="M 41.46 85.01 L 42.49 86.00 L 44.64 88.25 L 46.49 90.62 L 46.87 91.59 L 46.64 92.01 L 44.76 92.93 L 42.76 93.65 L 41.95 93.62 L 41.46 93.20 L 41.27 92.54 L 41.17 91.34 L 41.20 88.59 L 41.36 86.09 L 41.46 85.01 Z" fill="#fbfc88" fill-rule="nonzero" group-id="7,43,56,79" id="路径_1627" node-id="68" stroke="none" target-height="8.643921" target-width="5.7072754" target-x="41.167236" target-y="85.00708"></path><path d="M 42.37 84.38 L 43.80 84.36 L 46.91 84.42 L 49.90 84.79 L 50.86 85.20 L 50.99 85.66 L 50.30 87.64 L 49.40 89.57 L 48.81 90.12 L 48.16 90.17 L 47.56 89.83 L 46.64 89.06 L 44.72 87.09 L 43.07 85.22 L 42.37 84.38 Z" fill="#fbfc88" fill-rule="nonzero" group-id="7,43,56,80" id="路径_1628" node-id="69" stroke="none" target-height="5.812622" target-width="8.618042" target-x="42.36902" target-y="84.35535"></path><path d="M 42.57 83.29 L 43.57 82.26 L 45.81 80.11 L 48.18 78.25 L 49.15 77.87 L 49.57 78.10 L 50.49 79.99 L 51.21 81.99 L 51.19 82.80 L 50.76 83.29 L 50.10 83.47 L 48.90 83.58 L 46.15 83.55 L 43.65 83.39 L 42.57 83.29 Z" fill="#fbfc88" fill-rule="nonzero" group-id="7,43,56,81" id="路径_1629" node-id="70" stroke="none" target-height="5.708618" target-width="8.643799" target-x="42.567993" target-y="77.87048"></path><path d="M 41.94 82.38 L 41.91 80.94 L 41.98 77.83 L 42.35 74.84 L 42.76 73.89 L 43.22 73.76 L 45.20 74.44 L 47.13 75.34 L 47.68 75.93 L 47.73 76.59 L 47.39 77.18 L 46.62 78.11 L 44.65 80.03 L 42.77 81.68 L 41.94 82.38 Z" fill="#fbfc88" fill-rule="nonzero" group-id="7,43,56,82" id="路径_1630" node-id="71" stroke="none" target-height="8.618042" target-width="5.8133545" target-x="41.913696" target-y="73.757935"></path><path d="M 40.85 82.18 L 39.82 81.18 L 37.67 78.94 L 35.81 76.56 L 35.43 75.59 L 35.66 75.18 L 37.55 74.26 L 39.54 73.53 L 40.35 73.56 L 40.85 73.99 L 41.03 74.65 L 41.14 75.85 L 41.10 78.60 L 40.94 81.09 L 40.85 82.18 Z" fill="#fbfc88" fill-rule="nonzero" group-id="7,43,56,83" id="路径_1631" node-id="72" stroke="none" target-height="8.643311" target-width="5.708618" target-x="35.428467" target-y="73.53369"></path><path d="M 39.93 82.81 L 38.50 82.83 L 35.39 82.76 L 32.40 82.40 L 31.44 81.98 L 31.31 81.53 L 32.00 79.54 L 32.90 77.62 L 33.49 77.06 L 34.14 77.02 L 34.73 77.36 L 35.66 78.13 L 37.58 80.10 L 39.23 81.97 L 39.93 82.81 Z" fill="#fbfc88" fill-rule="nonzero" group-id="7,43,56,84" id="路径_1632" node-id="73" stroke="none" target-height="5.8125" target-width="8.618042" target-x="31.312012" target-y="77.01904"></path><path d="M 39.73 83.90 L 38.74 84.93 L 36.49 87.08 L 34.12 88.94 L 33.15 89.32 L 32.73 89.09 L 31.82 87.20 L 31.09 85.20 L 31.12 84.39 L 31.55 83.90 L 32.21 83.72 L 33.41 83.61 L 36.16 83.64 L 38.65 83.80 L 39.73 83.90 Z" fill="#fbfc88" fill-rule="nonzero" group-id="7,43,56,85" id="路径_1633" node-id="74" stroke="none" target-height="5.7072754" target-width="8.643188" target-x="31.091797" target-y="83.609985"></path><path d="M 40.37 84.81 L 40.39 86.24 L 40.32 89.35 L 39.96 92.34 L 39.54 93.30 L 39.08 93.43 L 37.10 92.74 L 35.18 91.84 L 34.62 91.25 L 34.58 90.60 L 34.91 90.01 L 35.69 89.08 L 37.65 87.16 L 39.53 85.51 L 40.37 84.81 Z" fill="#fbfc88" fill-rule="nonzero" group-id="7,43,56,86" id="路径_1634" node-id="75" stroke="none" target-height="8.61792" target-width="5.8133545" target-x="34.57605" target-y="84.811035"></path><path d="M 40.85 85.53 L 41.05 99.87" fill="none" group-id="7,43,57" id="直线_113" node-id="76" stroke="#d4f1ff" stroke-linecap="butt" stroke-width="5" target-height="14.334" target-width="0.20199966" target-x="40.846" target-y="85.535"></path><path d="M 54.04 99.69 L 52.17 98.87 L 50.34 97.89 L 47.97 96.33 L 45.67 94.40 L 43.50 91.92 L 42.31 90.05 L 41.43 87.94 L 40.85 85.54" fill="none" group-id="7,43,58" id="路径_1635" node-id="77" stroke="#d4f1ff" stroke-linecap="butt" stroke-width="5" target-height="14.156006" target-width="13.187012" target-x="40.850952" target-y="85.535034"></path><path d="M 72.26 134.89 L 67.68 136.46 L 66.82 137.03 L 66.07 137.79 L 65.19 139.17 L 64.58 140.89 L 64.25 143.52 L 64.44 146.50 L 65.42 150.74 L 66.98 153.90 L 68.42 155.98 L 70.01 157.62 L 71.33 158.56 L 72.65 159.17 L 73.53 159.40 L 74.41 159.48 L 78.61 158.16 Z" fill="#f2be3b" fill-rule="nonzero" group-id="8,44" id="路径_1636" node-id="79" stroke="none" target-height="24.583984" target-width="14.356323" target-x="64.24963" target-y="134.89111"></path><path d="M 81.97 153.34 L 82.42 151.15 L 82.44 148.98 L 82.04 146.78 L 80.93 146.64 L 78.79 146.42 L 76.71 146.32 L 75.95 146.40 L 75.79 146.54 L 76.72 147.81 L 78.78 150.05 L 80.88 152.23 L 81.97 153.34 Z" fill="#fffb64" fill-rule="nonzero" group-id="8,45,59,87" id="路径_1637" node-id="82" stroke="none" target-height="7.0251465" target-width="6.6518555" target-x="75.78992" target-y="146.31592"></path><path d="M 78.27 157.25 L 78.93 157.12 L 79.51 156.86 L 80.24 156.31 L 80.88 155.52 L 81.49 154.21 L 80.69 153.10 L 79.05 150.89 L 77.26 148.55 L 75.97 147.05 L 75.74 146.92 L 76.00 148.60 L 76.85 152.02 L 77.77 155.47 L 78.27 157.25 Z" fill="#fffb64" fill-rule="nonzero" group-id="8,46,60,88" id="路径_1638" node-id="85" stroke="none" target-height="10.328125" target-width="5.751953" target-x="75.742065" target-y="146.92102"></path><path d="M 73.45 155.41 L 74.62 156.34 L 75.92 156.90 L 77.39 157.11 L 77.13 155.39 L 76.59 152.05 L 75.99 148.72 L 75.53 147.05 L 75.37 147.20 L 74.95 148.15 L 74.10 150.74 L 73.30 153.44 L 72.90 154.85 L 73.45 155.41 Z" fill="#fffb64" fill-rule="nonzero" group-id="8,47,61,89" id="路径_1639" node-id="88" stroke="none" target-height="10.057129" target-width="4.4959717" target-x="72.89795" target-y="147.05298"></path><path d="M 68.19 139.79 L 68.75 138.09 L 69.45 136.81 L 70.29 135.88 L 71.32 135.20 L 72.43 134.86 L 73.67 134.85 L 74.89 135.15 L 76.20 135.82 L 77.62 136.92 L 79.45 139.01 L 80.98 141.60 L 82.10 144.45 L 82.79 147.43 L 83.00 150.43 L 82.68 153.17 L 82.12 154.87 L 81.42 156.15 L 80.58 157.08 L 79.55 157.76 L 78.44 158.10 L 77.20 158.11 L 75.98 157.81 L 74.67 157.15 L 73.25 156.04 L 71.42 153.96 L 69.89 151.36 L 68.77 148.51 L 68.08 145.53 L 67.87 142.53 L 68.19 139.79 Z M 77.54 137.29 L 75.93 136.10 L 74.51 135.47 L 73.22 135.26 L 72.00 135.44 L 70.89 135.97 L 69.94 136.86 L 69.13 138.18 L 68.48 140.06 L 68.17 142.69 L 68.37 145.57 L 69.03 148.43 L 70.11 151.17 L 71.58 153.66 L 73.33 155.67 L 74.94 156.86 L 76.36 157.50 L 77.65 157.70 L 78.87 157.52 L 79.98 156.99 L 80.93 156.10 L 81.74 154.78 L 82.39 152.91 L 82.70 150.27 L 82.50 147.39 L 81.84 144.53 L 80.76 141.79 L 79.29 139.30 L 77.54 137.29" fill="#ffcc3e" fill-rule="nonzero" group-id="8,48,62,90" id="路径_1640" node-id="91" stroke="none" target-height="23.264893" target-width="15.12854" target-x="67.87012" target-y="134.84912"></path><path d="M 75.34 145.97 L 75.50 145.82 L 75.91 144.87 L 76.77 142.26 L 77.57 139.53 L 77.97 138.11 L 77.41 137.55 L 76.25 136.62 L 74.95 136.06 L 73.47 135.85 L 73.73 137.58 L 74.27 140.95 L 74.88 144.29 L 75.34 145.97 Z" fill="#fffb64" fill-rule="nonzero" group-id="8,49,63,91" id="路径_1641" node-id="94" stroke="none" target-height="10.123047" target-width="4.494995" target-x="73.471924" target-y="135.85107"></path><path d="M 74.78 145.92 L 75.14 146.07 L 74.88 144.39 L 74.04 140.95 L 73.12 137.47 L 72.63 135.68 L 71.92 135.82 L 71.31 136.09 L 70.54 136.65 L 69.88 137.44 L 69.25 138.75 L 70.05 139.86 L 71.69 142.07 L 73.49 144.42 L 74.78 145.92 Z" fill="#fffb64" fill-rule="nonzero" group-id="8,50,64,92" id="路径_1642" node-id="97" stroke="none" target-height="10.394043" target-width="5.8929443" target-x="69.25" target-y="135.68005"></path><path d="M 68.82 146.18 L 69.94 146.32 L 72.08 146.54 L 74.15 146.64 L 74.91 146.56 L 75.07 146.42 L 74.14 145.15 L 72.09 142.91 L 69.98 140.73 L 68.89 139.62 L 68.45 141.81 L 68.42 143.98 L 68.82 146.18 Z" fill="#fffb64" fill-rule="nonzero" group-id="8,51,65,93" id="路径_1643" node-id="100" stroke="none" target-height="7.0234375" target-width="6.651001" target-x="68.423096" target-y="139.6211"></path><path d="M 68.47 140.06 L 69.13 138.18 L 69.94 136.86 L 70.89 135.97 L 72.00 135.44 L 73.22 135.26 L 74.51 135.47 L 75.93 136.10 L 77.53 137.29 L 79.29 139.30 L 80.76 141.79 L 81.84 144.53 L 82.50 147.39 L 82.70 150.27 L 82.39 152.91 L 81.74 154.78 L 80.93 156.10 L 79.97 156.99 L 78.86 157.52 L 77.65 157.70 L 76.36 157.50 L 74.94 156.86 L 73.33 155.67 L 71.58 153.66 L 70.11 151.17 L 69.03 148.44 L 68.36 145.57 L 68.17 142.69 L 68.47 140.06 Z M 78.72 139.18 L 78.12 140.32 L 77.00 142.57 L 75.96 144.86 L 75.64 145.80 L 75.63 146.12 L 75.65 146.15 L 76.13 146.26 L 77.42 146.18 L 80.23 145.73 L 81.85 145.41 L 81.14 143.17 L 80.10 141.10 L 78.72 139.18 M 72.15 153.78 L 72.75 152.64 L 73.87 150.39 L 74.91 148.10 L 75.23 147.16 L 75.24 146.83 L 75.21 146.81 L 74.74 146.70 L 73.45 146.78 L 70.64 147.22 L 69.01 147.55 L 69.73 149.79 L 70.77 151.86 L 72.15 153.78 M 81.49 154.21 L 80.69 153.10 L 79.05 150.89 L 77.26 148.54 L 75.97 147.04 L 75.74 146.92 L 76.00 148.59 L 76.85 152.01 L 77.77 155.47 L 78.27 157.25 L 78.93 157.11 L 79.50 156.86 L 80.24 156.30 L 80.88 155.52 L 81.49 154.21 M 69.37 138.75 L 70.18 139.85 L 71.81 142.07 L 73.61 144.41 L 74.90 145.91 L 75.12 146.04 L 74.86 144.36 L 74.01 140.94 L 73.09 137.49 L 72.60 135.71 L 71.93 135.84 L 71.36 136.10 L 70.63 136.65 L 69.99 137.44 L 69.37 138.75 M 68.82 146.17 L 69.94 146.31 L 72.08 146.54 L 74.15 146.64 L 74.91 146.56 L 75.07 146.42 L 74.14 145.14 L 72.09 142.91 L 69.98 140.73 L 68.89 139.62 L 68.44 141.81 L 68.42 143.98 L 68.82 146.17 M 75.79 146.53 L 76.72 147.81 L 78.78 150.05 L 80.88 152.23 L 81.97 153.33 L 82.42 151.15 L 82.44 148.97 L 82.04 146.78 L 80.93 146.64 L 78.79 146.41 L 76.71 146.31 L 75.95 146.39 L 75.79 146.53 M 73.45 155.40 L 74.61 156.33 L 75.91 156.89 L 77.39 157.10 L 77.13 155.38 L 76.59 152.04 L 75.98 148.71 L 75.51 147.04 L 75.35 147.19 L 74.94 148.14 L 74.09 150.73 L 73.29 153.43 L 72.90 154.84 L 73.45 155.40 M 77.41 137.54 L 76.24 136.62 L 74.95 136.06 L 73.47 135.84 L 73.73 137.56 L 74.27 140.91 L 74.88 144.24 L 75.35 145.91 L 75.51 145.76 L 75.91 144.81 L 76.77 142.22 L 77.57 139.52 L 77.96 138.11 L 77.41 137.54" fill="#fefeff" fill-rule="nonzero" group-id="8,52,66,94" id="路径_1644" node-id="103" stroke="none" target-height="22.436035" target-width="14.533325" target-x="68.16504" target-y="135.26343"></path><path d="M 75.66 146.15 L 75.64 146.12 L 75.65 145.79 L 75.96 144.86 L 77.00 142.57 L 78.13 140.32 L 78.72 139.18 L 80.10 141.10 L 81.14 143.17 L 81.85 145.41 L 80.23 145.73 L 77.42 146.18 L 76.13 146.26 L 75.66 146.15 Z" fill="#fffb64" fill-rule="nonzero" group-id="8,53,67,95" id="路径_1645" node-id="106" stroke="none" target-height="7.0803223" target-width="6.2180176" target-x="75.63501" target-y="139.17798"></path><path d="M 72.14 153.78 L 72.74 152.64 L 73.87 150.39 L 74.90 148.10 L 75.22 147.17 L 75.23 146.84 L 75.21 146.81 L 74.73 146.70 L 73.44 146.78 L 70.63 147.23 L 69.01 147.55 L 69.73 149.80 L 70.77 151.87 L 72.14 153.78 Z" fill="#fffb64" fill-rule="nonzero" group-id="8,54,68,96" id="路径_1646" node-id="109" stroke="none" target-height="7.07959" target-width="6.2229004" target-x="69.00903" target-y="146.70337"></path><path d="M 40.60 86.66 L 41.33 88.37 L 42.26 90.06 L 43.88 92.39 L 45.91 94.67 L 48.76 97.06 L 50.90 98.44 L 53.46 99.68 L 56.49 100.75 L 59.62 101.46 L 63.29 101.82 L 67.60 101.79 L 71.89 101.30 L 75.45 100.53 L 78.38 99.53 L 81.20 98.20 L 83.49 96.80 L 85.33 95.33 L 87.70 92.85 L 89.27 90.59 L 90.43 88.34 L 91.03 86.73 L 91.44 85.12 L 92.08 150.77 L 91.70 152.15 L 91.10 153.51 L 89.90 155.41 L 88.26 157.27 L 85.71 159.32 L 83.77 160.47 L 81.29 161.57 L 78.18 162.58 L 75.01 163.28 L 71.10 163.76 L 66.34 163.95 L 61.58 163.76 L 57.76 163.29 L 54.74 162.60 L 51.78 161.59 L 49.50 160.51 L 47.78 159.37 L 45.59 157.35 L 44.28 155.51 L 43.42 153.63 L 43.05 152.28 L 42.91 150.93 Z" fill="#ffffff" fill-opacity="0.51" fill-rule="nonzero" group-id="9" id="路径_1647" node-id="110" stroke="none" target-height="78.829956" target-width="51.48706" target-x="40.597046" target-y="85.125"></path><text align="center" editable="true" ellipsis="false" fill="#ffffff" flags="1" font-family="'Noto Sans CJK SC'" font-size="9" font-stretch="normal" font-style="normal" font-weight="400" height="13.32" id="大暑_" letter-spacing="0" node-id="111" stroke="none" target-x="152.557" target-y="58.131" vertical-align="center" width="27" x="152.557" xml:space="preserve" y="68.571">大暑。</text><path d="M 150.10 57.05 L 147.18 57.05 L 147.18 59.97 L 147.93 59.97 L 147.93 57.80 L 150.10 57.80 Z" fill="#ffffff" fill-rule="nonzero" group-id="10" id="路径_1648" node-id="114" stroke="none" target-height="2.9169922" target-width="2.9179688" target-x="147.18103" target-y="57.05005"></path></g></svg>