<svg xmlns="http://www.w3.org/2000/svg" xmlns:xlink="http://www.w3.org/1999/xlink" width="200" height="200" viewBox="0 0 200 200">
  <defs>
    <clipPath id="clip-path">
      <circle id="椭圆_237" data-name="椭圆 237" cx="100" cy="100" r="100" fill="none"/>
    </clipPath>
  </defs>
  <g id="大雪" transform="translate(-2600.198 -2921.914)">
    <g id="组_306" data-name="组 306" transform="translate(2600.198 2921.914)" clip-path="url(#clip-path)">
      <rect id="矩形_142" data-name="矩形 142" width="206.078" height="218.272" transform="translate(19.081 -30.399) rotate(9.754)" fill="#afc8e7"/>
      <text id="_" data-name=" " transform="translate(63.5 96.417)" font-size="1" font-family="SegoeUI, Segoe UI"><tspan x="0" y="0"> </tspan></text>
      <path id="路径_3280" data-name="路径 3280" d="M3170.192,3447.439" transform="translate(-3027.693 -3316.058)" fill="#d19c46"/>
      <text id="大雪_" data-name="大雪。" transform="translate(141.571 52.569)" fill="#3c282a" font-size="8" font-family="STZhongsong"><tspan x="0" y="0">大雪。</tspan></text>
      <path id="路径_3281" data-name="路径 3281" d="M3268.99,3148.82h2.918v-2.917h-.75v2.165h-2.168Z" transform="translate(-3101.792 -3089.907)" fill="#3c282a"/>
      <path id="路径_3282" data-name="路径 3282" d="M2621.888,3223.28s-9.289-33.984-7.077-42.831,18.577-22.337,20.125-26.538,28.529-9.289,31.183-21.673c0,0-21.895,15.7-29.635,17.471,0,0,9.067-19.462,8.846-22.337,0,0-9.952,26.317-16.808,28.529s-10.836,16.144-15.259,17.692c0,0,4.2-14.154,1.99-36.712,0,0,23.885-27.423,22.779-36.49,0,0-20.346,23.885-21.23,23.885,0,0,3.538-26.317,2.211-26.76s-8.625,1.548-8.625,1.548l-5.308,57.943s-12.385-12.163-10.394-34.5c-1.106-3.1-5.087-5.529-3.539,6.192s4.2,29.856,12.827,34.721c0,0-6.413,51.971-1.548,58.606Z" transform="translate(-2593.145 -3053.568)" fill="#3c282a"/>
      <path id="路径_3283" data-name="路径 3283" d="M2816.112,3366.776s-4.247-15.538-3.235-19.583,8.494-10.213,9.2-12.135,13.044-4.247,14.257-9.909c0,0-10.011,7.179-13.55,7.988,0,0,4.146-8.9,4.045-10.213,0,0-4.55,12.033-7.685,13.044s-4.955,7.382-6.977,8.089c0,0,1.921-6.471.91-16.786,0,0,10.92-12.539,10.415-16.684,0,0-9.3,10.92-9.708,10.92,0,0,1.618-12.033,1.011-12.235s-3.943.708-3.943.708l-2.427,26.493s-5.662-5.562-4.752-15.774c-.505-1.416-2.326-2.528-1.618,2.831s1.921,13.651,5.865,15.876c0,0-2.933,23.762-.708,26.8Z" transform="translate(-2751.471 -3212.412)" fill="#3c282a"/>
      <ellipse id="椭圆_227" data-name="椭圆 227" cx="122.751" cy="51.712" rx="122.751" ry="51.712" transform="translate(-20.366 155.804) rotate(-9.606)" fill="#f2f6f9"/>
      <g id="组_305" data-name="组 305" transform="translate(92.95 73.524)">
        <circle id="椭圆_228" data-name="椭圆 228" cx="27.747" cy="27.747" r="27.747" transform="translate(9.449 36.776)" fill="#ddd"/>
        <ellipse id="椭圆_229" data-name="椭圆 229" cx="26.301" cy="27.747" rx="26.301" ry="27.747" transform="translate(0 62.478) rotate(-45)" fill="#fff"/>
        <circle id="椭圆_230" data-name="椭圆 230" cx="17.44" cy="17.44" r="17.44" transform="translate(20.681 10.472)" fill="#fff"/>
        <circle id="椭圆_231" data-name="椭圆 231" cx="1.473" cy="1.473" r="1.473" transform="translate(30.356 20.441)" fill="#2d2d2d"/>
        <circle id="椭圆_232" data-name="椭圆 232" cx="1.473" cy="1.473" r="1.473" transform="translate(43.37 20.441)" fill="#2d2d2d"/>
        <path id="路径_3284" data-name="路径 3284" d="M3106.748,3323.462a1.079,1.079,0,0,0-1.036.675c-1.149,2.268-4.441,6.6-3.589,8.315.269.542,6.757-3.288,7.219-7.345C3109.434,3324.295,3107.74,3323.555,3106.748,3323.462Z" transform="translate(-3069.487 -3296.596)" fill="#ea802a"/>
        <g id="组_304" data-name="组 304" transform="translate(23.625 1.272)">
          <path id="路径_3285" data-name="路径 3285" d="M3072.926,3234.3l3-6.719a10.941,10.941,0,0,1,9.99-6.478h0a10.941,10.941,0,0,1,9.989,6.478l3,6.719Z" transform="translate(-3071.318 -3221.1)" fill="#5090ef"/>
          <rect id="矩形_143" data-name="矩形 143" width="28.991" height="4.444" rx="2.222" transform="translate(0 11.966)" fill="#4889d8"/>
        </g>
        <path id="路径_3286" data-name="路径 3286" d="M3064.793,3373.163s13.565,6.544,25.551.956l2.164.651s-13.333,11.535-29.984-.29Z" transform="translate(-3039.892 -3333.875)" fill="#5090ef"/>
        <path id="路径_3287" data-name="路径 3287" d="M3051.156,3381.194a31.692,31.692,0,0,0,31.453.349l1.7,1.288s-18.767,11.505-35.418-.32Z" transform="translate(-3029.664 -3339.898)" fill="#5090ef"/>
        <path id="路径_3288" data-name="路径 3288" d="M3077.062,3397.738l-10.566,17.24,9.778,2.692,6.472-20.6Z" transform="translate(-3042.87 -3351.802)" fill="#5090ef"/>
        <path id="路径_3289" data-name="路径 3289" d="M3119.723,3389.368l5.37,17.688,4.014-2.794-4.692-15.443Z" transform="translate(-3082.791 -3345.617)" fill="#5090ef"/>
        <path id="路径_3290" data-name="路径 3290" d="M3056.989,3377.788s17,6.014,28.986.426l1.369,1.048s-14.357,8.827-32.625-.157Z" transform="translate(-3034.038 -3337.344)" fill="#4284c6"/>
        <circle id="椭圆_233" data-name="椭圆 233" cx="1.718" cy="1.718" r="1.718" transform="translate(36.87 59.411)" fill="#3973b7"/>
        <circle id="椭圆_234" data-name="椭圆 234" cx="1.718" cy="1.718" r="1.718" transform="translate(36.87 68.019)" fill="#3973b7"/>
        <circle id="椭圆_235" data-name="椭圆 235" cx="1.718" cy="1.718" r="1.718" transform="translate(36.87 75.678)" fill="#3973b7"/>
        <circle id="椭圆_236" data-name="椭圆 236" cx="1.726" cy="1.726" r="1.726" transform="translate(36.432)" fill="#5090ef"/>
        <path id="路径_3291" data-name="路径 3291" d="M3116.706,3327.659s2.459.462,2.761,1.133" transform="translate(-3080.529 -3299.747)" fill="none" stroke="#d87227" stroke-miterlimit="10" stroke-width="1"/>
        <path id="路径_3292" data-name="路径 3292" d="M3112.548,3335.952s1.518.291,1.82.962" transform="translate(-3077.41 -3305.967)" fill="none" stroke="#d87227" stroke-miterlimit="10" stroke-width="1"/>
        <path id="路径_3293" data-name="路径 3293" d="M3109.921,3340.572s1.011-.036,1.313.635" transform="translate(-3075.44 -3309.431)" fill="none" stroke="#d87227" stroke-miterlimit="10" stroke-width="1"/>
        <path id="路径_3294" data-name="路径 3294" d="M3108.224,3345.554s.393-.188.787.317" transform="translate(-3074.167 -3313.142)" fill="none" stroke="#d87227" stroke-miterlimit="10" stroke-width="1"/>
        <path id="路径_3295" data-name="路径 3295" d="M3105.78,3350.72a.608.608,0,0,1,.611.142" transform="translate(-3072.334 -3317.021)" fill="none" stroke="#d87227" stroke-miterlimit="10" stroke-width="1"/>
        <path id="路径_3296" data-name="路径 3296" d="M3115.174,3331.7s1.973.6,2.326,1.175" transform="translate(-3079.38 -3302.778)" fill="none" stroke="#d87227" stroke-miterlimit="10" stroke-width="1"/>
      </g>
    </g>
  </g>
</svg>
