<svg id="小满" xmlns="http://www.w3.org/2000/svg" xmlns:xlink="http://www.w3.org/1999/xlink" width="200" height="200" viewBox="0 0 200 200">
  <defs>
    <clipPath id="clip-path">
      <circle id="椭圆_31" data-name="椭圆 31" cx="100" cy="100" r="100" fill="none"/>
    </clipPath>
    <linearGradient id="linear-gradient" y1="0.5" x2="1" y2="0.5" gradientUnits="objectBoundingBox">
      <stop offset="0" stop-color="#9ad6d1"/>
      <stop offset="1" stop-color="#d2e0f9"/>
    </linearGradient>
    <linearGradient id="linear-gradient-2" y1="0.5" x2="1" y2="0.5" gradientUnits="objectBoundingBox">
      <stop offset="0" stop-color="#fabfb5"/>
      <stop offset="1" stop-color="#fa9d7f"/>
    </linearGradient>
    <linearGradient id="linear-gradient-3" x1="33.431" y1="-0.232" x2="33.431" y2="0.821" gradientUnits="objectBoundingBox">
      <stop offset="0" stop-color="#faeae0"/>
      <stop offset="1" stop-color="#fae3db"/>
    </linearGradient>
    <linearGradient id="linear-gradient-4" x1="13.221" y1="0.5" x2="14.221" y2="0.5" gradientUnits="objectBoundingBox">
      <stop offset="0" stop-color="#ffe75a"/>
      <stop offset="1" stop-color="#ffcc40"/>
    </linearGradient>
    <linearGradient id="linear-gradient-5" x1="53.731" y1="1" x2="53.731" gradientUnits="objectBoundingBox">
      <stop offset="0" stop-color="#faefec"/>
      <stop offset="1" stop-color="#fad9d3"/>
    </linearGradient>
    <linearGradient id="linear-gradient-6" x1="12.434" y1="0.5" x2="13.434" y2="0.5" gradientUnits="objectBoundingBox">
      <stop offset="0" stop-color="#fabfb5"/>
      <stop offset="1" stop-color="#fadba9"/>
    </linearGradient>
    <linearGradient id="linear-gradient-7" x1="93.309" y1="0.177" x2="92.736" y2="0.846" gradientUnits="objectBoundingBox">
      <stop offset="0" stop-color="#faefec" stop-opacity="0"/>
      <stop offset="1" stop-color="#fae3db"/>
    </linearGradient>
  </defs>
  <g id="组_78" data-name="组 78" transform="translate(0 0)" clip-path="url(#clip-path)">
    <rect id="矩形_32" data-name="矩形 32" width="206.078" height="218.272" transform="translate(18.477 -30.962) rotate(9.754)" fill="#ffd392"/>
    <text id="_" data-name=" " transform="translate(63.5 96.417)" font-size="1" font-family="SegoeUI, Segoe UI"><tspan x="0" y="0"> </tspan></text>
    <g id="组_72" data-name="组 72" transform="translate(14.051 23.493)">
      <path id="路径_431" data-name="路径 431" d="M1711.974,515.468s17.5-2.535,19.75-2.785,4.188,18.211-1.25,26.75h-14.25S1710.224,523.5,1711.974,515.468Z" transform="translate(-1638.21 -436.789)" fill="rgba(255,255,255,0.5)" stroke="#fff" stroke-miterlimit="10" stroke-width="2" opacity="0.43"/>
      <path id="路径_432" data-name="路径 432" d="M1719.073,538.7s3.8,1.189,6.246.3c2.288-.834,4.511,2.333,6.458,1.034a16.862,16.862,0,0,1,4.708-2.367c2.006-.223,3.335,11.442-1.514,19.054h-12.7S1717.513,545.859,1719.073,538.7Z" transform="translate(-1643.539 -455.52)" fill="url(#linear-gradient)"/>
      <g id="组_71" data-name="组 71">
        <path id="路径_433" data-name="路径 433" d="M1519.386,294.492s10.148,22.823-40.849,38.2c-40.814,12.3-53.488,6.728-56.922,4.01a1.031,1.031,0,0,1,.255-1.756Z" transform="translate(-1420.392 -273.148)" fill="url(#linear-gradient-2)"/>
        <path id="路径_434" data-name="路径 434" d="M1624.7,341.609a88.114,88.114,0,0,1,4.911,20.663,5.993,5.993,0,0,1-.02,1.6c-1.336,9.4-6.933,18.033-10.14,22.329a14,14,0,0,0-2.768,7.787c-.2,4.7.218,11.716,3.767,16.346,5.75,7.5-19.25-8.75-19.25-8.75l-2.75-22.342Z" transform="translate(-1553.304 -308.486)" fill="#35210f"/>
        <path id="路径_435" data-name="路径 435" d="M1681.638,605.408s4.843-46.054.065-56.545.245-6.1,3.417,1.638,20.125-16.163,22.527-15.692-9.813,10.468-8.32,12.686,11.9-10.669,13.08-8.717c.2,2.568-8.723,7.556-9.84,11.952,1.8,1.658,9.753-7.529,11.685-5.572.021,2.035-9.755,6.632-9.262,7.751s7.984-3.81,8.136-1.885-19.442,8.056-20.2,19,7.39,48.684-3.954,44.659S1681.638,605.408,1681.638,605.408Z" transform="translate(-1614.269 -453.381)" fill="url(#linear-gradient-3)"/>
        <path id="路径_436" data-name="路径 436" d="M1531.1,484.1s-11,1-5.25,18.75c5.25,12.25,13.223,11.828,19.473,27.3s-5.723,19.7,1.277,34.446,12.75,37.75,18,42.75h-77.75s7.5-78.5,9.25-100.5,1-28.953,1-28.953h17.25Z" transform="translate(-1469.61 -410.699)" fill="#faefec"/>
        <path id="路径_437" data-name="路径 437" d="M1511.036,567.263a53.9,53.9,0,0,0,4.727,5.508c5.057,5.188,12.644,12.912,14.123,19.354,2.333,10.167-2.993,20.582-.993,25.916s18.339,47.03,21.535,56.733c32.128,97.555-84.156,29.641-86.278,21.389,0,0,14.625-120.216,16.125-138.049Z" transform="translate(-1452.581 -470.865)" fill="url(#linear-gradient-4)"/>
        <path id="路径_438" data-name="路径 438" d="M1588.15,469.325s-3.333.167-4.333,4.333-18.833-4.333-18.833-4.333l4.833-11.833Z" transform="translate(-1528.206 -395.398)" fill="url(#linear-gradient-5)"/>
        <path id="路径_439" data-name="路径 439" d="M1609.77,348.4a42.412,42.412,0,0,1,2.633,12.451c.159,3.869-.228,5.957,3.759,10.156,1.215,1.28,2.655,1.347,2.036,2.6a2.221,2.221,0,0,1-.515.661c-3.931,3.538-5.663,3.356-5.663,5.95,0,2.65,2.4,8.071-8.624,7.525-11.526-.572-19.318-9.761-21.567-19.51S1609.77,348.4,1609.77,348.4Z" transform="translate(-1540.751 -313.577)" fill="#faefec"/>
        <path id="路径_440" data-name="路径 440" d="M1660.521,414.617" transform="translate(-1599.86 -363.242)" fill="#fdfdfd"/>
        <path id="路径_441" data-name="路径 441" d="M1645.1,442.742" transform="translate(-1588.297 -384.335)" fill="#fdfdfd" stroke="#f2eceb" stroke-miterlimit="10" stroke-width="1"/>
        <path id="路径_442" data-name="路径 442" d="M1677.628,477.225l-.032-.009a19.393,19.393,0,0,1-4.933-1.94l5.068.714,2.515-1.63s0,.042.006.114c.025.459.073,1.679.136,2.1.071.477-1.409.873-2.661.661-.013,0-.008,0-.021,0Z" transform="translate(-1608.966 -408.048)" fill="#ffc0c0"/>
        <path id="路径_443" data-name="路径 443" d="M1680.245,472.921a1.275,1.275,0,0,0-1.583-.333,8.49,8.49,0,0,1-6,1.25s4.067,2.806,7.6-.585Z" transform="translate(-1608.966 -406.6)" fill="#ffa4a4"/>
        <path id="路径_444" data-name="路径 444" d="M1530.286,541.884l18.765,43.029s13.139,24.651,1.89,21.651-34.04-48.8-37.415-67.018S1530.286,541.884,1530.286,541.884Z" transform="translate(-1489.328 -451.29)" fill="#faefec"/>
        <path id="路径_445" data-name="路径 445" d="M1457.766,470.361c.75-12.2,4.5-27.723,3-54.275l21.374-13.8-5.625,32.742s-1.125,24.352-6.048,38.2h0c-3.572,8.99-12.739,12.692-12.739,12.692-2,0-2.375-5.452-2.375-5.452C1457.354,477.211,1457.766,470.361,1457.766,470.361Z" transform="translate(-1445.985 -353.992)" fill="#35210f"/>
        <path id="路径_446" data-name="路径 446" d="M1501.735,391.913s-1.85,13.9,4.524,25.742a17.694,17.694,0,0,1-9.653,2.973c-5.625,0-11.625-12.374-7.875-19.5,0,0,3.375,16.555,9,28.152s16.5,13.653,22.875,28.653c3.6,8.464-3.02,4.452-11.377-3.125-6.453-5.851-13.667-14.334-19.747-17.681-15.271-8.405-24.628-30.986-24.628-30.986l23.878-13.16Z" transform="translate(-1453.11 -346.214)" fill="#35210f"/>
        <path id="路径_447" data-name="路径 447" d="M1468.621,210.959s6.283,7.89,10.136,13.952a16.722,16.722,0,0,0,15.514,7.718,23.407,23.407,0,0,0,9.35-2.92c12.25-6.75,13.25.75,13.25.75a183.182,183.182,0,0,1-20.911,11.958,7.482,7.482,0,0,1-.689.3c-27.774,10.4-62.012,28.511-68.4,29.494-9.75,1.5-13,.5-2.5-10.5,7.656-8.021,9-8.851,9.843-12.841a25.808,25.808,0,0,0-1.313-14.855c-2.354-5.926-4.25-9.46,5.22-15.8C1452.871,208.209,1466.371,207.584,1468.621,210.959Z" transform="translate(-1417.877 -209.115)" fill="url(#linear-gradient-6)"/>
        <path id="路径_448" data-name="路径 448" d="M1619.621,724.523l-8.8,12.545,5.108,7.055,8.081-8.274Z" transform="translate(-1562.583 -595.671)" fill="url(#linear-gradient-7)"/>
        <path id="路径_449" data-name="路径 449" d="M1638.416,584.495s14.25-46,11.75-57.75,1.5-6.177,3,2.412,23-12.162,25.25-11.161-11.75,8.573-10.75,11.161,13.825-8.328,14.579-6.078c-.337,2.667-10.083,5.833-12.083,10.083,1.417,2.083,11.083-5.583,12.567-3.167-.4,2.083-10.9,4.667-10.65,5.917s8.588-2.167,8.338-.167-20.657,4.027-23.657,15.045-2.843,51.331-13.093,44.768S1638.416,584.495,1638.416,584.495Z" transform="translate(-1582.367 -440.748)" fill="#faefec"/>
        <g id="组_70" data-name="组 70" transform="translate(16.873 11.114)">
          <path id="路径_450" data-name="路径 450" d="M1529.374,272.3s-37.879,20.188-44.007,19.366" transform="translate(-1485.367 -267.618)" fill="none" stroke="#fffce9" stroke-miterlimit="10" stroke-width="1"/>
          <path id="路径_451" data-name="路径 451" d="M1530.692,278.325s-37.879,20.188-44.008,19.367" transform="translate(-1486.355 -272.137)" fill="none" stroke="#fffce9" stroke-miterlimit="10" stroke-width="1"/>
          <path id="路径_452" data-name="路径 452" d="M1531.359,278.758s-38.952,18.033-45.024,16.869" transform="translate(-1486.093 -272.462)" fill="none" stroke="#fffce9" stroke-miterlimit="10" stroke-width="1"/>
          <path id="路径_453" data-name="路径 453" d="M1530.033,276.144s-38.538,20.075-44.666,19.254" transform="translate(-1485.367 -270.501)" fill="none" stroke="#fffce9" stroke-miterlimit="10" stroke-width="1"/>
          <path id="路径_454" data-name="路径 454" d="M1530.633,278.758s-39.138,17.327-45.266,16.505" transform="translate(-1485.367 -272.462)" fill="none" stroke="#fffce9" stroke-miterlimit="10" stroke-width="1"/>
          <path id="路径_455" data-name="路径 455" d="M1544.612,266.719s5.037-17.75,9.2-12-5.953,10.5-9.2,12c-2.28,1.052-8.158,3.51-12.212,2.609-3.959-.879-2.725-6.908,1.253-6.118C1537.273,263.931,1541.44,267.922,1544.612,266.719Z" transform="translate(-1518.825 -253.573)" fill="none" stroke="#fffce9" stroke-miterlimit="10" stroke-width="1"/>
          <path id="路径_456" data-name="路径 456" d="M1547.266,266.778s3.591-17.729,7.293-11.979-4.406,10.479-7.293,11.979c-2.606,1.354-10.5,4.338-13.428.067a2.605,2.605,0,0,1,.115-3.112C1537.6,259.174,1543.306,268.469,1547.266,266.778Z" transform="translate(-1521.375 -253.632)" fill="none" stroke="#fffce9" stroke-miterlimit="10" stroke-width="1"/>
          <path id="路径_457" data-name="路径 457" d="M1555.493,307.388s-18.4,1.408-23.507-1.231c0,0-5.663,14.8-18.842,17.167" transform="translate(-1506.2 -293.011)" fill="none" stroke="#fffce9" stroke-miterlimit="10" stroke-width="1"/>
          <path id="路径_458" data-name="路径 458" d="M1557.929,309.329s-16.009.585-20.794-2.055c0,0-5.311,14.8-17.67,17.167" transform="translate(-1510.941 -293.85)" fill="none" stroke="#fffce9" stroke-miterlimit="10" stroke-width="1"/>
        </g>
      </g>
    </g>
    <g id="组_73" data-name="组 73" transform="translate(-1.479 142.226)">
      <path id="路径_459" data-name="路径 459" d="M1385.23,693.132s20.653-9.563,36.258-9.07-15.872,55.19-27.589,57.6S1319.718,728.889,1385.23,693.132Z" transform="translate(-1355.758 -684.044)" fill="#53915a"/>
      <path id="路径_460" data-name="路径 460" d="M1468.712,725.771s-31.813,11.237-45.03,31.4" transform="translate(-1406.701 -715.339)" fill="none" stroke="#447548" stroke-miterlimit="10" stroke-width="2"/>
      <path id="路径_461" data-name="路径 461" d="M1514.851,697.384s-12.121,5.893-14.394,19.941c9.174,4.633,24.666-3.792,26.221-4.165" transform="translate(-1464.282 -694.049)" fill="none" stroke="#447548" stroke-miterlimit="10" stroke-width="2"/>
      <path id="路径_462" data-name="路径 462" d="M1482.21,755.471s-18.649,2.733-23.483-8.611,7.086-20.3,7.086-20.3" transform="translate(-1432.119 -715.935)" fill="none" stroke="#447548" stroke-miterlimit="10" stroke-width="2"/>
    </g>
    <g id="组_74" data-name="组 74" transform="translate(-11.854 110.992)">
      <path id="路径_463" data-name="路径 463" d="M1325.952,586.6s12.507-19.015,26.026-26.825,15.614,55.263,6.927,63.486S1289.14,651.527,1325.952,586.6Z" transform="translate(-1314.257 -559.109)" fill="#50a356"/>
      <path id="路径_464" data-name="路径 464" d="M1409.341,605.018s-21.107,26.322-21.706,50.423" transform="translate(-1369.291 -593.541)" fill="none" stroke="#447548" stroke-miterlimit="10" stroke-width="2"/>
      <path id="路径_465" data-name="路径 465" d="M1409.283,605.033s-7.193,11.4-1.716,24.534c10.238-.9,18.959-16.228,20.083-17.365" transform="translate(-1382.697 -593.552)" fill="none" stroke="#447548" stroke-miterlimit="10" stroke-width="2"/>
      <path id="路径_466" data-name="路径 466" d="M1403.462,681.336s-14.405,12.155-24.494,5.065-4.68-20.981-4.68-20.981" transform="translate(-1358.194 -638.842)" fill="none" stroke="#447548" stroke-miterlimit="10" stroke-width="2"/>
    </g>
    <path id="路径_467" data-name="路径 467" d="M1931.667,640.667" transform="translate(-1789.168 -509.286)" fill="#d19c46"/>
    <g id="组_77" data-name="组 77" transform="translate(126.109 63.709)">
      <path id="路径_468" data-name="路径 468" d="M2093.9,460.341s-31.374-31.248-15.391-67.235c0,0-24.286,46.411,4.741,70.132Z" transform="translate(-2018.275 -387.324)" fill="#d19c46"/>
      <path id="路径_469" data-name="路径 469" d="M1942.4,594.625s-43.728-26.252-62.381-11.218c0,0,52.146,10.735,60.191,20.34Z" transform="translate(-1876.545 -526.565)" fill="#d19c46"/>
      <g id="组_75" data-name="组 75" transform="translate(0 3.931)">
        <path id="路径_470" data-name="路径 470" d="M1935.153,444.977s-28.97-15.687-27.371-47.991l1.641.157a90.134,90.134,0,0,0,28.536,44.46Z" transform="translate(-1897.316 -394.166)" fill="#8e6e2f"/>
        <path id="路径_471" data-name="路径 471" d="M2081.561,600.62s-28.539,7.234-61.231-22.276l-.794.579s31.806,29.548,59.533,22.784l1.667-.363Z" transform="translate(-1981.179 -530.184)" fill="#e8af49"/>
        <path id="路径_472" data-name="路径 472" d="M1871.2,520.387l.183.12c2.424,1.586,28.285,18.328,38.069,16.924l.917-.354s-3.727-5.02-9.679-2.845a2.381,2.381,0,0,1-1.715-.049C1895.257,532.664,1881.131,526.735,1871.2,520.387Z" transform="translate(-1869.929 -486.717)" fill="#e8af49"/>
        <path id="路径_473" data-name="路径 473" d="M2020.261,555.221s2.761-2.112-.921-10.591c0,0,.8.364-1.371,4.942C2016.841,551.209,2018.361,554.33,2020.261,555.221Z" transform="translate(-1979.715 -504.898)" fill="#e8af49"/>
        <path id="路径_474" data-name="路径 474" d="M1968.736,558.418a7.663,7.663,0,0,0,8.481,3.088S1975.9,557.985,1968.736,558.418Z" transform="translate(-1943.079 -515.212)" fill="#e8af49"/>
        <path id="路径_475" data-name="路径 475" d="M1958.763,542.925s3.425,4.012,6.883,3.349C1965.646,546.274,1965.312,541.978,1958.763,542.925Z" transform="translate(-1935.599 -503.518)" fill="#e8af49"/>
        <path id="路径_476" data-name="路径 476" d="M2007.206,549.682a5.14,5.14,0,0,1-.976-5.807S2011.235,546.507,2007.206,549.682Z" transform="translate(-1970.827 -504.333)" fill="#e8af49"/>
        <path id="路径_477" data-name="路径 477" d="M1995.5,538.859s-2.715-1.046-1.9-6.061C1993.6,532.8,1997.73,535.015,1995.5,538.859Z" transform="translate(-1961.611 -496.025)" fill="#e8af49"/>
        <path id="路径_478" data-name="路径 478" d="M1938.612,521.588s5.117,4.505,8.422,3.7C1947.035,525.291,1942.569,518.737,1938.612,521.588Z" transform="translate(-1920.486 -487.078)" fill="#e8af49"/>
        <path id="路径_479" data-name="路径 479" d="M1887.014,468.926s-4.765,1.181-6.345-4.169c-1.989-2.524-14.56-11.674-14.56-11.674s12.923,9.674,14.784,10.771C1882.126,464.581,1886.733,464.551,1887.014,468.926Z" transform="translate(-1866.109 -436.238)" fill="#e8af49"/>
        <path id="路径_480" data-name="路径 480" d="M1930.357,411.714s3.387-3.553-.476-7.577c-1.207-2.978-2.923-18.432-2.923-18.432s2,16.019,2.028,18.18C1929.006,405.315,1926.7,409.3,1930.357,411.714Z" transform="translate(-1911.746 -385.705)" fill="#e8af49"/>
        <path id="路径_481" data-name="路径 481" d="M1980.809,526.96s-1.187-.57.049-4.84c0,0,2.811.476,2.024,5.244C1982.882,527.364,1982.461,529.6,1980.809,526.96Z" transform="translate(-1951.749 -488.016)" fill="#e8af49"/>
        <path id="路径_482" data-name="路径 482" d="M1969.624,509.513a5.284,5.284,0,0,1-.087-7.316s2.582,1.572.894,5.8A9.232,9.232,0,0,1,1969.624,509.513Z" transform="translate(-1942.58 -473.074)" fill="#e8af49"/>
        <path id="路径_483" data-name="路径 483" d="M1955.554,498.842s-2.31-1.962.145-6.09C1955.7,492.752,1959.194,496.065,1955.554,498.842Z" transform="translate(-1932.454 -465.99)" fill="#e8af49"/>
        <path id="路径_484" data-name="路径 484" d="M1947.4,481.632a6.2,6.2,0,0,1-.136-6.368S1951.019,476.72,1947.4,481.632Z" transform="translate(-1926.392 -452.874)" fill="#e8af49"/>
        <path id="路径_485" data-name="路径 485" d="M1924.108,440.986a6.2,6.2,0,0,1-.136-6.368S1927.724,436.074,1924.108,440.986Z" transform="translate(-1908.921 -422.39)" fill="#e8af49"/>
        <path id="路径_486" data-name="路径 486" d="M1917.354,421.572a6.2,6.2,0,0,1-.136-6.368S1920.97,416.66,1917.354,421.572Z" transform="translate(-1903.855 -407.829)" fill="#e8af49"/>
        <path id="路径_487" data-name="路径 487" d="M1913.748,399.04a4.705,4.705,0,0,1,.41-4.815S1916.871,395.625,1913.748,399.04Z" transform="translate(-1901.49 -392.095)" fill="#e8af49"/>
        <path id="路径_488" data-name="路径 488" d="M1920.477,482.4a6.2,6.2,0,0,1-5.69-2.861S1917.831,476.907,1920.477,482.4Z" transform="translate(-1902.618 -455.608)" fill="#e8af49"/>
        <path id="路径_489" data-name="路径 489" d="M1913.383,463.4a6.2,6.2,0,0,1-5.69-2.862S1910.736,457.9,1913.383,463.4Z" transform="translate(-1897.297 -441.355)" fill="#e8af49"/>
        <path id="路径_490" data-name="路径 490" d="M1903.944,423.13a6.2,6.2,0,0,1-3.786-5.122S1904.063,417.031,1903.944,423.13Z" transform="translate(-1891.646 -409.889)" fill="#e8af49"/>
        <path id="路径_491" data-name="路径 491" d="M1903.059,407.345a4.366,4.366,0,0,1-3.6-2.677S1901.894,403.213,1903.059,407.345Z" transform="translate(-1891.125 -399.741)" fill="#e8af49"/>
        <path id="路径_492" data-name="路径 492" d="M1906.824,395.411a2.355,2.355,0,0,1-.967-2.217S1907.385,393.164,1906.824,395.411Z" transform="translate(-1895.916 -391.322)" fill="#e8af49"/>
        <path id="路径_493" data-name="路径 493" d="M1905.536,445.424a6.2,6.2,0,0,1-5.69-2.861S1902.889,439.929,1905.536,445.424Z" transform="translate(-1891.412 -427.875)" fill="#e8af49"/>
        <path id="路径_494" data-name="路径 494" d="M2009.375,487.485a86.788,86.788,0,0,0-4.5-23.73s5.4,18.689,5.945,26.2Z" transform="translate(-1970.183 -444.242)" fill="#e8af49"/>
      </g>
      <g id="组_76" data-name="组 76" transform="translate(26.37)">
        <path id="路径_495" data-name="路径 495" d="M2035.263,424.411s-15.787-25.625.2-50.474l1.228.872a82.345,82.345,0,0,0,2.329,48.209Z" transform="translate(-2014.127 -372.948)" fill="#8e6e2f"/>
        <path id="路径_496" data-name="路径 496" d="M2100.778,615.375s-25.894-7.281-38.326-45.547l-.893.1s11.715,37.892,36.751,45.175l1.485.472Z" transform="translate(-2039.066 -519.866)" fill="#e8af49"/>
        <path id="路径_497" data-name="路径 497" d="M1971.587,454.881l.09.178c1.2,2.361,14.04,27.4,22.427,30.752l.887.138s-.663-5.674-6.367-6.664a2.176,2.176,0,0,1-1.336-.82C1985.036,475.566,1976.554,464.432,1971.587,454.881Z" transform="translate(-1971.587 -433.656)" fill="#e8af49"/>
        <path id="路径_498" data-name="路径 498" d="M2063.568,552.806s3.149-.413,4.1-8.806c0,0,.464.651-3.339,3.288C2062.689,548.071,2062.47,551.234,2063.568,552.806Z" transform="translate(-2040.063 -500.495)" fill="#e8af49"/>
        <path id="路径_499" data-name="路径 499" d="M2031.424,529.537a7,7,0,0,0,5.308,6.311S2037.292,532.459,2031.424,529.537Z" transform="translate(-2016.465 -489.647)" fill="#e8af49"/>
        <path id="路径_500" data-name="路径 500" d="M2030.454,512.96s.883,4.738,3.923,5.789C2034.377,518.749,2036.071,515.2,2030.454,512.96Z" transform="translate(-2015.737 -477.215)" fill="#e8af49"/>
        <path id="路径_501" data-name="路径 501" d="M2061.027,540.746a4.7,4.7,0,0,1,1.874-5.042S2065.665,540.069,2061.027,540.746Z" transform="translate(-2038.555 -494.273)" fill="#e8af49"/>
        <path id="路径_502" data-name="路径 502" d="M2056.749,526.369s-1.673-2.066,1.255-5.667C2058,520.7,2060.266,524.342,2056.749,526.369Z" transform="translate(-2035.101 -483.021)" fill="#e8af49"/>
        <path id="路径_503" data-name="路径 503" d="M2023.429,488.2s2,5.9,4.981,6.771C2028.41,494.973,2027.862,487.748,2023.429,488.2Z" transform="translate(-2010.469 -458.631)" fill="#e8af49"/>
        <path id="路径_504" data-name="路径 504" d="M2007.562,421.342s-4.31-1.237-3.124-6.193c-.424-2.905-6.207-15.88-6.207-15.88s5.823,13.55,6.8,15.267C2005.671,415.674,2009.333,417.75,2007.562,421.342Z" transform="translate(-1991.57 -391.947)" fill="#e8af49"/>
        <path id="路径_505" data-name="路径 505" d="M2038.983,395.8s4.3-1.269,3.077-6.216c.4-2.908,6.087-15.926,6.087-15.926s-5.72,13.593-6.681,15.318C2040.831,390.119,2037.185,392.222,2038.983,395.8Z" transform="translate(-2021.764 -372.739)" fill="#e8af49"/>
        <path id="路径_506" data-name="路径 506" d="M2049.77,510.814s-.681-.992,2.245-3.81c0,0,2.009,1.658-.788,5.075C2051.226,512.079,2049.873,513.659,2049.77,510.814Z" transform="translate(-2030.173 -472.748)" fill="#e8af49"/>
        <path id="路径_507" data-name="路径 507" d="M2047.752,493.139a4.827,4.827,0,0,1,3.266-5.832s1.328,2.421-1.935,5A8.437,8.437,0,0,1,2047.752,493.139Z" transform="translate(-2028.61 -457.974)" fill="#e8af49"/>
        <path id="路径_508" data-name="路径 508" d="M2041.9,477.816s-.935-2.606,2.891-4.756C2044.794,473.06,2046.051,477.276,2041.9,477.816Z" transform="translate(-2024.249 -447.29)" fill="#e8af49"/>
        <path id="路径_509" data-name="路径 509" d="M2043.01,460a5.666,5.666,0,0,1,2.794-5.1S2048.112,457.756,2043.01,460Z" transform="translate(-2025.144 -433.664)" fill="#e8af49"/>
        <path id="路径_510" data-name="路径 510" d="M2043.093,417.2a5.667,5.667,0,0,1,2.795-5.1S2048.2,414.956,2043.093,417.2Z" transform="translate(-2025.205 -401.565)" fill="#e8af49"/>
        <path id="路径_511" data-name="路径 511" d="M2046.594,398.747a5.667,5.667,0,0,1,2.794-5.1S2051.7,396.506,2046.594,398.747Z" transform="translate(-2027.831 -387.727)" fill="#e8af49"/>
        <path id="路径_512" data-name="路径 512" d="M2055.1,379.389a4.3,4.3,0,0,1,2.519-3.625S2059.131,378.11,2055.1,379.389Z" transform="translate(-2034.223 -374.318)" fill="#e8af49"/>
        <path id="路径_513" data-name="路径 513" d="M2027.052,448.68a5.667,5.667,0,0,1-3.2-4.859S2027.461,443.122,2027.052,448.68Z" transform="translate(-2010.785 -425.339)" fill="#e8af49"/>
        <path id="路径_514" data-name="路径 514" d="M2030.1,430.4a5.668,5.668,0,0,1-3.2-4.859S2030.506,424.841,2030.1,430.4Z" transform="translate(-2013.069 -411.628)" fill="#e8af49"/>
        <path id="路径_515" data-name="路径 515" d="M2040.37,392.936a5.667,5.667,0,0,1-.663-5.781S2043.243,388.162,2040.37,392.936Z" transform="translate(-2022.329 -382.861)" fill="#e8af49"/>
        <path id="路径_516" data-name="路径 516" d="M2047.961,380.489a3.989,3.989,0,0,1-1.627-3.759S2048.922,376.686,2047.961,380.489Z" transform="translate(-2027.639 -375.042)" fill="#e8af49"/>
        <path id="路径_517" data-name="路径 517" d="M2055.467,372.174a2.152,2.152,0,0,1,.245-2.2S2056.936,370.652,2055.467,372.174Z" transform="translate(-2034.355 -369.979)" fill="#e8af49"/>
        <path id="路径_518" data-name="路径 518" d="M2032.077,412.592a5.666,5.666,0,0,1-3.2-4.859S2032.486,407.035,2032.077,412.592Z" transform="translate(-2014.554 -398.273)" fill="#e8af49"/>
        <path id="路径_519" data-name="路径 519" d="M2074.223,491.811a79.289,79.289,0,0,0,7.253-20.84s-4.242,17.259-7.235,23.453Z" transform="translate(-2048.564 -445.723)" fill="#e8af49"/>
      </g>
      <path id="路径_520" data-name="路径 520" d="M1880.023,597.284s31.031-1.228,60.672,14.672l-.481,5.669S1910.516,603.571,1880.023,597.284Z" transform="translate(-1876.545 -540.441)" fill="#edaf54"/>
      <path id="路径_521" data-name="路径 521" d="M2101.945,460.83c-1.766-.52-25.7-16.355-14.652-55.794,0,0-15.978,45.038,10.2,61.271Z" transform="translate(-2028.376 -396.272)" fill="#edaf54"/>
    </g>
    <text id="小满_" data-name="小满。" transform="translate(121.541 156.738)" fill="#35210f" font-size="9" font-family="STZhongsong"><tspan x="0" y="0">小满。</tspan></text>
    <path id="路径_522" data-name="路径 522" d="M1945.814,759.379h2.918v-2.917h-.75v2.165h-2.168Z" transform="translate(-1799.779 -596.133)" fill="#35210f"/>
  </g>
</svg>
