<?xml version="1.0" standalone="no"?><!DOCTYPE svg PUBLIC "-//W3C//DTD SVG 1.1//EN" "http://www.w3.org/Graphics/SVG/1.1/DTD/svg11.dtd"><svg height="200" node-id="1" sillyvg="true" template-height="200" template-width="200" version="1.1" viewBox="0 0 200 200" width="200" xmlns="http://www.w3.org/2000/svg" xmlns:xlink="http://www.w3.org/1999/xlink"><defs node-id="226"><clipPath id="clip-path" node-id="3"><path d="M 200.00 100.00 L 199.77 106.67 L 199.14 113.15 L 198.11 119.45 L 196.70 125.60 L 194.90 131.61 L 192.11 138.97 L 188.82 145.99 L 185.02 152.68 L 180.71 159.06 L 175.91 165.10 L 170.71 170.71 L 165.10 175.91 L 159.06 180.71 L 152.68 185.02 L 145.99 188.82 L 138.97 192.11 L 131.61 194.90 L 125.60 196.70 L 119.45 198.11 L 113.15 199.14 L 106.67 199.77 L 100.00 200.00 L 93.33 199.77 L 86.85 199.14 L 80.55 198.11 L 74.40 196.70 L 68.39 194.90 L 61.03 192.11 L 54.01 188.82 L 47.32 185.02 L 40.94 180.71 L 34.90 175.91 L 29.29 170.71 L 24.09 165.10 L 19.29 159.06 L 14.98 152.68 L 11.18 145.99 L 7.89 138.97 L 5.10 131.61 L 3.30 125.60 L 1.89 119.45 L 0.86 113.15 L 0.23 106.67 L 0.00 100.00 L 0.23 93.33 L 0.86 86.85 L 1.89 80.55 L 3.30 74.40 L 5.10 68.39 L 7.89 61.03 L 11.18 54.01 L 14.98 47.32 L 19.29 40.94 L 24.09 34.90 L 29.29 29.29 L 34.90 24.09 L 40.94 19.29 L 47.32 14.98 L 54.01 11.18 L 61.03 7.89 L 68.39 5.10 L 74.40 3.30 L 80.55 1.89 L 86.85 0.86 L 93.33 0.23 L 100.00 0.00 L 106.67 0.23 L 113.15 0.86 L 119.45 1.89 L 125.60 3.30 L 131.61 5.10 L 138.97 7.89 L 145.99 11.18 L 152.68 14.98 L 159.06 19.29 L 165.10 24.09 L 170.71 29.29 L 175.91 34.90 L 180.71 40.94 L 185.02 47.32 L 188.82 54.01 L 192.11 61.03 L 194.90 68.39 L 196.70 74.40 L 198.11 80.55 L 199.14 86.85 L 199.77 93.33 L 200.00 100.00 Z" fill="#000000" fill-rule="nonzero" id="椭圆_226" node-id="4" stroke="none" target-height="200" target-width="200" target-x="0" target-y="0"></path></clipPath></defs><g node-id="228"><g clip-path="url(#clip-path)" group-id="1" id="组_302" node-id="6"><path d="M 19.08 -30.40 L 222.18 4.51 L 185.20 219.63 L -17.90 184.72 Z" fill="#b0cced" fill-rule="nonzero" group-id="1,2" id="矩形_136" node-id="7" stroke="none" target-height="250.0301" target-width="240.07825" target-x="-17.898272" target-y="-30.399"></path><path d="M 90.04 84.69 L 50.65 134.82 L 131.07 134.82 L 91.68 84.69 L 91.31 84.40 L 90.86 84.30 L 90.41 84.40 L 90.04 84.69 Z" fill="#c3dcf4" fill-rule="nonzero" group-id="1,3,91" id="路径_3164" node-id="9" stroke="none" target-height="50.52881" target-width="80.41699" target-x="50.650024" target-y="84.29614"></path><path d="M 77.22 100.74 L 77.69 101.34 L 78.33 101.80 L 79.57 102.26 L 81.10 102.43 L 83.56 102.18 L 85.36 102.00 L 86.32 102.17 L 87.07 102.60 L 87.57 103.14 L 88.64 104.24 L 89.42 104.56 L 90.86 104.64 L 92.31 104.29 L 93.26 103.65 L 93.97 102.76 L 94.48 101.79 L 95.28 100.05 L 95.76 99.53 L 96.43 99.41 L 97.24 99.70 L 98.30 100.37 L 100.41 102.02 L 101.47 102.78 L 102.30 103.22 L 103.01 103.28 L 103.47 102.79 L 103.71 101.77 L 103.67 100.75 L 103.38 99.77 L 102.83 98.88 L 91.89 84.96 L 91.39 84.67 L 90.86 84.57 L 90.32 84.67 L 89.83 84.96 Z" fill="#f2f6f9" fill-rule="nonzero" group-id="1,3,92" id="路径_3165" node-id="10" stroke="none" target-height="20.069824" target-width="26.488037" target-x="77.21997" target-y="84.57129"></path><path d="M 4.92 106.45 L -34.47 156.58 L 45.95 156.58 L 6.56 106.45 L 6.19 106.15 L 5.74 106.05 L 5.28 106.15 L 4.92 106.45 Z" fill="#c3dcf4" fill-rule="nonzero" group-id="1,4,93" id="路径_3166" node-id="12" stroke="none" target-height="50.527588" target-width="80.41699" target-x="-34.46997" target-y="106.04907"></path><path d="M -7.90 122.49 L -7.43 123.09 L -6.79 123.55 L -5.55 124.01 L -4.03 124.18 L -1.56 123.93 L 0.24 123.75 L 1.20 123.92 L 1.95 124.35 L 2.45 124.89 L 3.52 125.99 L 4.30 126.31 L 5.74 126.39 L 7.19 126.04 L 8.14 125.40 L 8.85 124.51 L 9.36 123.54 L 10.15 121.80 L 10.64 121.28 L 11.31 121.16 L 12.12 121.45 L 13.18 122.12 L 15.29 123.77 L 16.35 124.53 L 17.18 124.97 L 17.89 125.03 L 18.35 124.54 L 18.59 123.52 L 18.55 122.50 L 18.25 121.52 L 17.71 120.63 L 6.76 106.71 L 6.27 106.42 L 5.73 106.32 L 5.20 106.42 L 4.71 106.71 Z" fill="#f2f6f9" fill-rule="nonzero" group-id="1,4,94" id="路径_3167" node-id="13" stroke="none" target-height="20.06958" target-width="26.487183" target-x="-7.901001" target-y="106.32129"></path><path d="M 170.01 106.62 L 132.87 167.78 L 208.94 167.78 L 171.79 106.62 L 171.41 106.26 L 170.90 106.12 L 170.39 106.26 L 170.01 106.62 Z" fill="#c3dcf4" fill-rule="nonzero" group-id="1,5,95" id="路径_3168" node-id="15" stroke="none" target-height="61.658203" target-width="76.07202" target-x="132.86597" target-y="106.12378"></path><path d="M 158.00 126.07 L 158.44 126.81 L 159.06 127.38 L 160.22 127.93 L 161.67 128.14 L 164.00 127.83 L 165.69 127.62 L 166.61 127.82 L 167.30 128.34 L 167.79 129.01 L 168.80 130.36 L 169.55 130.75 L 170.90 130.84 L 172.24 130.43 L 173.17 129.63 L 173.83 128.56 L 174.32 127.36 L 175.07 125.23 L 175.55 124.57 L 176.16 124.44 L 176.92 124.79 L 177.93 125.62 L 179.93 127.64 L 180.94 128.58 L 181.72 129.10 L 182.38 129.18 L 182.83 128.58 L 183.06 127.35 L 183.03 126.12 L 182.75 124.93 L 182.22 123.79 L 171.87 106.75 L 171.43 106.41 L 170.89 106.29 L 170.35 106.41 L 169.92 106.75 Z" fill="#f2f6f9" fill-rule="nonzero" group-id="1,5,96" id="路径_3169" node-id="16" stroke="none" target-height="24.55957" target-width="25.059937" target-x="157.9989" target-y="106.2854"></path><text align="center" editable="true" ellipsis="false" fill="#ffffff" flags="1" font-family="'Noto Sans CJK SC'" font-size="8" font-stretch="normal" font-style="normal" font-weight="400" group-id="1" height="11.84" id="小雪_" letter-spacing="0" node-id="20" stroke="none" target-x="48.488" target-y="41.039" vertical-align="center" width="24" x="48.488" xml:space="preserve" y="50.319">小雪。</text><path d="M 46.72 40.08 L 44.56 40.08 L 44.56 40.08 L 43.81 40.08 L 43.81 43.00 L 44.56 43.00 L 44.56 40.83 L 46.72 40.83 Z" fill="#ffffff" fill-rule="nonzero" group-id="1,6" id="路径_3171" node-id="23" stroke="none" target-height="2.9169922" target-width="2.9179688" target-x="43.807007" target-y="40.083008"></path><path d="M 119.27 130.55 L 129.72 133.41 L 139.75 136.63 L 149.38 140.20 L 158.63 144.11 L 167.78 148.47 L 176.43 153.09 L 184.61 157.95 L 192.32 163.06 L 199.86 168.60 L 206.82 174.29 L 213.23 180.12 L 219.12 186.10 L 224.72 192.49 L 229.68 198.92 L 234.04 205.40 L 237.82 211.94 L 241.15 218.81 L 243.80 225.64 L 245.82 232.45 L 247.21 239.27 L 247.88 244.83 L 248.10 250.35 L 247.88 255.84 L 247.21 261.32 L 246.09 266.80 L 244.50 272.17 L 242.52 277.32 L 240.14 282.28 L 237.35 287.04 L 234.15 291.64 L 229.72 297.01 L 224.74 302.08 L 219.19 306.86 L 213.02 311.36 L 206.61 315.36 L 199.72 319.03 L 192.32 322.38 L 184.38 325.39 L 176.37 327.90 L 167.97 330.04 L 159.16 331.80 L 149.90 333.15 L 140.69 334.04 L 131.19 334.49 L 121.39 334.51 L 111.26 334.06 L 101.26 333.17 L 91.08 331.79 L 80.71 329.92 L 70.14 327.54 L 59.69 324.68 L 49.65 321.46 L 40.02 317.90 L 30.77 313.99 L 21.62 309.62 L 12.97 305.01 L 4.80 300.15 L -2.92 295.04 L -10.45 289.50 L -17.41 283.81 L -23.83 277.97 L -29.72 271.99 L -35.31 265.61 L -40.27 259.18 L -44.63 252.70 L -48.42 246.16 L -51.74 239.29 L -54.40 232.46 L -56.41 225.64 L -57.81 218.82 L -58.48 213.26 L -58.70 207.75 L -58.47 202.26 L -57.80 196.78 L -56.69 191.29 L -55.10 185.92 L -53.11 180.77 L -50.73 175.82 L -47.95 171.05 L -44.75 166.46 L -40.31 161.09 L -35.33 156.02 L -29.78 151.23 L -23.62 146.73 L -17.21 142.74 L -10.32 139.06 L -2.92 135.71 L 5.02 132.70 L 13.03 130.19 L 21.43 128.05 L 30.25 126.30 L 39.50 124.94 L 48.71 124.06 L 58.21 123.60 L 68.02 123.59 L 78.14 124.03 L 88.15 124.93 L 98.33 126.30 L 108.70 128.17 L 119.27 130.55 Z" fill="#f2f6f9" fill-rule="nonzero" group-id="1,7" id="椭圆_151" node-id="24" stroke="none" target-height="210.91644" target-width="306.7952" target-x="-58.69529" target-y="123.588715"></path><path d="M 100.92 22.74 L 100.82 23.21 L 100.56 23.60 L 100.18 23.86 L 99.70 23.95 L 99.22 23.86 L 98.84 23.60 L 98.58 23.21 L 98.48 22.74 L 98.58 22.26 L 98.84 21.88 L 99.22 21.62 L 99.70 21.52 L 100.18 21.62 L 100.56 21.88 L 100.82 22.26 L 100.92 22.74 Z" fill="#f2f6f9" fill-rule="nonzero" group-id="1,8" id="椭圆_152" node-id="25" stroke="none" target-height="2.4319992" target-width="2.4319992" target-x="98.484" target-y="21.522"></path><path d="M 113.82 30.52 L 113.73 31.00 L 113.47 31.38 L 113.08 31.64 L 112.61 31.73 L 112.13 31.64 L 111.75 31.38 L 111.49 31.00 L 111.39 30.52 L 111.49 30.04 L 111.75 29.66 L 112.13 29.40 L 112.61 29.30 L 113.08 29.40 L 113.47 29.66 L 113.73 30.04 L 113.82 30.52 Z" fill="#f2f6f9" fill-rule="nonzero" group-id="1,9" id="椭圆_153" node-id="26" stroke="none" target-height="2.4319992" target-width="2.4319992" target-x="111.391" target-y="29.303"></path><path d="M 87.09 69.37 L 87.00 69.84 L 86.74 70.23 L 86.35 70.48 L 85.88 70.58 L 85.40 70.48 L 85.02 70.23 L 84.76 69.84 L 84.66 69.37 L 84.76 68.89 L 85.02 68.51 L 85.40 68.25 L 85.88 68.15 L 86.35 68.25 L 86.74 68.51 L 87.00 68.89 L 87.09 69.37 Z" fill="#f2f6f9" fill-opacity="0.2" fill-rule="nonzero" group-id="1,10" id="椭圆_154" node-id="27" stroke="none" target-height="2.4319992" target-width="2.4319992" target-x="84.662" target-y="68.15"></path><path d="M 101.22 60.43 L 101.12 60.90 L 100.86 61.29 L 100.48 61.55 L 100.00 61.64 L 99.52 61.55 L 99.14 61.29 L 98.88 60.90 L 98.78 60.43 L 98.88 59.95 L 99.14 59.57 L 99.52 59.31 L 100.00 59.21 L 100.48 59.31 L 100.86 59.57 L 101.12 59.95 L 101.22 60.43 Z" fill="#f2f6f9" fill-rule="nonzero" group-id="1,11" id="椭圆_155" node-id="28" stroke="none" target-height="2.4319992" target-width="2.4319992" target-x="98.784" target-y="59.212"></path><path d="M 101.97 44.77 L 101.87 45.25 L 101.61 45.63 L 101.23 45.89 L 100.75 45.99 L 100.27 45.89 L 99.89 45.63 L 99.63 45.25 L 99.53 44.77 L 99.63 44.30 L 99.89 43.91 L 100.27 43.65 L 100.75 43.56 L 101.23 43.65 L 101.61 43.91 L 101.87 44.30 L 101.97 44.77 Z" fill="#f2f6f9" fill-rule="nonzero" group-id="1,12" id="椭圆_156" node-id="29" stroke="none" target-height="2.4319992" target-width="2.4319992" target-x="99.534" target-y="43.556"></path><path d="M 122.34 54.11 L 122.25 54.59 L 121.99 54.97 L 121.61 55.23 L 121.13 55.33 L 120.65 55.23 L 120.27 54.97 L 120.01 54.59 L 119.91 54.11 L 120.01 53.64 L 120.27 53.26 L 120.65 53.00 L 121.13 52.90 L 121.61 53.00 L 121.99 53.26 L 122.25 53.64 L 122.34 54.11 Z" fill="#f2f6f9" fill-opacity="0.2" fill-rule="nonzero" group-id="1,13" id="椭圆_157" node-id="30" stroke="none" target-height="2.4319992" target-width="2.4319992" target-x="119.913" target-y="52.899"></path><path d="M 60.76 22.74 L 60.67 23.21 L 60.41 23.60 L 60.02 23.86 L 59.55 23.95 L 59.07 23.86 L 58.69 23.60 L 58.43 23.21 L 58.33 22.74 L 58.43 22.26 L 58.69 21.88 L 59.07 21.62 L 59.55 21.52 L 60.02 21.62 L 60.41 21.88 L 60.67 22.26 L 60.76 22.74 Z" fill="#f2f6f9" fill-rule="nonzero" group-id="1,14" id="椭圆_158" node-id="31" stroke="none" target-height="2.4319992" target-width="2.4319992" target-x="58.331" target-y="21.522"></path><path d="M 73.67 30.52 L 73.57 31.00 L 73.31 31.38 L 72.93 31.64 L 72.45 31.73 L 71.98 31.64 L 71.59 31.38 L 71.34 31.00 L 71.24 30.52 L 71.34 30.04 L 71.59 29.66 L 71.98 29.40 L 72.45 29.30 L 72.93 29.40 L 73.31 29.66 L 73.57 30.04 L 73.67 30.52 Z" fill="#f2f6f9" fill-opacity="0.2" fill-rule="nonzero" group-id="1,15" id="椭圆_159" node-id="32" stroke="none" target-height="2.4319992" target-width="2.4319992" target-x="71.238" target-y="29.303"></path><path d="M 46.94 69.37 L 46.84 69.84 L 46.58 70.23 L 46.20 70.48 L 45.73 70.58 L 45.25 70.48 L 44.87 70.23 L 44.61 69.84 L 44.51 69.37 L 44.61 68.89 L 44.87 68.51 L 45.25 68.25 L 45.73 68.15 L 46.20 68.25 L 46.58 68.51 L 46.84 68.89 L 46.94 69.37 Z" fill="#f2f6f9" fill-opacity="0.6" fill-rule="nonzero" group-id="1,16" id="椭圆_160" node-id="33" stroke="none" target-height="2.4319992" target-width="2.4319992" target-x="44.509" target-y="68.15"></path><path d="M 61.06 60.43 L 60.97 60.90 L 60.71 61.29 L 60.32 61.55 L 59.85 61.64 L 59.37 61.55 L 58.99 61.29 L 58.73 60.90 L 58.63 60.43 L 58.73 59.95 L 58.99 59.57 L 59.37 59.31 L 59.85 59.21 L 60.32 59.31 L 60.71 59.57 L 60.97 59.95 L 61.06 60.43 Z" fill="#f2f6f9" fill-rule="nonzero" group-id="1,17" id="椭圆_161" node-id="34" stroke="none" target-height="2.4319992" target-width="2.4319992" target-x="58.631" target-y="59.212"></path><path d="M 62.28 40.77 L 62.18 41.25 L 61.92 41.63 L 61.54 41.89 L 61.06 41.99 L 60.59 41.89 L 60.20 41.63 L 59.94 41.25 L 59.85 40.77 L 59.94 40.30 L 60.20 39.91 L 60.59 39.65 L 61.06 39.56 L 61.54 39.65 L 61.92 39.91 L 62.18 40.30 L 62.28 40.77 Z" fill="#f2f6f9" fill-opacity="0.35" fill-rule="nonzero" group-id="1,18" id="椭圆_162" node-id="35" stroke="none" target-height="2.4319992" target-width="2.4319992" target-x="59.847" target-y="39.556"></path><path d="M 82.19 54.11 L 82.09 54.59 L 81.84 54.97 L 81.45 55.23 L 80.98 55.33 L 80.50 55.23 L 80.12 54.97 L 79.86 54.59 L 79.76 54.11 L 79.86 53.64 L 80.12 53.26 L 80.50 53.00 L 80.98 52.90 L 81.45 53.00 L 81.84 53.26 L 82.09 53.64 L 82.19 54.11 Z" fill="#f2f6f9" fill-rule="nonzero" group-id="1,19" id="椭圆_163" node-id="36" stroke="none" target-height="2.4319992" target-width="2.4319992" target-x="79.76" target-y="52.899"></path><path d="M 18.79 55.93 L 18.69 56.40 L 18.43 56.79 L 18.05 57.04 L 17.57 57.14 L 17.10 57.04 L 16.72 56.79 L 16.46 56.40 L 16.36 55.93 L 16.46 55.45 L 16.72 55.07 L 17.10 54.81 L 17.57 54.71 L 18.05 54.81 L 18.43 55.07 L 18.69 55.45 L 18.79 55.93 Z" fill="#f2f6f9" fill-opacity="0.2" fill-rule="nonzero" group-id="1,20" id="椭圆_164" node-id="37" stroke="none" target-height="2.4319992" target-width="2.4319992" target-x="16.359" target-y="54.71"></path><path d="M 31.70 63.71 L 31.60 64.18 L 31.34 64.57 L 30.96 64.83 L 30.48 64.92 L 30.01 64.83 L 29.62 64.57 L 29.36 64.18 L 29.27 63.71 L 29.36 63.23 L 29.62 62.85 L 30.01 62.59 L 30.48 62.49 L 30.96 62.59 L 31.34 62.85 L 31.60 63.23 L 31.70 63.71 Z" fill="#f2f6f9" fill-opacity="0.35" fill-rule="nonzero" group-id="1,21" id="椭圆_165" node-id="38" stroke="none" target-height="2.432003" target-width="2.4319992" target-x="29.266" target-y="62.491"></path><path d="M 4.97 102.55 L 4.87 103.03 L 4.61 103.41 L 4.23 103.67 L 3.75 103.77 L 3.28 103.67 L 2.89 103.41 L 2.63 103.03 L 2.54 102.55 L 2.63 102.08 L 2.89 101.69 L 3.28 101.44 L 3.75 101.34 L 4.23 101.44 L 4.61 101.69 L 4.87 102.08 L 4.97 102.55 Z" fill="#f2f6f9" fill-rule="nonzero" group-id="1,22" id="椭圆_166" node-id="39" stroke="none" target-height="2.4319992" target-width="2.432" target-x="2.537" target-y="101.338"></path><path d="M 19.09 93.62 L 18.99 94.09 L 18.73 94.48 L 18.35 94.73 L 17.88 94.83 L 17.40 94.73 L 17.02 94.48 L 16.76 94.09 L 16.66 93.62 L 16.76 93.14 L 17.02 92.76 L 17.40 92.50 L 17.88 92.40 L 18.35 92.50 L 18.73 92.76 L 18.99 93.14 L 19.09 93.62 Z" fill="#f2f6f9" fill-opacity="0.6" fill-rule="nonzero" group-id="1,23" id="椭圆_167" node-id="40" stroke="none" target-height="2.4319992" target-width="2.4319992" target-x="16.659" target-y="92.4"></path><path d="M 19.84 77.96 L 19.74 78.44 L 19.49 78.82 L 19.10 79.08 L 18.63 79.18 L 18.15 79.08 L 17.77 78.82 L 17.51 78.44 L 17.41 77.96 L 17.51 77.48 L 17.77 77.10 L 18.15 76.84 L 18.63 76.74 L 19.10 76.84 L 19.49 77.10 L 19.74 77.48 L 19.84 77.96 Z" fill="#f2f6f9" fill-rule="nonzero" group-id="1,24" id="椭圆_168" node-id="41" stroke="none" target-height="2.4319992" target-width="2.4319992" target-x="17.41" target-y="76.744"></path><path d="M 40.22 87.30 L 40.12 87.78 L 39.86 88.16 L 39.48 88.42 L 39.00 88.52 L 38.53 88.42 L 38.14 88.16 L 37.89 87.78 L 37.79 87.30 L 37.89 86.83 L 38.14 86.44 L 38.53 86.18 L 39.00 86.09 L 39.48 86.18 L 39.86 86.44 L 40.12 86.83 L 40.22 87.30 Z" fill="#f2f6f9" fill-rule="nonzero" group-id="1,25" id="椭圆_169" node-id="42" stroke="none" target-height="2.4319992" target-width="2.4319992" target-x="37.788" target-y="86.087"></path><path d="M 57.34 112.12 L 57.25 112.59 L 56.99 112.97 L 56.61 113.23 L 56.13 113.33 L 55.65 113.23 L 55.27 112.97 L 55.01 112.59 L 54.91 112.12 L 55.01 111.64 L 55.27 111.26 L 55.65 111.00 L 56.13 110.90 L 56.61 111.00 L 56.99 111.26 L 57.25 111.64 L 57.34 112.12 Z" fill="#f2f6f9" fill-rule="nonzero" group-id="1,26" id="椭圆_170" node-id="43" stroke="none" target-height="2.4319992" target-width="2.4319992" target-x="54.913" target-y="110.899"></path><path d="M 104.82 73.38 L 104.72 73.85 L 104.47 74.24 L 104.08 74.50 L 103.61 74.59 L 103.13 74.50 L 102.75 74.24 L 102.49 73.85 L 102.39 73.38 L 102.49 72.90 L 102.75 72.52 L 103.13 72.26 L 103.61 72.16 L 104.08 72.26 L 104.47 72.52 L 104.72 72.90 L 104.82 73.38 Z" fill="#f2f6f9" fill-rule="nonzero" group-id="1,27" id="椭圆_171" node-id="44" stroke="none" target-height="2.4319992" target-width="2.4319992" target-x="102.39" target-y="72.162"></path><path d="M 106.30 88.38 L 106.20 88.85 L 105.94 89.24 L 105.56 89.49 L 105.08 89.59 L 104.61 89.49 L 104.22 89.24 L 103.97 88.85 L 103.87 88.38 L 103.97 87.90 L 104.22 87.52 L 104.61 87.26 L 105.08 87.16 L 105.56 87.26 L 105.94 87.52 L 106.20 87.90 L 106.30 88.38 Z" fill="#f2f6f9" fill-opacity="0.6" fill-rule="nonzero" group-id="1,28" id="椭圆_172" node-id="45" stroke="none" target-height="2.4319992" target-width="2.4319992" target-x="103.868" target-y="87.16"></path><path d="M 59.18 90.17 L 59.08 90.65 L 58.82 91.03 L 58.44 91.29 L 57.96 91.39 L 57.49 91.29 L 57.10 91.03 L 56.85 90.65 L 56.75 90.17 L 56.85 89.70 L 57.10 89.31 L 57.49 89.06 L 57.96 88.96 L 58.44 89.06 L 58.82 89.31 L 59.08 89.70 L 59.18 90.17 Z" fill="#f2f6f9" fill-opacity="0.2" fill-rule="nonzero" group-id="1,29" id="椭圆_173" node-id="46" stroke="none" target-height="2.4319992" target-width="2.4319992" target-x="56.748" target-y="88.958"></path><path d="M 74.79 96.15 L 74.69 96.63 L 74.43 97.01 L 74.05 97.27 L 73.57 97.37 L 73.09 97.27 L 72.71 97.01 L 72.45 96.63 L 72.36 96.15 L 72.45 95.67 L 72.71 95.29 L 73.09 95.03 L 73.57 94.94 L 74.05 95.03 L 74.43 95.29 L 74.69 95.67 L 74.79 96.15 Z" fill="#f2f6f9" fill-rule="nonzero" group-id="1,30" id="椭圆_174" node-id="47" stroke="none" target-height="2.4319992" target-width="2.4319992" target-x="72.355" target-y="94.935"></path><path d="M 29.98 110.96 L 29.89 111.44 L 29.63 111.82 L 29.24 112.08 L 28.77 112.18 L 28.29 112.08 L 27.91 111.82 L 27.65 111.44 L 27.55 110.96 L 27.65 110.49 L 27.91 110.10 L 28.29 109.84 L 28.77 109.75 L 29.24 109.84 L 29.63 110.10 L 29.89 110.49 L 29.98 110.96 Z" fill="#f2f6f9" fill-opacity="0.35" fill-rule="nonzero" group-id="1,31" id="椭圆_175" node-id="48" stroke="none" target-height="2.4319992" target-width="2.4319992" target-x="27.552" target-y="109.747"></path><path d="M 87.79 87.39 L 87.69 87.87 L 87.43 88.25 L 87.05 88.51 L 86.57 88.61 L 86.09 88.51 L 85.71 88.25 L 85.45 87.87 L 85.36 87.39 L 85.45 86.92 L 85.71 86.53 L 86.09 86.27 L 86.57 86.18 L 87.05 86.27 L 87.43 86.53 L 87.69 86.92 L 87.79 87.39 Z" fill="#f2f6f9" fill-rule="nonzero" group-id="1,32" id="椭圆_176" node-id="49" stroke="none" target-height="2.4319992" target-width="2.4319992" target-x="85.355" target-y="86.177"></path><path d="M 92.48 109.31 L 92.38 109.79 L 92.12 110.17 L 91.74 110.43 L 91.26 110.53 L 90.79 110.43 L 90.40 110.17 L 90.15 109.79 L 90.05 109.31 L 90.15 108.84 L 90.40 108.45 L 90.79 108.20 L 91.26 108.10 L 91.74 108.20 L 92.12 108.45 L 92.38 108.84 L 92.48 109.31 Z" fill="#f2f6f9" fill-opacity="0.35" fill-rule="nonzero" group-id="1,33" id="椭圆_177" node-id="50" stroke="none" target-height="2.4319992" target-width="2.4319992" target-x="90.048" target-y="108.098"></path><path d="M 181.18 75.64 L 181.09 76.12 L 180.83 76.50 L 180.44 76.76 L 179.97 76.86 L 179.49 76.76 L 179.11 76.50 L 178.85 76.12 L 178.75 75.64 L 178.85 75.17 L 179.11 74.78 L 179.49 74.52 L 179.97 74.43 L 180.44 74.52 L 180.83 74.78 L 181.09 75.17 L 181.18 75.64 Z" fill="#f2f6f9" fill-opacity="0.2" fill-rule="nonzero" group-id="1,34" id="椭圆_178" node-id="51" stroke="none" target-height="2.4319992" target-width="2.4320068" target-x="178.752" target-y="74.427"></path><path d="M 169.28 84.89 L 169.19 85.37 L 168.93 85.75 L 168.55 86.01 L 168.07 86.11 L 167.59 86.01 L 167.21 85.75 L 166.95 85.37 L 166.85 84.89 L 166.95 84.42 L 167.21 84.03 L 167.59 83.77 L 168.07 83.68 L 168.55 83.77 L 168.93 84.03 L 169.19 84.42 L 169.28 84.89 Z" fill="#f2f6f9" fill-opacity="0.6" fill-rule="nonzero" group-id="1,35" id="椭圆_179" node-id="52" stroke="none" target-height="2.4319992" target-width="2.4320068" target-x="166.853" target-y="83.676"></path><path d="M 142.64 45.99 L 142.54 46.47 L 142.28 46.85 L 141.90 47.11 L 141.42 47.21 L 140.94 47.11 L 140.56 46.85 L 140.30 46.47 L 140.20 45.99 L 140.30 45.51 L 140.56 45.13 L 140.94 44.87 L 141.42 44.77 L 141.90 44.87 L 142.28 45.13 L 142.54 45.51 L 142.64 45.99 Z" fill="#f2f6f9" fill-rule="nonzero" group-id="1,36" id="椭圆_180" node-id="53" stroke="none" target-height="2.4319992" target-width="2.4320068" target-x="140.203" target-y="44.775"></path><path d="M 145.90 62.38 L 145.80 62.86 L 145.55 63.24 L 145.16 63.50 L 144.69 63.60 L 144.21 63.50 L 143.83 63.24 L 143.57 62.86 L 143.47 62.38 L 143.57 61.91 L 143.83 61.52 L 144.21 61.26 L 144.69 61.17 L 145.16 61.26 L 145.55 61.52 L 145.80 61.91 L 145.90 62.38 Z" fill="#f2f6f9" fill-rule="nonzero" group-id="1,37" id="椭圆_181" node-id="54" stroke="none" target-height="2.4319992" target-width="2.4320068" target-x="143.47" target-y="61.166"></path><path d="M 160.24 68.71 L 160.15 69.18 L 159.89 69.57 L 159.50 69.83 L 159.03 69.92 L 158.55 69.83 L 158.17 69.57 L 157.91 69.18 L 157.81 68.71 L 157.91 68.23 L 158.17 67.85 L 158.55 67.59 L 159.03 67.49 L 159.50 67.59 L 159.89 67.85 L 160.15 68.23 L 160.24 68.71 Z" fill="#f2f6f9" fill-rule="nonzero" group-id="1,38" id="椭圆_182" node-id="55" stroke="none" target-height="2.4319992" target-width="2.4320068" target-x="157.811" target-y="67.491"></path><path d="M 144.20 84.37 L 144.10 84.84 L 143.85 85.23 L 143.46 85.49 L 142.99 85.58 L 142.51 85.49 L 142.13 85.23 L 141.87 84.84 L 141.77 84.37 L 141.87 83.89 L 142.13 83.51 L 142.51 83.25 L 142.99 83.15 L 143.46 83.25 L 143.85 83.51 L 144.10 83.89 L 144.20 84.37 Z" fill="#f2f6f9" fill-rule="nonzero" group-id="1,39" id="椭圆_183" node-id="56" stroke="none" target-height="2.4319992" target-width="2.4320068" target-x="141.77" target-y="83.152"></path><path d="M 172.50 41.46 L 172.41 41.93 L 172.15 42.32 L 171.76 42.58 L 171.29 42.67 L 170.81 42.58 L 170.43 42.32 L 170.17 41.93 L 170.07 41.46 L 170.17 40.98 L 170.43 40.60 L 170.81 40.34 L 171.29 40.24 L 171.76 40.34 L 172.15 40.60 L 172.41 40.98 L 172.50 41.46 Z" fill="#f2f6f9" fill-rule="nonzero" group-id="1,40" id="椭圆_184" node-id="57" stroke="none" target-height="2.4319992" target-width="2.4320068" target-x="170.072" target-y="40.242"></path><path d="M 160.61 50.71 L 160.51 51.18 L 160.25 51.57 L 159.87 51.83 L 159.39 51.92 L 158.91 51.83 L 158.53 51.57 L 158.27 51.18 L 158.17 50.71 L 158.27 50.23 L 158.53 49.85 L 158.91 49.59 L 159.39 49.49 L 159.87 49.59 L 160.25 49.85 L 160.51 50.23 L 160.61 50.71 Z" fill="#f2f6f9" fill-rule="nonzero" group-id="1,41" id="椭圆_185" node-id="58" stroke="none" target-height="2.4319992" target-width="2.4320068" target-x="158.173" target-y="49.491"></path><path d="M 133.96 11.81 L 133.86 12.28 L 133.60 12.67 L 133.22 12.93 L 132.74 13.02 L 132.26 12.93 L 131.88 12.67 L 131.62 12.28 L 131.52 11.81 L 131.62 11.33 L 131.88 10.95 L 132.26 10.69 L 132.74 10.59 L 133.22 10.69 L 133.60 10.95 L 133.86 11.33 L 133.96 11.81 Z" fill="#f2f6f9" fill-opacity="0.6" fill-rule="nonzero" group-id="1,42" id="椭圆_186" node-id="59" stroke="none" target-height="2.4320002" target-width="2.4320068" target-x="131.523" target-y="10.591"></path><path d="M 137.22 28.20 L 137.12 28.67 L 136.87 29.06 L 136.48 29.32 L 136.01 29.41 L 135.53 29.32 L 135.15 29.06 L 134.89 28.67 L 134.79 28.20 L 134.89 27.72 L 135.15 27.34 L 135.53 27.08 L 136.01 26.98 L 136.48 27.08 L 136.87 27.34 L 137.12 27.72 L 137.22 28.20 Z" fill="#f2f6f9" fill-rule="nonzero" group-id="1,43" id="椭圆_187" node-id="60" stroke="none" target-height="2.4319992" target-width="2.4320068" target-x="134.79" target-y="26.981"></path><path d="M 151.56 34.52 L 151.47 35.00 L 151.21 35.38 L 150.82 35.64 L 150.35 35.74 L 149.87 35.64 L 149.49 35.38 L 149.23 35.00 L 149.13 34.52 L 149.23 34.05 L 149.49 33.66 L 149.87 33.40 L 150.35 33.31 L 150.82 33.40 L 151.21 33.66 L 151.47 34.05 L 151.56 34.52 Z" fill="#f2f6f9" fill-opacity="0.6" fill-rule="nonzero" group-id="1,44" id="椭圆_188" node-id="61" stroke="none" target-height="2.4319992" target-width="2.4320068" target-x="149.132" target-y="33.306"></path><path d="M 135.52 50.18 L 135.42 50.66 L 135.17 51.04 L 134.78 51.30 L 134.31 51.40 L 133.83 51.30 L 133.45 51.04 L 133.19 50.66 L 133.09 50.18 L 133.19 49.71 L 133.45 49.32 L 133.83 49.06 L 134.31 48.97 L 134.78 49.06 L 135.17 49.32 L 135.42 49.71 L 135.52 50.18 Z" fill="#f2f6f9" fill-opacity="0.6" fill-rule="nonzero" group-id="1,45" id="椭圆_189" node-id="62" stroke="none" target-height="2.4319992" target-width="2.4320068" target-x="133.09" target-y="48.967"></path><path d="M 190.21 115.27 L 190.11 115.75 L 189.86 116.13 L 189.47 116.39 L 189.00 116.49 L 188.52 116.39 L 188.14 116.13 L 187.88 115.75 L 187.78 115.27 L 187.88 114.80 L 188.14 114.41 L 188.52 114.15 L 189.00 114.06 L 189.47 114.15 L 189.86 114.41 L 190.11 114.80 L 190.21 115.27 Z" fill="#f2f6f9" fill-rule="nonzero" group-id="1,46" id="椭圆_190" node-id="63" stroke="none" target-height="2.4319992" target-width="2.4320068" target-x="187.78" target-y="114.057"></path><path d="M 178.31 124.52 L 178.22 125.00 L 177.96 125.38 L 177.57 125.64 L 177.10 125.74 L 176.62 125.64 L 176.24 125.38 L 175.98 125.00 L 175.88 124.52 L 175.98 124.05 L 176.24 123.66 L 176.62 123.40 L 177.10 123.31 L 177.57 123.40 L 177.96 123.66 L 178.22 124.05 L 178.31 124.52 Z" fill="#f2f6f9" fill-opacity="0.35" fill-rule="nonzero" group-id="1,47" id="椭圆_191" node-id="64" stroke="none" target-height="2.4319992" target-width="2.4320068" target-x="175.882" target-y="123.306"></path><path d="M 151.66 85.62 L 151.57 86.10 L 151.31 86.48 L 150.92 86.74 L 150.45 86.84 L 149.97 86.74 L 149.59 86.48 L 149.33 86.10 L 149.23 85.62 L 149.33 85.14 L 149.59 84.76 L 149.97 84.50 L 150.45 84.41 L 150.92 84.50 L 151.31 84.76 L 151.57 85.14 L 151.66 85.62 Z" fill="#f2f6f9" fill-rule="nonzero" group-id="1,48" id="椭圆_192" node-id="65" stroke="none" target-height="2.4319992" target-width="2.4320068" target-x="149.231" target-y="84.405"></path><path d="M 154.93 102.01 L 154.83 102.49 L 154.57 102.87 L 154.19 103.13 L 153.71 103.23 L 153.24 103.13 L 152.85 102.87 L 152.60 102.49 L 152.50 102.01 L 152.60 101.53 L 152.85 101.15 L 153.24 100.89 L 153.71 100.80 L 154.19 100.89 L 154.57 101.15 L 154.83 101.53 L 154.93 102.01 Z" fill="#f2f6f9" fill-opacity="0.6" fill-rule="nonzero" group-id="1,49" id="椭圆_193" node-id="66" stroke="none" target-height="2.4319992" target-width="2.4320068" target-x="152.498" target-y="100.795"></path><path d="M 169.27 108.34 L 169.17 108.81 L 168.92 109.20 L 168.53 109.46 L 168.06 109.55 L 167.58 109.46 L 167.20 109.20 L 166.94 108.81 L 166.84 108.34 L 166.94 107.86 L 167.20 107.48 L 167.58 107.22 L 168.06 107.12 L 168.53 107.22 L 168.92 107.48 L 169.17 107.86 L 169.27 108.34 Z" fill="#f2f6f9" fill-rule="nonzero" group-id="1,50" id="椭圆_194" node-id="67" stroke="none" target-height="2.4319992" target-width="2.4320068" target-x="166.84" target-y="107.121"></path><path d="M 153.23 124.00 L 153.13 124.47 L 152.87 124.86 L 152.49 125.12 L 152.01 125.21 L 151.54 125.12 L 151.16 124.86 L 150.90 124.47 L 150.80 124.00 L 150.90 123.52 L 151.16 123.14 L 151.54 122.88 L 152.01 122.78 L 152.49 122.88 L 152.87 123.14 L 153.13 123.52 L 153.23 124.00 Z" fill="#f2f6f9" fill-rule="nonzero" group-id="1,51" id="椭圆_195" node-id="68" stroke="none" target-height="2.4319992" target-width="2.4320068" target-x="150.799" target-y="122.782"></path><path d="M 75.75 162.01 L 75.65 162.49 L 75.39 162.87 L 75.01 163.13 L 74.53 163.22 L 74.06 163.13 L 73.67 162.87 L 73.41 162.49 L 73.32 162.01 L 73.41 161.53 L 73.67 161.15 L 74.06 160.89 L 74.53 160.79 L 75.01 160.89 L 75.39 161.15 L 75.65 161.53 L 75.75 162.01 Z" fill="#b0cced" fill-opacity="0.35" fill-rule="nonzero" group-id="1,52" id="椭圆_196" node-id="69" stroke="none" target-height="2.4320068" target-width="2.4319992" target-x="73.316" target-y="160.793"></path><path d="M 92.08 165.58 L 91.98 166.05 L 91.72 166.44 L 91.34 166.69 L 90.86 166.79 L 90.38 166.69 L 90.00 166.44 L 89.74 166.05 L 89.64 165.58 L 89.74 165.10 L 90.00 164.72 L 90.38 164.46 L 90.86 164.36 L 91.34 164.46 L 91.72 164.72 L 91.98 165.10 L 92.08 165.58 Z" fill="#b0cced" fill-rule="nonzero" group-id="1,53" id="椭圆_197" node-id="70" stroke="none" target-height="2.4320068" target-width="2.4319992" target-x="89.644" target-y="164.36"></path><path d="M 103.61 154.97 L 103.52 155.44 L 103.26 155.83 L 102.87 156.08 L 102.40 156.18 L 101.92 156.08 L 101.54 155.83 L 101.28 155.44 L 101.18 154.97 L 101.28 154.49 L 101.54 154.11 L 101.92 153.85 L 102.40 153.75 L 102.87 153.85 L 103.26 154.11 L 103.52 154.49 L 103.61 154.97 Z" fill="#b0cced" fill-opacity="0.35" fill-rule="nonzero" group-id="1,54" id="椭圆_198" node-id="71" stroke="none" target-height="2.4320068" target-width="2.4319992" target-x="101.181" target-y="153.75"></path><path d="M 111.00 183.51 L 110.90 183.99 L 110.64 184.37 L 110.26 184.63 L 109.78 184.72 L 109.31 184.63 L 108.92 184.37 L 108.66 183.99 L 108.57 183.51 L 108.66 183.03 L 108.92 182.65 L 109.31 182.39 L 109.78 182.29 L 110.26 182.39 L 110.64 182.65 L 110.90 183.03 L 111.00 183.51 Z" fill="#b0cced" fill-opacity="0.1" fill-rule="nonzero" group-id="1,55" id="椭圆_199" node-id="72" stroke="none" target-height="2.4320068" target-width="2.4319992" target-x="108.566" target-y="182.293"></path><path d="M 127.33 187.08 L 127.23 187.55 L 126.97 187.94 L 126.59 188.19 L 126.11 188.29 L 125.63 188.19 L 125.25 187.94 L 124.99 187.55 L 124.89 187.08 L 124.99 186.60 L 125.25 186.22 L 125.63 185.96 L 126.11 185.86 L 126.59 185.96 L 126.97 186.22 L 127.23 186.60 L 127.33 187.08 Z" fill="#b0cced" fill-opacity="0.6" fill-rule="nonzero" group-id="1,56" id="椭圆_200" node-id="73" stroke="none" target-height="2.4320068" target-width="2.4319992" target-x="124.894" target-y="185.86"></path><path d="M 138.86 176.47 L 138.77 176.94 L 138.51 177.33 L 138.12 177.58 L 137.65 177.68 L 137.17 177.58 L 136.79 177.33 L 136.53 176.94 L 136.43 176.47 L 136.53 175.99 L 136.79 175.61 L 137.17 175.35 L 137.65 175.25 L 138.12 175.35 L 138.51 175.61 L 138.77 175.99 L 138.86 176.47 Z" fill="#b0cced" fill-opacity="0.6" fill-rule="nonzero" group-id="1,57" id="椭圆_201" node-id="74" stroke="none" target-height="2.4320068" target-width="2.4320068" target-x="136.431" target-y="175.25"></path><path d="M 44.00 141.26 L 43.90 141.74 L 43.64 142.12 L 43.26 142.38 L 42.78 142.47 L 42.31 142.38 L 41.92 142.12 L 41.66 141.74 L 41.57 141.26 L 41.66 140.78 L 41.92 140.40 L 42.31 140.14 L 42.78 140.04 L 43.26 140.14 L 43.64 140.40 L 43.90 140.78 L 44.00 141.26 Z" fill="#b0cced" fill-rule="nonzero" group-id="1,58" id="椭圆_202" node-id="75" stroke="none" target-height="2.4320068" target-width="2.4319992" target-x="41.566" target-y="140.043"></path><path d="M 60.33 144.83 L 60.23 145.30 L 59.97 145.69 L 59.59 145.94 L 59.11 146.04 L 58.63 145.94 L 58.25 145.69 L 57.99 145.30 L 57.89 144.83 L 57.99 144.35 L 58.25 143.97 L 58.63 143.71 L 59.11 143.61 L 59.59 143.71 L 59.97 143.97 L 60.23 144.35 L 60.33 144.83 Z" fill="#b0cced" fill-rule="nonzero" group-id="1,59" id="椭圆_203" node-id="76" stroke="none" target-height="2.4320068" target-width="2.4319992" target-x="57.894" target-y="143.61"></path><path d="M 71.86 134.22 L 71.77 134.69 L 71.51 135.08 L 71.12 135.33 L 70.65 135.43 L 70.17 135.33 L 69.79 135.08 L 69.53 134.69 L 69.43 134.22 L 69.53 133.74 L 69.79 133.36 L 70.17 133.10 L 70.65 133.00 L 71.12 133.10 L 71.51 133.36 L 71.77 133.74 L 71.86 134.22 Z" fill="#b0cced" fill-rule="nonzero" group-id="1,60" id="椭圆_204" node-id="77" stroke="none" target-height="2.4320068" target-width="2.4319992" target-x="69.431" target-y="133"></path><path d="M 37.32 168.56 L 37.23 169.04 L 36.97 169.42 L 36.58 169.68 L 36.11 169.78 L 35.63 169.68 L 35.25 169.42 L 34.99 169.04 L 34.89 168.56 L 34.99 168.09 L 35.25 167.71 L 35.63 167.45 L 36.11 167.35 L 36.58 167.45 L 36.97 167.71 L 37.23 168.09 L 37.32 168.56 Z" fill="#b0cced" fill-rule="nonzero" group-id="1,61" id="椭圆_205" node-id="78" stroke="none" target-height="2.4320068" target-width="2.4319992" target-x="34.892" target-y="167.349"></path><path d="M 53.65 172.13 L 53.55 172.61 L 53.30 172.99 L 52.91 173.25 L 52.44 173.35 L 51.96 173.25 L 51.58 172.99 L 51.32 172.61 L 51.22 172.13 L 51.32 171.66 L 51.58 171.27 L 51.96 171.01 L 52.44 170.92 L 52.91 171.01 L 53.30 171.27 L 53.55 171.66 L 53.65 172.13 Z" fill="#b0cced" fill-opacity="0.1" fill-rule="nonzero" group-id="1,62" id="椭圆_206" node-id="79" stroke="none" target-height="2.4320068" target-width="2.4319992" target-x="51.22" target-y="170.917"></path><path d="M 65.19 161.52 L 65.09 162.00 L 64.83 162.38 L 64.45 162.64 L 63.97 162.74 L 63.50 162.64 L 63.11 162.38 L 62.85 162.00 L 62.76 161.52 L 62.85 161.05 L 63.11 160.66 L 63.50 160.40 L 63.97 160.31 L 64.45 160.40 L 64.83 160.66 L 65.09 161.05 L 65.19 161.52 Z" fill="#b0cced" fill-rule="nonzero" group-id="1,63" id="椭圆_207" node-id="80" stroke="none" target-height="2.4320068" target-width="2.432003" target-x="62.757" target-y="160.306"></path><path d="M 81.69 171.65 L 81.59 172.12 L 81.33 172.51 L 80.95 172.77 L 80.47 172.86 L 80.00 172.77 L 79.61 172.51 L 79.35 172.12 L 79.26 171.65 L 79.35 171.17 L 79.61 170.79 L 80.00 170.53 L 80.47 170.43 L 80.95 170.53 L 81.33 170.79 L 81.59 171.17 L 81.69 171.65 Z" fill="#b0cced" fill-rule="nonzero" group-id="1,64" id="椭圆_208" node-id="81" stroke="none" target-height="2.4320068" target-width="2.4319992" target-x="79.257" target-y="170.431"></path><path d="M 74.77 186.86 L 74.67 187.34 L 74.41 187.72 L 74.03 187.98 L 73.55 188.08 L 73.07 187.98 L 72.69 187.72 L 72.43 187.34 L 72.33 186.86 L 72.43 186.38 L 72.69 186.00 L 73.07 185.74 L 73.55 185.64 L 74.03 185.74 L 74.41 186.00 L 74.67 186.38 L 74.77 186.86 Z" fill="#b0cced" fill-opacity="0.1" fill-rule="nonzero" group-id="1,65" id="椭圆_209" node-id="82" stroke="none" target-height="2.4320068" target-width="2.4319992" target-x="72.335" target-y="185.643"></path><path d="M 82.71 200.37 L 82.62 200.85 L 82.36 201.23 L 81.97 201.49 L 81.50 201.59 L 81.02 201.49 L 80.64 201.23 L 80.38 200.85 L 80.28 200.37 L 80.38 199.89 L 80.64 199.51 L 81.02 199.25 L 81.50 199.15 L 81.97 199.25 L 82.36 199.51 L 82.62 199.89 L 82.71 200.37 Z" fill="#b0cced" fill-rule="nonzero" group-id="1,66" id="椭圆_210" node-id="83" stroke="none" target-height="2.4320068" target-width="2.4319992" target-x="80.282" target-y="199.153"></path><path d="M 122.69 145.94 L 122.59 146.41 L 122.33 146.80 L 121.95 147.05 L 121.48 147.15 L 121.00 147.05 L 120.62 146.80 L 120.36 146.41 L 120.26 145.94 L 120.36 145.46 L 120.62 145.08 L 121.00 144.82 L 121.48 144.72 L 121.95 144.82 L 122.33 145.08 L 122.59 145.46 L 122.69 145.94 Z" fill="#b0cced" fill-rule="nonzero" group-id="1,67" id="椭圆_211" node-id="84" stroke="none" target-height="2.4320068" target-width="2.4319992" target-x="120.259" target-y="144.72"></path><path d="M 115.77 161.15 L 115.67 161.62 L 115.41 162.01 L 115.03 162.27 L 114.55 162.36 L 114.08 162.27 L 113.69 162.01 L 113.44 161.62 L 113.34 161.15 L 113.44 160.67 L 113.69 160.29 L 114.08 160.03 L 114.55 159.93 L 115.03 160.03 L 115.41 160.29 L 115.67 160.67 L 115.77 161.15 Z" fill="#b0cced" fill-rule="nonzero" group-id="1,68" id="椭圆_212" node-id="85" stroke="none" target-height="2.4320068" target-width="2.4319992" target-x="113.338" target-y="159.932"></path><path d="M 123.72 174.66 L 123.62 175.14 L 123.36 175.52 L 122.98 175.78 L 122.50 175.88 L 122.02 175.78 L 121.64 175.52 L 121.38 175.14 L 121.28 174.66 L 121.38 174.18 L 121.64 173.80 L 122.02 173.54 L 122.50 173.44 L 122.98 173.54 L 123.36 173.80 L 123.62 174.18 L 123.72 174.66 Z" fill="#b0cced" fill-rule="nonzero" group-id="1,69" id="椭圆_213" node-id="86" stroke="none" target-height="2.4320068" target-width="2.4319992" target-x="121.285" target-y="173.443"></path><path d="M 105.75 138.00 L 105.65 138.48 L 105.39 138.86 L 105.01 139.12 L 104.53 139.22 L 104.05 139.12 L 103.67 138.86 L 103.41 138.48 L 103.31 138.00 L 103.41 137.52 L 103.67 137.14 L 104.05 136.88 L 104.53 136.78 L 105.01 136.88 L 105.39 137.14 L 105.65 137.52 L 105.75 138.00 Z" fill="#b0cced" fill-opacity="0.6" fill-rule="nonzero" group-id="1,70" id="椭圆_214" node-id="87" stroke="none" target-height="2.4320068" target-width="2.4319992" target-x="103.314" target-y="136.785"></path><path d="M 89.09 139.43 L 89.00 139.91 L 88.74 140.29 L 88.36 140.55 L 87.88 140.65 L 87.40 140.55 L 87.02 140.29 L 86.76 139.91 L 86.66 139.43 L 86.76 138.95 L 87.02 138.57 L 87.40 138.31 L 87.88 138.22 L 88.36 138.31 L 88.74 138.57 L 89.00 138.95 L 89.09 139.43 Z" fill="#b0cced" fill-rule="nonzero" group-id="1,71" id="椭圆_215" node-id="88" stroke="none" target-height="2.4320068" target-width="2.4319992" target-x="86.663" target-y="138.215"></path><path d="M 81.22 152.98 L 81.12 153.46 L 80.86 153.84 L 80.48 154.10 L 80.00 154.20 L 79.53 154.10 L 79.14 153.84 L 78.89 153.46 L 78.79 152.98 L 78.89 152.51 L 79.14 152.12 L 79.53 151.87 L 80.00 151.77 L 80.48 151.87 L 80.86 152.12 L 81.12 152.51 L 81.22 152.98 Z" fill="#b0cced" fill-opacity="0.6" fill-rule="nonzero" group-id="1,72" id="椭圆_216" node-id="89" stroke="none" target-height="2.4320068" target-width="2.4319992" target-x="78.788" target-y="151.768"></path><path d="M 49.84 135.66 L 49.74 136.14 L 49.48 136.52 L 49.10 136.78 L 48.62 136.88 L 48.15 136.78 L 47.76 136.52 L 47.51 136.14 L 47.41 135.66 L 47.51 135.19 L 47.76 134.80 L 48.15 134.54 L 48.62 134.45 L 49.10 134.54 L 49.48 134.80 L 49.74 135.19 L 49.84 135.66 Z" fill="#b0cced" fill-opacity="0.35" fill-rule="nonzero" group-id="1,73" id="椭圆_217" node-id="90" stroke="none" target-height="2.4320068" target-width="2.4319992" target-x="47.408" target-y="134.447"></path><path d="M 33.19 137.09 L 33.09 137.57 L 32.83 137.95 L 32.45 138.21 L 31.97 138.31 L 31.50 138.21 L 31.11 137.95 L 30.85 137.57 L 30.76 137.09 L 30.85 136.62 L 31.11 136.23 L 31.50 135.98 L 31.97 135.88 L 32.45 135.98 L 32.83 136.23 L 33.09 136.62 L 33.19 137.09 Z" fill="#b0cced" fill-rule="nonzero" group-id="1,74" id="椭圆_218" node-id="91" stroke="none" target-height="2.4320068" target-width="2.4319992" target-x="30.756" target-y="135.878"></path><path d="M 25.31 150.65 L 25.22 151.12 L 24.96 151.51 L 24.57 151.77 L 24.10 151.86 L 23.62 151.77 L 23.24 151.51 L 22.98 151.12 L 22.88 150.65 L 22.98 150.17 L 23.24 149.79 L 23.62 149.53 L 24.10 149.43 L 24.57 149.53 L 24.96 149.79 L 25.22 150.17 L 25.31 150.65 Z" fill="#b0cced" fill-rule="nonzero" group-id="1,75" id="椭圆_219" node-id="92" stroke="none" target-height="2.4320068" target-width="2.4319992" target-x="22.882" target-y="149.431"></path><path d="M 161.37 172.55 L 161.27 173.03 L 161.01 173.41 L 160.63 173.67 L 160.15 173.77 L 159.67 173.67 L 159.29 173.41 L 159.03 173.03 L 158.94 172.55 L 159.03 172.08 L 159.29 171.69 L 159.67 171.43 L 160.15 171.34 L 160.63 171.43 L 161.01 171.69 L 161.27 172.08 L 161.37 172.55 Z" fill="#b0cced" fill-rule="nonzero" group-id="1,76" id="椭圆_220" node-id="93" stroke="none" target-height="2.4320068" target-width="2.4320068" target-x="158.935" target-y="171.336"></path><path d="M 155.72 156.82 L 155.62 157.30 L 155.36 157.68 L 154.98 157.94 L 154.50 158.04 L 154.03 157.94 L 153.64 157.68 L 153.38 157.30 L 153.29 156.82 L 153.38 156.35 L 153.64 155.96 L 154.03 155.70 L 154.50 155.61 L 154.98 155.70 L 155.36 155.96 L 155.62 156.35 L 155.72 156.82 Z" fill="#b0cced" fill-opacity="0.1" fill-rule="nonzero" group-id="1,77" id="椭圆_221" node-id="94" stroke="none" target-height="2.4320068" target-width="2.4320068" target-x="153.286" target-y="155.607"></path><path d="M 140.60 152.68 L 140.50 153.16 L 140.24 153.54 L 139.86 153.80 L 139.38 153.90 L 138.91 153.80 L 138.52 153.54 L 138.27 153.16 L 138.17 152.68 L 138.27 152.21 L 138.52 151.82 L 138.91 151.56 L 139.38 151.47 L 139.86 151.56 L 140.24 151.82 L 140.50 152.21 L 140.60 152.68 Z" fill="#b0cced" fill-rule="nonzero" group-id="1,78" id="椭圆_222" node-id="95" stroke="none" target-height="2.4320068" target-width="2.4320068" target-x="138.168" target-y="151.467"></path><path d="M 140.48 184.96 L 140.38 185.43 L 140.12 185.82 L 139.74 186.08 L 139.26 186.17 L 138.79 186.08 L 138.40 185.82 L 138.14 185.43 L 138.05 184.96 L 138.14 184.48 L 138.40 184.10 L 138.79 183.84 L 139.26 183.74 L 139.74 183.84 L 140.12 184.10 L 140.38 184.48 L 140.48 184.96 Z" fill="#b0cced" fill-opacity="0.1" fill-rule="nonzero" group-id="1,79" id="椭圆_223" node-id="96" stroke="none" target-height="2.4320068" target-width="2.4320068" target-x="138.046" target-y="183.741"></path><path d="M 151.18 172.12 L 151.08 172.60 L 150.83 172.98 L 150.44 173.24 L 149.97 173.34 L 149.49 173.24 L 149.11 172.98 L 148.85 172.60 L 148.75 172.12 L 148.85 171.65 L 149.11 171.26 L 149.49 171.00 L 149.97 170.91 L 150.44 171.00 L 150.83 171.26 L 151.08 171.65 L 151.18 172.12 Z" fill="#b0cced" fill-rule="nonzero" group-id="1,80" id="椭圆_224" node-id="97" stroke="none" target-height="2.4320068" target-width="2.4320068" target-x="148.75" target-y="170.907"></path><path d="M 147.10 156.99 L 147.00 157.47 L 146.74 157.85 L 146.36 158.11 L 145.88 158.21 L 145.41 158.11 L 145.02 157.85 L 144.76 157.47 L 144.67 156.99 L 144.76 156.51 L 145.02 156.13 L 145.41 155.87 L 145.88 155.77 L 146.36 155.87 L 146.74 156.13 L 147.00 156.51 L 147.10 156.99 Z" fill="#b0cced" fill-opacity="0.35" fill-rule="nonzero" group-id="1,81" id="椭圆_225" node-id="98" stroke="none" target-height="2.4320068" target-width="2.4320068" target-x="144.667" target-y="155.773"></path><path d="M 169.73 141.79 L 169.29 142.76 L 168.09 144.89 L 167.23 146.03 L 166.24 147.02 L 165.11 147.73 L 163.91 147.99 L 165.33 148.58 L 166.82 148.78 L 168.31 148.58 L 169.73 147.99 L 170.85 148.26 L 173.23 148.57 L 174.47 148.49 L 175.38 148.15 L 174.12 147.54 L 172.95 146.78 L 171.59 145.52 L 170.48 143.94 L 169.73 141.79 Z" fill="#66aa7b" fill-rule="nonzero" group-id="1,82,97" id="路径_3172" node-id="100" stroke="none" target-height="6.9882813" target-width="11.475952" target-x="163.90894" target-y="141.79004"></path><path d="M 169.73 144.44 L 169.29 145.41 L 168.09 147.54 L 167.23 148.68 L 166.24 149.67 L 165.11 150.38 L 163.91 150.64 L 165.33 151.23 L 166.82 151.43 L 168.31 151.23 L 169.73 150.64 L 170.85 150.91 L 173.23 151.22 L 174.47 151.14 L 175.38 150.80 L 174.12 150.19 L 172.95 149.43 L 171.59 148.17 L 170.48 146.59 L 169.73 144.44 Z" fill="#66aa7b" fill-rule="nonzero" group-id="1,82,98" id="路径_3173" node-id="101" stroke="none" target-height="6.9882813" target-width="11.475952" target-x="163.90894" target-y="144.43896"></path><path d="M 169.73 147.40 L 169.29 148.37 L 168.09 150.50 L 167.23 151.64 L 166.24 152.63 L 165.11 153.34 L 163.91 153.60 L 165.33 154.19 L 166.82 154.39 L 168.31 154.19 L 169.73 153.60 L 170.85 153.87 L 173.23 154.18 L 174.47 154.10 L 175.38 153.76 L 174.12 153.15 L 172.95 152.39 L 171.59 151.13 L 170.48 149.55 L 169.73 147.40 Z" fill="#66aa7b" fill-rule="nonzero" group-id="1,82,99" id="路径_3174" node-id="102" stroke="none" target-height="6.9882813" target-width="11.475952" target-x="163.90894" target-y="147.40015"></path><path d="M 169.73 150.28 L 169.29 151.25 L 168.09 153.38 L 167.23 154.52 L 166.24 155.51 L 165.11 156.22 L 163.91 156.48 L 165.33 157.07 L 166.82 157.27 L 168.31 157.07 L 169.73 156.48 L 170.85 156.75 L 173.23 157.06 L 174.47 156.98 L 175.38 156.64 L 174.12 156.03 L 172.95 155.27 L 171.59 154.02 L 170.48 152.43 L 169.73 150.28 Z" fill="#66aa7b" fill-rule="nonzero" group-id="1,82,100" id="路径_3175" node-id="103" stroke="none" target-height="6.9885254" target-width="11.475952" target-x="163.90894" target-y="150.28003"></path><path d="M 168.93 155.90 L 170.36 155.90 L 170.36 158.57 L 168.93 158.57 Z" fill="#66aa7b" fill-rule="nonzero" group-id="1,82,101" id="矩形_137" node-id="104" stroke="none" target-height="2.6730042" target-width="1.4279938" target-x="168.933" target-y="155.9"></path><path d="M 58.03 131.41 L 57.60 132.38 L 56.39 134.51 L 55.53 135.65 L 54.55 136.64 L 53.42 137.35 L 52.21 137.61 L 53.63 138.20 L 55.12 138.40 L 56.61 138.20 L 58.03 137.61 L 59.15 137.88 L 61.53 138.19 L 62.77 138.11 L 63.69 137.77 L 62.42 137.17 L 61.26 136.40 L 59.89 135.15 L 58.79 133.56 L 58.03 131.41 Z" fill="#66aa7b" fill-rule="nonzero" group-id="1,83,102" id="路径_3176" node-id="106" stroke="none" target-height="6.9882813" target-width="11.476074" target-x="52.21106" target-y="131.41089"></path><path d="M 58.03 134.06 L 57.60 135.03 L 56.39 137.16 L 55.53 138.30 L 54.55 139.29 L 53.42 140.00 L 52.21 140.26 L 53.63 140.85 L 55.12 141.05 L 56.61 140.85 L 58.03 140.26 L 59.15 140.53 L 61.53 140.84 L 62.77 140.76 L 63.69 140.42 L 62.42 139.82 L 61.26 139.05 L 59.89 137.80 L 58.79 136.21 L 58.03 134.06 Z" fill="#66aa7b" fill-rule="nonzero" group-id="1,83,103" id="路径_3177" node-id="107" stroke="none" target-height="6.988037" target-width="11.476074" target-x="52.21106" target-y="134.06006"></path><path d="M 58.03 137.02 L 57.60 137.99 L 56.39 140.12 L 55.53 141.26 L 54.55 142.25 L 53.42 142.96 L 52.21 143.22 L 53.63 143.81 L 55.12 144.01 L 56.61 143.81 L 58.03 143.22 L 59.15 143.49 L 61.53 143.80 L 62.77 143.72 L 63.69 143.38 L 62.42 142.77 L 61.26 142.01 L 59.89 140.75 L 58.79 139.17 L 58.03 137.02 Z" fill="#66aa7b" fill-rule="nonzero" group-id="1,83,104" id="路径_3178" node-id="108" stroke="none" target-height="6.9882813" target-width="11.476074" target-x="52.21106" target-y="137.01685"></path><path d="M 58.03 139.90 L 57.60 140.87 L 56.39 143.00 L 55.53 144.14 L 54.55 145.13 L 53.42 145.84 L 52.21 146.10 L 53.63 146.69 L 55.12 146.89 L 56.61 146.69 L 58.03 146.10 L 59.15 146.37 L 61.53 146.68 L 62.77 146.60 L 63.69 146.27 L 62.42 145.66 L 61.26 144.89 L 59.89 143.64 L 58.79 142.05 L 58.03 139.90 Z" fill="#66aa7b" fill-rule="nonzero" group-id="1,83,105" id="路径_3179" node-id="109" stroke="none" target-height="6.9882813" target-width="11.476074" target-x="52.21106" target-y="139.90088"></path><path d="M 57.23 145.52 L 58.66 145.52 L 58.66 148.19 L 57.23 148.19 Z" fill="#66aa7b" fill-rule="nonzero" group-id="1,83,106" id="矩形_138" node-id="110" stroke="none" target-height="2.6730042" target-width="1.4280014" target-x="57.235" target-y="145.521"></path><path d="M 118.38 105.00 L 117.60 107.12 L 117.33 109.21 L 117.54 111.34 L 118.22 113.36 L 119.33 115.16 L 120.91 116.76 L 123.50 118.33 L 124.80 119.12 L 125.97 120.06 L 127.20 121.54 L 128.42 123.02 L 130.07 124.26 L 132.01 125.03 L 134.09 125.39 L 136.21 125.40 L 139.16 124.87 L 141.90 123.84 L 144.46 122.28 L 146.74 120.32 L 148.64 118.07 L 150.19 115.49 L 151.29 112.70 L 151.84 109.83 L 151.87 106.83 L 151.65 105.01 L 151.60 103.18 L 151.93 101.52 L 152.50 99.86 L 153.63 96.61 L 153.81 95.03 L 153.48 93.46 L 152.66 92.17 L 151.51 91.09 L 148.96 89.14 L 147.92 88.02 L 147.28 86.68 L 147.16 85.25 L 147.37 83.72 L 147.86 80.78 L 147.70 79.50 L 146.97 78.43 L 146.30 78.00 L 145.53 77.71 L 143.95 77.24 L 143.25 76.88 L 142.70 76.34 L 142.39 75.66 L 142.28 74.90 L 142.35 73.31 L 142.31 71.81 L 141.98 70.38 L 141.38 69.03 L 140.52 67.81 L 139.36 66.85 L 138.03 66.26 L 136.58 66.06 L 135.10 66.26 L 132.07 67.48 L 130.44 67.47 L 129.65 67.53 L 128.95 67.83 L 128.46 68.40 L 128.23 69.10 L 128.14 70.75 L 127.85 72.36 L 127.26 73.17 L 126.42 73.77 L 124.43 74.59 L 122.66 75.46 L 121.04 76.65 L 119.69 78.12 L 118.76 79.75 L 118.33 81.52 L 118.53 83.37 L 119.61 86.37 L 119.48 87.96 L 118.81 89.49 L 116.99 92.45 L 116.38 93.98 L 116.34 95.55 L 116.76 96.68 L 117.46 97.72 L 119.02 99.68 L 119.57 100.73 L 119.75 101.88 L 119.24 103.52 L 118.38 105.00 Z" fill="#ffffff" fill-opacity="0.5" fill-rule="nonzero" group-id="1,84,107" id="路径_3180" node-id="112" stroke="none" target-height="59.33789" target-width="37.47693" target-x="116.33606" target-y="66.058105"></path><path d="M 135.06 70.38 L 135.31 70.38 L 136.88 141.38 L 134.06 141.38 Z" fill="#485ebc" fill-rule="nonzero" group-id="1,84,108,130" id="路径_3181" node-id="114" stroke="none" target-height="71.00708" target-width="2.828003" target-x="134.05603" target-y="70.375"></path><path d="M 135.54 117.55 L 146.18 107.36 L 135.70 118.54 Z" fill="#485ebc" fill-rule="nonzero" group-id="1,84,108,131" id="路径_3182" node-id="115" stroke="none" target-height="11.173096" target-width="10.645996" target-x="135.53601" target-y="107.36304"></path><path d="M 140.05 109.45 L 137.97 115.70 L 139.01 114.77 Z" fill="#485ebc" fill-rule="nonzero" group-id="1,84,108,132" id="路径_3183" node-id="116" stroke="none" target-height="6.2490234" target-width="2.0830078" target-x="137.96606" target-y="109.446045"></path><path d="M 135.19 112.22 L 129.75 108.06 L 134.96 111.38 Z" fill="#485ebc" fill-rule="nonzero" group-id="1,84,108,133" id="路径_3184" node-id="117" stroke="none" target-height="4.1660156" target-width="5.438965" target-x="129.74902" target-y="108.05713"></path><path d="M 134.60 105.70 L 125.35 102.97 L 134.73 104.93 Z" fill="#485ebc" fill-rule="nonzero" group-id="1,84,108,134" id="路径_3185" node-id="118" stroke="none" target-height="2.7348633" target-width="9.373047" target-x="125.35303" target-y="102.966064"></path><path d="M 135.19 121.48 L 131.37 123.68 L 134.84 122.75 Z" fill="#485ebc" fill-rule="nonzero" group-id="1,84,108,135" id="路径_3186" node-id="119" stroke="none" target-height="2.2001953" target-width="3.8190918" target-x="131.37" target-y="121.47998"></path><path d="M 135.07 117.08 L 133.39 116.21 L 130.36 114.76 L 127.46 113.40 L 126.16 112.80 L 134.76 117.71 Z" fill="#485ebc" fill-rule="nonzero" group-id="1,84,108,136" id="路径_3187" node-id="120" stroke="none" target-height="4.9101563" target-width="8.910034" target-x="126.16199" target-y="112.796875"></path><path d="M 132.29 115.94 L 131.26 113.38 L 131.83 115.69 Z" fill="#485ebc" fill-rule="nonzero" group-id="1,84,108,137" id="路径_3188" node-id="121" stroke="none" target-height="2.5549316" target-width="1.0319824" target-x="131.25513" target-y="113.38013"></path><path d="M 132.87 104.66 L 130.64 101.27 L 131.07 102.21 L 131.70 103.72 L 132.03 104.51 Z" fill="#485ebc" fill-rule="nonzero" group-id="1,84,108,138" id="路径_3189" node-id="122" stroke="none" target-height="3.394043" target-width="2.2370605" target-x="130.63696" target-y="101.26904"></path><path d="M 135.62 104.70 L 146.14 99.42 L 135.65 105.44 Z" fill="#485ebc" fill-rule="nonzero" group-id="1,84,108,139" id="路径_3190" node-id="123" stroke="none" target-height="6.0180664" target-width="10.521973" target-x="135.62" target-y="99.41699"></path><path d="M 138.45 100.86 L 138.33 101.10 L 136.53 104.48 L 137.38 104.02 Z" fill="#485ebc" fill-rule="nonzero" group-id="1,84,108,140" id="路径_3191" node-id="124" stroke="none" target-height="3.625" target-width="1.9279785" target-x="136.526" target-y="100.85693"></path><path d="M 135.03 99.26 L 133.65 98.74 L 131.35 97.96 L 129.20 97.26 L 128.25 96.95 L 135.02 98.57 Z" fill="#485ebc" fill-rule="nonzero" group-id="1,84,108,141" id="路径_3192" node-id="125" stroke="none" target-height="2.3139648" target-width="6.7889404" target-x="128.24512" target-y="96.948"></path><path d="M 130.88 96.23 L 131.75 96.92 L 132.87 97.90 L 133.43 98.39 L 134.28 98.46 Z" fill="#485ebc" fill-rule="nonzero" group-id="1,84,108,142" id="路径_3193" node-id="126" stroke="none" target-height="2.2368164" target-width="3.3950195" target-x="130.88098" target-y="96.22803"></path><path d="M 135.42 96.87 L 136.62 96.22 L 138.52 95.18 L 139.51 94.63 L 135.34 97.72 Z" fill="#485ebc" fill-rule="nonzero" group-id="1,84,108,143" id="路径_3194" node-id="127" stroke="none" target-height="3.0861816" target-width="4.1660156" target-x="135.34314" target-y="94.63379"></path><path d="M 135.19 91.78 L 133.73 91.02 L 131.25 89.70 L 129.94 89.00 L 135.26 91.09 Z" fill="#485ebc" fill-rule="nonzero" group-id="1,84,108,144" id="路径_3195" node-id="128" stroke="none" target-height="2.7768555" target-width="5.317993" target-x="129.94202" target-y="89"></path><path d="M 135.34 93.24 L 137.35 92.24 L 135.50 94.25 Z" fill="#485ebc" fill-rule="nonzero" group-id="1,84,108,145" id="路径_3196" node-id="129" stroke="none" target-height="2.0061035" target-width="2.0059814" target-x="135.34204" target-y="92.24487"></path><path d="M 135.27 88.77 L 137.97 87.00 L 135.27 89.31 Z" fill="#485ebc" fill-rule="nonzero" group-id="1,84,108,146" id="路径_3197" node-id="130" stroke="none" target-height="2.3139648" target-width="2.7000732" target-x="135.26501" target-y="86.99707"></path><path d="M 135.03 87.00 L 132.33 86.22 L 135.13 86.48 Z" fill="#485ebc" fill-rule="nonzero" group-id="1,84,108,147" id="路径_3198" node-id="131" stroke="none" target-height="0.7709961" target-width="2.8000488" target-x="132.33301" target-y="86.22485"></path><path d="M 133.30 110.45 L 133.09 109.15 L 132.99 108.37 L 133.84 110.91 Z" fill="#485ebc" fill-rule="nonzero" group-id="1,84,108,148" id="路径_3199" node-id="132" stroke="none" target-height="2.5458984" target-width="0.848999" target-x="132.99011" target-y="108.36719"></path><path d="M 137.50 95.95 L 140.13 95.95 L 136.66 96.41 Z" fill="#485ebc" fill-rule="nonzero" group-id="1,84,108,149" id="路径_3200" node-id="133" stroke="none" target-height="0.46313477" target-width="3.4710693" target-x="136.65503" target-y="95.948"></path><path d="M 135.34 82.75 L 136.12 81.96 L 137.00 81.13 L 137.43 80.75 L 135.19 83.99 Z" fill="#485ebc" fill-rule="nonzero" group-id="1,84,108,150" id="路径_3201" node-id="134" stroke="none" target-height="3.2399902" target-width="2.2370605" target-x="135.18799" target-y="80.74805"></path><path d="M 12.59 112.76 L 11.81 114.87 L 11.54 116.96 L 11.75 119.09 L 12.43 121.11 L 13.54 122.91 L 15.12 124.51 L 17.72 126.09 L 19.01 126.87 L 20.18 127.81 L 21.41 129.29 L 22.63 130.77 L 24.28 132.01 L 26.22 132.78 L 28.30 133.14 L 30.42 133.15 L 33.37 132.62 L 36.11 131.59 L 38.67 130.04 L 40.95 128.08 L 42.85 125.82 L 44.40 123.24 L 45.50 120.45 L 46.05 117.58 L 46.07 114.58 L 45.86 112.77 L 45.81 110.94 L 46.14 109.28 L 46.71 107.61 L 47.84 104.37 L 48.02 102.78 L 47.69 101.21 L 46.87 99.93 L 45.72 98.84 L 43.17 96.89 L 42.13 95.78 L 41.49 94.43 L 41.37 93.00 L 41.58 91.47 L 42.07 88.54 L 41.91 87.25 L 41.18 86.18 L 40.51 85.75 L 39.74 85.46 L 38.16 84.99 L 37.46 84.64 L 36.91 84.10 L 36.60 83.41 L 36.49 82.65 L 36.56 81.06 L 36.52 79.57 L 36.19 78.13 L 35.59 76.78 L 34.73 75.56 L 33.57 74.60 L 32.24 74.01 L 30.79 73.81 L 29.31 74.02 L 26.28 75.23 L 24.65 75.22 L 23.85 75.29 L 23.16 75.59 L 22.67 76.15 L 22.44 76.86 L 22.34 78.50 L 22.06 80.11 L 21.47 80.93 L 20.63 81.52 L 18.64 82.34 L 16.87 83.21 L 15.25 84.40 L 13.90 85.87 L 12.96 87.50 L 12.54 89.27 L 12.74 91.12 L 13.82 94.12 L 13.69 95.71 L 13.02 97.24 L 11.20 100.20 L 10.59 101.73 L 10.54 103.30 L 10.97 104.43 L 11.67 105.47 L 13.23 107.44 L 13.78 108.48 L 13.96 109.62 L 13.45 111.27 L 12.59 112.76 Z" fill="#ffffff" fill-opacity="0.5" fill-rule="nonzero" group-id="1,85,109" id="路径_3202" node-id="136" stroke="none" target-height="59.3396" target-width="37.477905" target-x="10.544922" target-y="73.809326"></path><path d="M 29.27 78.13 L 29.52 78.13 L 31.09 149.14 L 28.27 149.14 Z" fill="#485ebc" fill-rule="nonzero" group-id="1,85,110,151" id="路径_3203" node-id="138" stroke="none" target-height="71.00708" target-width="2.828003" target-x="28.265015" target-y="78.12793"></path><path d="M 29.75 125.30 L 40.40 115.12 L 29.91 126.29 Z" fill="#485ebc" fill-rule="nonzero" group-id="1,85,110,152" id="路径_3204" node-id="139" stroke="none" target-height="11.173096" target-width="10.645996" target-x="29.75" target-y="115.11597"></path><path d="M 34.26 117.20 L 32.18 123.45 L 33.22 122.52 Z" fill="#485ebc" fill-rule="nonzero" group-id="1,85,110,153" id="路径_3205" node-id="140" stroke="none" target-height="6.2490234" target-width="2.0830078" target-x="32.177002" target-y="117.198975"></path><path d="M 29.40 119.98 L 23.96 115.81 L 29.17 119.13 Z" fill="#485ebc" fill-rule="nonzero" group-id="1,85,110,154" id="路径_3206" node-id="141" stroke="none" target-height="4.1660156" target-width="5.438965" target-x="23.959106" target-y="115.81006"></path><path d="M 28.81 113.45 L 19.56 110.72 L 28.93 112.68 Z" fill="#485ebc" fill-rule="nonzero" group-id="1,85,110,155" id="路径_3207" node-id="142" stroke="none" target-height="2.7358398" target-width="9.372925" target-x="19.562012" target-y="110.71802"></path><path d="M 29.40 129.23 L 25.58 131.43 L 29.05 130.51 Z" fill="#485ebc" fill-rule="nonzero" group-id="1,85,110,156" id="路径_3208" node-id="143" stroke="none" target-height="2.1999512" target-width="3.8189697" target-x="25.579102" target-y="129.23413"></path><path d="M 29.28 124.84 L 27.60 123.97 L 24.57 122.52 L 21.67 121.16 L 20.37 120.55 L 28.97 125.46 Z" fill="#485ebc" fill-rule="nonzero" group-id="1,85,110,157" id="路径_3209" node-id="144" stroke="none" target-height="4.909912" target-width="8.910889" target-x="20.37207" target-y="120.553955"></path><path d="M 26.49 123.69 L 25.46 121.13 L 26.04 123.45 Z" fill="#485ebc" fill-rule="nonzero" group-id="1,85,110,158" id="路径_3210" node-id="145" stroke="none" target-height="2.5549316" target-width="1.032959" target-x="25.462036" target-y="121.1311"></path><path d="M 27.08 112.42 L 24.85 109.02 L 25.28 109.96 L 25.91 111.47 L 26.24 112.26 Z" fill="#485ebc" fill-rule="nonzero" group-id="1,85,110,159" id="路径_3211" node-id="146" stroke="none" target-height="3.3947754" target-width="2.2369385" target-x="24.847046" target-y="109.020996"></path><path d="M 29.83 112.45 L 40.35 107.17 L 29.86 113.19 Z" fill="#485ebc" fill-rule="nonzero" group-id="1,85,110,160" id="路径_3212" node-id="147" stroke="none" target-height="6.0180664" target-width="10.521973" target-x="29.831055" target-y="107.16992"></path><path d="M 32.66 108.61 L 32.54 108.85 L 30.74 112.23 L 31.59 111.77 Z" fill="#485ebc" fill-rule="nonzero" group-id="1,85,110,161" id="路径_3213" node-id="148" stroke="none" target-height="3.6259766" target-width="1.9279785" target-x="30.736084" target-y="108.60889"></path><path d="M 29.24 107.01 L 27.86 106.49 L 25.56 105.71 L 23.41 105.01 L 22.45 104.70 L 29.22 106.32 Z" fill="#485ebc" fill-rule="nonzero" group-id="1,85,110,162" id="路径_3214" node-id="149" stroke="none" target-height="2.3139648" target-width="6.7890625" target-x="22.454956" target-y="104.70093"></path><path d="M 25.09 103.98 L 25.96 104.68 L 27.08 105.65 L 27.64 106.14 L 28.49 106.22 Z" fill="#485ebc" fill-rule="nonzero" group-id="1,85,110,163" id="路径_3215" node-id="150" stroke="none" target-height="2.2368164" target-width="3.3950195" target-x="25.091064" target-y="103.98193"></path><path d="M 29.63 104.62 L 30.83 103.98 L 32.73 102.93 L 33.72 102.39 L 29.55 105.47 Z" fill="#485ebc" fill-rule="nonzero" group-id="1,85,110,164" id="路径_3216" node-id="151" stroke="none" target-height="3.085205" target-width="4.1660156" target-x="29.552002" target-y="102.38794"></path><path d="M 29.40 99.53 L 27.94 98.78 L 25.46 97.46 L 24.15 96.75 L 29.47 98.84 Z" fill="#485ebc" fill-rule="nonzero" group-id="1,85,110,165" id="路径_3217" node-id="152" stroke="none" target-height="2.7768555" target-width="5.317993" target-x="24.151978" target-y="96.75488"></path><path d="M 29.55 101.00 L 31.56 100.00 L 29.71 102.01 Z" fill="#485ebc" fill-rule="nonzero" group-id="1,85,110,166" id="路径_3218" node-id="153" stroke="none" target-height="2.0061035" target-width="2.0059814" target-x="29.552979" target-y="99.999756"></path><path d="M 29.47 96.52 L 32.17 94.75 L 29.47 97.06 Z" fill="#485ebc" fill-rule="nonzero" group-id="1,85,110,167" id="路径_3219" node-id="154" stroke="none" target-height="2.3139648" target-width="2.6999512" target-x="29.474976" target-y="94.74902"></path><path d="M 29.24 94.75 L 26.54 93.98 L 29.34 94.24 Z" fill="#485ebc" fill-rule="nonzero" group-id="1,85,110,168" id="路径_3220" node-id="155" stroke="none" target-height="0.7709961" target-width="2.8000488" target-x="26.543945" target-y="93.98096"></path><path d="M 27.51 118.20 L 27.30 116.90 L 27.20 116.12 L 28.05 118.66 Z" fill="#485ebc" fill-rule="nonzero" group-id="1,85,110,169" id="路径_3221" node-id="156" stroke="none" target-height="2.5449219" target-width="0.848999" target-x="27.199951" target-y="116.11987"></path><path d="M 31.71 103.70 L 34.34 103.70 L 30.86 104.16 Z" fill="#485ebc" fill-rule="nonzero" group-id="1,85,110,170" id="路径_3222" node-id="157" stroke="none" target-height="0.46289063" target-width="3.472046" target-x="30.863037" target-y="103.698975"></path><path d="M 29.55 90.51 L 30.33 89.71 L 31.22 88.88 L 31.64 88.50 L 29.40 91.74 Z" fill="#485ebc" fill-rule="nonzero" group-id="1,85,110,171" id="路径_3223" node-id="158" stroke="none" target-height="3.2399902" target-width="2.2369385" target-x="29.399048" target-y="88.50098"></path><path d="M 55.75 110.20 L 55.21 111.66 L 55.03 113.10 L 55.18 114.56 L 55.64 115.96 L 56.41 117.20 L 57.50 118.30 L 59.29 119.39 L 60.98 120.58 L 61.83 121.59 L 62.67 122.62 L 63.86 123.45 L 65.18 124.01 L 66.59 124.29 L 68.05 124.25 L 70.15 123.82 L 72.05 123.09 L 73.78 122.05 L 75.32 120.74 L 76.60 119.22 L 77.63 117.48 L 78.37 115.60 L 78.77 113.60 L 78.84 111.45 L 78.66 108.94 L 78.88 107.79 L 79.28 106.65 L 80.06 104.41 L 80.18 103.31 L 79.96 102.23 L 79.39 101.35 L 78.60 100.60 L 76.84 99.26 L 76.12 98.49 L 75.68 97.56 L 75.60 96.57 L 75.74 95.52 L 76.08 93.50 L 75.97 92.61 L 75.47 91.87 L 74.75 91.47 L 73.92 91.22 L 73.13 90.94 L 72.53 90.44 L 72.23 89.41 L 72.28 88.34 L 72.20 86.96 L 71.78 85.71 L 71.02 84.55 L 70.22 83.89 L 69.30 83.48 L 68.31 83.34 L 67.28 83.49 L 65.20 84.32 L 64.07 84.32 L 63.52 84.36 L 63.04 84.57 L 62.62 85.18 L 62.50 86.00 L 62.28 87.69 L 61.88 88.25 L 61.30 88.66 L 59.93 89.23 L 58.71 89.82 L 57.59 90.65 L 56.66 91.66 L 56.01 92.78 L 55.72 94.00 L 55.86 95.28 L 56.60 97.35 L 56.51 98.45 L 56.05 99.50 L 54.80 101.54 L 54.38 102.59 L 54.35 103.68 L 54.64 104.45 L 55.12 105.17 L 56.20 106.53 L 56.57 107.25 L 56.70 108.04 L 56.35 109.17 L 55.75 110.20 Z" fill="#ffffff" fill-opacity="0.5" fill-rule="nonzero" group-id="1,86,111" id="路径_3224" node-id="160" stroke="none" target-height="40.940918" target-width="25.837769" target-x="54.345947" target-y="83.34424"></path><path d="M 67.25 86.33 L 67.43 86.33 L 68.51 135.28 L 66.56 135.28 Z" fill="#485ebc" fill-rule="nonzero" group-id="1,86,112,172" id="路径_3225" node-id="162" stroke="none" target-height="48.95117" target-width="1.9489746" target-x="66.55896" target-y="86.326904"></path><path d="M 67.58 118.85 L 74.92 111.83 L 67.69 119.53 Z" fill="#485ebc" fill-rule="nonzero" group-id="1,86,112,173" id="路径_3226" node-id="163" stroke="none" target-height="7.699951" target-width="7.3389893" target-x="67.57898" target-y="111.826904"></path><path d="M 70.69 113.26 L 69.25 117.57 L 69.97 116.93 Z" fill="#485ebc" fill-rule="nonzero" group-id="1,86,112,174" id="路径_3227" node-id="164" stroke="none" target-height="4.3081055" target-width="1.4360352" target-x="69.25391" target-y="113.26196"></path><path d="M 67.34 115.17 L 63.59 112.30 L 67.19 114.59 Z" fill="#485ebc" fill-rule="nonzero" group-id="1,86,112,175" id="路径_3228" node-id="165" stroke="none" target-height="2.8720703" target-width="3.7490234" target-x="63.590942" target-y="112.30078"></path><path d="M 66.94 110.68 L 60.56 108.79 L 67.02 110.15 Z" fill="#485ebc" fill-rule="nonzero" group-id="1,86,112,176" id="路径_3229" node-id="166" stroke="none" target-height="1.8859863" target-width="6.462036" target-x="60.55896" target-y="108.79492"></path><path d="M 67.34 121.56 L 64.71 123.07 L 67.10 122.44 Z" fill="#485ebc" fill-rule="nonzero" group-id="1,86,112,177" id="路径_3230" node-id="167" stroke="none" target-height="1.5161133" target-width="2.6329346" target-x="64.70703" target-y="121.55884"></path><path d="M 67.26 118.53 L 66.10 117.93 L 64.01 116.93 L 62.01 115.99 L 61.12 115.58 L 67.04 118.96 Z" fill="#485ebc" fill-rule="nonzero" group-id="1,86,112,178" id="路径_3231" node-id="168" stroke="none" target-height="3.3850098" target-width="6.1429443" target-x="61.116943" target-y="115.57593"></path><path d="M 65.34 117.74 L 64.63 115.97 L 65.03 117.57 Z" fill="#485ebc" fill-rule="nonzero" group-id="1,86,112,179" id="路径_3232" node-id="169" stroke="none" target-height="1.7619629" target-width="0.71191406" target-x="64.62805" target-y="115.97388"></path><path d="M 65.74 109.96 L 64.20 107.62 L 64.50 108.27 L 64.94 109.32 L 65.16 109.86 Z" fill="#485ebc" fill-rule="nonzero" group-id="1,86,112,180" id="路径_3233" node-id="170" stroke="none" target-height="2.340088" target-width="1.5419922" target-x="64.20203" target-y="107.624756"></path><path d="M 67.64 109.99 L 74.89 106.35 L 67.66 110.50 Z" fill="#485ebc" fill-rule="nonzero" group-id="1,86,112,181" id="路径_3234" node-id="171" stroke="none" target-height="4.1481934" target-width="7.2539063" target-x="67.63794" target-y="106.3479"></path><path d="M 69.59 107.34 L 69.50 107.51 L 68.26 109.84 L 68.85 109.52 Z" fill="#485ebc" fill-rule="nonzero" group-id="1,86,112,182" id="路径_3235" node-id="172" stroke="none" target-height="2.5" target-width="1.3289795" target-x="68.26294" target-y="107.341064"></path><path d="M 67.23 106.24 L 65.78 105.71 L 63.65 105.00 L 62.55 104.64 L 67.22 105.76 Z" fill="#485ebc" fill-rule="nonzero" group-id="1,86,112,183" id="路径_3236" node-id="173" stroke="none" target-height="1.6000977" target-width="4.6799316" target-x="62.553955" target-y="104.64087"></path><path d="M 64.37 104.15 L 64.97 104.63 L 65.75 105.30 L 66.13 105.64 L 66.71 105.69 Z" fill="#485ebc" fill-rule="nonzero" group-id="1,86,112,184" id="路径_3237" node-id="174" stroke="none" target-height="1.5419922" target-width="2.3399658" target-x="64.37488" target-y="104.1499"></path><path d="M 67.50 104.59 L 68.32 104.15 L 69.63 103.43 L 70.32 103.05 L 67.45 105.18 Z" fill="#485ebc" fill-rule="nonzero" group-id="1,86,112,185" id="路径_3238" node-id="175" stroke="none" target-height="2.1279297" target-width="2.8720703" target-x="67.44592" target-y="103.05078"></path><path d="M 67.34 101.08 L 66.33 100.56 L 64.63 99.65 L 63.72 99.17 L 67.39 100.60 Z" fill="#485ebc" fill-rule="nonzero" group-id="1,86,112,186" id="路径_3239" node-id="176" stroke="none" target-height="1.9150391" target-width="3.6660156" target-x="63.7229" target-y="99.16577"></path><path d="M 67.45 102.09 L 68.83 101.40 L 67.55 102.78 Z" fill="#485ebc" fill-rule="nonzero" group-id="1,86,112,187" id="路径_3240" node-id="177" stroke="none" target-height="1.3830566" target-width="1.3829346" target-x="67.448" target-y="101.401855"></path><path d="M 67.39 99.01 L 69.26 97.79 L 67.39 99.39 Z" fill="#485ebc" fill-rule="nonzero" group-id="1,86,112,188" id="路径_3241" node-id="178" stroke="none" target-height="1.6000977" target-width="1.8619385" target-x="67.39307" target-y="97.78589"></path><path d="M 67.23 97.79 L 65.37 97.25 L 67.30 97.43 Z" fill="#485ebc" fill-rule="nonzero" group-id="1,86,112,189" id="路径_3242" node-id="179" stroke="none" target-height="0.5319824" target-width="1.9289551" target-x="65.37305" target-y="97.25391"></path><path d="M 66.04 113.96 L 65.89 113.06 L 65.82 112.52 L 66.41 114.27 Z" fill="#485ebc" fill-rule="nonzero" group-id="1,86,112,190" id="路径_3243" node-id="180" stroke="none" target-height="1.7548828" target-width="0.58496094" target-x="65.823975" target-y="112.51807"></path><path d="M 68.94 103.95 L 70.74 103.95 L 68.35 104.27 Z" fill="#485ebc" fill-rule="nonzero" group-id="1,86,112,191" id="路径_3244" node-id="181" stroke="none" target-height="0.3190918" target-width="2.3929443" target-x="68.35095" target-y="103.954834"></path><path d="M 67.45 94.86 L 68.30 94.01 L 68.88 93.48 L 67.34 95.71 Z" fill="#485ebc" fill-rule="nonzero" group-id="1,86,112,192" id="路径_3245" node-id="182" stroke="none" target-height="2.2341309" target-width="1.5419922" target-x="67.339966" target-y="93.47778"></path><path d="M 151.19 121.21 L 150.70 122.54 L 150.53 123.85 L 150.67 125.19 L 151.09 126.46 L 151.79 127.59 L 152.78 128.59 L 155.96 130.66 L 156.73 131.59 L 157.50 132.52 L 158.58 133.28 L 159.78 133.79 L 161.06 134.04 L 162.39 134.01 L 164.31 133.62 L 166.04 132.95 L 167.62 132.00 L 169.02 130.81 L 170.18 129.43 L 171.12 127.85 L 171.79 126.13 L 172.16 124.31 L 172.22 122.36 L 172.05 120.07 L 172.62 117.98 L 173.33 115.94 L 173.44 114.94 L 173.23 113.96 L 172.72 113.15 L 171.99 112.47 L 170.39 111.25 L 169.74 110.55 L 169.34 109.70 L 169.27 108.80 L 169.40 107.84 L 169.70 106.00 L 169.60 105.19 L 169.15 104.52 L 168.50 104.16 L 167.74 103.93 L 167.02 103.67 L 166.47 103.21 L 166.20 102.28 L 166.24 101.31 L 166.17 100.05 L 165.79 98.91 L 165.09 97.86 L 164.37 97.25 L 163.53 96.88 L 162.62 96.76 L 161.69 96.89 L 159.79 97.65 L 158.77 97.64 L 157.83 97.87 L 157.44 98.43 L 157.34 99.17 L 157.14 100.71 L 156.77 101.22 L 156.24 101.60 L 155.00 102.11 L 153.35 103.01 L 152.02 104.32 L 151.41 105.37 L 151.17 106.46 L 151.29 107.62 L 151.96 109.51 L 151.88 110.51 L 151.46 111.47 L 150.32 113.33 L 149.94 114.28 L 149.91 115.27 L 150.18 115.98 L 150.61 116.63 L 151.59 117.87 L 151.94 118.52 L 152.05 119.24 L 151.73 120.28 L 151.19 121.21 Z" fill="#ffffff" fill-opacity="0.5" fill-rule="nonzero" group-id="1,87,113" id="路径_3246" node-id="184" stroke="none" target-height="37.28418" target-width="23.533447" target-x="149.91003" target-y="96.75635"></path><path d="M 161.67 99.47 L 161.83 99.47 L 162.81 144.05 L 161.04 144.05 Z" fill="#485ebc" fill-rule="nonzero" group-id="1,87,114,193" id="路径_3247" node-id="186" stroke="none" target-height="44.585938" target-width="1.7750244" target-x="161.03613" target-y="99.466064"></path><path d="M 161.96 129.09 L 168.65 122.69 L 162.07 129.71 Z" fill="#485ebc" fill-rule="nonzero" group-id="1,87,114,194" id="路径_3248" node-id="187" stroke="none" target-height="7.0148926" target-width="6.6850586" target-x="161.96497" target-y="122.69116"></path><path d="M 164.80 124.00 L 163.49 127.92 L 164.15 127.34 Z" fill="#485ebc" fill-rule="nonzero" group-id="1,87,114,195" id="路径_3249" node-id="188" stroke="none" target-height="3.9240723" target-width="1.3081055" target-x="163.49097" target-y="123.99805"></path><path d="M 161.75 125.74 L 158.33 123.13 L 161.61 125.21 Z" fill="#485ebc" fill-rule="nonzero" group-id="1,87,114,196" id="路径_3250" node-id="189" stroke="none" target-height="2.6159668" target-width="3.415039" target-x="158.33203" target-y="123.12598"></path><path d="M 161.38 121.65 L 155.57 119.93 L 161.45 121.17 Z" fill="#485ebc" fill-rule="nonzero" group-id="1,87,114,197" id="路径_3251" node-id="190" stroke="none" target-height="1.717041" target-width="5.8859863" target-x="155.568" target-y="119.930176"></path><path d="M 161.75 131.56 L 159.35 132.94 L 161.53 132.35 Z" fill="#485ebc" fill-rule="nonzero" group-id="1,87,114,198" id="路径_3252" node-id="191" stroke="none" target-height="1.3798828" target-width="2.4000244" target-x="159.34802" target-y="131.55518"></path><path d="M 161.68 128.79 L 160.03 127.97 L 157.43 126.74 L 156.08 126.11 L 161.48 129.19 Z" fill="#485ebc" fill-rule="nonzero" group-id="1,87,114,199" id="路径_3253" node-id="192" stroke="none" target-height="3.0830078" target-width="5.595093" target-x="156.07996" target-y="126.10596"></path><path d="M 159.93 128.07 L 159.28 126.47 L 159.64 127.93 Z" fill="#485ebc" fill-rule="nonzero" group-id="1,87,114,200" id="路径_3254" node-id="193" stroke="none" target-height="1.6000977" target-width="0.6479492" target-x="159.2771" target-y="126.4729"></path><path d="M 160.29 121.00 L 158.89 118.86 L 159.16 119.46 L 159.56 120.40 L 159.77 120.90 Z" fill="#485ebc" fill-rule="nonzero" group-id="1,87,114,201" id="路径_3255" node-id="194" stroke="none" target-height="2.1311035" target-width="1.4000244" target-x="158.89404" target-y="118.86499"></path><path d="M 162.02 121.02 L 168.63 117.70 L 162.04 121.48 Z" fill="#485ebc" fill-rule="nonzero" group-id="1,87,114,202" id="路径_3256" node-id="195" stroke="none" target-height="3.7780762" target-width="6.6069336" target-x="162.01904" target-y="117.70215"></path><path d="M 163.80 118.61 L 163.72 118.76 L 162.59 120.88 L 163.12 120.59 Z" fill="#485ebc" fill-rule="nonzero" group-id="1,87,114,203" id="路径_3257" node-id="196" stroke="none" target-height="2.2770996" target-width="1.2109375" target-x="162.58606" target-y="118.60596"></path><path d="M 161.65 117.60 L 160.33 117.12 L 158.39 116.47 L 157.39 116.15 L 161.64 117.17 Z" fill="#485ebc" fill-rule="nonzero" group-id="1,87,114,204" id="路径_3258" node-id="197" stroke="none" target-height="1.4528809" target-width="4.2629395" target-x="157.38806" target-y="116.15112"></path><path d="M 159.04 115.70 L 159.95 116.45 L 160.64 117.05 L 161.18 117.10 Z" fill="#485ebc" fill-rule="nonzero" group-id="1,87,114,205" id="路径_3259" node-id="198" stroke="none" target-height="1.4040527" target-width="2.1330566" target-x="159.04297" target-y="115.698975"></path><path d="M 161.89 116.10 L 162.64 115.70 L 163.84 115.04 L 164.46 114.70 L 161.84 116.64 Z" fill="#485ebc" fill-rule="nonzero" group-id="1,87,114,206" id="路径_3260" node-id="199" stroke="none" target-height="1.9379883" target-width="2.6159668" target-x="161.84412" target-y="114.70288"></path><path d="M 161.75 112.91 L 160.83 112.43 L 159.27 111.60 L 158.45 111.16 L 161.79 112.47 Z" fill="#485ebc" fill-rule="nonzero" group-id="1,87,114,207" id="路径_3261" node-id="200" stroke="none" target-height="1.7438965" target-width="3.3389893" target-x="158.453" target-y="111.16211"></path><path d="M 161.84 113.83 L 163.10 113.20 L 161.94 114.46 Z" fill="#485ebc" fill-rule="nonzero" group-id="1,87,114,208" id="路径_3262" node-id="201" stroke="none" target-height="1.2590332" target-width="1.2598877" target-x="161.84412" target-y="113.196045"></path><path d="M 161.80 111.02 L 163.50 109.90 L 161.80 111.36 Z" fill="#485ebc" fill-rule="nonzero" group-id="1,87,114,209" id="路径_3263" node-id="202" stroke="none" target-height="1.453125" target-width="1.7000732" target-x="161.79602" target-y="109.9021"></path><path d="M 161.65 109.90 L 159.95 109.42 L 161.71 109.58 Z" fill="#485ebc" fill-rule="nonzero" group-id="1,87,114,210" id="路径_3264" node-id="203" stroke="none" target-height="0.48413086" target-width="1.756958" target-x="159.95007" target-y="109.41797"></path><path d="M 160.56 124.63 L 160.43 123.81 L 160.36 123.32 L 160.90 124.92 Z" fill="#485ebc" fill-rule="nonzero" group-id="1,87,114,211" id="路径_3265" node-id="204" stroke="none" target-height="1.6000977" target-width="0.53308105" target-x="160.36401" target-y="123.321045"></path><path d="M 163.20 115.52 L 164.85 115.52 L 162.67 115.81 Z" fill="#485ebc" fill-rule="nonzero" group-id="1,87,114,212" id="路径_3266" node-id="205" stroke="none" target-height="0.29101563" target-width="2.1799316" target-x="162.66711" target-y="115.52197"></path><path d="M 161.85 107.24 L 162.63 106.46 L 163.16 105.98 L 161.76 108.01 Z" fill="#485ebc" fill-rule="nonzero" group-id="1,87,114,213" id="路径_3267" node-id="206" stroke="none" target-height="2.0339355" target-width="1.4000244" target-x="161.7561" target-y="105.97925"></path><path d="M 160.80 132.12 L 160.28 133.30 L 158.81 135.89 L 157.77 137.28 L 156.57 138.48 L 155.19 139.34 L 153.73 139.66 L 155.45 140.38 L 157.26 140.62 L 159.08 140.38 L 160.80 139.66 L 162.17 139.99 L 165.06 140.36 L 166.57 140.27 L 167.68 139.86 L 166.14 139.12 L 164.72 138.19 L 163.07 136.66 L 162.12 135.45 L 161.36 133.95 L 160.80 132.12 Z" fill="#66aa7b" fill-rule="nonzero" group-id="1,88,115" id="路径_3268" node-id="208" stroke="none" target-height="8.492676" target-width="13.954956" target-x="153.72595" target-y="132.12305"></path><path d="M 160.80 135.34 L 160.28 136.52 L 158.81 139.11 L 157.77 140.50 L 156.57 141.70 L 155.19 142.56 L 153.73 142.88 L 155.45 143.60 L 157.26 143.83 L 159.08 143.60 L 160.80 142.88 L 162.17 143.21 L 165.06 143.58 L 166.57 143.49 L 167.68 143.08 L 166.14 142.34 L 164.72 141.41 L 163.07 139.88 L 162.12 138.67 L 161.36 137.17 L 160.80 135.34 Z" fill="#66aa7b" fill-rule="nonzero" group-id="1,88,116" id="路径_3269" node-id="209" stroke="none" target-height="8.492432" target-width="13.954956" target-x="153.72595" target-y="135.34204"></path><path d="M 160.80 138.94 L 160.28 140.12 L 158.81 142.70 L 157.77 144.09 L 156.57 145.29 L 155.19 146.16 L 153.73 146.47 L 155.45 147.19 L 157.26 147.43 L 159.08 147.19 L 160.80 146.47 L 162.17 146.80 L 165.06 147.18 L 166.57 147.08 L 167.68 146.67 L 166.14 145.93 L 164.72 145.00 L 163.07 143.48 L 162.12 142.26 L 161.36 140.77 L 160.80 138.94 Z" fill="#66aa7b" fill-rule="nonzero" group-id="1,88,117" id="路径_3270" node-id="210" stroke="none" target-height="8.492676" target-width="13.954956" target-x="153.72595" target-y="138.93799"></path><path d="M 160.80 142.45 L 160.28 143.62 L 158.81 146.21 L 157.77 147.60 L 156.57 148.80 L 155.19 149.66 L 153.73 149.98 L 155.45 150.70 L 157.26 150.94 L 159.08 150.70 L 160.80 149.98 L 162.17 150.31 L 165.06 150.69 L 166.57 150.59 L 167.68 150.18 L 166.14 149.44 L 164.72 148.51 L 163.07 146.99 L 162.12 145.77 L 161.36 144.27 L 160.80 142.45 Z" fill="#66aa7b" fill-rule="nonzero" group-id="1,88,118" id="路径_3271" node-id="211" stroke="none" target-height="8.492676" target-width="13.954956" target-x="153.72595" target-y="142.44507"></path><path d="M 159.83 149.28 L 161.57 149.28 L 161.57 152.53 L 159.83 152.53 Z" fill="#66aa7b" fill-rule="nonzero" group-id="1,88,119" id="矩形_139" node-id="212" stroke="none" target-height="3.25" target-width="1.7359924" target-x="159.83499" target-y="149.279"></path><path d="M 25.68 139.40 L 25.19 140.50 L 23.81 142.93 L 22.84 144.22 L 21.72 145.35 L 20.43 146.16 L 19.06 146.45 L 20.68 147.13 L 22.37 147.35 L 24.07 147.13 L 25.68 146.45 L 26.96 146.76 L 29.67 147.11 L 31.08 147.02 L 32.12 146.64 L 30.68 145.95 L 29.35 145.08 L 27.80 143.65 L 26.92 142.51 L 26.21 141.11 L 25.68 139.40 Z" fill="#66aa7b" fill-rule="nonzero" group-id="1,89,120" id="路径_3272" node-id="214" stroke="none" target-height="7.9472656" target-width="13.059082" target-x="19.061035" target-y="139.4021"></path><path d="M 25.68 142.42 L 25.19 143.52 L 23.81 145.94 L 22.84 147.24 L 21.72 148.37 L 20.43 149.17 L 19.06 149.47 L 20.68 150.14 L 22.37 150.36 L 24.07 150.14 L 25.68 149.47 L 26.96 149.78 L 29.67 150.13 L 31.08 150.04 L 32.12 149.65 L 30.68 148.96 L 29.35 148.09 L 27.80 146.67 L 26.92 145.53 L 26.21 144.13 L 25.68 142.42 Z" fill="#66aa7b" fill-rule="nonzero" group-id="1,89,121" id="路径_3273" node-id="215" stroke="none" target-height="7.94751" target-width="13.059082" target-x="19.061035" target-y="142.41699"></path><path d="M 25.68 145.78 L 25.19 146.88 L 23.81 149.31 L 22.84 150.60 L 21.72 151.73 L 20.43 152.53 L 19.06 152.83 L 20.68 153.51 L 22.37 153.73 L 24.07 153.51 L 25.68 152.83 L 26.96 153.14 L 29.67 153.49 L 31.08 153.40 L 32.12 153.02 L 30.68 152.33 L 29.35 151.46 L 27.80 150.03 L 26.92 148.89 L 26.21 147.49 L 25.68 145.78 Z" fill="#66aa7b" fill-rule="nonzero" group-id="1,89,122" id="路径_3274" node-id="216" stroke="none" target-height="7.9467773" target-width="13.059082" target-x="19.061035" target-y="145.78125"></path><path d="M 25.68 149.06 L 25.19 150.16 L 23.81 152.59 L 22.84 153.89 L 21.72 155.01 L 20.43 155.82 L 19.06 156.11 L 20.68 156.79 L 22.37 157.01 L 24.07 156.79 L 25.68 156.11 L 26.96 156.42 L 29.67 156.77 L 31.08 156.68 L 32.12 156.30 L 30.68 155.61 L 29.35 154.74 L 27.80 153.31 L 26.92 152.18 L 26.21 150.78 L 25.68 149.06 Z" fill="#66aa7b" fill-rule="nonzero" group-id="1,89,123" id="路径_3275" node-id="217" stroke="none" target-height="7.9467773" target-width="13.059082" target-x="19.061035" target-y="149.06323"></path><path d="M 24.78 155.46 L 26.40 155.46 L 26.40 158.50 L 24.78 158.50 Z" fill="#66aa7b" fill-rule="nonzero" group-id="1,89,124" id="矩形_140" node-id="218" stroke="none" target-height="3.0420074" target-width="1.625" target-x="24.778" target-y="155.45898"></path><path d="M 68.88 129.57 L 68.45 130.54 L 67.24 132.68 L 66.39 133.82 L 65.40 134.81 L 64.27 135.51 L 63.06 135.78 L 64.48 136.37 L 65.97 136.56 L 67.46 136.37 L 68.88 135.78 L 70.00 136.05 L 72.38 136.36 L 73.62 136.28 L 74.54 135.94 L 73.27 135.33 L 72.11 134.56 L 70.74 133.31 L 69.64 131.73 L 68.88 129.57 Z" fill="#66aa7b" fill-rule="nonzero" group-id="1,90,125" id="路径_3276" node-id="220" stroke="none" target-height="6.9882813" target-width="11.474976" target-x="63.06201" target-y="129.57495"></path><path d="M 68.88 132.22 L 68.45 133.19 L 67.24 135.32 L 66.39 136.47 L 65.40 137.46 L 64.27 138.16 L 63.06 138.42 L 64.48 139.02 L 65.97 139.21 L 67.46 139.02 L 68.88 138.42 L 70.00 138.70 L 72.38 139.01 L 73.62 138.93 L 74.54 138.59 L 73.27 137.98 L 72.11 137.21 L 70.74 135.96 L 69.64 134.37 L 68.88 132.22 Z" fill="#66aa7b" fill-rule="nonzero" group-id="1,90,126" id="路径_3277" node-id="221" stroke="none" target-height="6.988037" target-width="11.474976" target-x="63.06201" target-y="132.22412"></path><path d="M 68.88 135.18 L 68.45 136.15 L 67.24 138.28 L 66.39 139.42 L 65.40 140.41 L 64.27 141.12 L 63.06 141.38 L 64.48 141.97 L 65.97 142.17 L 67.46 141.97 L 68.88 141.38 L 70.00 141.65 L 72.38 141.96 L 73.62 141.88 L 74.54 141.54 L 73.27 140.94 L 72.11 140.17 L 70.74 138.92 L 69.64 137.33 L 68.88 135.18 Z" fill="#66aa7b" fill-rule="nonzero" group-id="1,90,127" id="路径_3278" node-id="222" stroke="none" target-height="6.9882813" target-width="11.474976" target-x="63.06201" target-y="135.17993"></path><path d="M 68.88 138.06 L 68.45 139.03 L 67.24 141.17 L 66.39 142.31 L 65.40 143.30 L 64.27 144.00 L 63.06 144.26 L 64.48 144.86 L 65.97 145.05 L 67.46 144.86 L 68.88 144.26 L 70.00 144.54 L 72.38 144.85 L 73.62 144.77 L 74.54 144.43 L 73.27 143.82 L 72.11 143.05 L 70.74 141.80 L 69.64 140.22 L 68.88 138.06 Z" fill="#66aa7b" fill-rule="nonzero" group-id="1,90,128" id="路径_3279" node-id="223" stroke="none" target-height="6.9882813" target-width="11.474976" target-x="63.06201" target-y="138.06494"></path><path d="M 68.09 143.69 L 69.51 143.69 L 69.51 146.36 L 68.09 146.36 Z" fill="#66aa7b" fill-rule="nonzero" group-id="1,90,129" id="矩形_141" node-id="224" stroke="none" target-height="2.6730042" target-width="1.4280014" target-x="68.086" target-y="143.685"></path></g></g></svg>