<?xml version="1.0" standalone="no"?><!DOCTYPE svg PUBLIC "-//W3C//DTD SVG 1.1//EN" "http://www.w3.org/Graphics/SVG/1.1/DTD/svg11.dtd"><svg height="200" node-id="1" sillyvg="true" template-height="200" template-width="200" version="1.1" viewBox="0 0 200 200" width="200" xmlns="http://www.w3.org/2000/svg" xmlns:xlink="http://www.w3.org/1999/xlink"><defs node-id="55"><linearGradient gradientUnits="objectBoundingBox" id="linear-gradient" node-id="5" spreadMethod="pad" x1="0.5" x2="0.5" y1="0" y2="1"><stop offset="0" stop-color="#36eae4"></stop><stop offset="1" stop-color="#8ce0dc"></stop></linearGradient><clipPath id="clip-path" node-id="3"><path d="M 200.00 100.00 C 200.00 155.23 155.23 200.00 100.00 200.00 C 44.77 200.00 0.00 155.23 0.00 100.00 C -0.00 44.77 44.77 0.00 100.00 0.00 C 155.23 -0.00 200.00 44.77 200.00 100.00 Z" fill="#000000" fill-rule="nonzero" id="椭圆_12" node-id="4" stroke="none" target-height="200" target-width="200" target-x="0" target-y="0"></path></clipPath></defs><g clip-path="url(#clip-path)" id="组_21" node-id="8"><path d="M -3.04 -4.65 L 203.04 -4.65 L 203.04 213.62 L -3.04 213.62 Z" fill="#8ce0dc" fill-rule="nonzero" group-id="1" id="矩形_12" node-id="9" stroke="none" target-height="218.272" target-width="206.078" target-x="-3.039" target-y="-4.649"></path><path d="M -22.11 -12.68 L 211.88 -12.68 L 211.88 100.00 L -22.11 100.00 Z" fill="url(#linear-gradient)" fill-rule="nonzero" group-id="2" id="矩形_13" node-id="10" stroke="none" target-height="112.68" target-width="233.988" target-x="-22.113" target-y="-12.68"></path><text align="center" editable="true" ellipsis="false" fill="#45815f" flags="1" font-family="'Noto Sans CJK SC'" font-size="8" font-stretch="normal" font-style="normal" font-weight="400" height="11.84" id="惊蛰_" letter-spacing="0" node-id="13" stroke="none" target-x="123.422" target-y="49.529" vertical-align="center" width="24" x="123.422" xml:space="preserve" y="58.809">惊蛰。</text><path d="M 146.54 53.67 L 146.54 51.36 L 146.54 51.36 L 146.54 50.56 L 143.43 50.56 L 143.43 51.36 L 145.74 51.36 L 145.74 53.67 Z" fill="#30aa64" fill-rule="nonzero" group-id="3" id="路径_106" node-id="16" stroke="none" target-height="3.1109924" target-width="3.1079102" target-x="143.43213" target-y="50.556"></path><path d="M 16.64 129.22 L 18.53 129.17 L 20.46 129.25 L 23.08 129.55 L 25.79 130.14 L 28.58 131.13 L 30.34 132.05 L 31.91 133.23 L 33.32 134.68 L 32.28 135.09 L 31.11 135.32 L 29.16 135.33 L 26.98 134.96 L 23.94 133.88 L 20.77 132.18 L 16.64 129.22 Z" fill="#30aa64" fill-rule="nonzero" group-id="4" id="路径_107" node-id="17" stroke="none" target-height="6.1608276" target-width="16.681152" target-x="16.63501" target-y="129.17322"></path><path d="M 42.58 110.77 L 42.84 109.72 L 43.74 107.26 L 44.48 105.86 L 45.45 104.47 L 46.65 103.28 L 48.12 102.40 L 48.17 103.51 L 47.91 104.66 L 46.98 106.48 L 45.48 108.32 L 42.58 110.77 Z" fill="#30aa64" fill-rule="nonzero" group-id="5" id="路径_108" node-id="18" stroke="none" target-height="8.369995" target-width="5.590332" target-x="42.578857" target-y="102.39801"></path><path d="M 16.90 104.32 L 17.20 105.46 L 18.10 107.91 L 18.79 109.21 L 19.59 110.26 L 20.57 110.94 L 21.67 111.04 L 21.58 109.63 L 21.24 108.29 L 20.42 106.71 L 19.64 105.79 L 18.50 104.99 L 16.90 104.32 Z" fill="#30aa64" fill-rule="nonzero" group-id="6" id="路径_109" node-id="19" stroke="none" target-height="6.728943" target-width="4.7680664" target-x="16.901855" target-y="104.31604"></path><path d="M 153.19 151.74 L 153.97 150.01 L 154.87 148.30 L 156.27 146.07 L 157.96 143.87 L 160.06 141.78 L 161.64 140.59 L 163.38 139.68 L 165.29 139.03 L 165.22 140.15 L 164.93 141.30 L 164.10 143.07 L 162.83 144.88 L 160.55 147.15 L 157.65 149.29 L 153.19 151.74 Z" fill="#30aa64" fill-rule="nonzero" group-id="7" id="路径_110" node-id="20" stroke="none" target-height="12.711975" target-width="12.0998535" target-x="153.19409" target-y="139.03204"></path><path d="M 162.42 167.79 L 163.69 167.29 L 166.85 166.41 L 168.82 166.13 L 170.95 166.10 L 173.05 166.46 L 175.04 167.31 L 174.44 167.85 L 173.70 168.30 L 172.39 168.79 L 170.83 169.09 L 168.51 169.12 L 165.94 168.76 L 162.42 167.79 Z" fill="#30aa64" fill-rule="nonzero" group-id="8" id="路径_111" node-id="21" stroke="none" target-height="3.0135498" target-width="12.61792" target-x="162.41724" target-y="166.10156"></path><path d="M 55.23 153.25 L 54.04 154.73 L 52.73 156.15 L 50.81 157.95 L 48.62 159.64 L 46.06 161.13 L 44.22 161.87 L 42.31 162.31 L 40.29 162.45 L 40.64 161.39 L 41.23 160.35 L 42.48 158.85 L 44.17 157.43 L 46.95 155.81 L 50.30 154.49 L 55.23 153.25 Z" fill="#30aa64" fill-rule="nonzero" group-id="9" id="路径_112" node-id="22" stroke="none" target-height="9.200012" target-width="14.944092" target-x="40.289795" target-y="153.24896"></path><path d="M 68.99 84.61 L 68.99 84.61 L 69.59 84.53 L 70.23 84.48 L 71.53 84.42 L 74.22 84.21 L 75.16 84.00 L 75.35 83.80 L 75.06 83.54 L 74.68 83.40 L 73.70 83.18 L 71.96 82.94 L 68.60 82.89 L 69.56 82.68 L 70.53 82.62 L 72.58 82.61 L 76.16 83.01 L 77.96 83.10 L 79.51 82.86 L 80.14 82.49 L 80.39 81.97 L 80.32 81.37 L 79.81 80.64 L 78.35 79.52 L 76.69 78.73 L 74.73 78.15 L 72.72 77.77 L 75.74 77.89 L 78.70 78.34 L 81.63 79.10 L 83.20 79.88 L 83.87 80.43 L 84.22 80.98 L 84.34 82.09 L 84.46 82.50 L 84.90 82.86 L 85.88 83.00 L 87.00 83.26 L 88.29 84.09 L 87.09 84.85 L 86.33 84.93 L 85.62 85.10 L 86.31 86.26 L 86.46 86.86 L 86.32 87.57 L 85.64 88.47 L 84.54 89.19 L 81.85 90.15 L 79.36 90.93 L 79.37 90.88 L 81.34 89.57 L 82.21 88.70 L 82.65 87.52 L 82.44 86.33 L 81.73 85.35 L 80.67 84.76 L 79.55 84.45 L 78.33 84.42 L 74.17 84.69 L 71.52 84.69 L 68.99 84.61 Z" fill="#5b524b" fill-rule="nonzero" group-id="10" id="路径_113" node-id="23" stroke="none" target-height="13.161987" target-width="19.687988" target-x="68.59888" target-y="77.770996"></path><path d="M 52.77 68.92 L 52.77 68.92 L 53.26 68.86 L 53.77 68.82 L 54.83 68.77 L 57.00 68.59 L 57.76 68.42 L 57.93 68.26 L 57.38 67.94 L 56.58 67.76 L 55.18 67.57 L 52.46 67.53 L 53.24 67.36 L 54.02 67.31 L 55.68 67.30 L 58.58 67.63 L 60.04 67.70 L 61.29 67.51 L 61.80 67.21 L 62.01 66.79 L 61.94 66.30 L 61.54 65.71 L 60.35 64.80 L 59.01 64.16 L 57.42 63.70 L 55.79 63.39 L 59.45 63.64 L 63.01 64.47 L 64.28 65.10 L 64.83 65.55 L 65.11 65.99 L 65.21 66.89 L 65.30 67.22 L 65.66 67.51 L 66.45 67.63 L 67.36 67.83 L 68.40 68.51 L 67.44 69.12 L 66.81 69.18 L 66.24 69.32 L 66.80 70.26 L 66.92 70.75 L 66.80 71.32 L 66.25 72.05 L 65.37 72.64 L 63.18 73.41 L 61.17 74.05 L 61.17 74.00 L 62.77 72.94 L 63.47 72.24 L 63.83 71.28 L 63.66 70.32 L 63.09 69.53 L 61.78 68.89 L 60.34 68.78 L 56.97 68.99 L 52.77 68.93 Z" fill="#5b524b" fill-rule="nonzero" group-id="11" id="路径_114" node-id="24" stroke="none" target-height="10.654999" target-width="15.946045" target-x="52.456055" target-y="63.390015"></path><path d="M 163.60 93.36 L 166.08 94.31 L 168.71 95.46 L 172.68 97.43 L 176.95 99.81 L 182.15 103.10 L 187.42 106.91 L 193.22 111.72 L 196.97 115.21 L 200.78 119.19 L 204.65 123.66 L 203.78 124.22 L 201.44 121.72 L 195.14 115.50 L 190.96 111.67 L 185.99 107.43 L 180.72 103.31 L 175.11 99.42 L 171.22 97.04 L 167.39 95.03 L 163.60 93.36 Z" fill="#30aa64" fill-rule="nonzero" group-id="12,20" id="路径_115" node-id="26" stroke="none" target-height="30.865051" target-width="41.05078" target-x="163.60303" target-y="93.35596"></path><path d="M 173.47 75.78 L 174.93 78.30 L 178.60 84.64 L 183.45 92.99 L 188.39 101.52 L 192.40 108.40 L 194.40 111.82 L 194.48 110.89 L 194.36 109.78 L 193.80 107.59 L 192.86 105.06 L 191.00 101.15 L 188.55 96.82 L 184.68 90.80 L 180.04 84.29 L 173.47 75.78 Z" fill="#30aa64" fill-rule="nonzero" group-id="12,21" id="路径_116" node-id="27" stroke="none" target-height="36.045013" target-width="21.010986" target-x="173.46729" target-y="75.77899"></path><path d="M 166.12 76.55 L 167.67 78.63 L 171.58 83.85 L 176.69 90.72 L 181.86 97.73 L 185.96 103.38 L 187.83 106.15 L 188.27 105.90 L 188.54 105.50 L 188.65 104.63 L 188.43 103.54 L 187.55 101.57 L 186.16 99.37 L 183.53 95.96 L 177.60 88.93 L 172.20 82.73 L 168.12 78.30 L 166.61 76.86 L 166.12 76.55 Z" fill="#30aa64" fill-rule="nonzero" group-id="12,22" id="路径_117" node-id="28" stroke="none" target-height="29.600037" target-width="22.538086" target-x="166.11523" target-y="76.550995"></path><path d="M 157.12 76.29 L 161.99 80.10 L 166.53 84.27 L 170.74 88.80 L 176.25 95.28 L 180.59 100.10 L 182.35 101.99 L 180.37 100.95 L 178.38 99.58 L 175.47 97.01 L 173.59 95.00 L 171.50 92.33 L 169.19 88.87 L 167.97 87.04 L 166.17 84.88 L 162.15 80.78 L 158.63 77.58 L 157.12 76.29 Z" fill="#30aa64" fill-rule="nonzero" group-id="12,23" id="路径_118" node-id="29" stroke="none" target-height="25.696014" target-width="25.231934" target-x="157.11816" target-y="76.289"></path><path d="M 132.25 76.60 L 133.83 77.55 L 137.83 79.86 L 143.09 82.74 L 148.46 85.37 L 150.94 86.39 L 152.78 86.96 L 155.20 87.68 L 157.48 88.73 L 159.58 90.10 L 161.48 91.76 L 160.14 90.89 L 158.62 90.11 L 156.18 89.14 L 153.41 88.36 L 149.75 87.79 L 146.91 87.20 L 144.02 86.03 L 141.27 84.48 L 138.73 82.70 L 136.39 80.80 L 134.57 79.12 L 132.25 76.60 Z" fill="#30aa64" fill-rule="nonzero" group-id="12,24" id="路径_119" node-id="30" stroke="none" target-height="15.167023" target-width="29.239014" target-x="132.24512" target-y="76.596985"></path><path d="M 144.11 79.87 L 145.84 80.46 L 149.93 82.08 L 152.35 83.20 L 154.78 84.51 L 157.05 86.01 L 158.79 87.54 L 160.50 89.15 L 162.68 90.85 L 167.29 93.91 L 171.14 96.15 L 172.75 97.02 L 169.13 93.99 L 165.91 90.54 L 164.37 88.79 L 161.87 86.64 L 158.88 84.68 L 154.76 82.69 L 151.79 81.61 L 148.27 80.66 L 144.11 79.87 Z" fill="#30aa64" fill-rule="nonzero" group-id="12,25" id="路径_120" node-id="31" stroke="none" target-height="17.150024" target-width="28.634033" target-x="144.11304" target-y="79.87097"></path><path d="M 167.32 96.05 L 165.87 95.30 L 162.08 93.59 L 159.64 92.65 L 156.81 91.73 L 153.88 90.99 L 150.91 90.51 L 142.12 89.97 L 133.32 89.89 L 135.45 90.34 L 140.91 91.45 L 148.26 92.91 L 156.06 94.38 L 162.90 95.53 L 167.32 96.05 Z" fill="#30aa64" fill-rule="nonzero" group-id="12,26" id="路径_121" node-id="32" stroke="none" target-height="6.1569824" target-width="34.009033" target-x="133.31519" target-y="89.89197"></path><path d="M 137.02 97.74 L 139.09 97.93 L 144.26 98.26 L 150.98 98.38 L 154.47 98.26 L 157.67 97.96 L 160.92 97.88 L 164.74 98.38 L 168.61 99.30 L 172.40 100.49 L 176.01 101.84 L 178.84 103.06 L 181.26 104.29 L 182.22 104.92 L 173.09 103.18 L 163.91 101.77 L 154.68 100.69 L 147.88 99.94 L 143.61 99.31 L 138.35 98.20 L 137.02 97.74 Z" fill="#30aa64" fill-rule="nonzero" group-id="12,27" id="路径_122" node-id="33" stroke="none" target-height="7.1810303" target-width="45.204834" target-x="137.02002" target-y="97.742004"></path><path d="M 142.54 101.65 L 144.99 101.51 L 151.08 101.28 L 158.95 101.26 L 163.03 101.44 L 166.72 101.76 L 170.16 102.34 L 172.54 103.08 L 178.84 105.91 L 185.84 109.15 L 191.53 111.82 L 193.88 112.93 L 194.99 114.67 L 186.69 111.19 L 178.21 108.25 L 169.53 105.84 L 164.55 104.84 L 160.63 104.32 L 153.91 103.90 L 151.00 103.74 L 148.26 103.41 L 145.55 102.78 L 142.54 101.65 Z" fill="#30aa64" fill-rule="nonzero" group-id="12,28" id="路径_123" node-id="34" stroke="none" target-height="13.410095" target-width="52.448975" target-x="142.54102" target-y="101.263916"></path><path d="M 160.61 118.31 L 162.97 118.13 L 169.05 117.77 L 177.37 117.51 L 186.45 117.66 L 190.90 117.98 L 194.80 118.48 L 198.39 119.29 L 200.94 120.28 L 191.72 120.30 L 182.52 119.85 L 175.86 119.30 L 168.69 118.80 L 162.96 118.45 L 160.61 118.31 Z" fill="#30aa64" fill-rule="nonzero" group-id="12,29" id="路径_124" node-id="35" stroke="none" target-height="2.7877197" target-width="40.32202" target-x="160.61475" target-y="117.51349"></path><path d="M 198.46 118.18 L 196.02 117.10 L 189.95 114.63 L 186.18 113.26 L 182.12 111.96 L 178.04 110.89 L 174.39 110.25 L 169.65 109.87 L 165.17 109.74 L 157.44 109.62 L 154.43 109.30 L 152.85 108.72 L 154.33 109.40 L 158.23 110.86 L 160.76 111.61 L 163.73 112.26 L 166.82 112.65 L 170.03 112.71 L 172.78 112.75 L 176.28 113.12 L 183.74 114.46 L 190.92 116.14 L 196.32 117.57 L 198.46 118.18 Z" fill="#30aa64" fill-rule="nonzero" group-id="12,30" id="路径_125" node-id="36" stroke="none" target-height="9.46405" target-width="45.601074" target-x="152.854" target-y="108.71796"></path><path d="M 7.88 158.90 L 10.30 156.91 L 13.05 154.95 L 17.51 152.18 L 22.64 149.47 L 29.43 146.52 L 34.24 144.80 L 39.73 143.21 L 45.99 141.77 L 52.30 140.72 L 59.32 140.03 L 67.11 139.74 L 74.87 139.97 L 83.38 140.79 L 92.70 142.28 L 103.99 144.66 L 112.12 146.68 L 119.23 148.82 L 123.84 150.55 L 127.61 152.42 L 129.58 153.83 L 130.53 154.89 L 130.97 155.75 L 131.05 156.47 L 130.73 157.52 L 129.98 158.42 L 129.01 159.13 L 128.08 159.62 L 127.07 160.04 L 116.64 199.16 L 47.10 213.87 L 5.06 213.62 Z" fill="#45815f" fill-rule="nonzero" group-id="13" id="路径_126" node-id="37" stroke="none" target-height="74.12512" target-width="125.989746" target-x="5.063965" target-y="139.74487"></path><path d="M 42.46 151.41 L 42.02 153.70 L 40.77 159.52 L 38.82 167.29 L 37.62 171.42 L 36.29 175.42 L 34.80 179.23 L 33.30 182.33 L 32.12 184.23 L 31.01 185.57 L 29.96 186.44 L 27.73 192.69 L 30.98 187.73 L 37.50 182.61 L 40.43 182.43 L 48.19 182.41 L 53.24 182.69 L 59.27 183.32 L 65.48 184.34 L 72.14 185.92 L 76.54 187.28 L 80.92 188.96 L 85.27 190.98 L 89.44 193.33 L 93.40 196.08 L 97.15 199.26 L 98.74 198.40 L 96.61 196.45 L 94.14 194.53 L 90.07 191.82 L 85.32 189.19 L 78.90 186.32 L 74.34 184.68 L 69.03 183.16 L 62.89 181.80 L 56.71 180.84 L 49.71 180.24 L 41.82 180.06 L 53.59 172.87 L 56.36 172.71 L 63.85 172.77 L 68.78 173.10 L 74.79 173.82 L 81.04 174.95 L 87.93 176.68 L 92.53 178.13 L 97.22 179.94 L 102.03 182.12 L 106.67 184.60 L 111.26 187.54 L 115.81 190.94 L 116.62 190.06 L 114.23 187.96 L 111.50 185.88 L 107.07 182.98 L 101.97 180.16 L 95.20 177.13 L 90.41 175.39 L 84.92 173.80 L 78.66 172.41 L 72.35 171.44 L 65.32 170.89 L 57.50 170.81 L 60.24 169.59 L 67.80 166.76 L 72.90 165.18 L 79.24 163.54 L 85.97 162.18 L 93.58 161.14 L 98.78 160.74 L 104.20 160.62 L 109.87 160.80 L 110.25 158.40 L 107.17 158.33 L 99.08 158.45 L 93.86 158.72 L 87.74 159.25 L 81.45 160.03 L 74.90 161.19 L 68.43 162.75 L 62.31 164.76 L 58.39 166.43 L 54.88 168.33 L 51.74 170.45 L 52.43 168.63 L 54.02 164.01 L 55.83 157.81 L 56.60 154.48 L 57.14 151.26 L 57.40 148.15 L 57.26 145.60 L 56.05 146.19 L 55.68 148.68 L 54.52 154.83 L 53.65 158.61 L 52.53 162.69 L 51.18 166.69 L 49.64 170.28 L 36.50 180.44 L 37.47 178.03 L 39.63 172.06 L 40.81 168.36 L 41.91 164.39 L 42.77 160.41 L 43.22 156.88 L 43.24 154.57 L 42.97 152.78 L 42.46 151.41 Z" fill="#66af83" fill-rule="nonzero" group-id="14" id="路径_127" node-id="38" stroke="none" target-height="53.661987" target-width="88.89404" target-x="27.730957" target-y="145.60101"></path><path d="M 97.80 133.48 L 99.43 134.27 L 101.19 134.76 L 103.83 135.11 L 105.43 135.60 L 107.09 136.59 L 108.03 137.50 L 108.88 138.84 L 109.63 140.71 L 110.00 142.97 L 109.87 145.18 L 109.39 147.32 L 108.70 149.20 L 107.21 152.11 L 106.47 153.23 L 96.89 141.02 Z" fill="#2d2a22" fill-rule="nonzero" group-id="15,31" id="路径_128" node-id="40" stroke="none" target-height="19.752014" target-width="13.1032715" target-x="96.89307" target-y="133.47601"></path><path d="M 100.44 140.86 L 100.81 139.89 L 100.98 138.87 L 100.89 137.39 L 100.40 135.86 L 99.16 134.00 L 98.21 133.18 L 96.65 132.26 L 94.27 131.23 L 90.46 130.09 L 85.71 129.24 L 82.41 128.97 L 79.02 129.01 L 75.52 129.36 L 72.11 130.10 L 68.86 131.29 L 65.76 132.95 L 62.89 135.09 L 60.57 137.25 L 58.74 139.45 L 57.35 141.69 L 55.94 144.97 L 55.23 148.08 L 55.14 151.10 L 55.63 154.07 L 56.63 156.70 L 58.14 159.03 L 60.98 162.21 L 64.47 165.28 L 67.05 167.05 L 70.01 168.58 L 73.40 169.86 L 76.91 170.69 L 80.96 171.10 L 85.66 171.02 L 88.44 170.58 L 90.97 169.81 L 93.26 168.74 L 96.43 166.66 L 99.11 164.27 L 101.42 161.64 L 103.22 159.17 L 105.66 154.97 L 106.47 153.23 L 106.54 152.15 L 106.48 151.01 L 106.16 149.31 L 105.56 147.51 L 104.43 145.34 L 102.86 143.22 L 100.44 140.86 Z" fill="#db6c40" fill-rule="nonzero" group-id="15,32" id="路径_129" node-id="41" stroke="none" target-height="42.13452" target-width="51.403076" target-x="55.13867" target-y="128.96857"></path><path d="M 58.52 159.50 L 59.64 157.27 L 60.94 155.09 L 63.00 152.21 L 65.48 149.42 L 68.62 146.73 L 70.96 145.23 L 73.58 144.06 L 76.52 143.24 L 82.27 142.29 L 86.50 141.79 L 90.28 141.54 L 92.82 141.54 L 96.20 141.90 L 98.47 142.20 L 99.50 142.18 L 99.91 142.03 L 99.92 141.80 L 98.91 141.16 L 97.73 140.85 L 94.96 140.54 L 91.76 140.42 L 87.66 140.48 L 83.39 140.77 L 78.89 141.35 L 74.47 142.27 L 70.48 143.53 L 67.99 144.65 L 65.95 145.94 L 64.31 147.38 L 61.02 151.22 L 59.22 153.69 L 57.95 155.88 L 57.51 157.00 L 57.35 157.96 Z" fill="#8d2b0a" fill-rule="nonzero" group-id="15,33" id="路径_130" node-id="42" stroke="none" target-height="19.077026" target-width="42.564453" target-x="57.35205" target-y="140.419"></path><path d="M 62.27 135.46 L 61.91 136.39 L 61.72 137.30 L 61.74 138.34 L 62.13 139.27 L 63.12 140.03 L 63.94 140.16 L 64.66 139.92 L 65.35 139.25 L 66.14 137.86 L 66.77 135.97 L 67.16 133.98 L 67.30 132.18 L 66.08 132.75 L 64.71 133.61 L 62.27 135.46 Z" fill="#8d2b0a" fill-rule="nonzero" group-id="15,34" id="路径_131" node-id="43" stroke="none" target-height="7.9871826" target-width="5.581787" target-x="61.720215" target-y="132.17596"></path><path d="M 59.90 141.96 L 59.12 142.45 L 58.49 143.05 L 57.92 143.97 L 57.68 145.05 L 57.97 146.54 L 58.75 147.81 L 59.53 148.33 L 60.39 148.37 L 61.17 147.99 L 61.74 147.29 L 62.04 146.31 L 62.05 144.81 L 61.73 143.63 L 61.05 142.67 L 59.90 141.96 Z" fill="#8d2b0a" fill-rule="nonzero" group-id="15,35" id="路径_132" node-id="44" stroke="none" target-height="6.4179688" target-width="4.369873" target-x="57.68335" target-y="141.95697"></path><path d="M 70.92 130.46 L 71.17 131.64 L 71.67 132.62 L 72.42 133.46 L 73.36 134.08 L 74.41 134.43 L 75.61 134.52 L 77.64 134.21 L 79.01 133.61 L 80.03 132.70 L 80.51 131.73 L 80.55 130.70 L 80.12 129.74 L 79.41 129.29 L 78.12 129.11 L 76.65 129.19 L 75.02 129.44 L 72.17 130.10 L 70.92 130.46 Z" fill="#8d2b0a" fill-rule="nonzero" group-id="15,36" id="路径_133" node-id="45" stroke="none" target-height="5.408142" target-width="9.635498" target-x="70.91821" target-y="129.11084"></path><path d="M 74.43 151.17 L 73.86 151.74 L 73.49 152.34 L 73.36 153.07 L 73.62 153.78 L 74.71 154.62 L 76.17 155.15 L 77.27 155.22 L 78.12 154.94 L 78.83 154.36 L 79.37 153.54 L 79.74 152.42 L 79.71 151.37 L 79.22 150.67 L 78.38 150.28 L 77.17 150.20 L 75.88 150.48 L 74.43 151.17 Z" fill="#8d2b0a" fill-rule="nonzero" group-id="15,37" id="路径_134" node-id="46" stroke="none" target-height="5.0165405" target-width="6.385742" target-x="73.355225" target-y="150.20178"></path><path d="M 87.43 151.74 L 86.83 152.13 L 85.79 153.12 L 85.44 153.76 L 85.40 154.41 L 85.75 155.01 L 86.81 155.70 L 88.00 156.02 L 88.89 155.99 L 89.57 155.68 L 90.36 154.84 L 90.76 153.80 L 90.77 152.74 L 90.43 152.08 L 89.83 151.72 L 89.17 151.56 L 87.97 151.61 L 87.43 151.74 Z" fill="#8d2b0a" fill-rule="nonzero" group-id="15,38" id="路径_135" node-id="47" stroke="none" target-height="4.4589233" target-width="5.3669434" target-x="85.40454" target-y="151.56299"></path><path d="M 89.86 158.98 L 89.65 159.82 L 89.37 161.71 L 89.36 162.77 L 89.53 163.68 L 89.94 164.39 L 90.66 164.74 L 91.85 164.63 L 93.06 163.95 L 94.06 162.91 L 94.72 161.67 L 94.90 160.39 L 94.44 159.26 L 93.51 158.52 L 92.53 158.28 L 91.51 158.36 L 90.69 158.60 L 89.86 158.98 Z" fill="#8d2b0a" fill-rule="nonzero" group-id="15,39" id="路径_136" node-id="48" stroke="none" target-height="6.4630737" target-width="5.5324707" target-x="89.36304" target-y="158.28094"></path><path d="M 75.16 159.37 L 75.71 159.71 L 76.54 160.59 L 76.70 161.15 L 76.47 161.80 L 75.85 162.40 L 74.31 163.16 L 72.70 163.60 L 71.79 163.63 L 71.31 163.44 L 70.89 162.81 L 70.95 161.98 L 71.35 161.19 L 71.83 160.78 L 73.14 160.24 L 74.52 159.65 L 75.16 159.37 Z" fill="#8d2b0a" fill-rule="nonzero" group-id="15,40" id="路径_137" node-id="49" stroke="none" target-height="4.2592163" target-width="5.805908" target-x="70.88916" target-y="159.37201"></path><path d="M 74.25 191.11 L 77.77 188.65 L 81.64 186.17 L 87.62 182.69 L 94.34 179.17 L 102.75 175.33 L 108.64 172.98 L 115.08 170.77 L 122.10 168.70 L 129.22 167.03 L 136.71 165.76 L 144.62 164.92 L 150.55 164.65 L 156.62 164.75 L 162.85 165.23 L 169.25 166.11 L 175.50 167.38 L 181.85 169.16 L 188.33 171.49 L 194.94 174.37 L 194.94 229.65 L 109.29 232.38 L 110.86 231.35 L 114.51 228.49 L 116.58 226.51 L 118.64 224.10 L 120.38 221.43 L 121.66 218.48 L 122.15 216.41 L 122.26 214.25 L 121.97 211.95 L 121.27 209.74 L 119.98 207.38 L 117.99 204.80 L 115.66 202.52 L 112.44 200.04 L 108.12 197.34 L 102.39 194.89 L 97.48 193.12 L 93.30 191.93 L 87.19 190.70 L 82.72 190.28 L 78.75 190.33 L 76.37 190.61 L 74.25 191.11 Z" fill="#508e69" fill-rule="nonzero" group-id="16" id="路径_138" node-id="50" stroke="none" target-height="67.72241" target-width="120.681885" target-x="74.25415" target-y="164.65363"></path><path d="M 159.76 168.82 L 160.56 170.82 L 162.68 175.65 L 165.68 181.57 L 167.42 184.45 L 169.14 186.83 L 170.42 188.24 L 171.57 189.16 L 172.61 189.68 L 174.90 193.40 L 171.99 190.67 L 166.67 188.33 L 163.61 188.82 L 160.40 189.45 L 155.80 190.58 L 150.90 192.03 L 145.31 194.07 L 139.75 196.60 L 134.23 199.78 L 130.74 202.25 L 127.54 205.03 L 124.61 208.15 L 123.35 207.83 L 125.50 205.42 L 128.06 203.05 L 132.41 199.70 L 135.65 197.58 L 139.72 195.32 L 144.76 192.92 L 149.91 190.90 L 156.02 189.02 L 163.23 187.33 L 153.83 184.44 L 150.92 184.91 L 147.85 185.54 L 143.35 186.69 L 138.53 188.20 L 132.86 190.35 L 127.14 193.02 L 121.17 196.46 L 117.34 199.10 L 113.63 202.12 L 110.03 205.56 L 109.34 205.11 L 110.88 203.38 L 112.67 201.62 L 115.62 199.07 L 119.06 196.47 L 123.72 193.48 L 128.91 190.70 L 135.37 187.92 L 139.90 186.34 L 145.01 184.92 L 150.74 183.69 L 144.14 182.76 L 137.54 182.30 L 130.91 182.30 L 124.30 182.77 L 117.75 183.70 L 111.24 185.09 L 110.70 183.59 L 113.90 182.88 L 122.06 181.43 L 127.22 180.75 L 133.04 180.23 L 138.95 180.04 L 144.71 180.29 L 148.51 180.77 L 151.90 181.54 L 154.93 182.59 L 153.89 180.95 L 151.59 176.95 L 150.37 174.49 L 149.30 171.95 L 148.54 169.40 L 148.28 167.29 L 149.23 167.48 L 149.76 169.04 L 151.26 172.87 L 153.54 177.67 L 154.95 180.06 L 156.46 182.16 L 167.17 186.78 L 166.21 185.36 L 164.00 181.80 L 161.52 177.16 L 160.48 174.71 L 159.78 172.49 L 159.49 170.37 L 159.76 168.82 Z" fill="#63a87f" fill-rule="nonzero" group-id="17" id="路径_139" node-id="51" stroke="none" target-height="40.862" target-width="65.556885" target-x="109.341064" target-y="167.28503"></path><path d="M 101.44 127.47 L 101.06 127.90 L 100.94 128.33 L 101.18 128.90 L 101.85 129.40 L 103.69 130.05 L 104.99 130.63 L 105.95 131.46 L 106.62 132.59 L 107.15 134.56 L 107.19 136.71 L 106.79 138.82 L 106.11 140.47 L 106.09 140.93 L 106.18 141.25 L 106.44 141.39 L 106.82 141.17 L 107.75 140.12 L 108.55 138.73 L 109.13 136.77 L 109.23 135.39 L 108.97 133.83 L 108.28 132.05 L 106.72 129.82 L 105.28 128.57 L 103.74 127.79 L 102.60 127.51 L 101.44 127.47 Z" fill="#697060" fill-rule="nonzero" group-id="18" id="路径_140" node-id="52" stroke="none" target-height="13.916016" target-width="8.290039" target-x="100.93994" target-y="127.47101"></path><path d="M 108.19 144.55 L 108.22 144.93 L 108.44 145.16 L 109.22 145.30 L 110.03 145.41 L 111.31 145.87 L 112.48 146.68 L 113.42 148.04 L 113.72 149.12 L 113.68 150.57 L 113.19 152.55 L 113.14 153.38 L 113.51 153.74 L 114.06 153.70 L 114.69 153.05 L 115.00 152.24 L 115.27 150.80 L 115.27 149.25 L 114.87 147.64 L 114.34 146.69 L 113.50 145.89 L 112.28 145.22 L 109.40 144.38 L 108.34 144.39 L 108.19 144.55 Z" fill="#697060" fill-rule="nonzero" group-id="19" id="路径_141" node-id="53" stroke="none" target-height="9.35968" target-width="7.0773926" target-x="108.193115" target-y="144.38184"></path></g></svg>