<?xml version="1.0" standalone="no"?><!DOCTYPE svg PUBLIC "-//W3C//DTD SVG 1.1//EN" "http://www.w3.org/Graphics/SVG/1.1/DTD/svg11.dtd"><svg height="200" node-id="1" sillyvg="true" template-height="200" template-width="200" version="1.1" viewBox="0 0 200 200" width="200" xmlns="http://www.w3.org/2000/svg" xmlns:xlink="http://www.w3.org/1999/xlink"><defs node-id="66"><linearGradient gradientUnits="objectBoundingBox" id="linear-gradient" node-id="5" spreadMethod="pad" x1="0.5" x2="0.5" y1="0" y2="1"><stop offset="0" stop-color="#ffc290"></stop><stop offset="1" stop-color="#ffddff"></stop></linearGradient><linearGradient gradientUnits="objectBoundingBox" id="linear-gradient-2" node-id="8" spreadMethod="pad" x1="7.188" x2="7.188" y1="-3.482" y2="-2.267"><stop offset="0" stop-color="#fce1c5"></stop><stop offset="1" stop-color="#ffddff"></stop></linearGradient><clipPath id="clip-path" node-id="3"><path d="M 200.00 100.00 C 200.00 155.23 155.23 200.00 100.00 200.00 C 44.77 200.00 0.00 155.23 0.00 100.00 C -0.00 44.77 44.77 0.00 100.00 0.00 C 155.23 -0.00 200.00 44.77 200.00 100.00 Z" fill="#000000" fill-rule="nonzero" id="椭圆_24" node-id="4" stroke="none" target-height="200" target-width="200" target-x="0" target-y="0"></path></clipPath></defs><g node-id="79"><g clip-path="url(#clip-path)" group-id="1" id="组_28" node-id="11"><path d="M -3.04 -4.46 L 203.04 -4.46 L 203.04 213.81 L -3.04 213.81 Z" fill="url(#linear-gradient)" fill-rule="nonzero" group-id="1,4" id="矩形_14" node-id="12" stroke="none" target-height="218.272" target-width="206.078" target-x="-3.039" target-y="-4.457"></path><text align="center" editable="true" ellipsis="false" fill="#333351" flags="1" font-family="'Noto Sans CJK SC'" font-size="8" font-stretch="normal" font-style="normal" font-weight="400" group-id="1" height="11.84" id="春分_" letter-spacing="0" node-id="13" stroke="none" target-x="49.926" target-y="48.029" vertical-align="center" width="24" x="49.926" xml:space="preserve" y="57.309">春分。</text><path d="M 48.30 49.06 L 45.99 49.06 L 45.99 49.06 L 45.19 49.06 L 45.19 52.17 L 45.99 52.17 L 45.99 49.86 L 48.30 49.86 Z" fill="#333351" fill-rule="nonzero" group-id="1,5" id="路径_142" node-id="16" stroke="none" target-height="3.1080017" target-width="3.1108398" target-x="45.186035" target-y="49.061005"></path><path d="M 193.76 159.78 L 193.29 157.31 L 191.71 151.19 L 190.45 147.44 L 188.76 143.38 L 186.70 139.44 L 184.21 135.84 L 182.26 133.69 L 180.13 131.93 L 177.79 130.53 L 175.26 129.60 L 172.44 129.22 L 169.25 129.42 L 166.96 129.94 L 164.41 130.91 L 161.56 132.38 L 158.34 134.45 L 155.91 135.94 L 153.19 137.18 L 150.17 138.15 L 146.80 138.85 L 142.28 139.38 L 137.28 139.58 L 131.74 139.44 L 123.34 138.79 L 114.12 137.72 L 94.90 135.21 L 84.98 134.12 L 75.02 133.41 L 68.37 133.22 L 61.85 133.36 L 55.45 133.83 L 49.11 134.72 L 43.01 136.11 L 37.13 137.98 L 32.87 139.76 L 28.78 141.91 L 24.84 144.44 L 21.03 147.37 L 17.56 150.60 L 14.25 154.34 L 11.09 158.63 L 8.10 163.52 L 5.04 169.68 L 2.80 175.31 L 1.28 180.46 L 0.40 185.20 L 0.03 190.15 L 0.18 194.73 L 0.84 198.99 L 1.98 202.98 L 3.58 206.86 L 5.54 210.51 L 7.87 213.96 L 10.59 217.22 L 14.63 221.21 L 19.09 224.90 L 24.02 228.28 L 29.19 231.32 L 34.52 234.07 L 40.02 236.53 L 48.37 239.74 L 56.35 242.31 L 64.15 244.45 L 70.78 246.00 L 81.08 247.94 L 85.01 248.51 L 176.21 216.96 Z" fill="url(#linear-gradient-2)" fill-rule="nonzero" group-id="1,6" id="路径_143" node-id="17" stroke="none" target-height="119.295166" target-width="193.73364" target-x="0.025390625" target-y="129.21881"></path><path d="M 108.70 184.52 L 106.63 186.34 L 104.23 182.85 L 107.36 181.15 Z" fill="#d1baa7" fill-rule="nonzero" group-id="1,7,12" id="路径_144" node-id="19" stroke="none" target-height="5.1829834" target-width="4.474121" target-x="104.229004" target-y="181.15302"></path><path d="M 107.46 186.55 L 106.98 187.12 L 106.45 187.54 L 105.75 187.84 L 105.00 187.82 L 104.08 187.25 L 103.17 186.21 L 102.12 184.72 L 100.34 181.82 L 99.57 180.43 L 100.20 180.29 L 100.87 180.29 L 101.95 180.54 L 103.10 181.07 L 104.65 182.20 Z" fill="#ffc36c" fill-rule="nonzero" group-id="1,7,13" id="路径_145" node-id="20" stroke="none" target-height="7.5462646" target-width="7.8876953" target-x="99.569336" target-y="180.29047"></path><path d="M 99.92 172.31 L 97.46 173.57 L 95.99 169.59 L 99.44 168.72 Z" fill="#d1baa7" fill-rule="nonzero" group-id="1,7,14,33" id="路径_146" node-id="24" stroke="none" target-height="4.8450317" target-width="3.928711" target-x="95.987305" target-y="168.72198"></path><path d="M 128.86 170.17 L 108.43 185.62 L 105.63 181.27 L 120.26 166.85 L 100.19 174.06 L 97.67 167.72 L 121.42 158.68 Z" fill="#505075" fill-rule="nonzero" group-id="1,7,14,34" id="路径_147" node-id="25" stroke="none" target-height="26.938965" target-width="31.193848" target-x="97.666016" target-y="158.68402"></path><path d="M 98.32 174.23 L 97.73 174.67 L 97.12 174.97 L 96.37 175.10 L 95.64 174.91 L 94.88 174.15 L 94.23 172.93 L 93.53 171.24 L 92.46 168.01 L 92.02 166.49 L 92.67 166.49 L 93.32 166.65 L 94.32 167.13 L 95.32 167.91 L 96.57 169.36 Z" fill="#ffc36c" fill-rule="nonzero" group-id="1,7,14,35" id="路径_148" node-id="26" stroke="none" target-height="8.611572" target-width="6.2958984" target-x="92.023926" target-y="166.48602"></path><path d="M 149.30 159.46 L 139.05 146.67 L 135.83 155.67 Z" fill="#d1baa7" fill-rule="nonzero" group-id="1,7,14,36" id="路径_149" node-id="27" stroke="none" target-height="12.788025" target-width="13.469727" target-x="135.82617" target-y="146.67401"></path><path d="M 128.86 170.17 L 142.86 162.34 L 155.39 161.62 L 156.19 161.39 L 156.81 160.83 L 157.13 160.05 L 157.08 159.22 L 156.41 156.96 L 145.82 155.71 L 144.93 155.70 L 144.08 155.57 L 143.10 155.24 L 142.24 154.67 L 141.59 153.73 L 141.35 152.50 L 141.66 150.52 L 143.96 141.57 L 143.25 141.04 L 142.53 140.71 L 141.74 140.71 L 141.02 141.03 L 140.49 141.61 L 135.62 150.01 L 121.43 158.68 Z" fill="#ffc36c" fill-rule="nonzero" group-id="1,7,14,37" id="路径_150" node-id="28" stroke="none" target-height="29.458923" target-width="35.70117" target-x="121.42529" target-y="140.70905"></path><path d="M 144.96 154.82 L 147.93 153.08 L 145.72 149.85 L 141.92 152.67 Z" fill="#d1baa7" fill-rule="nonzero" group-id="1,7,14,38" id="路径_151" node-id="29" stroke="none" target-height="4.9660034" target-width="6.0058594" target-x="141.92383" target-y="149.85498"></path><path d="M 157.06 159.40 L 155.18 149.49 L 151.93 150.12 L 153.54 158.39 L 155.71 159.99 L 156.27 160.24 L 156.72 160.21 L 157.02 159.95 L 157.06 159.40 Z" fill="#ffc36c" fill-rule="nonzero" group-id="1,7,14,39" id="路径_152" node-id="30" stroke="none" target-height="10.758911" target-width="5.13916" target-x="151.92578" target-y="149.48505"></path><path d="M 142.89 140.83 L 152.13 146.00 L 150.50 148.88 L 143.16 144.74 L 142.37 142.31 L 142.23 141.06 L 142.42 140.75 L 142.89 140.83 Z" fill="#ffc36c" fill-rule="nonzero" group-id="1,7,14,40" id="路径_153" node-id="31" stroke="none" target-height="8.134094" target-width="9.90332" target-x="142.22656" target-y="140.74591"></path><path d="M 147.94 149.09 L 146.90 148.49" fill="none" group-id="1,7,14,41" id="直线_53" node-id="32" stroke="#353535" stroke-linecap="butt" stroke-width="1" target-height="0.6000061" target-width="1.0449982" target-x="146.9" target-y="148.494"></path><path d="M 144.77 151.68 L 145.32 152.58 L 146.11 153.20 L 147.19 153.57 L 148.99 153.64 L 150.92 153.21 L 152.60 152.30 L 153.70 151.09 L 154.12 150.12 L 154.24 149.13 L 154.04 148.05 L 153.48 147.11 L 152.67 146.37 L 151.54 145.84 L 149.68 145.54 L 147.74 145.87 L 146.63 146.44 L 145.76 147.21 L 145.10 148.18 L 144.70 149.29 L 144.58 150.44 L 144.77 151.68 Z" fill="#e8d8b8" fill-rule="nonzero" group-id="1,7,14,42,43" id="路径_154" node-id="34" stroke="none" target-height="8.102783" target-width="9.657715" target-x="144.5835" target-y="145.53998"></path><path d="M 151.69 153.24 L 151.16 152.62 L 150.91 152.29 L 150.96 151.89 L 151.60 150.72 L 151.67 150.41 L 151.55 150.12 L 150.78 149.13 L 150.67 148.87 L 150.46 148.70 L 150.28 148.34 L 149.92 148.16 L 149.16 147.85 L 148.85 147.73 L 148.66 147.46 L 148.24 146.96 L 148.00 146.66 L 147.61 146.59 L 147.61 146.59 L 147.29 146.53 L 146.96 146.26 L 146.75 145.89 L 146.74 145.56 L 147.46 144.96 L 147.75 144.63 L 148.29 144.44 L 149.81 144.31 L 150.49 144.51 L 151.08 144.90 L 151.46 145.11 L 151.70 145.38 L 152.02 145.52 L 152.72 145.96 L 152.95 146.09 L 154.29 147.41 L 154.87 148.21 L 155.15 149.09 L 155.15 150.08 L 155.15 150.08 L 155.14 150.18 L 154.63 152.09 L 154.50 152.46 L 154.18 152.83 L 153.64 153.27 L 153.01 153.48 L 152.35 153.48 L 151.69 153.24 Z" fill="#3d3d3d" fill-rule="nonzero" group-id="1,7,14,42,44" id="路径_155" node-id="35" stroke="none" target-height="9.179016" target-width="8.407715" target-x="146.74414" target-y="144.305"></path><path d="M 150.22 151.43 L 149.71 150.27" fill="none" group-id="1,7,14,42,45" id="直线_54" node-id="36" stroke="#353535" stroke-linecap="butt" stroke-width="1" target-height="1.1649933" target-width="0.51600647" target-x="149.705" target-y="150.269"></path><path d="M 149.76 151.09 L 149.48 151.27 L 149.26 151.31 L 149.10 151.15 L 149.12 150.92 L 149.30 150.82 L 149.61 150.80" fill="#2c302c" fill-rule="nonzero" group-id="1,7,14,42,46" id="路径_156" node-id="37" stroke="none" target-height="0.5128174" target-width="0.6591797" target-x="149.09863" target-y="150.79999"></path><path d="M 147.46 148.78 L 147.33 149.05 L 147.18 149.17 L 146.96 149.09 L 146.87 148.87 L 146.96 148.69 L 147.18 148.52" fill="#2c302c" fill-rule="nonzero" group-id="1,7,14,42,47" id="路径_157" node-id="38" stroke="none" target-height="0.64886475" target-width="0.5961914" target-x="146.8667" target-y="148.52301"></path><path d="M 147.61 150.23 L 147.48 150.66" fill="none" group-id="1,7,14,42,48" id="路径_158" node-id="39" stroke="#6b564a" stroke-linecap="butt" stroke-width="1" target-height="0.4249878" target-width="0.13867188" target-x="147.47607" target-y="150.23102"></path><path d="M 146.96 151.68 L 146.71 151.52 L 146.42 151.04" fill="none" group-id="1,7,14,42,49" id="路径_159" node-id="40" stroke="#353535" stroke-linecap="butt" stroke-width="1" target-height="0.6420288" target-width="0.5390625" target-x="146.4248" target-y="151.03699"></path><path d="M 145.23 48.07 L 135.72 75.12 L 112.85 70.71" fill="none" group-id="1,8,15" id="路径_160" node-id="42" stroke="#ffc55f" stroke-linecap="butt" stroke-width="1" target-height="27.048004" target-width="32.375977" target-x="112.8501" target-y="48.072998"></path><path d="M 118.14 46.85 L 135.72 75.12 L 202.39 163.25" fill="none" group-id="1,8,16" id="路径_161" node-id="43" stroke="#fff5e6" stroke-linecap="butt" stroke-width="1" target-height="116.406006" target-width="84.24902" target-x="118.143555" target-y="46.847992"></path><path d="M 134.76 69.30 L 136.18 70.32 L 139.51 73.01 L 141.42 74.82 L 143.31 76.91 L 144.97 79.17 L 146.19 81.49 L 146.71 83.12 L 146.88 84.70 L 146.72 86.27 L 145.59 91.98 L 145.09 96.40 L 145.06 100.43 L 145.42 103.20 L 149.90 103.15 L 148.93 101.45 L 148.16 99.67 L 147.46 97.21 L 147.21 95.47 L 147.25 93.64 L 147.60 91.68 L 148.77 87.39 L 148.98 85.15 L 148.64 82.52 L 148.09 80.78 L 147.06 78.68 L 145.44 76.13 L 142.39 72.38 L 137.39 67.33 Z" fill="#ffc55f" fill-rule="nonzero" group-id="1,9,17" id="路径_162" node-id="45" stroke="none" target-height="35.86499" target-width="15.137207" target-x="134.75879" target-y="67.33298"></path><path d="M 112.85 70.71 L 113.71 71.82 L 114.30 73.12 L 114.70 75.32 L 114.69 76.90 L 114.33 78.91 L 113.49 81.48 L 112.67 84.32 L 112.51 86.80 L 112.80 89.17 L 113.37 91.12 L 114.14 92.86 L 114.81 94.02 L 115.57 95.08 L 110.69 96.13 L 110.22 94.58 L 109.93 93.00 L 109.82 90.83 L 110.10 88.58 L 111.00 86.17 L 111.96 83.66 L 112.42 80.87 L 112.41 78.05 L 112.02 75.48 L 111.23 73.18 L 110.27 71.68 Z" fill="#ffc55f" fill-rule="nonzero" group-id="1,9,18" id="路径_163" node-id="46" stroke="none" target-height="25.420013" target-width="5.754883" target-x="109.81787" target-y="70.707"></path><path d="M 147.46 43.72 L 148.72 45.74 L 149.82 47.90 L 151.04 51.05 L 151.66 53.30 L 152.04 55.79 L 152.18 58.55 L 152.34 60.55 L 152.79 62.13 L 153.48 63.37 L 154.91 64.91 L 156.52 65.95 L 158.23 66.64 L 159.59 66.99 L 160.99 67.18 L 156.96 71.30 L 155.77 70.42 L 154.63 69.43 L 153.16 67.92 L 151.80 66.16 L 150.57 64.00 L 149.74 61.60 L 149.44 58.84 L 149.22 56.08 L 148.59 53.72 L 147.66 51.58 L 146.63 49.88 L 144.65 47.46 L 143.75 46.61 Z" fill="#ffc55f" fill-rule="nonzero" group-id="1,9,19" id="路径_164" node-id="47" stroke="none" target-height="27.578003" target-width="17.24121" target-x="143.74756" target-y="43.717987"></path><path d="M 116.12 44.51 L 115.85 46.97 L 115.07 52.98 L 113.84 60.47 L 113.05 64.22 L 112.22 67.39 L 111.19 70.18 L 110.27 71.68 L 112.27 71.47 L 117.32 71.00 L 123.96 70.51 L 130.73 70.23 L 133.85 70.25 L 136.20 70.40 L 138.17 70.80 L 138.90 71.27 L 139.45 68.80 L 140.88 62.77 L 142.89 55.21 L 144.05 51.42 L 145.18 48.18 L 146.44 45.31 L 147.46 43.72 Z" fill="#ffc55f" fill-rule="nonzero" group-id="1,9,20" id="路径_165" node-id="48" stroke="none" target-height="27.958008" target-width="37.19287" target-x="110.26709" target-y="43.717987"></path><path d="M 118.14 46.85 L 117.92 48.87 L 117.28 53.79 L 116.27 59.92 L 115.63 63.00 L 114.95 65.59 L 114.11 67.88 L 113.35 69.10 L 115.66 68.86 L 121.21 68.38 L 127.96 67.97 L 133.84 67.99 L 136.03 68.32 L 136.80 68.77 L 137.25 66.75 L 138.42 61.81 L 140.07 55.62 L 141.95 49.86 L 142.98 47.51 L 143.81 46.20 Z" fill="#f7ffc0" fill-rule="nonzero" group-id="1,9,21" id="路径_166" node-id="49" stroke="none" target-height="22.899994" target-width="30.463379" target-x="113.350586" target-y="46.201996"></path><path d="M 139.43 61.77 L 139.62 62.47 L 139.48 63.21 L 139.05 63.89 L 138.34 64.45 L 137.48 64.75 L 136.69 64.75 L 135.98 64.47 L 135.49 63.94 L 135.30 63.24 L 135.45 62.49 L 135.88 61.82 L 136.59 61.26 L 137.44 60.96 L 138.24 60.96 L 138.94 61.24 L 139.43 61.77 Z" fill="#ffc55f" fill-rule="nonzero" group-id="1,9,22" id="椭圆_13" node-id="50" stroke="none" target-height="3.7857208" target-width="4.3155212" target-x="135.3044" target-y="60.96026"></path><path d="M 133.44 54.30 L 133.62 55.00 L 133.48 55.75 L 133.05 56.42 L 132.34 56.98 L 131.49 57.28 L 130.69 57.28 L 129.98 57.00 L 129.49 56.47 L 129.31 55.77 L 129.45 55.02 L 129.88 54.35 L 130.59 53.79 L 131.44 53.49 L 132.24 53.49 L 132.95 53.77 L 133.44 54.30 Z" fill="#ffc55f" fill-rule="nonzero" group-id="1,9,23" id="椭圆_14" node-id="51" stroke="none" target-height="3.785717" target-width="4.3155212" target-x="129.30641" target-y="53.49326"></path><path d="M 123.86 59.81 L 124.04 60.51 L 123.90 61.25 L 123.47 61.93 L 122.76 62.48 L 121.91 62.78 L 121.11 62.78 L 120.40 62.51 L 119.91 61.97 L 119.73 61.27 L 119.87 60.53 L 120.30 59.86 L 121.01 59.30 L 121.86 59.00 L 122.66 59.00 L 123.37 59.28 L 123.86 59.81 Z" fill="#ffc55f" fill-rule="nonzero" group-id="1,9,24" id="椭圆_15" node-id="52" stroke="none" target-height="3.785717" target-width="4.3155136" target-x="119.72741" target-y="58.998257"></path><path d="M 116.02 67.07 L 116.21 67.77 L 116.06 68.51 L 115.64 69.19 L 114.93 69.75 L 114.07 70.04 L 113.27 70.04 L 112.57 69.77 L 112.08 69.23 L 111.89 68.53 L 112.04 67.79 L 112.47 67.12 L 113.18 66.56 L 114.03 66.26 L 114.83 66.26 L 115.53 66.54 L 116.02 67.07 Z" fill="#ffc55f" fill-rule="nonzero" group-id="1,9,25" id="椭圆_16" node-id="53" stroke="none" target-height="3.7857208" target-width="4.3155136" target-x="111.89341" target-y="66.259254"></path><path d="M 132.26 60.65 L 132.42 61.22 L 132.30 61.83 L 131.95 62.38 L 131.36 62.84 L 130.66 63.09 L 130.01 63.09 L 129.43 62.86 L 129.03 62.42 L 128.87 61.85 L 128.99 61.24 L 129.34 60.68 L 129.93 60.23 L 130.63 59.98 L 131.28 59.98 L 131.86 60.21 L 132.26 60.65 Z" fill="#ffc55f" fill-rule="nonzero" group-id="1,9,26" id="椭圆_17" node-id="54" stroke="none" target-height="3.108654" target-width="3.5427856" target-x="128.87311" target-y="59.97979"></path><path d="M 122.53 48.93 L 122.65 49.39 L 122.56 49.88 L 122.27 50.32 L 121.81 50.69 L 121.25 50.88 L 120.73 50.88 L 120.27 50.70 L 119.94 50.35 L 119.82 49.89 L 119.92 49.41 L 120.20 48.97 L 120.66 48.60 L 121.22 48.40 L 121.74 48.40 L 122.21 48.58 L 122.53 48.93 Z" fill="#ffc55f" fill-rule="nonzero" group-id="1,9,27" id="椭圆_18" node-id="55" stroke="none" target-height="2.4800797" target-width="2.8271408" target-x="119.82264" target-y="48.402805"></path><path d="M 142.61 52.46 L 142.79 53.16 L 142.65 53.90 L 142.22 54.57 L 141.51 55.13 L 140.66 55.43 L 139.86 55.43 L 139.16 55.16 L 138.66 54.62 L 138.48 53.92 L 138.62 53.18 L 139.05 52.51 L 139.76 51.95 L 140.62 51.65 L 141.41 51.65 L 142.12 51.93 L 142.61 52.46 Z" fill="#ffc55f" fill-rule="nonzero" group-id="1,9,28" id="椭圆_19" node-id="56" stroke="none" target-height="3.785717" target-width="4.3155212" target-x="138.4794" target-y="51.64726"></path><path d="M 136.09 46.25 L 136.28 46.95 L 136.13 47.69 L 135.71 48.36 L 135.00 48.92 L 134.14 49.22 L 133.34 49.22 L 132.64 48.95 L 132.15 48.41 L 131.96 47.71 L 132.11 46.97 L 132.54 46.30 L 133.25 45.74 L 134.10 45.44 L 134.90 45.44 L 135.60 45.72 L 136.09 46.25 Z" fill="#ffc55f" fill-rule="nonzero" group-id="1,9,29" id="椭圆_20" node-id="57" stroke="none" target-height="3.785717" target-width="4.3155212" target-x="131.96341" target-y="45.43726"></path><path d="M 126.77 52.17 L 126.86 52.52 L 126.79 52.90 L 126.21 53.51 L 125.39 53.66 L 125.03 53.52 L 124.79 53.26 L 124.69 52.91 L 124.77 52.53 L 125.34 51.92 L 126.17 51.77 L 126.52 51.91 L 126.77 52.17 Z" fill="#ffc55f" fill-rule="nonzero" group-id="1,9,30" id="椭圆_21" node-id="58" stroke="none" target-height="1.8969688" target-width="2.1633453" target-x="124.6945" target-y="51.766384"></path><path d="M 126.49 66.59 L 126.67 67.29 L 126.53 68.03 L 126.10 68.70 L 125.39 69.26 L 124.54 69.56 L 123.74 69.56 L 123.04 69.29 L 122.54 68.75 L 122.36 68.05 L 122.50 67.31 L 122.93 66.64 L 123.64 66.08 L 124.50 65.78 L 125.29 65.78 L 126.00 66.06 L 126.49 66.59 Z" fill="#ffc55f" fill-rule="nonzero" group-id="1,9,31" id="椭圆_22" node-id="59" stroke="none" target-height="3.7857208" target-width="4.3155136" target-x="122.35941" target-y="65.77725"></path><path d="M 120.01 53.32 L 120.19 54.02 L 120.05 54.76 L 119.62 55.44 L 118.91 55.99 L 118.06 56.29 L 117.26 56.29 L 116.55 56.02 L 116.06 55.48 L 115.88 54.78 L 116.02 54.04 L 116.45 53.37 L 117.16 52.81 L 118.01 52.51 L 118.81 52.51 L 119.52 52.79 L 120.01 53.32 Z" fill="#ffc55f" fill-rule="nonzero" group-id="1,9,32" id="椭圆_23" node-id="60" stroke="none" target-height="3.785717" target-width="4.3155136" target-x="115.87841" target-y="52.50826"></path><path d="M 179.10 33.33 L 176.61 33.12 L 174.12 33.38 L 172.80 34.05 L 172.59 34.16 L 172.52 34.34 L 172.73 34.53 L 173.01 34.55 L 174.10 34.20 L 174.50 34.20 L 170.67 37.23 L 169.51 37.82 L 168.31 38.03 L 167.01 37.89 L 166.62 37.85 L 166.29 38.13 L 165.45 39.17 L 164.49 39.76 L 163.34 39.95 L 162.17 39.77 L 161.08 39.21 L 160.03 38.21 L 159.56 37.76 L 158.98 37.45 L 158.24 37.04 L 157.66 36.45 L 157.27 35.73 L 157.11 34.89 L 157.08 34.07 L 157.28 33.31 L 157.71 32.63 L 158.33 32.10 L 158.90 31.62 L 159.21 30.96 L 159.63 29.86 L 160.27 28.89 L 161.09 28.09 L 162.10 27.47 L 163.29 27.19 L 164.51 27.32 L 165.82 27.76 L 166.90 28.50 L 167.77 29.58 L 168.25 30.20 L 168.86 30.65 L 169.57 30.93 L 170.35 31.01 L 172.83 31.15 L 175.25 31.68 L 176.51 32.34 L 174.38 32.07 L 171.53 32.25 L 168.79 33.00 L 167.51 33.31 L 166.19 33.36 L 165.50 33.20 L 164.94 32.76 L 164.63 32.13 L 164.61 31.42 L 164.95 30.86 L 165.58 30.68 L 166.08 30.90 L 166.28 31.39 L 166.19 31.72 L 165.99 31.92 L 165.32 32.11 L 166.10 32.37 L 166.73 32.02 L 166.94 31.29 L 166.54 30.66 L 165.98 30.26 L 165.31 30.18 L 164.67 30.42 L 164.22 30.93 L 163.97 31.71 L 164.03 32.49 L 164.37 33.20 L 164.97 33.75 L 165.84 34.08 L 166.74 34.19 L 167.64 34.07 L 168.51 33.73 L 171.10 32.87 L 173.81 32.52 L 176.22 32.66 L 178.61 33.05 L 179.25 33.15 L 179.09 33.33 Z" fill="#ffffff" fill-rule="nonzero" group-id="1,10" id="路径_167" node-id="61" stroke="none" target-height="12.766235" target-width="22.171387" target-x="157.07568" target-y="27.188507"></path><path d="M 41.87 91.26 L 39.38 91.05 L 36.89 91.31 L 35.57 91.98 L 35.36 92.10 L 35.29 92.28 L 35.50 92.47 L 35.78 92.48 L 36.87 92.13 L 37.27 92.13 L 33.44 95.17 L 32.28 95.75 L 31.08 95.97 L 29.79 95.82 L 29.40 95.79 L 29.06 96.06 L 28.25 97.09 L 27.26 97.69 L 26.12 97.89 L 24.93 97.70 L 23.82 97.13 L 22.80 96.15 L 22.33 95.70 L 21.76 95.39 L 21.01 94.98 L 20.44 94.39 L 20.05 93.66 L 19.88 92.83 L 19.85 92.01 L 20.06 91.24 L 20.48 90.57 L 21.11 90.04 L 21.67 89.56 L 21.99 88.89 L 22.40 87.79 L 23.04 86.83 L 23.87 86.02 L 24.87 85.40 L 26.06 85.12 L 27.28 85.25 L 28.60 85.69 L 29.67 86.44 L 30.55 87.51 L 31.03 88.13 L 31.64 88.59 L 32.35 88.86 L 33.12 88.94 L 35.60 89.09 L 38.02 89.61 L 39.28 90.27 L 37.15 90.00 L 34.31 90.18 L 31.56 90.93 L 30.28 91.25 L 28.96 91.29 L 28.27 91.13 L 27.72 90.69 L 27.40 90.06 L 27.38 89.35 L 27.72 88.79 L 28.35 88.61 L 28.86 88.84 L 29.05 89.33 L 28.97 89.65 L 28.76 89.85 L 28.09 90.05 L 28.88 90.30 L 29.51 89.95 L 29.71 89.23 L 29.31 88.59 L 28.76 88.20 L 28.08 88.11 L 27.44 88.35 L 26.99 88.86 L 26.74 89.64 L 26.80 90.42 L 27.14 91.13 L 27.74 91.69 L 28.61 92.02 L 29.52 92.12 L 30.42 92.01 L 31.28 91.67 L 33.87 90.80 L 36.58 90.45 L 39.00 90.59 L 41.38 90.98 L 42.02 91.09 L 41.87 91.27 Z" fill="#ffffff" fill-rule="nonzero" group-id="1,11" id="路径_168" node-id="62" stroke="none" target-height="12.766174" target-width="22.171143" target-x="19.849854" target-y="85.123474"></path></g></g><g node-id="80"><path d="M 78.80 94.75 L 76.10 94.83 L 73.27 94.83 L 68.84 94.55 L 67.54 94.57 L 66.35 94.90 L 65.21 95.54 L 64.46 96.58 L 64.24 97.84 L 64.49 98.74 L 64.97 99.44 L 66.37 100.52 L 67.74 101.42 L 67.75 101.48 L 65.10 100.65 L 62.22 99.63 L 61.05 98.86 L 60.33 97.90 L 60.18 97.15 L 60.34 96.51 L 61.08 95.27 L 60.32 95.09 L 59.50 95.00 L 58.23 94.20 L 59.60 93.31 L 60.80 93.04 L 61.84 92.88 L 62.31 92.50 L 62.43 92.06 L 62.56 90.88 L 62.94 90.30 L 63.65 89.71 L 65.32 88.88 L 68.44 88.06 L 71.60 87.59 L 74.82 87.46 L 72.68 87.86 L 70.59 88.48 L 68.82 89.32 L 67.26 90.51 L 66.72 91.30 L 66.65 91.94 L 66.92 92.49 L 67.58 92.89 L 69.24 93.14 L 71.16 93.04 L 74.98 92.61 L 77.17 92.63 L 78.19 92.70 L 79.22 92.92 L 75.64 92.97 L 73.79 93.22 L 72.74 93.45 L 72.33 93.61 L 72.02 93.88 L 72.23 94.09 L 73.23 94.31 L 76.10 94.55 L 77.48 94.61 L 78.16 94.66 L 78.80 94.75 Z" fill="#5b524b" fill-rule="nonzero" group-id="2" id="路径_429" node-id="63" stroke="none" target-height="14.026001" target-width="20.989746" target-x="58.22998" target-y="87.458984"></path></g><path d="M 168.49 65.41 L 165.09 65.46 L 162.37 65.28 L 161.20 65.38 L 160.15 65.89 L 159.68 66.53 L 159.55 67.31 L 159.83 68.09 L 160.40 68.65 L 161.69 69.51 L 161.69 69.54 L 160.07 69.03 L 158.30 68.40 L 157.59 67.94 L 157.14 67.34 L 157.05 66.88 L 157.15 66.49 L 157.60 65.73 L 157.14 65.62 L 156.63 65.56 L 155.85 65.07 L 156.69 64.52 L 157.43 64.36 L 158.07 64.26 L 158.36 64.03 L 158.43 63.76 L 158.51 63.03 L 159.18 62.32 L 160.21 61.80 L 163.09 61.13 L 166.04 60.93 L 163.44 61.56 L 162.35 62.08 L 161.40 62.81 L 161.07 63.29 L 161.02 63.68 L 161.19 64.02 L 161.60 64.26 L 162.61 64.42 L 163.79 64.36 L 166.13 64.10 L 167.48 64.10 L 168.11 64.15 L 168.74 64.28 L 166.54 64.31 L 165.40 64.47 L 164.76 64.61 L 164.32 64.87 L 164.45 65.00 L 165.06 65.14 L 166.82 65.28 L 167.67 65.32 L 168.09 65.35 L 168.48 65.41 Z" fill="#5b524b" fill-rule="nonzero" group-id="3" id="路径_430" node-id="64" stroke="none" target-height="8.611023" target-width="12.885742" target-x="155.854" target-y="60.932983"></path></svg>