<?xml version="1.0" standalone="no"?><!DOCTYPE svg PUBLIC "-//W3C//DTD SVG 1.1//EN" "http://www.w3.org/Graphics/SVG/1.1/DTD/svg11.dtd"><svg height="200" node-id="1" sillyvg="true" template-height="200" template-width="200" version="1.1" viewBox="0 0 200 200" width="200" xmlns="http://www.w3.org/2000/svg" xmlns:xlink="http://www.w3.org/1999/xlink"><defs node-id="166"><linearGradient gradientUnits="objectBoundingBox" id="linear-gradient" node-id="5" spreadMethod="pad" x1="0.49999997" x2="0.49999997" y1="1.0729998" y2="-0.07299999"><stop offset="0" stop-color="#ffe375"></stop><stop offset="1" stop-color="#7ccfd6"></stop></linearGradient><clipPath id="clip-path" node-id="3"><path d="M 200.00 100.00 L 199.77 106.67 L 199.14 113.15 L 198.11 119.45 L 196.70 125.60 L 194.90 131.61 L 192.11 138.97 L 188.82 145.99 L 185.02 152.68 L 180.71 159.06 L 175.91 165.10 L 170.71 170.71 L 165.10 175.91 L 159.06 180.71 L 152.68 185.02 L 145.99 188.82 L 138.97 192.11 L 131.61 194.90 L 125.60 196.70 L 119.45 198.11 L 113.15 199.14 L 106.67 199.77 L 100.00 200.00 L 93.33 199.77 L 86.85 199.14 L 80.55 198.11 L 74.40 196.70 L 68.39 194.90 L 61.03 192.11 L 54.01 188.82 L 47.32 185.02 L 40.94 180.71 L 34.90 175.91 L 29.29 170.71 L 24.09 165.10 L 19.29 159.06 L 14.98 152.68 L 11.18 145.99 L 7.89 138.97 L 5.10 131.61 L 3.30 125.60 L 1.89 119.45 L 0.86 113.15 L 0.23 106.67 L 0.00 100.00 L 0.23 93.33 L 0.86 86.85 L 1.89 80.55 L 3.30 74.40 L 5.10 68.39 L 7.89 61.03 L 11.18 54.01 L 14.98 47.32 L 19.29 40.94 L 24.09 34.90 L 29.29 29.29 L 34.90 24.09 L 40.94 19.29 L 47.32 14.98 L 54.01 11.18 L 61.03 7.89 L 68.39 5.10 L 74.40 3.30 L 80.55 1.89 L 86.85 0.86 L 93.33 0.23 L 100.00 0.00 L 106.67 0.23 L 113.15 0.86 L 119.45 1.89 L 125.60 3.30 L 131.61 5.10 L 138.97 7.89 L 145.99 11.18 L 152.68 14.98 L 159.06 19.29 L 165.10 24.09 L 170.71 29.29 L 175.91 34.90 L 180.71 40.94 L 185.02 47.32 L 188.82 54.01 L 192.11 61.03 L 194.90 68.39 L 196.70 74.40 L 198.11 80.55 L 199.14 86.85 L 199.77 93.33 L 200.00 100.00 Z" fill="#000000" fill-rule="nonzero" id="椭圆_673" node-id="4" stroke="none" target-height="200" target-width="200" target-x="0" target-y="0"></path></clipPath></defs><g node-id="173"><g clip-path="url(#clip-path)" group-id="1" id="组_456" node-id="10"><path d="M 19.08 -30.40 L 222.18 4.51 L 185.20 219.63 L -17.90 184.72 Z" fill="url(#linear-gradient)" fill-rule="nonzero" group-id="1,2,3" id="矩形_192" node-id="11" stroke="none" target-height="250.0301" target-width="240.07825" target-x="-17.898272" target-y="-30.399"></path><path d="M 66.37 108.09 L 72.48 108.78 L 78.64 108.84 L 72.16 109.55 L 65.64 109.64 L 65.31 109.41 L 65.13 109.16 L 65.14 108.84 L 65.41 108.54 L 66.37 108.09 Z" fill="#8f5621" fill-rule="nonzero" group-id="1,2,4,7,38,79" id="路径_3510" node-id="19" stroke="none" target-height="1.5460205" target-width="13.508789" target-x="65.12915" target-y="108.095"></path><path d="M 16.39 82.42 L 16.77 84.03 L 17.89 87.47 L 18.74 89.29 L 19.72 90.73 L 21.91 93.50 L 24.67 97.51 L 27.25 101.93 L 28.26 104.12 L 28.88 105.95 L 29.46 109.08 L 29.74 112.23 L 29.72 115.41 L 21.02 113.81 L 20.96 113.53 L 20.78 113.32 L 20.27 113.07 L 19.78 112.74 L 19.55 112.25 L 19.57 111.28 L 18.90 111.01 L 18.43 110.61 L 18.13 109.88 L 17.74 109.82 L 17.12 109.35 L 17.00 108.91 L 17.13 108.09 L 16.69 107.91 L 16.31 107.63 L 15.93 107.12 L 15.70 106.46 L 15.68 105.41 L 14.99 105.02 L 14.58 104.54 L 14.49 103.82 L 13.91 103.14 L 13.38 102.14 L 12.55 99.83 L 11.58 98.45 L 10.91 96.90 L 10.24 95.37 L 10.01 93.72 L 9.31 93.22 L 8.11 91.89 L 7.74 90.99 L 7.72 89.94 L 11.75 92.77 L 10.84 92.01 L 9.21 90.20 L 8.61 89.09 L 8.47 88.05 L 8.70 87.52 L 9.10 87.49 L 9.61 87.76 L 10.25 88.31 L 11.36 89.51 L 11.85 90.13 L 11.17 89.22 L 10.64 88.29 L 10.22 87.17 L 10.15 86.05 L 10.61 85.06 L 12.53 87.07 L 14.34 89.19 L 13.69 87.95 L 12.68 85.32 L 12.47 83.93 L 12.69 82.92 L 13.13 82.51 L 13.48 82.90 L 14.40 85.34 L 15.14 86.98 L 16.28 88.79 L 15.84 87.69 L 15.11 85.33 L 14.91 84.06 L 14.99 83.11 L 15.22 82.64 L 15.66 82.41 L 16.39 82.42 Z" fill="#fff6f0" fill-rule="nonzero" group-id="1,2,4,7,38,80" id="路径_3511" node-id="20" stroke="#e8d8cd" stroke-linecap="butt" stroke-width="1" target-height="32.99533" target-width="22.016113" target-x="7.720215" target-y="82.41165"></path><path d="M 66.93 108.44 L 65.37 107.25 L 63.52 106.58 L 61.87 106.39 L 60.65 106.51 L 59.60 106.86 L 59.10 107.20 L 58.12 108.36 L 56.39 110.12 L 55.33 110.88 L 54.22 111.35 L 51.17 112.37 L 49.70 112.73 L 47.83 112.80 L 44.78 112.48 L 43.45 112.40 L 43.32 112.31 L 43.15 111.79 L 42.74 110.14 L 42.38 109.15 L 41.81 108.10 L 42.04 105.46 L 42.56 101.80 L 43.07 98.55 L 43.30 97.15 L 43.55 95.90 L 44.34 93.15 L 44.95 91.67 L 45.69 90.44 L 47.95 87.83 L 50.34 85.23 L 51.16 84.18 L 51.21 83.92 L 50.72 83.62 L 50.38 83.57 L 49.75 83.74 L 49.01 84.13 L 47.73 85.06 L 46.78 85.74 L 45.87 86.54 L 44.70 87.87 L 43.63 89.47 L 42.65 91.62 L 42.02 94.06 L 41.81 97.15 L 42.05 95.34 L 42.69 91.18 L 43.61 86.62 L 44.19 84.64 L 44.69 83.57 L 44.22 83.37 L 43.48 83.68 L 42.76 84.39 L 41.92 85.65 L 41.25 87.17 L 40.71 89.14 L 39.92 93.20 L 39.28 96.40 L 39.02 97.70 L 39.13 95.97 L 39.44 92.03 L 39.93 87.77 L 40.26 85.96 L 40.56 85.06 L 40.76 84.32 L 40.52 84.04 L 40.04 84.05 L 39.33 84.44 L 38.71 85.12 L 38.23 86.21 L 37.52 89.85 L 36.96 94.41 L 36.83 96.49 L 36.88 97.65 L 36.73 96.30 L 36.48 93.14 L 36.42 89.53 L 36.56 87.89 L 36.83 86.82 L 36.99 86.06 L 36.87 85.79 L 36.55 85.76 L 35.91 86.22 L 34.95 87.78 L 34.28 89.90 L 33.90 93.47 L 33.84 97.64 L 33.84 99.30 L 33.88 99.51 L 33.90 99.34 L 33.88 97.72 L 33.84 94.07 L 33.82 90.23 L 33.83 88.05 L 33.72 87.72 L 33.38 87.78 L 32.98 88.19 L 32.46 89.33 L 32.13 90.80 L 31.96 93.27 L 31.96 99.04 L 31.90 97.74 L 31.62 95.43 L 31.30 94.57 L 30.96 94.47 L 30.73 94.81 L 30.58 95.70 L 30.62 97.93 L 30.83 100.08 L 30.96 101.03 L 30.93 100.14 L 30.75 98.51 L 30.52 97.88 L 30.26 97.75 L 29.85 98.11 L 29.54 98.99 L 29.45 100.04 L 29.56 101.23 L 29.63 101.47 L 29.44 100.65 L 29.08 99.94 L 28.89 99.94 L 28.61 100.48 L 28.61 101.68 L 28.25 103.17 L 27.60 106.71 L 27.39 108.82 L 27.38 110.91 L 27.66 112.88 L 28.27 114.36 L 23.94 112.87 L 19.76 113.62 L 19.01 114.36 L 19.01 115.70 L 20.73 118.54 L 25.78 120.38 L 27.11 120.80 L 28.60 121.00 L 31.06 120.93 L 33.80 120.41 L 37.57 119.09 L 45.55 115.71 L 52.69 112.85 L 57.02 111.33 L 61.30 110.34 L 65.63 109.64 L 66.32 109.45 L 66.69 109.05 L 66.93 108.44 Z" fill="#f9ebe0" fill-rule="nonzero" group-id="1,2,4,7,38,81" id="路径_3512" node-id="21" stroke="#e8d8cd" stroke-linecap="butt" stroke-width="1" target-height="37.63025" target-width="47.916992" target-x="19.013916" target-y="83.366974"></path><path d="M 27.47 120.71 L 28.00 120.78 L 27.47 120.71 Z" fill="#28100c" fill-rule="nonzero" group-id="1,2,4,7,39,82,146" id="路径_3513" node-id="24" stroke="none" target-height="0.076049805" target-width="0.52905273" target-x="27.466064" target-y="120.70795"></path><path d="M 31.43 120.76 L 31.73 120.72 L 31.43 120.76 Z" fill="#28100c" fill-rule="nonzero" group-id="1,2,4,7,39,82,147" id="路径_3514" node-id="25" stroke="none" target-height="0.044006348" target-width="0.30004883" target-x="31.427002" target-y="120.71704"></path><path d="M 31.43 120.76 L 29.65 121.02 L 28.00 120.78 L 29.71 120.87 L 31.43 120.76 Z" fill="#28100c" fill-rule="nonzero" group-id="1,2,4,7,39,82,148" id="路径_3515" node-id="26" stroke="none" target-height="0.2630005" target-width="3.4318848" target-x="27.995117" target-y="120.75806"></path><path d="M 17.06 119.91 L 17.01 119.71 L 16.19 119.70 L 16.01 119.61 L 16.02 119.42 L 17.02 119.27 L 17.87 118.85 L 18.60 118.14 L 18.62 117.83 L 18.24 117.62 L 17.66 117.63 L 16.79 117.92 L 15.29 118.89 L 15.84 117.82 L 16.84 117.14 L 17.61 116.72 L 18.24 116.11 L 18.23 116.05 L 18.21 116.05 L 17.40 116.42 L 16.52 116.53 L 16.41 116.53 L 15.95 116.69 L 15.80 116.56 L 14.92 116.76 L 15.49 116.13 L 16.19 115.77 L 17.14 115.05 L 18.25 114.61 L 18.49 114.52 L 18.55 114.46 L 19.77 113.62 L 19.12 114.69 L 19.33 114.91 L 19.31 115.30 L 19.12 115.81 L 20.32 116.23 L 20.77 116.56 L 20.96 117.03 L 20.89 118.06 L 20.74 118.57 L 21.47 118.61 L 21.92 118.86 L 22.78 119.54 L 23.34 119.72 L 24.17 119.83 L 26.04 120.36 L 27.46 120.71 L 25.36 120.41 L 22.80 120.09 L 20.85 120.38 L 18.90 120.12 L 5.47 124.30 Z" fill="#28100c" fill-rule="nonzero" group-id="1,2,4,7,39,82,149" id="路径_3516" node-id="27" stroke="none" target-height="10.680969" target-width="21.991943" target-x="5.472168" target-y="113.61804"></path><path d="M 26.13 120.53 L 29.49 121.00 L 31.06 120.81 L 31.06 120.81 L 31.24 120.97 L 30.16 121.12 L 28.87 121.05 L 26.13 120.53 Z" fill="#28100c" fill-rule="nonzero" group-id="1,2,4,7,39,83" id="路径_3517" node-id="28" stroke="none" target-height="0.59277344" target-width="5.1152344" target-x="26.125977" target-y="120.53198"></path><path d="M 26.46 113.89 L 25.48 114.45 L 23.44 115.34 L 22.39 115.53 L 21.69 115.35 L 21.59 114.98 L 21.69 114.61 L 21.25 114.65 L 20.58 114.43 L 20.44 114.10 L 20.59 113.36 L 20.01 113.08 L 19.60 112.57 L 19.45 111.93 L 19.60 111.30 L 19.20 111.22 L 18.49 110.85 L 18.25 110.51 L 18.18 109.98 L 17.71 109.85 L 17.00 109.45 L 16.88 109.17 L 17.11 108.76 L 16.88 108.01 L 16.19 107.62 L 15.75 107.16 L 15.64 106.62 L 15.62 105.53 L 15.26 105.28 L 14.65 104.67 L 14.48 104.28 L 14.52 103.86 L 16.31 103.24 L 16.49 103.19 L 16.65 103.40 L 16.76 104.04 L 16.88 104.22 L 17.22 104.33 L 17.68 104.54 L 17.54 105.10 L 17.60 105.42 L 18.00 105.78 L 17.94 106.35 L 18.14 106.73 L 18.91 107.03 L 18.72 107.57 L 18.78 107.93 L 19.23 108.12 L 19.16 108.66 L 19.31 108.98 L 19.90 109.09 L 20.01 109.46 L 20.44 110.07 L 20.79 110.24 L 21.32 110.21 L 21.35 110.75 L 21.75 111.65 L 22.18 111.89 L 22.96 111.85 L 22.95 112.24 L 23.19 112.88 L 23.49 113.06 L 24.05 113.02 L 24.09 113.51 L 24.27 113.89 L 24.68 114.19 L 25.27 114.25 L 26.46 113.89 Z" fill="#38201c" fill-rule="nonzero" group-id="1,2,4,8" id="路径_3518" node-id="29" stroke="none" target-height="12.3342285" target-width="11.979004" target-x="14.48291" target-y="103.194916"></path><path d="M 31.03 102.93 L 31.03 103.80 L 28.96 103.04 L 28.69 102.60 L 28.70 102.27 L 29.21 101.98 Z" fill="#38201c" fill-rule="nonzero" group-id="1,2,4,9" id="路径_3519" node-id="30" stroke="none" target-height="1.8250122" target-width="2.342041" target-x="28.688965" target-y="101.97897"></path><path d="M 30.83 104.09 L 28.98 103.34 L 28.55 103.36 L 28.26 103.49 L 28.13 103.81 L 30.70 104.63 Z" fill="#38201c" fill-rule="nonzero" group-id="1,2,4,10" id="路径_3520" node-id="31" stroke="none" target-height="1.2939453" target-width="2.703125" target-x="28.128906" target-y="103.341034"></path><path d="M 30.83 104.93 L 28.13 104.13 L 27.88 104.45 L 27.87 104.80 L 28.30 105.48 L 30.64 106.11 L 30.44 105.81 L 30.41 105.47 L 30.55 105.15 L 30.83 104.93 Z" fill="#38201c" fill-rule="nonzero" group-id="1,2,4,11" id="路径_3521" node-id="32" stroke="none" target-height="1.9730225" target-width="2.961914" target-x="27.870117" target-y="104.13199"></path><path d="M 30.45 106.41 L 28.13 105.81 L 27.70 106.13 L 27.59 106.52 L 27.95 107.25 L 30.45 107.67 L 30.30 107.21 L 30.28 106.80 L 30.45 106.41 Z" fill="#38201c" fill-rule="nonzero" group-id="1,2,4,12" id="路径_3522" node-id="33" stroke="none" target-height="1.8580322" target-width="2.864746" target-x="27.585205" target-y="105.80798"></path><path d="M 30.45 107.95 L 28.05 107.60 L 27.66 107.88 L 27.48 108.19 L 27.59 108.66 L 30.45 109.23 Z" fill="#38201c" fill-rule="nonzero" group-id="1,2,4,13" id="路径_3523" node-id="34" stroke="none" target-height="1.625" target-width="2.9714355" target-x="27.482666" target-y="107.60196"></path><path d="M 30.58 109.53 L 30.48 109.86 L 30.68 110.94 L 27.47 110.59 L 27.25 110.20 L 27.24 109.76 L 27.47 109.37 L 27.85 109.14 Z" fill="#38201c" fill-rule="nonzero" group-id="1,2,4,14" id="路径_3524" node-id="35" stroke="none" target-height="1.7910156" target-width="3.4384766" target-x="27.244629" target-y="109.14401"></path><path d="M 31.13 111.27 L 27.59 110.94 L 27.44 111.54 L 27.51 112.01 L 27.97 112.41 L 31.42 112.84 L 31.07 112.34 L 30.94 111.85 L 31.13 111.27 Z" fill="#38201c" fill-rule="nonzero" group-id="1,2,4,15" id="路径_3525" node-id="36" stroke="none" target-height="1.9069824" target-width="3.9777832" target-x="27.437256" target-y="110.93503"></path><path d="M 31.51 113.19 L 31.56 113.47 L 31.86 113.82 L 30.29 114.23 L 28.67 114.17 L 28.26 113.74 L 28.01 113.30 L 27.97 112.77 Z" fill="#38201c" fill-rule="nonzero" group-id="1,2,4,16" id="路径_3526" node-id="37" stroke="none" target-height="1.4545288" target-width="3.8920898" target-x="27.968994" target-y="112.774994"></path><path d="M 66.12 107.89 L 65.47 108.15 L 64.77 108.14 L 64.29 107.94 L 64.07 107.70 L 63.65 107.29 L 62.98 107.17 L 62.31 107.29 L 61.62 107.53 L 60.91 107.55 L 60.23 107.35 L 59.62 106.95 L 60.72 106.62 L 61.82 106.46 L 63.25 106.51 L 64.67 106.91 L 66.12 107.89 Z" fill="#b73818" fill-rule="nonzero" group-id="1,2,4,17" id="路径_3527" node-id="38" stroke="none" target-height="1.6842041" target-width="6.491211" target-x="59.624023" target-y="106.460846"></path><path d="M 65.59 109.48 L 64.87 109.18 L 64.41 108.92 L 63.34 108.56 L 62.73 108.54 L 62.14 108.74 L 60.94 109.39 L 59.62 109.71 L 57.99 110.02 L 56.52 110.80 L 54.75 111.92 L 54.03 112.34 L 55.01 112.00 L 57.08 111.33 L 58.93 110.83 L 61.16 110.35 L 64.01 109.74 L 65.59 109.48 Z" fill="#38201c" fill-rule="nonzero" group-id="1,2,4,18" id="路径_3528" node-id="39" stroke="none" target-height="3.7976074" target-width="11.565186" target-x="54.028076" target-y="108.5444"></path><path d="M 63.55 107.78 L 63.43 108.08 L 63.13 108.21 L 62.82 108.08 L 62.70 107.78 L 62.82 107.48 L 63.13 107.35 L 63.43 107.48 L 63.55 107.78 Z" fill="#38201c" fill-rule="nonzero" group-id="1,2,4,19" id="椭圆_640" node-id="40" stroke="none" target-height="0.8539963" target-width="0.8540001" target-x="62.699" target-y="107.353004"></path><path d="M 63.35 107.67 L 63.24 107.78 L 63.13 107.67 L 63.24 107.56 L 63.35 107.67 Z" fill="#fdf5ef" fill-rule="nonzero" group-id="1,2,4,20" id="椭圆_641" node-id="41" stroke="none" target-height="0.22000122" target-width="0.22000122" target-x="63.126" target-y="107.56"></path><path d="M 141.03 81.74 L 139.70 83.95 L 136.19 89.37 L 131.22 96.24 L 128.39 99.68 L 125.51 102.75 L 122.49 105.41 L 119.78 107.14 L 112.19 110.69 L 101.92 115.09 L 96.41 117.27 L 91.17 119.18 L 86.10 120.81 L 82.15 121.82 L 79.56 122.20 L 77.97 122.15 L 77.06 121.83 L 75.14 120.80 L 73.96 120.61 L 72.96 120.86 L 72.38 121.30 L 71.94 121.96 L 74.03 126.00 L 73.13 126.48 L 72.35 127.03 L 71.62 127.78 L 71.20 128.66 L 71.30 129.69 L 71.69 129.97 L 72.85 130.23 L 75.43 130.36 L 79.44 130.28 L 85.16 129.93 L 98.42 128.73 L 113.13 127.09 L 127.24 125.34 L 138.66 123.83 L 145.34 122.88 L 151.40 121.84 L 161.21 120.07 L 173.05 117.88 L 185.23 115.62 L 196.05 113.60 L 203.78 112.14 L 206.74 111.59 L 241.86 97.83 L 232.57 94.60 L 226.90 98.47 L 223.94 98.36 L 216.47 98.07 L 206.55 97.64 L 196.28 97.11 L 187.74 96.53 L 184.47 96.18 L 183.02 95.92 L 179.04 94.46 L 172.34 91.69 L 164.37 88.24 L 156.59 84.72 L 150.46 81.76 L 148.24 80.56 L 147.43 80.00 L 147.64 77.70 L 147.56 76.24 L 147.19 74.84 L 146.74 74.02 L 146.06 73.39 L 145.10 72.92 L 143.10 72.56 L 141.62 72.69 L 140.51 73.20 L 139.67 74.08 L 139.07 75.43 L 138.95 76.70 L 139.20 77.85 L 139.73 78.91 L 140.39 79.75 L 141.66 80.80 Z" fill="#406b5e" fill-rule="nonzero" group-id="1,2,5,21,40" id="路径_3529" node-id="44" stroke="none" target-height="57.799988" target-width="170.6543" target-x="71.20166" target-y="72.56314"></path><path d="M 71.29 129.69 L 73.50 131.70 L 76.03 133.69 L 80.11 136.46 L 84.83 139.17 L 91.07 142.07 L 95.50 143.74 L 100.58 145.26 L 106.36 146.61 L 224.82 135.73 L 241.86 97.83 Z" fill="#406b5e" fill-rule="nonzero" group-id="1,2,5,21,41" id="路径_3530" node-id="45" stroke="none" target-height="48.781036" target-width="170.56494" target-x="71.29492" target-y="97.828"></path><path d="M 105.72 137.83 L 107.86 148.86 L 203.12 137.01 L 203.12 119.33 Z" fill="#33564a" fill-rule="nonzero" group-id="1,2,5,21,42" id="路径_3531" node-id="46" stroke="none" target-height="29.536987" target-width="97.3999" target-x="105.71704" target-y="119.328"></path><path d="M 36.03 180.12 L 38.26 226.09 L 191.24 200.19 L 193.15 161.18 Z" fill="#406b5e" fill-rule="nonzero" group-id="1,2,5,21,43" id="路径_3532" node-id="47" stroke="none" target-height="64.90503" target-width="157.12012" target-x="36.03296" target-y="161.18298"></path><path d="M 278.85 126.43 L 18.09 158.62 L 18.09 183.00 L 278.85 150.73 Z" fill="#33564a" fill-rule="nonzero" group-id="1,2,5,21,44" id="路径_3533" node-id="48" stroke="none" target-height="56.567017" target-width="260.76" target-x="18.09497" target-y="126.43201"></path><path d="M 141.87 83.72 L 126.59 106.08 L 176.60 96.54 L 147.67 82.72 Z" fill="#33564a" fill-rule="nonzero" group-id="1,2,5,21,45" id="路径_3534" node-id="49" stroke="none" target-height="23.360992" target-width="50.007813" target-x="126.593994" target-y="82.72101"></path><path d="M 141.26 80.55 L 147.49 79.65 L 148.09 80.47 L 141.09 81.64 Z" fill="#33564a" fill-rule="nonzero" group-id="1,2,5,21,46" id="路径_3535" node-id="50" stroke="none" target-height="1.9949951" target-width="7" target-x="141.09302" target-y="79.647"></path><path d="M 18.09 158.62 L 18.09 163.69 L 278.85 130.88 L 278.85 126.43 Z" fill="#406b5e" fill-rule="nonzero" group-id="1,2,5,21,47" id="路径_3536" node-id="51" stroke="none" target-height="37.25299" target-width="260.76" target-x="18.09497" target-y="126.43201"></path><path d="M 22.56 166.55 L 22.56 166.55 L 23.83 166.83 L 24.84 167.54 L 25.52 168.57 L 25.75 169.85 L 25.67 175.25 L 25.39 176.52 L 24.68 177.54 L 23.64 178.22 L 22.36 178.46 L 22.36 178.46 L 21.10 178.18 L 20.09 177.48 L 19.42 176.45 L 19.18 175.18 L 19.26 169.75 L 19.54 168.48 L 20.25 167.47 L 21.28 166.79 L 22.56 166.55 Z" fill="#465952" fill-rule="nonzero" group-id="1,2,5,21,48,84" id="矩形_193" node-id="53" stroke="#202623" stroke-linecap="butt" stroke-width="1" target-height="11.907303" target-width="6.5756855" target-x="19.179111" target-y="166.55042"></path><path d="M 25.64 175.54 L 25.54 176.56 L 24.98 177.48 L 24.07 178.17 L 22.83 178.58 L 21.52 178.57 L 20.45 178.19 L 19.63 177.48 L 19.23 176.54 L 19.32 175.52 L 19.89 174.60 L 20.80 173.91 L 22.04 173.50 L 23.34 173.51 L 24.42 173.89 L 25.24 174.60 L 25.64 175.54 Z" fill="#122427" fill-rule="nonzero" group-id="1,2,5,21,48,85" id="椭圆_642" node-id="54" stroke="#202623" stroke-linecap="butt" stroke-width="1" target-height="5.0767517" target-width="6.4126453" target-x="19.227457" target-y="173.5015"></path><path d="M 30.96 165.45 L 30.96 165.45 L 32.23 165.73 L 33.24 166.44 L 33.92 167.47 L 34.16 168.75 L 34.07 174.15 L 33.79 175.42 L 33.08 176.44 L 32.04 177.12 L 30.76 177.36 L 30.76 177.36 L 29.50 177.08 L 28.49 176.38 L 27.82 175.35 L 27.58 174.08 L 27.67 168.65 L 27.95 167.38 L 28.65 166.37 L 29.69 165.69 L 30.96 165.45 Z" fill="#274238" fill-rule="nonzero" group-id="1,2,5,21,49,86" id="矩形_194" node-id="56" stroke="none" target-height="11.907303" target-width="6.5756874" target-x="27.582111" target-y="165.45041"></path><path d="M 34.04 174.44 L 33.95 175.46 L 33.38 176.38 L 32.47 177.07 L 31.23 177.48 L 29.93 177.47 L 28.85 177.09 L 28.03 176.38 L 27.63 175.44 L 27.72 174.42 L 28.29 173.50 L 29.20 172.81 L 30.44 172.40 L 31.74 172.41 L 32.82 172.79 L 33.64 173.50 L 34.04 174.44 Z" fill="#20352c" fill-rule="nonzero" group-id="1,2,5,21,49,87" id="椭圆_643" node-id="57" stroke="none" target-height="5.0767517" target-width="6.4126453" target-x="27.629457" target-y="172.40149"></path><path d="M 39.36 164.35 L 39.36 164.35 L 40.63 164.63 L 41.64 165.34 L 42.32 166.37 L 42.56 167.65 L 42.47 173.04 L 42.19 174.32 L 41.48 175.34 L 40.45 176.02 L 39.16 176.26 L 39.16 176.26 L 37.90 175.98 L 36.89 175.28 L 36.22 174.25 L 35.98 172.98 L 36.07 167.54 L 36.35 166.28 L 37.05 165.26 L 38.09 164.59 L 39.36 164.35 Z" fill="#274238" fill-rule="nonzero" group-id="1,2,5,21,50,88" id="矩形_195" node-id="59" stroke="none" target-height="11.907303" target-width="6.5756874" target-x="35.983112" target-y="164.34943"></path><path d="M 42.44 173.34 L 42.35 174.36 L 41.78 175.28 L 40.87 175.97 L 39.63 176.38 L 38.33 176.37 L 37.25 175.99 L 36.43 175.28 L 36.03 174.34 L 36.13 173.32 L 36.69 172.40 L 37.60 171.71 L 38.84 171.30 L 40.15 171.31 L 41.23 171.69 L 42.04 172.40 L 42.44 173.34 Z" fill="#20352c" fill-rule="nonzero" group-id="1,2,5,21,50,89" id="椭圆_644" node-id="60" stroke="none" target-height="5.0767517" target-width="6.4126472" target-x="36.03146" target-y="171.3005"></path><path d="M 47.77 163.25 L 47.77 163.25 L 49.03 163.53 L 50.05 164.24 L 50.72 165.27 L 50.96 166.55 L 50.88 171.94 L 50.60 173.22 L 49.89 174.24 L 48.85 174.92 L 47.56 175.16 L 47.56 175.16 L 46.30 174.88 L 45.30 174.18 L 44.62 173.15 L 44.39 171.88 L 44.47 166.44 L 44.75 165.18 L 45.46 164.16 L 46.49 163.49 L 47.77 163.25 Z" fill="#274238" fill-rule="nonzero" group-id="1,2,5,21,51,90" id="矩形_196" node-id="62" stroke="none" target-height="11.907303" target-width="6.5756874" target-x="44.385113" target-y="163.24942"></path><path d="M 50.85 172.24 L 50.75 173.26 L 50.19 174.18 L 49.28 174.87 L 48.04 175.28 L 46.73 175.27 L 45.65 174.89 L 44.83 174.18 L 44.43 173.24 L 44.53 172.22 L 45.09 171.30 L 46.00 170.61 L 47.24 170.20 L 48.55 170.21 L 49.63 170.59 L 50.45 171.30 L 50.85 172.24 Z" fill="#20352c" fill-rule="nonzero" group-id="1,2,5,21,51,91" id="椭圆_645" node-id="63" stroke="none" target-height="5.0767517" target-width="6.4126472" target-x="44.43346" target-y="170.2005"></path><path d="M 56.17 162.15 L 56.17 162.15 L 57.44 162.43 L 58.45 163.13 L 59.12 164.17 L 59.36 165.44 L 59.28 170.84 L 59.00 172.12 L 58.29 173.14 L 57.25 173.82 L 55.97 174.06 L 55.97 174.06 L 54.71 173.78 L 53.70 173.08 L 53.03 172.05 L 52.79 170.78 L 52.87 165.34 L 53.15 164.07 L 53.86 163.06 L 54.89 162.39 L 56.17 162.15 Z" fill="#274238" fill-rule="nonzero" group-id="1,2,5,21,52,92" id="矩形_197" node-id="65" stroke="none" target-height="11.907303" target-width="6.5756874" target-x="52.788113" target-y="162.1484"></path><path d="M 59.25 171.14 L 59.15 172.16 L 58.59 173.08 L 57.68 173.77 L 56.44 174.18 L 55.13 174.17 L 54.06 173.79 L 53.24 173.08 L 52.84 172.14 L 52.93 171.12 L 53.50 170.20 L 54.41 169.51 L 55.65 169.10 L 56.95 169.11 L 58.03 169.49 L 58.85 170.20 L 59.25 171.14 Z" fill="#20352c" fill-rule="nonzero" group-id="1,2,5,21,52,93" id="椭圆_646" node-id="66" stroke="none" target-height="5.0767517" target-width="6.4126472" target-x="52.83646" target-y="169.09949"></path><path d="M 64.57 161.05 L 64.57 161.05 L 65.84 161.33 L 66.85 162.03 L 67.53 163.07 L 67.77 164.34 L 67.68 169.74 L 67.40 171.02 L 66.69 172.04 L 65.65 172.72 L 64.37 172.96 L 64.37 172.96 L 63.11 172.68 L 62.10 171.98 L 61.43 170.95 L 61.19 169.68 L 61.27 164.24 L 61.55 162.97 L 62.26 161.96 L 63.29 161.29 L 64.57 161.05 Z" fill="#274238" fill-rule="nonzero" group-id="1,2,5,21,53,94" id="矩形_198" node-id="68" stroke="none" target-height="11.907303" target-width="6.5756874" target-x="61.190113" target-y="161.04842"></path><path d="M 67.65 170.04 L 67.56 171.06 L 66.99 171.98 L 66.08 172.67 L 64.84 173.08 L 63.54 173.07 L 62.46 172.69 L 61.64 171.98 L 61.24 171.04 L 61.33 170.02 L 61.90 169.10 L 62.81 168.41 L 64.05 168.00 L 65.35 168.01 L 66.43 168.39 L 67.25 169.10 L 67.65 170.04 Z" fill="#20352c" fill-rule="nonzero" group-id="1,2,5,21,53,95" id="椭圆_647" node-id="69" stroke="none" target-height="5.0767517" target-width="6.4126472" target-x="61.23846" target-y="167.9995"></path><path d="M 72.97 159.95 L 72.97 159.95 L 74.24 160.23 L 75.25 160.93 L 75.93 161.97 L 76.17 163.24 L 76.08 169.03 L 75.83 170.16 L 75.20 171.05 L 74.29 171.65 L 73.15 171.86 L 72.77 171.86 L 71.51 171.58 L 70.50 170.88 L 69.83 169.85 L 69.59 168.58 L 69.68 163.14 L 69.96 161.87 L 70.66 160.86 L 71.70 160.19 L 72.97 159.95 Z" fill="#274238" fill-rule="nonzero" group-id="1,2,5,21,54,96" id="矩形_199" node-id="71" stroke="none" target-height="11.917252" target-width="6.5756836" target-x="69.59212" target-y="159.94742"></path><path d="M 76.05 168.94 L 75.96 169.96 L 75.39 170.88 L 74.48 171.57 L 73.24 171.98 L 71.94 171.97 L 70.86 171.58 L 70.04 170.88 L 69.64 169.94 L 69.74 168.92 L 70.30 168.00 L 71.21 167.30 L 72.45 166.90 L 73.76 166.91 L 74.83 167.29 L 75.65 168.00 L 76.05 168.94 Z" fill="#20352c" fill-rule="nonzero" group-id="1,2,5,21,54,97" id="椭圆_648" node-id="72" stroke="none" target-height="5.0767517" target-width="6.412651" target-x="69.64046" target-y="166.8985"></path><path d="M 81.37 158.85 L 81.37 158.85 L 82.64 159.13 L 83.65 159.83 L 84.33 160.87 L 84.57 162.14 L 84.49 167.54 L 84.21 168.82 L 83.49 169.83 L 82.46 170.51 L 81.17 170.75 L 80.82 170.75 L 79.70 170.50 L 78.80 169.88 L 78.20 168.96 L 77.99 167.83 L 78.08 162.04 L 78.36 160.77 L 79.06 159.76 L 80.10 159.09 L 81.37 158.85 Z" fill="#274238" fill-rule="nonzero" group-id="1,2,5,21,55,98" id="矩形_200" node-id="74" stroke="none" target-height="11.907303" target-width="6.5811005" target-x="77.98869" target-y="158.84741"></path><path d="M 84.46 167.84 L 84.36 168.86 L 83.80 169.78 L 82.88 170.47 L 81.64 170.88 L 80.34 170.87 L 79.26 170.48 L 78.44 169.78 L 78.04 168.84 L 78.14 167.82 L 78.70 166.90 L 79.61 166.20 L 80.85 165.80 L 82.16 165.81 L 83.24 166.19 L 84.05 166.90 L 84.46 167.84 Z" fill="#20352c" fill-rule="nonzero" group-id="1,2,5,21,55,99" id="椭圆_649" node-id="75" stroke="none" target-height="5.0767517" target-width="6.412651" target-x="78.04245" target-y="165.7985"></path><path d="M 89.78 157.75 L 89.78 157.75 L 91.05 158.03 L 92.06 158.73 L 92.73 159.77 L 92.97 161.04 L 92.89 166.44 L 92.61 167.72 L 91.90 168.73 L 90.86 169.41 L 89.57 169.65 L 89.57 169.65 L 88.31 169.38 L 87.31 168.67 L 86.64 167.65 L 86.40 166.38 L 86.48 160.94 L 86.76 159.67 L 87.47 158.66 L 88.50 157.99 L 89.78 157.75 Z" fill="#274238" fill-rule="nonzero" group-id="1,2,5,21,56,100" id="矩形_201" node-id="77" stroke="none" target-height="11.907303" target-width="6.5756836" target-x="86.39612" target-y="157.74641"></path><path d="M 92.86 166.74 L 92.76 167.75 L 92.20 168.68 L 91.29 169.37 L 90.05 169.77 L 88.74 169.76 L 87.66 169.38 L 86.84 168.68 L 86.44 167.74 L 86.54 166.72 L 87.10 165.79 L 88.02 165.10 L 89.26 164.70 L 90.56 164.71 L 91.64 165.09 L 92.46 165.79 L 92.86 166.74 Z" fill="#20352c" fill-rule="nonzero" group-id="1,2,5,21,56,101" id="椭圆_650" node-id="78" stroke="none" target-height="5.0767517" target-width="6.412651" target-x="86.44446" target-y="164.6975"></path><path d="M 98.18 156.65 L 98.18 156.65 L 99.45 156.93 L 100.46 157.63 L 101.13 158.67 L 101.37 159.94 L 101.28 165.73 L 101.04 166.85 L 100.41 167.75 L 99.49 168.35 L 98.36 168.56 L 97.98 168.56 L 96.71 168.28 L 95.71 167.58 L 95.04 166.55 L 94.80 165.28 L 94.88 159.84 L 95.16 158.57 L 95.87 157.56 L 96.90 156.89 L 98.18 156.65 Z" fill="#274238" fill-rule="nonzero" group-id="1,2,5,21,57,102" id="矩形_202" node-id="80" stroke="none" target-height="11.917252" target-width="6.5756836" target-x="94.79812" target-y="156.64642"></path><path d="M 101.26 165.64 L 101.16 166.66 L 100.60 167.58 L 99.69 168.27 L 98.45 168.67 L 97.14 168.66 L 96.07 168.28 L 95.25 167.58 L 94.85 166.64 L 94.94 165.62 L 95.51 164.69 L 96.42 164.00 L 97.66 163.60 L 98.96 163.61 L 100.04 163.99 L 100.86 164.69 L 101.26 165.64 Z" fill="#20352c" fill-rule="nonzero" group-id="1,2,5,21,57,103" id="椭圆_651" node-id="81" stroke="none" target-height="5.0767517" target-width="6.412651" target-x="94.84646" target-y="163.5975"></path><path d="M 106.58 155.55 L 106.58 155.55 L 107.85 155.82 L 108.86 156.53 L 109.54 157.56 L 109.78 158.84 L 109.69 164.63 L 109.44 165.75 L 108.81 166.65 L 107.89 167.25 L 106.76 167.46 L 106.38 167.46 L 105.12 167.18 L 104.11 166.48 L 103.44 165.45 L 103.20 164.18 L 103.28 158.74 L 103.56 157.47 L 104.27 156.46 L 105.30 155.78 L 106.58 155.55 Z" fill="#274238" fill-rule="nonzero" group-id="1,2,5,21,58,104" id="矩形_203" node-id="83" stroke="none" target-height="11.917252" target-width="6.5756836" target-x="103.20012" target-y="155.54541"></path><path d="M 109.66 164.54 L 109.57 165.55 L 109.00 166.48 L 108.09 167.17 L 106.85 167.57 L 105.55 167.56 L 104.47 167.18 L 103.65 166.48 L 103.25 165.53 L 103.34 164.52 L 103.91 163.59 L 104.82 162.90 L 106.06 162.50 L 107.36 162.51 L 108.44 162.89 L 109.26 163.59 L 109.66 164.54 Z" fill="#20352c" fill-rule="nonzero" group-id="1,2,5,21,58,105" id="椭圆_652" node-id="84" stroke="none" target-height="5.0767517" target-width="6.412651" target-x="103.24846" target-y="162.49649"></path><path d="M 114.98 154.45 L 114.98 154.45 L 116.25 154.72 L 117.26 155.43 L 117.94 156.46 L 118.18 157.74 L 118.09 163.14 L 117.81 164.42 L 117.10 165.43 L 116.06 166.11 L 114.78 166.35 L 114.78 166.35 L 113.52 166.08 L 112.51 165.37 L 111.84 164.35 L 111.60 163.08 L 111.69 157.64 L 111.97 156.37 L 112.67 155.36 L 113.71 154.68 L 114.98 154.45 Z" fill="#274238" fill-rule="nonzero" group-id="1,2,5,21,59,106" id="矩形_204" node-id="86" stroke="none" target-height="11.907303" target-width="6.5756836" target-x="111.60212" target-y="154.44542"></path><path d="M 118.06 163.44 L 117.97 164.45 L 117.40 165.38 L 116.49 166.07 L 115.25 166.47 L 113.95 166.46 L 112.87 166.08 L 112.05 165.38 L 111.65 164.43 L 111.75 163.42 L 112.31 162.49 L 113.22 161.80 L 114.46 161.40 L 115.77 161.41 L 116.84 161.79 L 117.66 162.49 L 118.06 163.44 Z" fill="#20352c" fill-rule="nonzero" group-id="1,2,5,21,59,107" id="椭圆_653" node-id="87" stroke="none" target-height="5.0767517" target-width="6.412651" target-x="111.65046" target-y="161.3965"></path><path d="M 123.39 153.35 L 123.39 153.35 L 124.65 153.62 L 125.67 154.33 L 126.34 155.36 L 126.58 156.64 L 126.50 162.04 L 126.22 163.32 L 125.51 164.33 L 124.47 165.01 L 123.18 165.25 L 123.18 165.25 L 121.92 164.98 L 120.92 164.27 L 120.24 163.25 L 120.01 161.98 L 120.09 156.54 L 120.37 155.27 L 121.08 154.26 L 122.11 153.58 L 123.39 153.35 Z" fill="#274238" fill-rule="nonzero" group-id="1,2,5,21,60,108" id="矩形_205" node-id="89" stroke="none" target-height="11.907303" target-width="6.5756836" target-x="120.00512" target-y="153.34541"></path><path d="M 126.47 162.34 L 126.37 163.35 L 125.81 164.28 L 124.90 164.97 L 123.66 165.37 L 122.35 165.36 L 121.27 164.98 L 120.45 164.28 L 120.05 163.33 L 120.15 162.32 L 120.71 161.39 L 121.62 160.70 L 122.86 160.30 L 124.17 160.31 L 125.25 160.69 L 126.07 161.39 L 126.47 162.34 Z" fill="#20352c" fill-rule="nonzero" group-id="1,2,5,21,60,109" id="椭圆_654" node-id="90" stroke="none" target-height="5.0767517" target-width="6.412651" target-x="120.05346" target-y="160.2965"></path><path d="M 131.79 152.24 L 131.79 152.24 L 133.06 152.52 L 134.07 153.23 L 134.74 154.26 L 134.98 155.54 L 134.90 160.94 L 134.62 162.22 L 133.91 163.23 L 132.87 163.91 L 131.59 164.15 L 131.59 164.15 L 130.32 163.87 L 129.32 163.17 L 128.65 162.15 L 128.41 160.88 L 128.49 155.44 L 128.77 154.17 L 129.48 153.16 L 130.51 152.48 L 131.79 152.24 Z" fill="#274238" fill-rule="nonzero" group-id="1,2,5,21,61,110" id="矩形_206" node-id="92" stroke="none" target-height="11.907303" target-width="6.5756836" target-x="128.4071" target-y="152.24442"></path><path d="M 134.87 161.23 L 134.77 162.25 L 134.21 163.18 L 133.30 163.87 L 132.06 164.27 L 130.75 164.26 L 129.67 163.88 L 128.86 163.17 L 128.46 162.23 L 128.55 161.21 L 129.11 160.29 L 130.03 159.60 L 131.27 159.20 L 132.57 159.20 L 133.65 159.59 L 134.47 160.29 L 134.87 161.23 Z" fill="#20352c" fill-rule="nonzero" group-id="1,2,5,21,61,111" id="椭圆_655" node-id="93" stroke="none" target-height="5.0767517" target-width="6.4126434" target-x="128.45546" target-y="159.1955"></path><path d="M 140.19 151.14 L 140.19 151.14 L 141.46 151.42 L 142.47 152.13 L 143.15 153.16 L 143.39 154.44 L 143.30 159.84 L 143.02 161.12 L 142.31 162.13 L 141.27 162.81 L 139.99 163.05 L 139.99 163.05 L 138.73 162.77 L 137.72 162.07 L 137.05 161.05 L 136.81 159.78 L 136.89 154.34 L 137.17 153.07 L 137.88 152.06 L 138.91 151.38 L 140.19 151.14 Z" fill="#274238" fill-rule="nonzero" group-id="1,2,5,21,62,112" id="矩形_207" node-id="95" stroke="none" target-height="11.907303" target-width="6.5756836" target-x="136.8101" target-y="151.14441"></path><path d="M 143.27 160.13 L 143.17 161.15 L 142.61 162.08 L 141.70 162.77 L 140.46 163.17 L 139.15 163.16 L 138.08 162.78 L 137.26 162.07 L 136.86 161.13 L 136.95 160.11 L 137.52 159.19 L 138.43 158.50 L 139.67 158.10 L 140.97 158.10 L 142.05 158.49 L 142.87 159.19 L 143.27 160.13 Z" fill="#20352c" fill-rule="nonzero" group-id="1,2,5,21,62,113" id="椭圆_656" node-id="96" stroke="none" target-height="5.0767517" target-width="6.4126434" target-x="136.85745" target-y="158.09549"></path><path d="M 148.59 150.04 L 148.59 150.04 L 149.86 150.32 L 150.87 151.03 L 151.55 152.06 L 151.79 153.34 L 151.70 158.74 L 151.42 160.01 L 150.71 161.03 L 149.67 161.71 L 148.39 161.95 L 148.39 161.95 L 147.13 161.67 L 146.12 160.97 L 145.45 159.94 L 145.21 158.68 L 145.30 153.24 L 145.57 151.97 L 146.28 150.96 L 147.31 150.28 L 148.59 150.04 Z" fill="#274238" fill-rule="nonzero" group-id="1,2,5,21,63,114" id="矩形_208" node-id="98" stroke="none" target-height="11.907303" target-width="6.5756836" target-x="145.2111" target-y="150.04343"></path><path d="M 151.67 159.03 L 151.58 160.05 L 151.01 160.97 L 150.10 161.67 L 148.86 162.07 L 147.56 162.06 L 146.48 161.68 L 145.66 160.97 L 145.26 160.03 L 145.35 159.01 L 145.92 158.09 L 146.83 157.40 L 148.07 156.99 L 149.37 157.00 L 150.45 157.38 L 151.27 158.09 L 151.67 159.03 Z" fill="#20352c" fill-rule="nonzero" group-id="1,2,5,21,63,115" id="椭圆_657" node-id="99" stroke="none" target-height="5.0767517" target-width="6.4126434" target-x="145.25946" target-y="156.9945"></path><path d="M 156.99 148.94 L 156.99 148.94 L 158.26 149.22 L 159.27 149.93 L 159.95 150.96 L 160.19 152.24 L 160.10 157.64 L 159.82 158.91 L 159.11 159.93 L 158.08 160.61 L 156.79 160.85 L 156.79 160.85 L 155.53 160.57 L 154.52 159.87 L 153.85 158.84 L 153.61 157.58 L 153.70 152.14 L 153.98 150.87 L 154.68 149.86 L 155.72 149.18 L 156.99 148.94 Z" fill="#274238" fill-rule="nonzero" group-id="1,2,5,21,64,116" id="矩形_209" node-id="101" stroke="none" target-height="11.907303" target-width="6.5756836" target-x="153.61311" target-y="148.94342"></path><path d="M 160.07 157.93 L 159.98 158.95 L 159.41 159.87 L 158.50 160.57 L 157.26 160.97 L 155.96 160.96 L 154.88 160.58 L 154.06 159.87 L 153.66 158.93 L 153.76 157.91 L 154.32 156.99 L 155.23 156.30 L 156.47 155.89 L 157.78 155.90 L 158.86 156.28 L 159.67 156.99 L 160.07 157.93 Z" fill="#20352c" fill-rule="nonzero" group-id="1,2,5,21,64,117" id="椭圆_658" node-id="102" stroke="none" target-height="5.0767517" target-width="6.4126434" target-x="153.66147" target-y="155.8945"></path><path d="M 165.40 147.84 L 165.40 147.84 L 166.66 148.12 L 167.68 148.83 L 168.35 149.86 L 168.59 151.14 L 168.51 156.54 L 168.23 157.81 L 167.52 158.83 L 166.48 159.51 L 165.19 159.75 L 165.19 159.75 L 163.93 159.47 L 162.93 158.77 L 162.25 157.74 L 162.02 156.47 L 162.10 151.04 L 162.38 149.77 L 163.09 148.76 L 164.12 148.08 L 165.40 147.84 Z" fill="#274238" fill-rule="nonzero" group-id="1,2,5,21,65,118" id="矩形_210" node-id="104" stroke="none" target-height="11.907303" target-width="6.5756836" target-x="162.0151" target-y="147.8424"></path><path d="M 168.48 156.83 L 168.38 157.85 L 167.82 158.77 L 166.91 159.46 L 165.67 159.87 L 164.36 159.86 L 163.28 159.48 L 162.46 158.77 L 162.06 157.83 L 162.16 156.81 L 162.72 155.89 L 163.63 155.20 L 164.87 154.79 L 166.18 154.80 L 167.26 155.18 L 168.08 155.89 L 168.48 156.83 Z" fill="#20352c" fill-rule="nonzero" group-id="1,2,5,21,65,119" id="椭圆_659" node-id="105" stroke="none" target-height="5.0767517" target-width="6.4126434" target-x="162.06346" target-y="154.79349"></path><path d="M 173.80 146.74 L 173.80 146.74 L 175.07 147.02 L 176.08 147.73 L 176.75 148.76 L 176.99 150.04 L 176.91 155.44 L 176.63 156.71 L 175.92 157.73 L 174.88 158.41 L 173.60 158.65 L 173.60 158.65 L 172.34 158.37 L 171.33 157.67 L 170.66 156.64 L 170.42 155.37 L 170.50 149.94 L 170.78 148.67 L 171.49 147.66 L 172.52 146.98 L 173.80 146.74 Z" fill="#274238" fill-rule="nonzero" group-id="1,2,5,21,66,120" id="矩形_211" node-id="107" stroke="none" target-height="11.907303" target-width="6.5756836" target-x="170.41812" target-y="146.74242"></path><path d="M 176.88 155.73 L 176.78 156.75 L 176.22 157.67 L 175.31 158.36 L 174.07 158.77 L 172.76 158.76 L 171.68 158.38 L 170.87 157.67 L 170.47 156.73 L 170.56 155.71 L 171.12 154.79 L 172.04 154.10 L 173.28 153.69 L 174.58 153.70 L 175.66 154.08 L 176.48 154.79 L 176.88 155.73 Z" fill="#20352c" fill-rule="nonzero" group-id="1,2,5,21,66,121" id="椭圆_660" node-id="108" stroke="none" target-height="5.0767517" target-width="6.4126434" target-x="170.46547" target-y="153.6935"></path><path d="M 182.20 145.64 L 182.20 145.64 L 183.47 145.92 L 184.48 146.63 L 185.16 147.66 L 185.39 148.94 L 185.31 154.34 L 185.03 155.61 L 184.32 156.63 L 183.28 157.31 L 182.00 157.55 L 182.00 157.55 L 180.74 157.27 L 179.73 156.57 L 179.06 155.54 L 178.82 154.27 L 178.90 148.84 L 179.18 147.57 L 179.89 146.56 L 180.92 145.88 L 182.20 145.64 Z" fill="#274238" fill-rule="nonzero" group-id="1,2,5,21,67,122" id="矩形_212" node-id="110" stroke="none" target-height="11.907303" target-width="6.5756836" target-x="178.8191" target-y="145.64142"></path><path d="M 185.28 154.63 L 185.18 155.65 L 184.62 156.57 L 183.71 157.26 L 182.47 157.67 L 181.16 157.66 L 180.09 157.28 L 179.27 156.57 L 178.87 155.63 L 178.96 154.61 L 179.53 153.69 L 180.44 153.00 L 181.68 152.59 L 182.98 152.60 L 184.06 152.98 L 184.88 153.69 L 185.28 154.63 Z" fill="#20352c" fill-rule="nonzero" group-id="1,2,5,21,67,123" id="椭圆_661" node-id="111" stroke="none" target-height="5.0767517" target-width="6.4126434" target-x="178.86746" target-y="152.5925"></path><path d="M 190.60 144.54 L 190.60 144.54 L 191.87 144.82 L 192.88 145.53 L 193.56 146.56 L 193.80 147.84 L 193.71 153.24 L 193.43 154.51 L 192.72 155.53 L 191.68 156.21 L 190.40 156.45 L 190.05 156.44 L 188.93 156.20 L 188.03 155.57 L 187.43 154.65 L 187.22 153.52 L 187.31 147.74 L 187.58 146.47 L 188.29 145.46 L 189.32 144.78 L 190.60 144.54 Z" fill="#465952" fill-rule="nonzero" group-id="1,2,5,21,68,124" id="矩形_213" node-id="113" stroke="#202623" stroke-linecap="butt" stroke-width="1" target-height="11.907303" target-width="6.5811005" target-x="187.2157" target-y="144.54141"></path><path d="M 193.68 153.53 L 193.59 154.55 L 193.02 155.47 L 192.11 156.16 L 190.87 156.57 L 189.57 156.56 L 188.49 156.18 L 187.67 155.47 L 187.27 154.53 L 187.36 153.51 L 187.93 152.59 L 188.84 151.90 L 190.08 151.49 L 191.38 151.50 L 192.46 151.88 L 193.28 152.59 L 193.68 153.53 Z" fill="#122427" fill-rule="nonzero" group-id="1,2,5,21,68,125" id="椭圆_662" node-id="114" stroke="#202623" stroke-linecap="butt" stroke-width="1" target-height="5.0767517" target-width="6.4126434" target-x="187.26947" target-y="151.4925"></path><path d="M 199.00 143.44 L 199.00 143.44 L 200.27 143.72 L 201.28 144.43 L 201.96 145.46 L 202.20 146.74 L 202.11 152.52 L 201.86 153.65 L 201.23 154.55 L 200.32 155.15 L 199.19 155.36 L 198.80 155.35 L 197.54 155.07 L 196.53 154.37 L 195.86 153.34 L 195.62 152.07 L 195.71 146.64 L 195.99 145.37 L 196.69 144.36 L 197.73 143.68 L 199.00 143.44 Z" fill="#465952" fill-rule="nonzero" group-id="1,2,5,21,69,126" id="矩形_214" node-id="116" stroke="#202623" stroke-linecap="butt" stroke-width="1" target-height="11.917252" target-width="6.5756836" target-x="195.62411" target-y="143.44041"></path><path d="M 202.09 152.43 L 201.99 153.45 L 201.43 154.37 L 200.51 155.06 L 199.27 155.47 L 197.97 155.46 L 196.89 155.08 L 196.07 154.37 L 195.67 153.43 L 195.77 152.41 L 196.33 151.49 L 197.24 150.80 L 198.48 150.39 L 199.79 150.40 L 200.87 150.78 L 201.68 151.49 L 202.09 152.43 Z" fill="#122427" fill-rule="nonzero" group-id="1,2,5,21,69,127" id="椭圆_663" node-id="117" stroke="#202623" stroke-linecap="butt" stroke-width="1" target-height="5.0767517" target-width="6.4126434" target-x="195.67247" target-y="150.3915"></path><path d="M 207.41 142.34 L 207.41 142.34 L 208.68 142.62 L 209.69 143.33 L 210.36 144.36 L 210.60 145.64 L 210.52 151.04 L 210.24 152.31 L 209.53 153.33 L 208.49 154.01 L 207.20 154.25 L 207.20 154.25 L 205.94 153.97 L 204.94 153.27 L 204.27 152.24 L 204.03 150.97 L 204.11 145.54 L 204.39 144.27 L 205.10 143.26 L 206.13 142.58 L 207.41 142.34 Z" fill="#465952" fill-rule="nonzero" group-id="1,2,5,21,70,128" id="矩形_215" node-id="119" stroke="#202623" stroke-linecap="butt" stroke-width="1" target-height="11.907303" target-width="6.5756836" target-x="204.02611" target-y="142.34042"></path><path d="M 210.49 151.33 L 210.39 152.35 L 209.83 153.27 L 208.92 153.96 L 207.68 154.37 L 206.37 154.36 L 205.29 153.98 L 204.47 153.27 L 204.07 152.33 L 204.17 151.31 L 204.73 150.39 L 205.65 149.70 L 206.89 149.29 L 208.19 149.30 L 209.27 149.68 L 210.09 150.39 L 210.49 151.33 Z" fill="#122427" fill-rule="nonzero" group-id="1,2,5,21,70,129" id="椭圆_664" node-id="120" stroke="#202623" stroke-linecap="butt" stroke-width="1" target-height="5.0767517" target-width="6.4126434" target-x="204.07446" target-y="149.2915"></path><path d="M 215.81 141.24 L 215.81 141.24 L 217.08 141.52 L 218.09 142.23 L 218.76 143.26 L 219.00 144.54 L 218.91 150.32 L 218.67 151.45 L 218.04 152.34 L 217.12 152.94 L 215.99 153.16 L 215.61 153.15 L 214.34 152.87 L 213.34 152.17 L 212.67 151.14 L 212.43 149.87 L 212.51 144.43 L 212.79 143.17 L 213.50 142.15 L 214.53 141.48 L 215.81 141.24 Z" fill="#465952" fill-rule="nonzero" group-id="1,2,5,21,71,130" id="矩形_216" node-id="122" stroke="#202623" stroke-linecap="butt" stroke-width="1" target-height="11.917252" target-width="6.5756836" target-x="212.4281" target-y="141.23941"></path><path d="M 218.89 150.23 L 218.79 151.25 L 218.23 152.17 L 217.32 152.86 L 216.08 153.27 L 214.77 153.26 L 213.70 152.88 L 212.88 152.17 L 212.48 151.23 L 212.57 150.21 L 213.14 149.29 L 214.05 148.60 L 215.29 148.19 L 216.59 148.20 L 217.67 148.58 L 218.49 149.29 L 218.89 150.23 Z" fill="#122427" fill-rule="nonzero" group-id="1,2,5,21,71,131" id="椭圆_665" node-id="123" stroke="#202623" stroke-linecap="butt" stroke-width="1" target-height="5.0767517" target-width="6.4126434" target-x="212.47646" target-y="148.19049"></path><path d="M 224.21 140.14 L 224.21 140.14 L 225.48 140.42 L 226.49 141.13 L 227.17 142.16 L 227.41 143.44 L 227.32 148.83 L 227.04 150.11 L 226.33 151.13 L 225.29 151.81 L 224.01 152.05 L 224.01 152.05 L 222.75 151.77 L 221.74 151.07 L 221.07 150.04 L 220.83 148.77 L 220.91 143.33 L 221.19 142.07 L 221.90 141.05 L 222.93 140.38 L 224.21 140.14 Z" fill="#465952" fill-rule="nonzero" group-id="1,2,5,21,72,132" id="矩形_217" node-id="125" stroke="#202623" stroke-linecap="butt" stroke-width="1" target-height="11.907303" target-width="6.5756836" target-x="220.83011" target-y="140.13942"></path><path d="M 227.29 149.13 L 227.20 150.15 L 226.63 151.07 L 225.72 151.76 L 224.48 152.17 L 223.18 152.16 L 222.10 151.78 L 221.28 151.07 L 220.88 150.13 L 220.97 149.11 L 221.54 148.19 L 222.45 147.50 L 223.69 147.09 L 224.99 147.10 L 226.07 147.48 L 226.89 148.19 L 227.29 149.13 Z" fill="#122427" fill-rule="nonzero" group-id="1,2,5,21,72,133" id="椭圆_666" node-id="126" stroke="#202623" stroke-linecap="butt" stroke-width="1" target-height="5.0767517" target-width="6.4126434" target-x="220.87846" target-y="147.0905"></path><path d="M 232.61 139.04 L 232.61 139.04 L 233.88 139.32 L 234.89 140.02 L 235.57 141.06 L 235.81 142.33 L 235.72 147.73 L 235.44 149.01 L 234.73 150.03 L 233.69 150.71 L 232.41 150.95 L 232.41 150.95 L 231.15 150.67 L 230.14 149.97 L 229.47 148.94 L 229.23 147.67 L 229.32 142.23 L 229.60 140.96 L 230.30 139.95 L 231.34 139.28 L 232.61 139.04 Z" fill="#465952" fill-rule="nonzero" group-id="1,2,5,21,73,134" id="矩形_218" node-id="128" stroke="#202623" stroke-linecap="butt" stroke-width="1" target-height="11.907303" target-width="6.5756836" target-x="229.2321" target-y="139.03842"></path><path d="M 235.69 148.03 L 235.60 149.05 L 235.03 149.97 L 234.12 150.66 L 232.88 151.07 L 231.58 151.06 L 230.50 150.68 L 229.68 149.97 L 229.28 149.03 L 229.38 148.01 L 229.94 147.09 L 230.85 146.40 L 232.09 145.99 L 233.40 146.00 L 234.47 146.38 L 235.29 147.09 L 235.69 148.03 Z" fill="#122427" fill-rule="nonzero" group-id="1,2,5,21,73,135" id="椭圆_667" node-id="129" stroke="#202623" stroke-linecap="butt" stroke-width="1" target-height="5.0767517" target-width="6.4126434" target-x="229.28046" target-y="145.9895"></path><path d="M 241.01 137.94 L 241.01 137.94 L 242.28 138.22 L 243.29 138.92 L 243.97 139.96 L 244.21 141.23 L 244.13 146.63 L 243.85 147.91 L 243.13 148.93 L 242.10 149.61 L 240.81 149.85 L 240.81 149.85 L 239.55 149.57 L 238.55 148.87 L 237.87 147.84 L 237.63 146.57 L 237.72 141.13 L 238.00 139.86 L 238.70 138.85 L 239.74 138.18 L 241.01 137.94 Z" fill="#465952" fill-rule="nonzero" group-id="1,2,5,21,74,136" id="矩形_219" node-id="131" stroke="#202623" stroke-linecap="butt" stroke-width="1" target-height="11.907303" target-width="6.5756836" target-x="237.63411" target-y="137.93842"></path><path d="M 244.10 146.93 L 244.00 147.95 L 243.44 148.87 L 242.52 149.56 L 241.28 149.97 L 239.98 149.96 L 238.90 149.58 L 238.08 148.87 L 237.68 147.93 L 237.78 146.91 L 238.34 145.99 L 239.25 145.30 L 240.49 144.89 L 241.80 144.90 L 242.88 145.28 L 243.69 145.99 L 244.10 146.93 Z" fill="#122427" fill-rule="nonzero" group-id="1,2,5,21,74,137" id="椭圆_668" node-id="132" stroke="#202623" stroke-linecap="butt" stroke-width="1" target-height="5.0767517" target-width="6.4126434" target-x="237.68246" target-y="144.8895"></path><path d="M 249.42 136.84 L 249.42 136.84 L 250.69 137.12 L 251.70 137.82 L 252.37 138.86 L 252.61 140.13 L 252.53 145.53 L 252.25 146.81 L 251.54 147.83 L 250.50 148.51 L 249.22 148.75 L 248.87 148.74 L 247.74 148.49 L 246.84 147.87 L 246.25 146.95 L 246.03 145.82 L 246.12 140.03 L 246.40 138.76 L 247.11 137.75 L 248.14 137.08 L 249.42 136.84 Z" fill="#465952" fill-rule="nonzero" group-id="1,2,5,21,75,138" id="矩形_220" node-id="134" stroke="#202623" stroke-linecap="butt" stroke-width="1" target-height="11.907303" target-width="6.5811005" target-x="246.0317" target-y="136.83841"></path><path d="M 252.50 145.83 L 252.40 146.85 L 251.84 147.77 L 250.93 148.46 L 249.69 148.87 L 248.38 148.86 L 247.30 148.48 L 246.48 147.77 L 246.08 146.83 L 246.18 145.81 L 246.74 144.89 L 247.66 144.20 L 248.90 143.79 L 250.20 143.80 L 251.28 144.18 L 252.10 144.89 L 252.50 145.83 Z" fill="#122427" fill-rule="nonzero" group-id="1,2,5,21,75,139" id="椭圆_669" node-id="135" stroke="#202623" stroke-linecap="butt" stroke-width="1" target-height="5.0767517" target-width="6.4126434" target-x="246.08446" target-y="143.78949"></path><path d="M 257.82 135.74 L 257.82 135.74 L 259.09 136.02 L 260.10 136.72 L 260.77 137.76 L 261.01 139.03 L 260.93 144.43 L 260.65 145.71 L 259.94 146.72 L 258.90 147.40 L 257.62 147.64 L 257.62 147.64 L 256.36 147.37 L 255.35 146.67 L 254.68 145.64 L 254.44 144.37 L 254.52 138.93 L 254.80 137.66 L 255.51 136.65 L 256.54 135.98 L 257.82 135.74 Z" fill="#465952" fill-rule="nonzero" group-id="1,2,5,21,76,140" id="矩形_221" node-id="137" stroke="#202623" stroke-linecap="butt" stroke-width="1" target-height="11.907303" target-width="6.5756836" target-x="254.43811" target-y="135.73741"></path><path d="M 260.90 144.73 L 260.80 145.75 L 260.24 146.67 L 259.33 147.36 L 258.09 147.77 L 256.78 147.76 L 255.71 147.37 L 254.89 146.67 L 254.49 145.73 L 254.58 144.71 L 255.15 143.79 L 256.06 143.09 L 257.30 142.69 L 258.60 142.70 L 259.68 143.08 L 260.50 143.79 L 260.90 144.73 Z" fill="#122427" fill-rule="nonzero" group-id="1,2,5,21,76,141" id="椭圆_670" node-id="138" stroke="#202623" stroke-linecap="butt" stroke-width="1" target-height="5.0767517" target-width="6.4126434" target-x="254.48647" target-y="142.68849"></path><path d="M 266.22 134.64 L 266.22 134.64 L 267.49 134.92 L 268.50 135.62 L 269.18 136.66 L 269.42 137.93 L 269.33 143.72 L 269.08 144.85 L 268.45 145.74 L 267.53 146.34 L 266.40 146.55 L 266.02 146.55 L 264.76 146.27 L 263.75 145.57 L 263.08 144.54 L 262.84 143.27 L 262.92 137.83 L 263.20 136.56 L 263.91 135.55 L 264.94 134.88 L 266.22 134.64 Z" fill="#465952" fill-rule="nonzero" group-id="1,2,5,21,77,142" id="矩形_222" node-id="140" stroke="#202623" stroke-linecap="butt" stroke-width="1" target-height="11.917252" target-width="6.5756836" target-x="262.8401" target-y="134.63742"></path><path d="M 269.30 143.63 L 269.21 144.65 L 268.64 145.57 L 267.73 146.26 L 266.49 146.67 L 265.19 146.66 L 264.11 146.28 L 263.29 145.57 L 262.89 144.63 L 262.98 143.61 L 263.55 142.69 L 264.46 141.99 L 265.70 141.59 L 267.00 141.60 L 268.08 141.98 L 268.90 142.69 L 269.30 143.63 Z" fill="#122427" fill-rule="nonzero" group-id="1,2,5,21,77,143" id="椭圆_671" node-id="141" stroke="#202623" stroke-linecap="butt" stroke-width="1" target-height="5.0767517" target-width="6.4126587" target-x="262.88843" target-y="141.5885"></path><path d="M 274.62 133.54 L 274.62 133.54 L 275.89 133.82 L 276.90 134.52 L 277.58 135.56 L 277.82 136.83 L 277.73 142.62 L 277.48 143.74 L 276.85 144.64 L 275.94 145.24 L 274.80 145.45 L 274.42 145.45 L 273.16 145.17 L 272.15 144.47 L 271.48 143.44 L 271.24 142.17 L 271.33 136.73 L 271.61 135.46 L 272.31 134.45 L 273.35 133.78 L 274.62 133.54 Z" fill="#465952" fill-rule="nonzero" group-id="1,2,5,21,78,144" id="矩形_223" node-id="143" stroke="#202623" stroke-linecap="butt" stroke-width="1" target-height="11.917252" target-width="6.5756836" target-x="271.2431" target-y="133.5364"></path><path d="M 277.70 142.53 L 277.61 143.54 L 277.04 144.47 L 276.13 145.16 L 274.89 145.56 L 273.59 145.55 L 272.51 145.17 L 271.69 144.47 L 271.29 143.53 L 271.39 142.51 L 271.95 141.58 L 272.86 140.89 L 274.10 140.49 L 275.41 140.50 L 276.49 140.88 L 277.30 141.58 L 277.70 142.53 Z" fill="#122427" fill-rule="nonzero" group-id="1,2,5,21,78,145" id="椭圆_672" node-id="144" stroke="#202623" stroke-linecap="butt" stroke-width="1" target-height="5.0767517" target-width="6.4126587" target-x="271.29144" target-y="140.48749"></path><path d="M 71.27 129.71 L 74.18 132.31 L 77.31 134.64 L 78.39 134.77 L 82.48 134.44 L 94.50 132.69 L 111.37 129.80 L 131.11 126.20 L 151.72 122.32 L 171.21 118.56 L 187.59 115.36 L 198.88 113.13 L 203.09 112.29 L 201.63 105.36 Z" fill="#32564a" fill-rule="nonzero" group-id="1,2,5,22" id="路径_3537" node-id="145" stroke="none" target-height="29.41278" target-width="131.81396" target-x="71.273926" target-y="105.358"></path><path d="M 124.43 107.33 L 74.35 129.08 L 84.83 127.17 L 132.54 105.89 Z" fill="#345b4e" fill-rule="nonzero" group-id="1,2,5,23" id="路径_3539" node-id="146" stroke="none" target-height="23.19104" target-width="58.193115" target-x="74.3479" target-y="105.89197"></path><path d="M 135.10 105.89 L 92.98 125.65 L 104.93 123.42 L 140.35 104.83 Z" fill="#345b4e" fill-rule="nonzero" group-id="1,2,5,24" id="路径_3540" node-id="147" stroke="none" target-height="20.817993" target-width="47.366943" target-x="92.98096" target-y="104.833984"></path><path d="M 143.51 104.25 L 113.66 121.79 L 123.85 119.83 L 147.93 103.33 Z" fill="#345b4e" fill-rule="nonzero" group-id="1,2,5,25" id="路径_3541" node-id="148" stroke="none" target-height="18.455994" target-width="34.27295" target-x="113.65698" target-y="103.333984"></path><path d="M 150.43 102.83 L 131.51 118.42 L 139.17 117.02 L 154.43 101.92 Z" fill="#345b4e" fill-rule="nonzero" group-id="1,2,5,26" id="路径_3542" node-id="149" stroke="none" target-height="16.5" target-width="22.916992" target-x="131.5149" target-y="101.916016"></path><path d="M 156.64 101.62 L 146.54 115.65 L 151.43 114.73 L 159.39 101.04 Z" fill="#345b4e" fill-rule="nonzero" group-id="1,2,5,27" id="路径_3543" node-id="150" stroke="none" target-height="14.605988" target-width="12.847168" target-x="146.5398" target-y="101.040985"></path><path d="M 162.60 100.42 L 155.24 114.03 L 158.92 113.33 L 164.43 100.00 Z" fill="#345b4e" fill-rule="nonzero" group-id="1,2,5,28" id="路径_3544" node-id="151" stroke="none" target-height="14.028015" target-width="9.193848" target-x="155.23804" target-y="100"></path><path d="M 166.48 100.00 L 162.11 112.74 L 165.61 112.09 L 168.48 99.42 Z" fill="#345b4e" fill-rule="nonzero" group-id="1,2,5,29" id="路径_3545" node-id="152" stroke="none" target-height="13.323029" target-width="6.3640137" target-x="162.11182" target-y="99.415985"></path><path d="M 171.09 99.00 L 168.48 111.55 L 172.08 110.88 L 172.27 98.58 Z" fill="#345b4e" fill-rule="nonzero" group-id="1,2,5,30" id="路径_3546" node-id="153" stroke="none" target-height="12.971985" target-width="3.7888184" target-x="168.47705" target-y="98.578"></path><path d="M 175.01 98.21 L 173.93 110.50 L 177.05 109.95 L 176.43 97.79 Z" fill="#345b4e" fill-rule="nonzero" group-id="1,2,5,31" id="路径_3547" node-id="154" stroke="none" target-height="12.709015" target-width="3.1230469" target-x="173.93091" target-y="97.790985"></path><path d="M 178.06 97.50 L 178.43 109.69 L 180.74 109.26 L 179.97 97.17 Z" fill="#345b4e" fill-rule="nonzero" group-id="1,2,5,32" id="路径_3548" node-id="155" stroke="none" target-height="12.524994" target-width="2.6860352" target-x="178.05591" target-y="97.16699"></path><path d="M 182.26 96.54 L 182.46 108.94 L 184.43 108.57 L 183.06 96.25 Z" fill="#345b4e" fill-rule="nonzero" group-id="1,2,5,33" id="路径_3549" node-id="156" stroke="none" target-height="12.691986" target-width="2.1679688" target-x="182.2649" target-y="96.25"></path><path d="M 185.72 96.33 L 186.01 108.21 L 188.06 107.88 L 186.89 96.45 Z" fill="#345b4e" fill-rule="nonzero" group-id="1,2,5,34" id="路径_3550" node-id="157" stroke="none" target-height="11.873016" target-width="2.3339844" target-x="185.7229" target-y="96.33499"></path><path d="M 190.43 96.74 L 190.43 107.45 L 192.07 107.14 L 191.73 96.83 Z" fill="#345b4e" fill-rule="nonzero" group-id="1,2,5,35" id="路径_3551" node-id="158" stroke="none" target-height="10.710022" target-width="1.6350098" target-x="190.43481" target-y="96.737976"></path><path d="M 194.35 97.00 L 194.35 106.72 L 195.89 106.42 L 195.89 97.09 Z" fill="#345b4e" fill-rule="nonzero" group-id="1,2,5,36" id="路径_3552" node-id="159" stroke="none" target-height="9.720001" target-width="1.5439453" target-x="194.34595" target-y="96.997986"></path><path d="M 198.44 97.23 L 198.22 106.08 L 199.35 105.78 L 199.18 97.27 Z" fill="#345b4e" fill-rule="nonzero" group-id="1,2,5,37" id="路径_3553" node-id="160" stroke="none" target-height="8.8420105" target-width="1.1240234" target-x="198.2229" target-y="97.234985"></path><text align="center" editable="true" ellipsis="false" fill="#33564a" flags="1" font-family="'Noto Sans CJK SC'" font-size="8" font-stretch="normal" font-style="normal" font-weight="400" group-id="1,2" height="11.84" id="白露_" letter-spacing="0" node-id="161" stroke="none" target-x="105.655" target-y="37.539" vertical-align="center" width="24" x="105.655" xml:space="preserve" y="46.819">白露。</text><path d="M 134.51 39.50 L 134.51 37.33 L 134.51 37.33 L 134.51 36.58 L 131.60 36.58 L 131.60 37.33 L 133.76 37.33 L 133.76 39.50 Z" fill="#33564a" fill-rule="nonzero" group-id="1,2,6" id="路径_3538" node-id="164" stroke="none" target-height="2.917984" target-width="2.9169922" target-x="131.59692" target-y="36.58101"></path></g></g></svg>