<svg xmlns="http://www.w3.org/2000/svg" xmlns:xlink="http://www.w3.org/1999/xlink" width="200" height="200" viewBox="0 0 200 200">
  <defs>
    <clipPath id="clip-path">
      <circle id="椭圆_139" data-name="椭圆 139" cx="100" cy="100" r="100" fill="none"/>
    </clipPath>
    <linearGradient id="linear-gradient" x1="0.5" x2="0.5" y2="1" gradientUnits="objectBoundingBox">
      <stop offset="0" stop-color="#3e5060"/>
      <stop offset="1" stop-color="#3e5060" stop-opacity="0"/>
    </linearGradient>
    <linearGradient id="linear-gradient-2" x1="1.043" y1="1.48" x2="2.043" y2="1.48" gradientUnits="objectBoundingBox">
      <stop offset="0" stop-color="#f8f4f3"/>
      <stop offset="1" stop-color="#452929"/>
    </linearGradient>
    <linearGradient id="linear-gradient-3" x1="0.573" y1="1.006" x2="1.573" y2="1.006" xlink:href="#linear-gradient-2"/>
  </defs>
  <g id="秋分" transform="translate(-3880.272 -98.686)">
    <g id="组_270" data-name="组 270" transform="translate(3880.272 98.686)" clip-path="url(#clip-path)">
      <rect id="矩形_112" data-name="矩形 112" width="206.078" height="218.272" transform="translate(19.977 -30.962) rotate(9.754)" fill="#f0ce8f"/>
      <path id="路径_3030" data-name="路径 3030" d="M4710.333,366.878" transform="translate(-4502.818 -299.83)" fill="#fefefe"/>
      <path id="路径_3031" data-name="路径 3031" d="M4018.279,404.027s4.405-10.908,12.166-9.649,8.81,4.774,8.81,4.774-1.049-16.94,10.488-18.2h8.391s3.985-11.956,17.2-11.956,15.732,10.278,15.732,10.278,8.391-3.356,14.054,1.468,4.4,7.971,4.4,7.971,3.356-2.727,9.439.42c0,0,4.824-9.23,12.586-7.971s9.229,9.859,8.81,10.908c0,0,6.083-.629,8.391,1.888,0,0,10.488-8.81,22.864.42v50.343H4017.02Z" transform="translate(-3982.833 -301.419)" fill="#fff" opacity="0.25"/>
      <g id="组_265" data-name="组 265" transform="translate(128.453 55.083)">
        <path id="路径_3032" data-name="路径 3032" d="M4417.985,319.019s-19.156,14.96-23.9,14.96h79v-14.96Z" transform="translate(-4394.085 -319.019)" fill="#53687f"/>
        <rect id="矩形_113" data-name="矩形 113" width="78.998" height="6.021" transform="translate(0 14.96)" fill="#3e5060"/>
        <rect id="矩形_114" data-name="矩形 114" width="74.254" height="55.098" transform="translate(4.744 20.981)" fill="#c1ac9a"/>
        <path id="路径_3033" data-name="路径 3033" d="M4455.2,319.019s-16.967,14.96-23.9,14.96" transform="translate(-4421.999 -319.019)" fill="none" stroke="#3a495c" stroke-miterlimit="10" stroke-width="2"/>
        <path id="路径_3034" data-name="路径 3034" d="M4503,319.019s-16.967,14.96-23.9,14.96" transform="translate(-4457.848 -319.019)" fill="none" stroke="#3a495c" stroke-miterlimit="10" stroke-width="2"/>
        <path id="路径_3035" data-name="路径 3035" d="M4556.452,319.019s-16.967,14.96-23.9,14.96" transform="translate(-4497.935 -319.019)" fill="none" stroke="#3a495c" stroke-miterlimit="10" stroke-width="2"/>
        <path id="路径_3036" data-name="路径 3036" d="M4613.01,319.019s-16.967,14.96-23.9,14.96" transform="translate(-4540.354 -319.019)" fill="none" stroke="#3a495c" stroke-miterlimit="10" stroke-width="2"/>
        <path id="路径_3037" data-name="路径 3037" d="M4668.9,319.019s-16.968,14.96-23.9,14.96" transform="translate(-4582.271 -319.019)" fill="none" stroke="#3a495c" stroke-miterlimit="10" stroke-width="2"/>
      </g>
      <g id="组_267" data-name="组 267" transform="translate(-0.882 100.71)">
        <path id="路径_3038" data-name="路径 3038" d="M3876.746,578.393V689.267h272.486V579.675Z" transform="translate(-3876.746 -559.177)" fill="#c1ac9a"/>
        <g id="组_266" data-name="组 266">
          <path id="路径_3039" data-name="路径 3039" d="M3876.746,541.542s4.593,8.438,13.779,3.631c0,0,10.148,3.418,17.945-.427,0,0,8.973,4.593,17.731.641,0,0,13.032,2.884,17.731-.641,0,0,9.293,3.311,17.945.427,0,0,10.254,2.671,16.129,0,0,0,14.847,3.2,18.159-.107,0,0,12.5,3.2,17.518-.107a30.082,30.082,0,0,0,16.557.961s10.788,5.021,18.158-.32c0,0,14.74,3.421,17.945-.8,0,0,13.565,4,16.342.586,0,0,12.6,4.6,19.654-.586,0,0,12.711,4.218,16.236.586,0,0,13.672,3.418,18.158-.107,0,0,11.216,3.418,12.5,1.6V528.4H3876.746Z" transform="translate(-3876.746 -521.685)" fill="#fff"/>
          <path id="路径_3040" data-name="路径 3040" d="M3876.746,538.978s4.593,8.438,13.779,3.632c0,0,10.148,3.418,17.945-.427,0,0,8.973,4.593,17.731.641,0,0,13.032,2.884,17.731-.641,0,0,9.293,3.311,17.945.427,0,0,10.254,2.67,16.129,0,0,0,14.847,3.2,18.159-.107,0,0,12.5,3.2,17.518-.107a30.081,30.081,0,0,0,16.557.961s10.788,5.02,18.158-.321c0,0,14.74,3.421,17.945-.8,0,0,13.565,4,16.342.586,0,0,12.6,4.6,19.654-.586,0,0,12.711,4.218,16.236.586,0,0,13.672,3.418,18.158-.107,0,0,11.216,3.418,12.5,1.6V525.84H3876.746Z" transform="translate(-3876.746 -519.762)" fill="#53687f"/>
          <path id="路径_3041" data-name="路径 3041" d="M3931.862,542.61l2.083-16.77h.881l-2.092,17.029Z" transform="translate(-3918.083 -519.762)" fill="#3a495c"/>
          <path id="路径_3042" data-name="路径 3042" d="M4003.642,542.183l2.564-16.343h1.175l-2.732,16.79Z" transform="translate(-3971.917 -519.762)" fill="#3a495c"/>
          <path id="路径_3043" data-name="路径 3043" d="M4074.567,542.824l2.67-16.984h1.175l-2.716,17.207Z" transform="translate(-4025.112 -519.762)" fill="#3a495c"/>
          <path id="路径_3044" data-name="路径 3044" d="M4145.492,542.183l2.083-16.343h.854l-2.034,16.626Z" transform="translate(-4078.305 -519.762)" fill="#3a495c"/>
          <path id="路径_3045" data-name="路径 3045" d="M4217.272,542.61l1.656-16.77h.694l-1.453,16.98Z" transform="translate(-4132.14 -519.762)" fill="#3a495c"/>
          <path id="路径_3046" data-name="路径 3046" d="M4281.789,542.61l1.6-16.77h.748l-1.6,16.922Z" transform="translate(-4180.528 -519.762)" fill="#3a495c"/>
          <path id="路径_3047" data-name="路径 3047" d="M4354.423,542.5l1.442-16.663h.694l-1.381,16.842Z" transform="translate(-4235.004 -519.762)" fill="#3a495c"/>
          <path id="路径_3048" data-name="路径 3048" d="M4424.493,542.4l1.655-16.556h.8l-1.665,16.842Z" transform="translate(-4287.557 -519.762)" fill="#3a495c"/>
          <path id="路径_3049" data-name="路径 3049" d="M4490.719,543.358l2.083-17.518h.748l-1.988,17.868Z" transform="translate(-4337.226 -519.762)" fill="#3a495c"/>
          <path id="路径_3050" data-name="路径 3050" d="M4563.353,543.037l2.136-17.2h.855l-2.172,17.373Z" transform="translate(-4391.701 -519.762)" fill="#3a495c"/>
          <path id="路径_3051" data-name="路径 3051" d="M4635.133,542.238l1.6-16.4h.8l-1.618,16.616Z" transform="translate(-4445.536 -519.762)" fill="#3a495c"/>
          <path id="路径_3052" data-name="路径 3052" d="M4700.5,542.824l2.19-16.984h.8l-2.126,17.269Z" transform="translate(-4494.564 -519.762)" fill="#3a495c"/>
          <rect id="矩形_115" data-name="矩形 115" width="272.485" height="12.111" fill="url(#linear-gradient)"/>
          <rect id="矩形_116" data-name="矩形 116" width="272.485" height="5.854" transform="translate(0 0.257)" fill="#3e5060"/>
        </g>
        <rect id="矩形_117" data-name="矩形 117" width="166.954" height="37.677" transform="translate(24.594 80.451)" fill="#877668"/>
      </g>
      <text id="秋分_" data-name="秋分。" transform="translate(122.309 39.573)" fill="#fff" font-size="9" font-family="STZhongsong"><tspan x="0" y="0">秋分。</tspan></text>
      <path id="路径_3053" data-name="路径 3053" d="M4350.922,210.891h-2.168v0H4348v2.917h.75v-2.165h2.168Z" transform="translate(-4231.071 -182.839)" fill="#fff"/>
      <circle id="椭圆_138" data-name="椭圆 138" cx="13.301" cy="13.301" r="13.301" transform="translate(32.079 31.502)" fill="#faebb2"/>
      <path id="路径_3054" data-name="路径 3054" d="M4292.65,305.929a2.994,2.994,0,0,1,3.462.288s1.36-2.061,2.679-1.937c0,0-2.308-.783-2.72.783C4296.071,305.063,4293.433,303.538,4292.65,305.929Z" transform="translate(-4189.555 -252.735)" fill="#b88871"/>
      <path id="路径_3055" data-name="路径 3055" d="M4188.65,250.6a3,3,0,0,1,3.462.288s1.359-2.061,2.679-1.937c0,0-2.308-.783-2.721.783C4192.07,249.73,4189.433,248.205,4188.65,250.6Z" transform="translate(-4111.556 -211.235)" fill="#b88871"/>
      <path id="路径_3056" data-name="路径 3056" d="M4041.317,368.694a4.149,4.149,0,0,1,3.462.2,4.281,4.281,0,0,1,2.679-1.326s-2.308-.536-2.72.536C4044.738,368.1,4042.1,367.058,4041.317,368.694Z" transform="translate(-4001.056 -300.245)" fill="#b88871"/>
      <path id="路径_3057" data-name="路径 3057" d="M4081.622,807.114c-.385.038-.169.05-.316.165.072.651-.121.544.036,1.163a4.709,4.709,0,0,1,.138.5c-.7-.211-.477-.016-.9-.428a.466.466,0,0,0-.049.07l-.784.8c-.017.025-.041.064-.055.085-.324.486.253-.082-.123.17-.606-.26-.111,0-.375-.3a3.244,3.244,0,0,1-.461-2.448c1.058-.4.567.186,1.223.052l.168-.005c.183.69-.158.614.084,1.263.752-.01.1.136.482-.249l.676-1.094a.447.447,0,0,1,.254.252Zm-4.777-12.583c.266.978-.118.6.465,1.19.126.583.017.32-.267.707-.115.158-.051.439-.1.732-.136.746-.479.921-1.212,1.035a3.256,3.256,0,0,0,1.2,1.5c.884.7,1.054.482,2.213.461a3.548,3.548,0,0,1-2.176,2.737l-.326-.545c-.232.5-.1,1.376-1.408,1.05a3.447,3.447,0,0,1-1.668-.878c-.633-.184-.352-.053-.506.313-.007.016-.225.732-.226.735a1.134,1.134,0,0,1,.449.225c-.165.614-.639.543-.976,1.161-.447.821.092,1.253.188,1.709l.786-.173c-.323-.4.319-.274-.595-.336-.044-.625.538-2.48,1.27-2.712a11.688,11.688,0,0,1,.489,1.208,4.011,4.011,0,0,0,.66.914,1.381,1.381,0,0,0,1.007.695,2.966,2.966,0,0,0,.773.01c.913-.041.635.054.667.089.3.495-.293,1.411.225,2.41l.225.083c0,.407.033.109-.14.224l.364.838a1.407,1.407,0,0,1,.45-.163c.134.291.08.219,0,.562.731-.155.285.339.826.157.315-.106.087.023.156-.157l-.041-.225a2.052,2.052,0,0,0-.378-.112v-.326l.561-.07c.592.232.389.187.838.065l.067-.018.935-.513c.011-.035.053-.021.078-.036-.409-.81.265-1.116.171-2.969l.315-.1c-.551-.25-1.217-.392-1.542-.981,1.162-.665,1.4-.473,1.944-1.939a6.628,6.628,0,0,0,.323-1.3c.1-.837-.08-.748-.107-1.446a1.569,1.569,0,0,1-1.425-.038,9.158,9.158,0,0,1-1.043-.64c-.277.152-.217.1-.632.068-.251.365.017.143-.339.105a1.842,1.842,0,0,1-.292-.143,5.608,5.608,0,0,1-1.588-2.094,8.045,8.045,0,0,1-.025-2.8C4077.1,794.7,4077.252,794.7,4076.844,794.531Z" transform="translate(-4024.164 -620.57)" fill="#feeb3c" fill-rule="evenodd"/>
      <path id="路径_3058" data-name="路径 3058" d="M4123.994,820.7c-.136.349-.051.073-.14.278-.056.13-.067.182-.125.324l-.14.326a.866.866,0,0,0-.077.282,6.393,6.393,0,0,0,.125,1.573l.23.131c.232.179.3,1.041,1.988.75.9-.155.6-.435,1.253-.517-.574.4-.418,1.056-2.431,1.771.089.607.47.636.891,1.462-.393.794-.352.886-1.02,1.334a2.917,2.917,0,0,1-1.842.571c-.024-.383.078.068-.083-.2-.125-.208.021.152-.211-.295.129.035.386.1.5.142.029.011.054.023.083.036s.057.026.086.04c.227.1-.293-.055.287.133-.086-.885.07-.169-.429-.7-.292-.313-.175-.4-.4-.739-.555.243-.194.42-.892.131l-.182.6-1.069-.656s-.119-.286-.175-.442c-.637.128-.328.138-.8-.3-.417.469-.065-.317-.088.252,0,.024.056.451.06.506-.077-.037-.422-.13-.393-.3.052.055.252-.141.118.322-.124.426.246.138-.284.3l-.262-.635c-.042,0-.074-.008-.079.015s-.048.014-.056.018c-.286.128.086.225-.449.138-.357-.058-.465-.254-.506-.586.515.151-.047.025.441.313.072-.329.17-.332-.264-.87s-.959-.617-.88.1c.031.279.141-.188.019.344l-.336.534c-.015.016-.05.046-.063.058s-.045.037-.065.058a1.259,1.259,0,0,1,.336.9c-.419-.223-.306-.146-.595-.5a1.772,1.772,0,0,0-.263-.286c-.024-.022-.1-.078-.122-.1-.678-.655-.2-1.245-.814-1.647-.261.074-1.64,1.908-3.083.58.454-.233.8-.4.771-1.073-.036-.706-.4-.749-.733-1.155l.249-.087a5.561,5.561,0,0,0-.1-.672,6.407,6.407,0,0,0,.566.334c.351-.193.173-.139.449-.43.354.773-.13.88,1.008,1.213a2.133,2.133,0,0,0,1.8,0,7.925,7.925,0,0,0-.823-1.014c.208-.253-.341-.266.483-.171.243.029.188.1.229.174.229-.361-.134-.158.068-.685.188-.491-.05.1.18-.3.738.3-.009-.1.334.291.3.345-.241.272.064.149.3.4-.013-.047.369.2.025.016.055.033.079.05.314.227.417.7.328-.079l.04-.581c.776.128.122-.177.665.294.229.2.162.107.307.394.228.451.145.649.5.946l-.084.593-.44.217c.34.77.277.755.981,1.192a3.513,3.513,0,0,0,1.572.7c.112-.246.083-.5.208-.714l.28.658c1.435.011,1.769-.649,2.533-1.34l-.487-.388.214-.024c-.1-.961-.7-.82-.688-1.461,0-.352.175-.407.41-.566l.173-.108c-.288-.634-.267-.059-.284-.68-.022-.828-.093-.1.236-.616.388-.611.335-.35.082-1.151Z" transform="translate(-4053.91 -639.948)" fill="#fccc1b" fill-rule="evenodd"/>
      <path id="路径_3059" data-name="路径 3059" d="M4275.087,841.952l-.068.116c.135,1.352-.014,2.188.945,2.608.769.336-.568-.208.183.063.26.094.082-.057.291.1.081.677.14.435-.506.926l-.425-.51a1.328,1.328,0,0,1-.267-.534c-.12.11-.084.036-.2.2-.129.19-.044.072-.107.22l-.637-.376c.156.267.316.552.438.792l-.241.4c-.6.657-.6,1-1.646,1.224a6.1,6.1,0,0,0-.4-3.21,6.944,6.944,0,0,0-1.95-1.865c.322,4.424,2.861,3.886,1.163,4.953-.577.363-2.34,1.133-2.029-.669-.391.12-.316.22-.688.477a2.967,2.967,0,0,1-1.867-1.607l-.012-.492c.43-.133.426-.056.594-.238l.723-.165c.019-.729.18-.107-.282-.618.119-.24-.316-.256.322-.16l.211.457a2.084,2.084,0,0,0,1.127-.93,7.265,7.265,0,0,0,.546-1.367l.486-.058c1.2,1.258,2.517,1.737,3.938.145Z" transform="translate(-4170.365 -655.944)" fill="#fff946" fill-rule="evenodd"/>
      <path id="路径_3060" data-name="路径 3060" d="M4155.171,761.375l-.079.045c-.375.838-.744,1.278-.322,1.846.337.455-.263-.313.086.1.122.142.067-.006.136.156-.18.424-.064.3-.607.373l-.078-.442a.9.9,0,0,1,.023-.4c-.107.024-.062-.007-.186.053-.14.068-.05.027-.137.093l-.248-.435c0,.209,0,.43-.008.612l-.277.155c-.574.183-.687.383-1.375.165a4.134,4.134,0,0,0,.843-2.016,4.68,4.68,0,0,0-.517-1.748c-1.3,2.7.372,3.238-.981,3.294-.46.019-1.752-.122-.965-1.074-.27-.061-.259.023-.563.048a2,2,0,0,1-.555-1.568l.158-.292c.3.066.269.11.428.06l.479.146c.256-.421.142,0,.043-.456.15-.1-.1-.256.242.014l-.03.339a1.407,1.407,0,0,0,.973-.167c.345-.16.5-.421.779-.618l.3.129c.283,1.142.892,1.863,2.259,1.408Z" transform="translate(-4082.079 -594.411)" fill="#fff946" fill-rule="evenodd"/>
      <path id="路径_3061" data-name="路径 3061" d="M4151.742,825.811c.481.274.406.875,1.465,1.169a2.131,2.131,0,0,0,.631-.57c-.08.6-.255.6.011,1.081-.106.024-.429-.059-.054.234l.307.092.045.9c-.3.2.061-.009-.156-.015l-.237.013c.2.278.238.073.367.372a.836.836,0,0,1-.1.772c-.024.057-.383-.214,0,.193.221.236.34.172.6.027l-.013.284a4.408,4.408,0,0,1-1.615.124c-.821-.137-.892-.412-1.457-.532a4.545,4.545,0,0,0,.72,2.858c-1.213.016-1.066.208-1.3.247a1.064,1.064,0,0,1-.213-.412c.3-.188.093-.029.392-.146l.385-.192a6.52,6.52,0,0,0-.974-1.162c-.649-.39-1.039.121-1.037-1.087-.633.232-.218-.079-.707-.205l-.209-.019a1.193,1.193,0,0,0-.644-1.461c-1.048-.548.069-.526-.981-1.182l-.155-.089-.08-.04c-.018-.009-.055-.024-.081-.037.442-.288.3.039.3-.45a.833.833,0,0,1,.091.053l.3.177c.584.3.175.093.71.545.021.017.049.037.068.053s.05.035.068.049l.2.166c.258.361-.239-.465.077.215.251.542,1,.526,1.412.379l1.561-.848a7.142,7.142,0,0,0-.286-1.738c.43.437-.169.2.475.443C4151.836,825.921,4151.936,826.253,4151.742,825.811Z" transform="translate(-4080.061 -643.894)" fill="#fddc1d" fill-rule="evenodd"/>
      <path id="路径_3062" data-name="路径 3062" d="M4180.751,809.339c.32.245.037-.276.581.4l-.576.142.151.639a1.43,1.43,0,0,0,.751.63l.53-.582c.013-.052.049-.055.074-.083.142.341-.039.284.12.078.139-.18.005.024.121-.319.022.031.053.039.066.092l.215.241c.068.073.617.039.226.437-.274.279-.083-.137-.628-.047a2.524,2.524,0,0,1-.213.723c.509.669.454.117.454,1.2a4.335,4.335,0,0,1-1.6-.435c.016-.955-.084.012.326-.771-.8-.117.185-.1-.555-.148-.015.024-.041.034-.044.073-.014.13-.184.038.02.627.145.416.244.422.045.813-.333-.107-.086.087-.723-.607l.291.344c-.023.038-.059.047-.074.115l-.2.281c-.012.013-.04.04-.051.05l-.062.04c-.206.107-.049.012-.025-.019-.07.725.266.551.85,1.009a.948.948,0,0,1,.088.076c-.026.015-.068.007-.08.043-.047.156-.2.165-.4.163L4180,814.3c.058.2.166.33-.171.51-.035.019-.3.078-.373.1l-.339.144c-.218-.405.073-.408-.569-.84l.319-.126c.024-.007.066-.014.091-.02.674-.184.121-.017.526-.456l.142-.121c-.452-.206-.194.069-.5-.362.286-.218.3.081.479.008,0,0,.261-.06-.117-.489-.19-.215-.066-.171-.352-.188-.291.262-.139.349-.184.664-.4-.218.128.17-.227-.25l-.19-.226c.156.315.282.5.12.771-.606-.491.134-.313-.78-.645-.849-.309.087-.091-.667-.69-.151.471-.152.174-.125.683l1.282.651c.418.134.27-.005.853.049-.032.027-.077.025-.093.083-.082.3-.082-.087-.352.448a1.161,1.161,0,0,0-.882-.421c-.365-.044.016-.121-.336-.033-.486.122.209-.419-.287.149l.9.327c-.91.455.09-.715-.159.269-.084.332.053.311-.013.628-.266-.093-.482-.314-.8-.352s-.185.185-.8-.138c-.79-.412-.453.161-1.059-.048-.516-.177.105-.182-.527-.124l.242-.4c-.122-.241-.283-.526-.439-.792l.638.376c.063-.148-.021-.031.107-.22.115-.169.079-.1.2-.2a1.328,1.328,0,0,0,.266.534l.426.51c.646-.491.587-.25.506-.927-.209-.158-.03-.007-.29-.1-.751-.271.585.273-.183-.063-.96-.42-.812-1.255-.946-2.608.417.144.175.129.666.137.079-1.741-.583-1.54-.69-1.584.657-.537-.237-.44.453-.463.2-.007.671.644.8.863.144.246.1.228.078.491.581.049.36.149,1.016.118-.057.38-.5.486.4,1.421.083.085.06.033.171.151l.116.134c.3.38.163.474.913.633.061-.325-.145-.5.163-.734a.312.312,0,0,1,.068-.035l.5.319c.238-.543-.141-.055.1-.4.087-.125.046-.039.109-.072,0,0,.042.006.045-.011s.034,0,.065-.033l-.687-.572c.481-.235.472-.161.706.265C4180.2,809.559,4180.53,810.7,4180.751,809.339Z" transform="translate(-4101.019 -631.01)" fill="#fdd423" fill-rule="evenodd"/>
      <path id="路径_3063" data-name="路径 3063" d="M4154.259,847.778a1.15,1.15,0,0,1,.269-.219l-.119-.749c.922.095-.01-.361,1.342.024.271.077.026-.015.447.043a1.716,1.716,0,0,1,.281.932c.086.583.384.29.369.986l-.911.72-.858-.552c-.011-.015-.03-.045-.038-.059l-.077-.471c.039-.438.159-.281-.6-.4l-.1-.26Zm4.236-.535c-.125-.208.021.152-.212-.295.13.035.385.1.5.142.03.012.055.024.084.036s.056.026.086.04c.227.1-.293-.055.287.133-.085-.885.07-.169-.428-.7-.292-.313-.176-.4-.4-.738-.555.243-.194.42-.892.13l-.182.6-1.069-.656s-.119-.285-.175-.442c-.637.128-.329.139-.8-.3-.417.469-.064-.317-.088.252,0,.024.056.451.06.506-.077-.037-.422-.13-.393-.3.051.055.252-.141.118.322-.124.426.246.139-.284.3-.636,0-.373.182-.5.441-.108.227-.022.1-.161.287-.038.05-.223.254-.3.334l.177.078c.146.094.221,0,.333.365a3.684,3.684,0,0,0-.373.537c-.229.346-.27.315-.491.635.115.551,0,.042.173.383.276.557,0-.345.049.155l.023.229a.9.9,0,0,0,.2.2.992.992,0,0,1,.092.053l.3.177c.584.3.176.093.711.545.021.017.049.037.068.053s.049.034.067.049l.2.166c.258.361-.239-.465.076.215.251.542,1,.526,1.413.379l1.561-.848a7.117,7.117,0,0,0-.286-1.738c.43.437-.169.2.475.443.2-.152.3.18.108-.263a5.948,5.948,0,0,1-.891-1.8l.839.09C4158.554,847.058,4158.655,847.509,4158.5,847.243Z" transform="translate(-4085.115 -658.566)" fill="#fcc413" fill-rule="evenodd"/>
      <path id="路径_3064" data-name="路径 3064" d="M4253.992,829.636c.264.629.378.863-.316,1.206-.982-.233-.858-1.3.316-1.206Zm3.975-3.3c-.042-.012-.17-.051-.216-.061a1.164,1.164,0,0,0-.41-.069c-.208.675-.21.774-.773,1.083s-.451.225-1.06.01c.142,1.7-1.732,1.143-3.265.88l-.254.381c-.5-.2-.144-.343-.437-.185.6.238.126.616.108.9a.251.251,0,0,0,.15.356c.445.169-.034.117.3-.085l.156-.135c.008.462-.055.271.146.614.44.223.492.629.648,1.028a1.566,1.566,0,0,0,.481.712,1,1,0,0,1,.175.217c.475-.292-.145-.274.5-.168a.5.5,0,0,1,.48.348c.4-.1.159.121.377-.2-.021-.022-.05-.054-.062-.068l-.166-.2c-.213-.279.091.144-.123-.187.347.241.162.14.337-.052.086-.094.049-.088.139-.222.328-.484.769-.237.986.543.348-.49-.221-.433-.381-1.421l.754.456.291-.364c.159-.165-.137-.033.276-.205a2.652,2.652,0,0,1,.873-.111l.261-.52c-.877.177-1.5-1.719.239-1.55-.155-.956.383-.62-.079-1.593C4257.819,826.388,4258.433,826.466,4257.967,826.333Z" transform="translate(-4158.732 -644.324)" fill="#fcc41b" fill-rule="evenodd"/>
      <path id="路径_3065" data-name="路径 3065" d="M4150.5,844.809l.487.388c-.765.691-1.1,1.351-2.533,1.34l-.281-.658c-.125.213-.1.468-.207.715a3.515,3.515,0,0,1-1.573-.7c-.7-.437-.641-.422-.98-1.192l.44-.217a2.946,2.946,0,0,0,1.767-1.812,4.07,4.07,0,0,0,.6-1.434,3.358,3.358,0,0,0,.137-.986c0-.45-.133-.786.272-.72a11.46,11.46,0,0,1-.055,1.661,6.6,6.6,0,0,0,.219,1.639A2.677,2.677,0,0,0,4150.5,844.809Z" transform="translate(-4079.126 -654.312)" fill="#ffec1b" fill-rule="evenodd"/>
      <path id="路径_3066" data-name="路径 3066" d="M4190.058,736.831l.465-.016c-.1.764.032,1.3-.788,1.992l-.479-.237c.033.181.173.312.23.507a2.628,2.628,0,0,1-1.236.364,1.274,1.274,0,0,1-1.137-.2l.146-.337a2.2,2.2,0,0,0,.123-1.888,3.04,3.04,0,0,0-.355-1.107,2.5,2.5,0,0,0-.4-.627c-.218-.255-.457-.382-.2-.542a8.485,8.485,0,0,1,.775.971,4.977,4.977,0,0,0,.922.825A2,2,0,0,0,4190.058,736.831Z" transform="translate(-4109.804 -575.726)" fill="#f8a806" fill-rule="evenodd"/>
      <path id="路径_3067" data-name="路径 3067" d="M4100.016,754.9l-.083.327c-.511-.223-.911-.24-1.225-.95l.262-.285c-.133-.014-.252.057-.4.057a1.9,1.9,0,0,1,0-.932c.059-.444.065-.41.369-.749l.205.169a1.594,1.594,0,0,0,1.287.467,2.207,2.207,0,0,0,.841-.024,1.821,1.821,0,0,0,.517-.152c.222-.1.357-.241.416-.026a6.2,6.2,0,0,1-.831.343,3.625,3.625,0,0,0-.759.474A1.449,1.449,0,0,0,4100.016,754.9Z" transform="translate(-4043.949 -588.95)" fill="#f8a806" fill-rule="evenodd"/>
      <path id="路径_3068" data-name="路径 3068" d="M4128.52,780.706l.336.022c-.125.543-.069.939-.709,1.378l-.328-.2c.011.133.1.237.129.381a1.9,1.9,0,0,1-.916.175.921.921,0,0,1-.8-.225l.128-.232a1.593,1.593,0,0,0,.223-1.351,2.214,2.214,0,0,0-.177-.822,1.834,1.834,0,0,0-.245-.48c-.14-.2-.3-.307-.1-.4a6.176,6.176,0,0,1,.49.754,3.6,3.6,0,0,0,.6.659A1.448,1.448,0,0,0,4128.52,780.706Z" transform="translate(-4064.54 -608.878)" fill="#feeb3c" fill-rule="evenodd"/>
      <path id="路径_3069" data-name="路径 3069" d="M4237.267,804.489c.078.663-.3.9-.252,1.458-.229.528-.721.346-.656,1.273-.249-.113-.256-.1-.792.086l-.175.068c.14.5.649,1.016-.246,1.071-.3-.465-.016-.2-.409-.4l-.7.8c-.344-.273-1.27-.109-1.812-.147.212-.393.257-.3.252-.818-.418.219-.521-.042-1.243.339-.023-.615-.114-.553.208-1.015l.347.342c.573-.32.39.1.792-.236a3.263,3.263,0,0,0,.405-.687,14.136,14.136,0,0,0,.968-2.364,5.089,5.089,0,0,0,1.208.312l.361-.442c.524.331.869.109,1.49.192l.126-.335.333.128C4237.206,804.353,4237.354,804.344,4237.267,804.489Z" transform="translate(-4143.468 -627.666)" fill="#ffec2b" fill-rule="evenodd"/>
      <path id="路径_3070" data-name="路径 3070" d="M4162.364,841.828c1.133.288-.175.587.5,1.36.438.5,1.063.792,1.074,1,.027.487-1.437,1.029-1.8,1.164-.818.086-.523-.366-.62-1.006-.508.284-.123-.054-.315.406l-.069.283c0-.015-.006.065-.02.094-.969.3-2.157-1.437-2.34-2.636l.583.138c.628.189.362.118.864-.111a1.413,1.413,0,0,0,.526-.293c.666-.394.528.132.912-.747a2.935,2.935,0,0,1,.549-1.092.537.537,0,0,1,.057.1l.118.324s.017.329.017.344C4162.394,841.376,4162.379,841.624,4162.364,841.828Z" transform="translate(-4089.144 -654.964)" fill="#fff11d" fill-rule="evenodd"/>
      <path id="路径_3071" data-name="路径 3071" d="M4217.1,834.58c.145.712,1.559,1.532,1.618,2.175l.029.208c.167.462.5.56,1,.424-.167.182-.163.1-.594.238l.013.492c-.273-.158-.194-.108-.28-.067a2.3,2.3,0,0,0,.039.81c.146.45-.037-.042.484.516l-.511.686a.878.878,0,0,1-.088.085l-.039-.289c-.087-.48-.095-.507-.39-.723v.481c-.7,0-.119.046-.361-.222.1-.272.039-.315-.026-.562.148-.843-.146.114.475-.6.137-.157-.054-.042.185-.183-.247-.235-.348-.16-.688-.549l-.1-.138a1.142,1.142,0,0,0-1.076-.3c.658,1.146.1.337.449,1.274.007.019.031.051.037.069.068.215.162-.085-.005.243l.149.246c-.249.268.4.164-.481.241-.169-.284-.146-.375-.6-.362v-.6c-.258.018-.035.076-.4-.049-.207-.07-.333-.045-.477-.55-.011-.039-.035-.161-.04-.2-.024-.175-.079,0,0-.288l-.146-.016c-.01,0-.054-.011-.066-.016s-.049-.017-.062-.024l-.411-.4-.068-.078a.8.8,0,0,1-.069-.078l1.228.353c.018-.012.048-.035.069-.048l.073-.044c.025-.014.054-.027.082-.042l.416-.207c-.28-.7-.5-.215-.843-.859a.124.124,0,0,0-.02.057c-.027.256-.314.438-.342.46l-.806-.451a.938.938,0,0,1-.278-.307c.48-.194.713-.183.941-.708-.186-.491-.787-.995-1.056-1.593l.473.027c.3.516.6.56,1.235.763l-.062-.754c.427.569.086,1.921.134,2.344C4216.358,834.952,4216.035,835.617,4217.1,834.58Z" transform="translate(-4130.605 -649.484)" fill="#fee33b" fill-rule="evenodd"/>
      <path id="路径_3072" data-name="路径 3072" d="M4206.038,846.431c-.073.423-.143.233.084.6.109.177,0-.027.172.18a3.237,3.237,0,0,1,.472,1.075l1.066,1.515c.255-.395.157-.167.035-.512.733-.037.6-.076.744-.341.021.707.224.178.252.775.035.737-.112.066-.191.484-.407.388-.882.183-1.4-.042-.358-.767-.318-.138-.562-.637-.414-.842.125-.008-.6-1.026-.164-.232-.119-.281-.341-.4l-.3-.078c-.106-.459-.062-.145.1-.522a9.03,9.03,0,0,1-1.212-.048,1.716,1.716,0,0,1,.088.661c-.28-.151-.137-.243-.57-.338-.055-.012-.17-.021-.35-.055-.283-.054-.046-.086-.16-.037l.12.788c-.24.233-.167.08-.486,0-.167-.043.04-.2-.755.072.219.685.173.059.238.45.055.33.138.231-.164.379h-.113c-.081-.516-.192-.438-.263-.751-.144-.635.379.033.125-1.149l-.36-.114c-.471-.174.416.2-.127-.056-.745-.357.527.062-.218-.121l.367-1.32c.359.174.756.455,1.183.626.5.2,1.006.14,1.166.7l.426-.782c.011-.022.026-.055.037-.078a1.794,1.794,0,0,1,.137-.323c.15.1.221.028.324.654C4205.646,846.7,4205.462,846.6,4206.038,846.431Z" transform="translate(-4121.076 -659.067)" fill="#fde859" fill-rule="evenodd"/>
      <path id="路径_3073" data-name="路径 3073" d="M4302.437,858.4c.012.012-.034.034-.036.036l.036-.036Zm1.084-.482.008-.161c.162-.195.2.187-.008.161Zm1.61-3.527-.267-.1c-.6-.273-.563-.358-.74-.9-.17.406.1.019.2,1.032-.033.012-.083-.014-.1.024l-.84.1-.192.844-.034.241.481-.12c-.009.393-.183.906-.362.6-1.09.9-.3.028-.991,1.16-.154.253-.022.059-.238.165l-.137,1.055-.028.151c.156.143-.373.121.31.121v.723c-.32.129-.131,0-.271.331-.01.022-.069.3-.09.393.453.1.292.108.723-.12.392.584.106.351.723.482-.047-.566-.227-.578-.241-1.205h.6a3.8,3.8,0,0,0-.12,1.205c.648-.343.094.033.428-.424.506-.7.356.076.593-.718.4-1.331.1-.645-.185-1.743-.218-.842-.222-.341-.6-.851.064-.277.12-.573.2-.9.069-.283.07-.087.047-.275-.009-.073,0,0-.045-.131-.006-.019-.067-.107-.081-.145.518-.274.219.033.361-.361.012.015.23.226.241.241.108-.16.241-.35.348-.495.284-.385-.049-.2.389-.349C4305.193,854.409,4305.146,854.367,4305.131,854.393Z" transform="translate(-4196.444 -664.716)" fill="#ffda19" fill-rule="evenodd"/>
      <path id="路径_3074" data-name="路径 3074" d="M4238.389,850.271l.6-.017.567.76.058.058.118.118c.017.016.041.043.058.059l.536.427a.546.546,0,0,1-.6.245l-.081-.015c-.572-.12-.772-.414-1.141-.086-.708.63.183.908.184.909.313.222.936.743.7,1.2-.174.269-.012.071-.079.3l-.133.369c-.465-.236-.113.083-.382-.425l-.4.771c-.434-.544-.51-.134-1.032-.521a4.689,4.689,0,0,0-.86-.648c.19.236.137.046.4.36.359.424.253.108.258.813-.989-.22-.4-.458-1.136-.534l.1-.411.331-.608a4.187,4.187,0,0,1-.487-.845c.483.178.259.248.686.321a5.794,5.794,0,0,0,.144-2.67,2.834,2.834,0,0,1,.206,1.941l.275-.228C4237.828,851.423,4237.473,851.119,4238.389,850.271Z" transform="translate(-4147.049 -662.326)" fill="#fdd40c" fill-rule="evenodd"/>
      <path id="路径_3075" data-name="路径 3075" d="M4278.7,867.976c.276.125.218.065.432.288a4.3,4.3,0,0,0-.225.715.645.645,0,0,0-.641-.034c-.574.22-.333.225-.4.632l-.618-.33a.757.757,0,0,0-.583-.02c-.125.239-.006.146.18.592a1.381,1.381,0,0,0-.967-.188,8.749,8.749,0,0,0,.08-1.368,1.21,1.21,0,0,0-.845-.3c-.491.111-.114-.019-.24.186.225.075.195-.009.591-.047.093.453.2.36.235.632.031.252-.094.279-.044.766-.555-.335,0-.29-.675-.242l-.625-.047c.077.537.593,1.164-.16,1.167-.014-.037-.078-1.914-1.12-1.009a2.311,2.311,0,0,0-.23.243l-.249-.225.024-.45c.369-.242.275.172.451-.449l-.435-.225.5-.227c.236-.1.092.078.262-.17a3.746,3.746,0,0,0,.853-.188,2.374,2.374,0,0,0,.288-.169.806.806,0,0,0,.233-.206l1.479.7c.6.411-.26-.048.288.114l.465.272.225-.507c.091.151.192.254.676.312A.767.767,0,0,0,4278.7,867.976Z" transform="translate(-4174.507 -675.149)" fill="#ffec2b" fill-rule="evenodd"/>
      <path id="路径_3076" data-name="路径 3076" d="M4277.294,804.851c.513.2.468.443.379,1.125-.484-.226.025-.292-.663-.218-.088.654.295.549-.273,1.15-.329-.385-.107-.266-.516-.475a1.026,1.026,0,0,1-.971.756c-.732.091-.885-.2-1.3-.491.071-.412.154-.579.264-1.051.355-.316.242-.485.168-.967.94.077.089-.17.853-.15.175,1.172.8,1.312,1.842,1.036Z" transform="translate(-4175.527 -628.068)" fill="#f8a806" fill-rule="evenodd"/>
      <path id="路径_3077" data-name="路径 3077" d="M4187.849,845.9a1.154,1.154,0,0,1,.269-.219l-.119-.749c.922.1-.01-.361,1.342.024.271.077.026-.016.447.043a1.717,1.717,0,0,1,.281.932c.086.583.384.29.369.986l-.911.721-.858-.552c-.011-.015-.03-.045-.038-.059l-.077-.471c.039-.438.159-.281-.6-.4Z" transform="translate(-4110.955 -658.271)" fill="#f8a806" fill-rule="evenodd"/>
      <path id="路径_3078" data-name="路径 3078" d="M4280.943,800.978a2.852,2.852,0,0,1,.206.962l-.221.714c-1.038.276-1.667.136-1.842-1.036.116-.478.019-.441.287-.785C4280.267,800.515,4280.172,800.637,4280.943,800.978Z" transform="translate(-4179.382 -625.158)" fill="#f9d536" fill-rule="evenodd"/>
      <g id="组_269" data-name="组 269" transform="translate(104.598 146.328)">
        <g id="组_268" data-name="组 268" transform="translate(1.03 16.579)">
          <path id="路径_3079" data-name="路径 3079" d="M4321.016,755.756a12.669,12.669,0,1,0,12.545,12.791A12.669,12.669,0,0,0,4321.016,755.756Zm-.233,24.1a11.427,11.427,0,1,1,11.537-11.316A11.427,11.427,0,0,1,4320.782,779.851Z" transform="translate(-4306.864 -754.396)" fill="#eee0bf"/>
          <path id="路径_3080" data-name="路径 3080" d="M4316.949,750.317a14.029,14.029,0,1,0,13.892,14.164A14.028,14.028,0,0,0,4316.949,750.317Zm-.259,26.7a12.669,12.669,0,1,1,12.791-12.546A12.669,12.669,0,0,1,4316.69,777.013Z" transform="translate(-4302.785 -750.316)" fill="#7b574d"/>
          <line id="直线_139" data-name="直线 139" x2="22.853" y2="0.221" transform="translate(2.602 13.918)" fill="none" stroke="#707070" stroke-miterlimit="10" stroke-width="1"/>
          <line id="直线_140" data-name="直线 140" y1="5.701" x2="22.132" transform="translate(2.963 11.178)" fill="none" stroke="#707070" stroke-miterlimit="10" stroke-width="1"/>
          <line id="直线_141" data-name="直线 141" y1="11.235" x2="19.902" transform="translate(4.078 8.411)" fill="none" stroke="#707070" stroke-miterlimit="10" stroke-width="1"/>
          <line id="直线_142" data-name="直线 142" y1="16.003" x2="16.316" transform="translate(5.871 6.027)" fill="none" stroke="#707070" stroke-miterlimit="10" stroke-width="1"/>
          <line id="直线_143" data-name="直线 143" y1="19.681" x2="11.618" transform="translate(8.22 4.188)" fill="none" stroke="#707070" stroke-miterlimit="10" stroke-width="1"/>
          <line id="直线_144" data-name="直线 144" y1="22.017" x2="6.129" transform="translate(10.964 3.02)" fill="none" stroke="#707070" stroke-miterlimit="10" stroke-width="1"/>
          <line id="直线_145" data-name="直线 145" y1="22.853" x2="0.221" transform="translate(13.918 2.602)" fill="none" stroke="#707070" stroke-miterlimit="10" stroke-width="1"/>
          <line id="直线_146" data-name="直线 146" x1="5.701" y1="22.132" transform="translate(11.178 2.963)" fill="none" stroke="#707070" stroke-miterlimit="10" stroke-width="1"/>
          <line id="直线_147" data-name="直线 147" x1="11.235" y1="19.902" transform="translate(8.411 4.078)" fill="none" stroke="#707070" stroke-miterlimit="10" stroke-width="1"/>
          <line id="直线_148" data-name="直线 148" x1="16.003" y1="16.316" transform="translate(6.027 5.871)" fill="none" stroke="#707070" stroke-miterlimit="10" stroke-width="1"/>
          <line id="直线_149" data-name="直线 149" x1="19.681" y1="11.618" transform="translate(4.188 8.22)" fill="none" stroke="#707070" stroke-miterlimit="10" stroke-width="1"/>
          <line id="直线_150" data-name="直线 150" x1="22.017" y1="6.129" transform="translate(3.02 10.964)" fill="none" stroke="#707070" stroke-miterlimit="10" stroke-width="1"/>
          <line id="直线_151" data-name="直线 151" x2="22.853" y2="0.221" transform="translate(2.602 13.918)" fill="none" stroke="#707070" stroke-miterlimit="10" stroke-width="1"/>
          <path id="路径_3081" data-name="路径 3081" d="M4354.941,801.56c.012-.033.109-.062.176-.054,0-.008,0-.016.006-.024-.064-.025-.135-.1-.126-.135s.1-.073.169-.072a.2.2,0,0,1,0-.024c-.066-.019-.146-.079-.141-.119s.064-.077.132-.084c-.048.008-.014-.032-.013-.04-.068-.011-.111-.054-.113-.1s.082-.095.149-.108a.207.207,0,0,1,0-.025c-.069,0-.13-.043-.135-.084a.155.155,0,0,1,.105-.126.136.136,0,0,1-.005-.023c-.068.006-.166-.026-.175-.064s.042-.115.1-.144c0-.007.012-.012.01-.02-.067.014-.167-.007-.181-.044a.094.094,0,0,1,.049-.118l-.021-.041a.087.087,0,0,1-.119-.041c-.016-.031.017-.1.071-.145,0-.007-.03-.01-.034-.017a.123.123,0,0,1-.149-.026c-.02-.029.018-.124.067-.172a.139.139,0,0,0-.015-.019c-.059.036-.16.049-.185.018s-.012-.1.031-.15c-.006-.007-.016-.028-.021-.033-.054.043-.132.055-.163.026s-.037-.067,0-.125c-.007-.005-.033,0-.04-.008-.049.048-.1.018-.129-.006a.131.131,0,0,1-.011-.15c-.007,0-.024,0-.031,0a.111.111,0,0,1-.141.035c-.031-.018-.04-.119-.016-.185l-.023-.01a.162.162,0,0,1-.156.075.113.113,0,0,1-.047-.132c-.008,0-.012-.013-.02-.015-.03.061-.1.109-.141.1a.112.112,0,0,1-.063-.124c-.008,0-.029-.017-.037-.02-.023.064-.073.1-.113.093s-.065-.078-.065-.146c-.011,0-.023.02-.034.019a.109.109,0,0,1-.12.078c-.035,0-.094-.065-.1-.133h-.024c-.007.068-.058.154-.1.156s-.1-.077-.114-.143l-.024,0c0,.068-.039.161-.079.166s-.1-.065-.129-.129l-.024.005c.007.068-.02.163-.06.174s-.11-.053-.144-.113l-.022.009c.015.066,0,.163-.04.179s-.115-.04-.154-.1l-.022.01c.022.064.017.164-.019.182s-.12-.026-.164-.078l-.021.014c.029.062.033.159,0,.182s-.121-.012-.171-.058a.177.177,0,0,1-.02.016c.035.059.051.155.022.181s-.121,0-.177-.037l-.017.018c.041.053.068.147.042.176s-.12.016-.18-.016l-.015.019c.047.049.083.139.061.17s-.116.029-.18,0l-.013.021c.052.043.1.128.08.161s-.112.043-.176.024a.184.184,0,0,0-.011.023c.057.037.112.116.1.152s-.106.055-.173.044c0,.008,0,.018-.008.025.06.031.124.1.113.139s-.1.065-.166.065c0,.008,0,.017,0,.025.063.023.134.086.127.124s-.089.076-.157.082c0,.01,0,.02,0,.028.065.017.143.071.142.109s-.081.087-.147.1c0,.01,0,.018,0,.027.067.009.15.054.153.091s-.07.1-.134.117c0,.008,0,.018,0,.026.067,0,.154.036.161.074s-.058.1-.119.13c0,.008,0,.018.006.027.067-.007.158.019.169.056s-.046.107-.1.143c0,.009.005.017.009.026.066-.016.158,0,.174.035s-.033.111-.086.154l.013.022c.064-.021.157-.017.176.016s-.021.115-.069.163c.006.007.01.015.016.023.061-.029.153-.035.175-.005s-.006.117-.049.17l.018.021c.058-.036.148-.053.175-.025s.006.116-.029.173l.02.018c.052-.041.142-.069.171-.044s.019.115-.01.177a.167.167,0,0,1,.022.015c.046-.047.1-.073.133-.052a.169.169,0,0,1,.042.165l.022.014a.109.109,0,0,1,.136-.034c.03.016.088.037.073.1.008,0,0,.029,0,.033.036-.058.111-.115.146-.1a.113.113,0,0,1,.058.125c0,.007.035-.011.042-.008a.088.088,0,0,1,.111-.055c.032.008.068.1.068.163l.024.006h0a.112.112,0,0,1,.11-.087.127.127,0,0,1,.1.111h.028c.014-.066.066-.145.1-.144a.107.107,0,0,1,.1.092c.009,0,.039-.007.041.021.007-.067.042-.122.081-.124s.1.068.12.131c.009,0,.019-.032.027-.032a.131.131,0,0,1,.081-.131c.033-.006.093.052.122.112a.155.155,0,0,0,.025-.007c-.011-.067.012-.16.049-.173s.112.046.148.1l.024-.01c-.017-.067-.005-.161.03-.178s.117.032.16.086l.021-.012c-.024-.062-.023-.16.01-.181s.105.013.154.062c-.014-.013.01-.028.016-.032a.141.141,0,0,1,.007-.158c.026-.021.122.005.175.048l.019-.018a.144.144,0,0,1-.012-.16.154.154,0,0,1,.16.01l.016-.018c-.044-.05-.077-.145-.052-.176a.128.128,0,0,1,.148-.023c0-.006.028-.016.034-.024-.051-.044-.08-.1-.058-.133a.134.134,0,0,1,.151-.029c0-.008-.006-.036,0-.044-.056-.038-.064-.085-.048-.12s.114-.049.181-.034a.2.2,0,0,0,.008-.022C4354.992,801.676,4354.929,801.6,4354.941,801.56Zm-3.091-1.219a1.68,1.68,0,0,1,.248-.321h0l0,0,0,0a1.723,1.723,0,0,1,.323-.248c.208-.122.291.129.291.129s.031.136.087.447a.3.3,0,0,1-.383.383c-.308-.056-.444-.089-.444-.089S4351.728,800.551,4351.85,800.342Zm.8,1.178c-.137.285-.2.407-.2.407s-.148.219-.316.047a1.691,1.691,0,0,1-.243-.325h0l0,0s0,0,0,0h0a1.686,1.686,0,0,1-.152-.378c-.062-.234.2-.249.2-.249s.141.005.453.033a.3.3,0,0,1,.266.471Zm.465-1.687s.006-.265.241-.212a1.654,1.654,0,0,1,.38.14h0l0,0h0v0a1.6,1.6,0,0,1,.332.233c.178.162-.034.318-.034.318s-.12.071-.4.219a.3.3,0,0,1-.479-.251C4353.125,799.974,4353.114,799.833,4353.114,799.833Zm.643,2.342a1.667,1.667,0,0,1-.387.121,0,0,0,0,1,0,0h-.005a1.643,1.643,0,0,1-.4.017c-.239-.02-.165-.272-.165-.272s.052-.131.184-.416a.3.3,0,0,1,.532-.094c.219.223.313.327.313.327S4353.975,802.074,4353.756,802.175Zm.723-.963a1.737,1.737,0,0,1-.111.391c-.1.221-.312.071-.312.071s-.106-.091-.334-.307a.3.3,0,0,1,.08-.536c.281-.14.409-.2.409-.2s.251-.08.277.16a1.729,1.729,0,0,1-.008.407v.008Z" transform="translate(-4338.99 -786.75)" fill="url(#linear-gradient-2)"/>
        </g>
        <path id="路径_3082" data-name="路径 3082" d="M4313.966,742.2a15.868,15.868,0,0,0-15.3,10.136l1.271.012a15.112,15.112,0,0,1,28.486,9.685l1.227.012a17.191,17.191,0,0,0,.333-3.384A15.905,15.905,0,0,0,4313.966,742.2Z" transform="translate(-4298.666 -727.65)" fill="#6f1419"/>
        <path id="路径_3083" data-name="路径 3083" d="M4495.844,748.4c-5.071,4.974-6.444,11.752-3.8,17.91l.918-.9a15.111,15.111,0,0,1,26.99-13.294l.819-.948a11.359,11.359,0,0,0-1.743-2.144C4512.554,742.428,4502.44,741.932,4495.844,748.4Z" transform="translate(-4442.711 -728.853)" fill="#6f1419"/>
        <path id="路径_3084" data-name="路径 3084" d="M4518.579,757.67a12.669,12.669,0,1,0,12.545,12.791A12.669,12.669,0,0,0,4518.579,757.67Zm-.233,24.095a11.427,11.427,0,1,1,11.537-11.316A11.427,11.427,0,0,1,4518.346,781.765Z" transform="translate(-4454.007 -739.252)" fill="#eee0bf"/>
        <path id="路径_3085" data-name="路径 3085" d="M4514.512,752.23a14.029,14.029,0,1,0,13.892,14.164A14.029,14.029,0,0,0,4514.512,752.23Zm-.259,26.7a12.669,12.669,0,1,1,12.791-12.546A12.668,12.668,0,0,1,4514.253,778.927Z" transform="translate(-4449.927 -735.172)" fill="#7b574d"/>
        <line id="直线_152" data-name="直线 152" x2="22.853" y2="0.221" transform="translate(53.022 30.976)" fill="none" stroke="#707070" stroke-miterlimit="10" stroke-width="1"/>
        <line id="直线_153" data-name="直线 153" y1="5.701" x2="22.132" transform="translate(53.383 28.236)" fill="none" stroke="#707070" stroke-miterlimit="10" stroke-width="1"/>
        <line id="直线_154" data-name="直线 154" y1="11.235" x2="19.902" transform="translate(54.498 25.469)" fill="none" stroke="#707070" stroke-miterlimit="10" stroke-width="1"/>
        <line id="直线_155" data-name="直线 155" y1="16.003" x2="16.316" transform="translate(56.291 23.085)" fill="none" stroke="#707070" stroke-miterlimit="10" stroke-width="1"/>
        <line id="直线_156" data-name="直线 156" y1="19.681" x2="11.618" transform="translate(58.64 21.246)" fill="none" stroke="#707070" stroke-miterlimit="10" stroke-width="1"/>
        <line id="直线_157" data-name="直线 157" y1="22.017" x2="6.129" transform="translate(61.385 20.078)" fill="none" stroke="#707070" stroke-miterlimit="10" stroke-width="1"/>
        <line id="直线_158" data-name="直线 158" y1="22.853" x2="0.221" transform="translate(64.338 19.66)" fill="none" stroke="#707070" stroke-miterlimit="10" stroke-width="1"/>
        <line id="直线_159" data-name="直线 159" x1="5.701" y1="22.132" transform="translate(61.599 20.021)" fill="none" stroke="#707070" stroke-miterlimit="10" stroke-width="1"/>
        <line id="直线_160" data-name="直线 160" x1="11.235" y1="19.902" transform="translate(58.832 21.135)" fill="none" stroke="#707070" stroke-miterlimit="10" stroke-width="1"/>
        <line id="直线_161" data-name="直线 161" x1="16.003" y1="16.316" transform="translate(56.448 22.928)" fill="none" stroke="#707070" stroke-miterlimit="10" stroke-width="1"/>
        <line id="直线_162" data-name="直线 162" x1="19.681" y1="11.618" transform="translate(54.609 25.277)" fill="none" stroke="#707070" stroke-miterlimit="10" stroke-width="1"/>
        <line id="直线_163" data-name="直线 163" x1="22.017" y1="6.129" transform="translate(53.44 28.022)" fill="none" stroke="#707070" stroke-miterlimit="10" stroke-width="1"/>
        <line id="直线_164" data-name="直线 164" x2="22.853" y2="0.221" transform="translate(53.022 30.976)" fill="none" stroke="#707070" stroke-miterlimit="10" stroke-width="1"/>
        <rect id="矩形_118" data-name="矩形 118" width="22.219" height="0.701" transform="matrix(0.871, -0.492, 0.492, 0.871, 14.523, 30.586)" fill="#6f1419"/>
        <rect id="矩形_119" data-name="矩形 119" width="15.911" height="0.701" transform="translate(1.389 22.741) rotate(30.555)" fill="#6f1419"/>
        <rect id="矩形_120" data-name="矩形 120" width="22.219" height="0.701" transform="matrix(0.977, 0.215, -0.215, 0.977, 14.577, 30.603)" fill="#6f1419"/>
        <path id="路径_3086" data-name="路径 3086" d="M4467.657,720.836l-25.138,26.671-.536-.451,25.138-26.671Z" transform="translate(-4406.154 -711.288)" fill="#6f1419"/>
        <rect id="矩形_121" data-name="矩形 121" width="26.934" height="0.701" transform="translate(32.98 9.281) rotate(82.039)" fill="#6f1419"/>
        <rect id="矩形_122" data-name="矩形 122" width="26.368" height="0.701" transform="translate(61.015 5.217) rotate(82.039)" fill="#6f1419"/>
        <rect id="矩形_123" data-name="矩形 123" width="21.109" height="0.701" transform="translate(54.5 16.961) rotate(-179.445)" fill="#6f1419"/>
        <rect id="矩形_124" data-name="矩形 124" width="11.21" height="0.701" transform="matrix(0.921, -0.39, 0.39, 0.921, 50.422, 8.948)" fill="#6f1419"/>
        <rect id="矩形_125" data-name="矩形 125" width="11.21" height="0.701" transform="translate(60.456 5.213) rotate(-155.923)" fill="#6f1419"/>
        <path id="路径_3087" data-name="路径 3087" d="M4408.385,709.759a2.4,2.4,0,0,0,2.568,2,68.268,68.268,0,0,0,7.89-.807s.448-1.706-2.517-2.006-6.43-.248-7.537-.739S4408.385,709.759,4408.385,709.759Z" transform="translate(-4380.791 -702.099)" fill="#6f1419"/>
        <path id="路径_3088" data-name="路径 3088" d="M4438.155,811.54c.021-.06.2-.115.324-.1,0-.015.008-.029.011-.044-.117-.046-.247-.175-.231-.248s.185-.134.311-.133a.33.33,0,0,1,.006-.044c-.121-.034-.267-.145-.259-.219s.119-.141.243-.155c-.089.014-.026-.059-.024-.074-.125-.02-.205-.1-.207-.174s.151-.174.274-.2c0-.015,0-.03,0-.045-.126,0-.238-.079-.248-.155a.287.287,0,0,1,.193-.232.253.253,0,0,1-.008-.043c-.126.01-.3-.048-.322-.118s.078-.211.192-.264c-.006-.013.022-.022.018-.037-.123.025-.307-.013-.332-.081a.172.172,0,0,1,.09-.216l-.038-.076a.16.16,0,0,1-.219-.074c-.03-.057.031-.187.131-.266-.009-.013-.056-.018-.064-.031a.227.227,0,0,1-.274-.048c-.036-.055.034-.229.124-.317a.278.278,0,0,0-.027-.036c-.108.066-.293.09-.34.034s-.021-.181.057-.276c-.01-.013-.028-.051-.04-.061-.1.078-.243.1-.3.048s-.067-.123,0-.229c-.012-.01-.06-.006-.072-.014-.09.089-.178.034-.239-.011a.242.242,0,0,1-.019-.276c-.014-.007-.044,0-.057-.006a.205.205,0,0,1-.26.064c-.056-.033-.073-.219-.03-.34-.013-.007-.027-.011-.041-.019a.3.3,0,0,1-.287.138.209.209,0,0,1-.087-.241c-.014,0-.021-.023-.034-.028-.057.113-.188.2-.258.177a.205.205,0,0,1-.117-.227c-.014,0-.053-.032-.067-.037-.042.118-.133.185-.206.171s-.12-.144-.121-.269c-.021,0-.043.037-.062.035a.2.2,0,0,1-.221.142c-.064,0-.171-.12-.189-.244-.015,0-.03,0-.045,0-.014.124-.105.283-.179.287s-.179-.141-.209-.264l-.045,0c0,.125-.071.3-.145.305s-.192-.119-.238-.237a.328.328,0,0,0-.044.01c.013.124-.037.3-.109.318s-.2-.1-.263-.207a.208.208,0,0,0-.042.016c.026.122-.006.3-.073.328s-.212-.073-.284-.176c-.014.007-.028.012-.041.019.041.117.03.3-.035.335s-.219-.048-.3-.143c-.014.008-.026.018-.039.026.053.113.062.292,0,.333s-.22-.021-.313-.106a.34.34,0,0,1-.036.029c.064.109.094.284.04.331s-.222,0-.324-.068l-.032.032c.076.1.125.269.077.323s-.22.03-.33-.03c-.01.011-.019.024-.027.035.085.09.153.255.112.312s-.212.054-.33.009a.432.432,0,0,0-.024.039c.1.079.181.234.146.3s-.207.078-.325.045a.424.424,0,0,0-.021.042c.1.068.206.213.18.278s-.194.1-.317.081c-.006.015-.009.032-.014.046.11.057.227.185.207.255s-.181.12-.3.118c0,.015-.007.032-.01.047.116.043.246.158.234.228s-.164.14-.289.15a.5.5,0,0,1,0,.05c.12.031.262.129.259.2s-.148.159-.27.182c0,.018,0,.032,0,.051.123.016.276.1.28.167s-.129.176-.247.214c0,.015.005.033.008.048.123,0,.283.067.294.136s-.105.188-.218.238c0,.015.007.033.011.048.124-.013.289.035.311.1s-.085.2-.191.262c.005.016.01.031.017.047.121-.028.29,0,.318.064s-.061.2-.158.283l.023.042c.117-.038.288-.031.322.029s-.037.21-.126.3c.011.013.019.029.03.042.111-.054.28-.065.322-.01s-.012.216-.09.311l.033.039c.1-.065.272-.1.32-.045s.012.212-.054.318c.013.01.024.023.036.034.1-.076.259-.126.313-.082s.035.212-.019.325a.381.381,0,0,1,.042.028c.085-.085.186-.135.244-.1a.31.31,0,0,1,.077.3c.014.007.028.018.042.026a.2.2,0,0,1,.249-.062c.055.03.162.068.134.19.015.007-.009.052.007.06.064-.106.2-.21.269-.185a.208.208,0,0,1,.105.228c.009.013.063-.02.077-.015a.16.16,0,0,1,.2-.1c.059.015.125.177.125.3.015,0,.027.006.044.011h0a.206.206,0,0,1,.2-.159.236.236,0,0,1,.178.2c.018,0,.034,0,.051,0,.025-.122.121-.266.19-.265a.2.2,0,0,1,.18.168c.015,0,.071-.013.074.038.012-.124.077-.224.148-.228s.178.124.219.241c.017,0,.035-.058.051-.059a.24.24,0,0,1,.148-.24c.061-.011.17.1.224.205a.317.317,0,0,0,.046-.013c-.02-.124.023-.295.09-.317s.205.084.271.19a.313.313,0,0,1,.043-.019c-.031-.122-.009-.3.055-.327s.213.059.292.157l.04-.023c-.044-.115-.042-.293.018-.331s.194.024.282.114c-.026-.024.019-.051.03-.059a.257.257,0,0,1,.012-.29c.049-.039.224.01.32.089l.035-.032a.262.262,0,0,1-.021-.294.281.281,0,0,1,.292.017l.03-.032c-.082-.092-.142-.265-.1-.323a.236.236,0,0,1,.272-.042c.008-.011.052-.03.062-.044-.094-.082-.146-.182-.105-.244a.245.245,0,0,1,.277-.053c.006-.014-.011-.066,0-.08-.1-.071-.118-.156-.087-.221s.209-.09.332-.062a.405.405,0,0,0,.016-.04C4438.248,811.752,4438.132,811.609,4438.155,811.54Zm-5.673-2.236a3.131,3.131,0,0,1,.456-.589h0a.021.021,0,0,1,0-.005l0-.005a3.2,3.2,0,0,1,.592-.456c.381-.223.535.237.535.237s.058.25.159.82a.556.556,0,0,1-.7.7c-.565-.1-.816-.163-.816-.163S4432.259,809.687,4432.482,809.3Zm1.467,2.161c-.25.523-.373.747-.373.747s-.271.4-.581.085a3.166,3.166,0,0,1-.446-.6h0s0,0,0-.006a.005.005,0,0,0,0-.006h0a3.068,3.068,0,0,1-.28-.694c-.114-.428.368-.456.368-.456s.258.01.831.061a.556.556,0,0,1,.489.865Zm.853-3.094s.011-.486.441-.389a3.053,3.053,0,0,1,.7.258v0s0,0,.007.007h.007v0a2.932,2.932,0,0,1,.609.427c.328.3-.062.585-.062.585s-.221.131-.729.4a.555.555,0,0,1-.88-.462C4434.821,808.628,4434.8,808.37,4434.8,808.37Zm1.178,4.3a3.054,3.054,0,0,1-.709.223.008.008,0,0,1-.008,0s-.006,0-.01,0a2.988,2.988,0,0,1-.742.032c-.439-.036-.3-.5-.3-.5s.1-.24.337-.763a.551.551,0,0,1,.977-.173c.4.41.575.6.575.6S4436.381,812.482,4435.98,812.667Zm1.326-1.767a3.186,3.186,0,0,1-.205.718c-.174.406-.57.131-.57.131s-.2-.167-.613-.563a.555.555,0,0,1,.147-.983c.516-.256.751-.358.751-.358s.46-.146.508.294a3.2,3.2,0,0,1-.015.747.023.023,0,0,1,0,.006v.009Z" transform="translate(-4397.938 -775.986)" fill="url(#linear-gradient-3)"/>
        <path id="路径_3089" data-name="路径 3089" d="M4352.214,802.767a1.74,1.74,0,0,1,1.116-2.712,2.829,2.829,0,0,1,1.062.044c2.2.412,19.6,1.989,21.746,2.146a1.489,1.489,0,0,1,.462.108,3.338,3.338,0,0,1,1.376,5.135l-.042.049a3.748,3.748,0,0,1-3.688,1.152l-20.928-5.1A2.136,2.136,0,0,1,4352.214,802.767Z" transform="translate(-4338.595 -771.017)" fill="none" stroke="#707070" stroke-miterlimit="10" stroke-width="1"/>
      </g>
    </g>
  </g>
</svg>
