<?xml version="1.0" standalone="no"?><!DOCTYPE svg PUBLIC "-//W3C//DTD SVG 1.1//EN" "http://www.w3.org/Graphics/SVG/1.1/DTD/svg11.dtd"><svg height="200" node-id="1" sillyvg="true" template-height="200" template-width="200" version="1.1" viewBox="0 0 200 200" width="200" xmlns="http://www.w3.org/2000/svg" xmlns:xlink="http://www.w3.org/1999/xlink"><defs node-id="105"><linearGradient gradientUnits="objectBoundingBox" id="linear-gradient" node-id="5" spreadMethod="pad" x1="0.49999997" x2="0.49999997" y1="-0.07299999" y2="1.0729998"><stop offset="0" stop-color="#052139"></stop><stop offset="0.215" stop-color="#1b405d"></stop><stop offset="0.34" stop-color="#254e6d"></stop><stop offset="0.749" stop-color="#6594b7"></stop><stop offset="1" stop-color="#89bce1"></stop></linearGradient><linearGradient gradientUnits="objectBoundingBox" id="linear-gradient-2" node-id="11" spreadMethod="pad" x1="0.5" x2="0.5" y1="1.086" y2="0.372"><stop offset="0.349" stop-color="#fffdf7"></stop><stop offset="1" stop-color="#abbfd7"></stop></linearGradient><linearGradient gradientUnits="objectBoundingBox" id="linear-gradient-3" node-id="14" spreadMethod="pad" x1="0.279" x2="0.688" y1="0.931" y2="0.364"><stop offset="0" stop-color="#c5d6d5"></stop><stop offset="1" stop-color="#9ecee6"></stop></linearGradient><linearGradient gradientUnits="objectBoundingBox" id="linear-gradient-4" node-id="17" spreadMethod="pad" x1="0.276" x2="0.913" y1="0.711" y2="0.127"><stop offset="0" stop-color="#c5d6d5"></stop><stop offset="1" stop-color="#a0c2de"></stop></linearGradient><linearGradient gradientUnits="objectBoundingBox" id="linear-gradient-5" node-id="20" spreadMethod="pad" x1="0.273" x2="0.802" y1="1.38" y2="-0.084"><stop offset="0" stop-color="#c5d6d5"></stop><stop offset="1" stop-color="#a0c2de"></stop></linearGradient><linearGradient gradientUnits="objectBoundingBox" id="linear-gradient-6" node-id="21" spreadMethod="pad" x1="0.307" x2="0.926" y1="0.93" y2="0.216"><stop offset="0" stop-color="#c5d6d5"></stop><stop offset="1" stop-color="#a0c2de"></stop></linearGradient><linearGradient gradientUnits="objectBoundingBox" id="linear-gradient-7" node-id="22" spreadMethod="pad" x1="0.379" x2="0.703" y1="0.257" y2="1.019"><stop offset="0.22" stop-color="#fbfcf4"></stop><stop offset="0.753" stop-color="#e7e9e7"></stop></linearGradient><linearGradient gradientUnits="objectBoundingBox" id="linear-gradient-8" node-id="25" spreadMethod="pad" x1="0.395" x2="0.64" y1="0.697" y2="0.266"><stop offset="0" stop-color="#c5d6d5"></stop><stop offset="1" stop-color="#a0c2de"></stop></linearGradient><linearGradient gradientUnits="objectBoundingBox" id="linear-gradient-9" node-id="26" spreadMethod="pad" x1="0.217" x2="0.994" y1="0.976" y2="0.272"><stop offset="0" stop-color="#c5d6d5"></stop><stop offset="1" stop-color="#9ecee6"></stop></linearGradient><linearGradient gradientUnits="objectBoundingBox" id="linear-gradient-10" node-id="27" spreadMethod="pad" x1="0.307" x2="0.623" y1="0.318" y2="0.934"><stop offset="0.22" stop-color="#fbfcf4"></stop><stop offset="0.753" stop-color="#cad9e1"></stop></linearGradient><linearGradient gradientUnits="objectBoundingBox" id="linear-gradient-11" node-id="30" spreadMethod="pad" x1="0.29" x2="0.774" y1="1.076" y2="0.11"><stop offset="0" stop-color="#c5d6d5"></stop><stop offset="1" stop-color="#a0c2de"></stop></linearGradient><linearGradient gradientUnits="objectBoundingBox" id="linear-gradient-12" node-id="31" spreadMethod="pad" x1="0.29" x2="0.782" y1="1.096" y2="-0.071"><stop offset="0" stop-color="#c5d6d5"></stop><stop offset="1" stop-color="#a0c2de"></stop></linearGradient><linearGradient gradientUnits="objectBoundingBox" id="linear-gradient-13" node-id="32" spreadMethod="pad" x1="0.69" x2="0.448" y1="0.766" y2="0.19"><stop offset="0" stop-color="#7292aa"></stop><stop offset="1" stop-color="#bdcfe0"></stop></linearGradient><linearGradient gradientUnits="objectBoundingBox" id="linear-gradient-14" node-id="35" spreadMethod="pad" x1="0.264" x2="0.951" y1="0.678" y2="0.204"><stop offset="0" stop-color="#c5d6d5"></stop><stop offset="1" stop-color="#a0c2de"></stop></linearGradient><linearGradient gradientUnits="objectBoundingBox" id="linear-gradient-15" node-id="36" spreadMethod="pad" x1="0.363" x2="0.524" y1="0.317" y2="0.643"><stop offset="0.22" stop-color="#fbfcf4"></stop><stop offset="0.753" stop-color="#e7e9e7"></stop></linearGradient><linearGradient gradientUnits="objectBoundingBox" id="linear-gradient-16" node-id="37" spreadMethod="pad" x1="0.214" x2="1.045" y1="0.973" y2="0.203"><stop offset="0" stop-color="#c5d6d5"></stop><stop offset="1" stop-color="#9ecee6"></stop></linearGradient><linearGradient gradientUnits="objectBoundingBox" id="linear-gradient-17" node-id="38" spreadMethod="pad" x1="0.228" x2="1.076" y1="0.956" y2="0.01"><stop offset="0" stop-color="#c5d6d5"></stop><stop offset="1" stop-color="#a0c2de"></stop></linearGradient><linearGradient gradientUnits="objectBoundingBox" id="linear-gradient-18" node-id="39" spreadMethod="pad" x1="0.3" x2="0.767" y1="1.647" y2="-1.239"><stop offset="0" stop-color="#c5d6d5"></stop><stop offset="1" stop-color="#a0c2de"></stop></linearGradient><linearGradient gradientUnits="objectBoundingBox" id="linear-gradient-19" node-id="40" spreadMethod="pad" x1="0.279" x2="0.773" y1="0.668" y2="0.175"><stop offset="0" stop-color="#c5d6d5"></stop><stop offset="1" stop-color="#a0c2de"></stop></linearGradient><linearGradient gradientUnits="objectBoundingBox" id="linear-gradient-20" node-id="41" spreadMethod="pad" x1="0.425" x2="0.652" y1="0.052" y2="1.002"><stop offset="0.22" stop-color="#fbfcf4"></stop><stop offset="0.753" stop-color="#e7e9e7"></stop></linearGradient><linearGradient gradientUnits="objectBoundingBox" id="linear-gradient-21" node-id="42" spreadMethod="pad" x1="0.269" x2="0.808" y1="1.027" y2="0.142"><stop offset="0" stop-color="#c5d6d5"></stop><stop offset="1" stop-color="#9ecee6"></stop></linearGradient><linearGradient gradientUnits="objectBoundingBox" id="linear-gradient-22" node-id="43" spreadMethod="pad" x1="5.133" x2="5.156" y1="-0.335" y2="1.18"><stop offset="0" stop-color="#fffded"></stop><stop offset="1" stop-color="#a0c2de"></stop></linearGradient><linearGradient gradientUnits="objectBoundingBox" id="linear-gradient-23" node-id="46" spreadMethod="pad" x1="7.735" x2="7.772" y1="-1.391" y2="-0.095"><stop offset="0" stop-color="#fffded"></stop><stop offset="1" stop-color="#a0c2de"></stop></linearGradient><linearGradient gradientUnits="objectBoundingBox" id="linear-gradient-24" node-id="47" spreadMethod="pad" x1="0.429" x2="0.559" y1="-0.184" y2="1.065"><stop offset="0" stop-color="#fffdba"></stop><stop offset="1" stop-color="#eac286"></stop></linearGradient><linearGradient gradientUnits="objectBoundingBox" id="linear-gradient-26" node-id="50" spreadMethod="pad" x1="0.395" x2="0.512" y1="-0.173" y2="1.13"><stop offset="0" stop-color="#fffded"></stop><stop offset="1" stop-color="#a0c2de"></stop></linearGradient><linearGradient gradientUnits="objectBoundingBox" id="linear-gradient-27" node-id="51" spreadMethod="pad" x1="7.545" x2="7.579" y1="-0.945" y2="0.264"><stop offset="0" stop-color="#fffded"></stop><stop offset="1" stop-color="#a0c2de"></stop></linearGradient><clipPath id="clip-path" node-id="3"><path d="M 200.00 100.00 L 199.77 106.67 L 199.14 113.15 L 198.11 119.45 L 196.70 125.60 L 194.90 131.61 L 192.11 138.97 L 188.82 145.99 L 185.02 152.68 L 180.71 159.06 L 175.91 165.10 L 170.71 170.71 L 165.10 175.91 L 159.06 180.71 L 152.68 185.02 L 145.99 188.82 L 138.97 192.11 L 131.61 194.90 L 125.60 196.70 L 119.45 198.11 L 113.15 199.14 L 106.67 199.77 L 100.00 200.00 L 93.33 199.77 L 86.85 199.14 L 80.55 198.11 L 74.40 196.70 L 68.39 194.90 L 61.03 192.11 L 54.01 188.82 L 47.32 185.02 L 40.94 180.71 L 34.90 175.91 L 29.29 170.71 L 24.09 165.10 L 19.29 159.06 L 14.98 152.68 L 11.18 145.99 L 7.89 138.97 L 5.10 131.61 L 3.30 125.60 L 1.89 119.45 L 0.86 113.15 L 0.23 106.67 L 0.00 100.00 L 0.23 93.33 L 0.86 86.85 L 1.89 80.55 L 3.30 74.40 L 5.10 68.39 L 7.89 61.03 L 11.18 54.01 L 14.98 47.32 L 19.29 40.94 L 24.09 34.90 L 29.29 29.29 L 34.90 24.09 L 40.94 19.29 L 47.32 14.98 L 54.01 11.18 L 61.03 7.89 L 68.39 5.10 L 74.40 3.30 L 80.55 1.89 L 86.85 0.86 L 93.33 0.23 L 100.00 0.00 L 106.67 0.23 L 113.15 0.86 L 119.45 1.89 L 125.60 3.30 L 131.61 5.10 L 138.97 7.89 L 145.99 11.18 L 152.68 14.98 L 159.06 19.29 L 165.10 24.09 L 170.71 29.29 L 175.91 34.90 L 180.71 40.94 L 185.02 47.32 L 188.82 54.01 L 192.11 61.03 L 194.90 68.39 L 196.70 74.40 L 198.11 80.55 L 199.14 86.85 L 199.77 93.33 L 200.00 100.00 Z" fill="#000000" fill-rule="nonzero" id="椭圆_150" node-id="4" stroke="none" target-height="200" target-width="200" target-x="0" target-y="0"></path></clipPath></defs><g node-id="268"><g clip-path="url(#clip-path)" group-id="1" id="组_284" node-id="53"><path d="M 19.08 -30.40 L 222.18 4.51 L 185.20 219.63 L -17.90 184.72 Z" fill="url(#linear-gradient)" fill-rule="nonzero" group-id="1,2" id="矩形_131" node-id="54" stroke="none" target-height="250.0301" target-width="240.07825" target-x="-17.898272" target-y="-30.399"></path><text align="center" editable="true" ellipsis="false" fill="#ffffff" flags="1" font-family="'Noto Sans CJK SC'" font-size="8" font-stretch="normal" font-style="normal" font-weight="400" group-id="1" height="11.84" id="立冬_" letter-spacing="0" node-id="58" stroke="none" target-x="48.488" target-y="41.039" vertical-align="center" width="24" x="48.488" xml:space="preserve" y="50.319">立冬。</text><path d="M 46.73 40.08 L 44.56 40.08 L 44.56 40.08 L 43.81 40.08 L 43.81 43.00 L 44.56 43.00 L 44.56 40.83 L 46.73 40.83 Z" fill="#ffffff" fill-rule="nonzero" group-id="1,3" id="路径_3131" node-id="61" stroke="none" target-height="2.9169922" target-width="2.9179993" target-x="43.807007" target-y="40.083008"></path><path d="M 220.01 127.96 L 215.13 129.10 L 211.19 127.46 L 205.08 124.69 L 199.80 122.18 L 195.67 122.55 L 193.85 121.21 L 192.55 120.60 L 188.27 121.71 L 180.57 117.84 L 175.99 114.57 L 171.05 119.70 L 167.26 123.06 L 159.27 118.39 L 154.36 115.76 L 147.85 114.72 L 145.81 116.03 L 138.11 113.81 L 129.16 106.48 L 123.88 102.02 L 120.28 106.08 L 115.12 111.03 L 110.61 114.41 L 107.58 114.43 L 94.19 110.43 L 90.39 108.27 L 83.13 102.54 L 80.37 107.16 L 79.35 107.46 L 72.12 104.79 L 55.42 119.26 L 50.60 120.13 L 38.53 116.79 L 34.64 121.91 L 28.34 126.44 L 20.49 125.04 L 10.03 118.02 L 1.91 125.51 L -6.26 130.27 L -18.50 133.37 L -18.50 185.00 L 220.02 185.00 Z" fill="url(#linear-gradient-2)" fill-opacity="0.6" fill-rule="nonzero" group-id="1,4,11,18" id="路径_3132" node-id="64" stroke="none" target-height="82.98486" target-width="238.522" target-x="-18.499008" target-y="102.01514"></path><path d="M 123.88 102.02 L 116.38 109.45 L 107.87 114.30 L 103.34 115.94 L 107.31 118.60 L 114.41 112.71 L 108.69 118.26 L 109.09 120.83 L 113.95 125.17 L 116.26 126.85 L 128.38 117.85 L 117.70 127.67 L 110.29 133.84 L 122.09 130.77 L 113.08 136.54 L 126.38 130.59 L 115.02 137.62 L 128.96 131.13 L 117.38 138.53 L 133.68 131.68 L 124.03 137.62 L 127.03 138.52 L 133.17 134.91 L 135.42 135.21 L 141.73 136.05 L 149.29 133.72 L 144.44 137.08 L 150.68 134.99 L 146.65 138.48 L 151.06 139.64 L 155.60 134.46 L 150.55 129.92 L 137.19 124.64 L 135.43 126.33 L 134.75 128.25 L 131.32 125.00 L 124.48 129.47 L 131.00 123.79 L 130.75 117.59 L 128.37 115.06 L 117.71 124.70 L 127.67 114.31 L 126.17 112.72 L 120.61 117.80 L 125.44 112.01 L 123.27 109.68 L 121.98 107.98 L 116.75 112.24 L 122.38 106.49 L 117.71 109.87 L 122.79 105.00 L 119.40 107.43 L 123.19 103.71 Z" fill="url(#linear-gradient-3)" fill-opacity="0.6" fill-rule="nonzero" group-id="1,4,11,19" id="路径_3133" node-id="65" stroke="none" target-height="37.62207" target-width="52.259033" target-x="103.33801" target-y="102.01611"></path><path d="M 17.01 139.89 L 18.74 134.36 L 14.25 130.53 L 3.72 140.81 L 13.66 129.97 L 13.00 128.24 L 6.62 133.91 L 12.56 127.25 L 11.53 124.97 L 10.50 122.37 L 2.75 128.34 L 8.39 122.59 L 3.72 125.98 L 10.09 120.09 L 5.41 123.54 L 10.05 119.20 L 9.99 118.10 L 2.39 125.55 L -6.12 130.41 L -13.01 133.07 L -3.20 130.62 L -8.36 134.68 L -0.41 129.94 L -5.74 134.84 L -4.89 136.94 L -0.22 141.88 L 3.70 143.63 L 14.39 133.96 L -0.65 149.33 L 13.01 140.65 L 1.55 152.71 Z" fill="url(#linear-gradient-4)" fill-opacity="0.6" fill-rule="nonzero" group-id="1,4,11,20" id="路径_3134" node-id="66" stroke="none" target-height="34.606934" target-width="31.751007" target-x="-13.01001" target-y="118.098145"></path><path d="M 43.57 147.36 L 20.02 139.13 L 24.37 142.49 L 18.05 140.36 L 4.19 152.32 L 17.59 143.56 L 6.72 152.32 L 19.47 145.02 L 9.63 152.32 L 20.98 146.64 L 12.42 152.64 L 23.16 147.87 L 16.40 152.44 L 26.78 148.38 L 19.42 152.84 L 29.80 148.88 L 22.56 153.35 L 33.06 149.80 L 27.63 153.25 Z" fill="url(#linear-gradient-5)" fill-opacity="0.6" fill-rule="nonzero" group-id="1,4,11,21" id="路径_3135" node-id="67" stroke="none" target-height="14.223877" target-width="39.37599" target-x="4.1940002" target-y="139.1272"></path><path d="M 166.53 123.20 L 171.18 119.42 L 175.99 114.57 L 179.09 117.70 L 180.25 122.78 L 173.74 126.48 L 178.85 122.01 L 172.78 125.47 L 178.90 119.28 L 171.24 124.54 L 177.35 118.65 L 168.45 124.14 Z" fill="url(#linear-gradient-6)" fill-opacity="0.6" fill-rule="nonzero" group-id="1,4,11,22" id="路径_3136" node-id="68" stroke="none" target-height="11.906006" target-width="13.718994" target-x="166.53003" target-y="114.56909"></path><path d="M 115.50 116.40 L 120.31 111.20 L 123.92 102.09 L 129.15 106.35 L 130.55 107.09 L 133.68 108.83 L 136.96 110.81 L 138.26 111.74 L 138.78 112.27 L 142.71 113.98 L 146.52 115.98 L 143.49 118.51 L 145.51 119.99 L 147.43 127.38 L 151.16 122.99 L 151.31 118.93 L 147.78 114.71 L 154.42 115.66 L 161.39 119.15 L 172.99 126.33 L 175.77 127.80 L 174.67 128.38 L 157.61 121.62 L 173.74 129.23 L 156.93 125.17 L 172.93 130.71 L 158.77 128.14 L 171.97 132.47 L 179.78 138.78 L 174.22 139.10 L 161.34 133.01 L 172.21 139.51 L 169.55 140.12 L 157.80 133.70 L 167.62 140.73 L 164.08 144.89 L 160.05 143.33 L 162.91 140.91 L 156.35 138.79 L 148.79 140.49 L 146.77 138.37 L 150.80 138.79 L 154.59 134.57 L 153.60 133.60 L 151.11 131.60 L 149.51 130.64 L 147.78 129.92 L 145.76 130.98 L 144.50 134.36 L 143.49 134.36 L 143.43 132.12 L 142.99 129.92 L 140.19 127.68 L 137.19 125.70 L 135.17 127.81 L 131.64 124.43 L 131.53 121.04 L 131.14 117.67 L 129.56 115.69 L 127.07 112.96 L 124.77 110.55 L 123.76 109.51 Z" fill="url(#linear-gradient-7)" fill-opacity="0.6" fill-rule="evenodd" group-id="1,4,11,23" id="路径_3137" node-id="69" stroke="none" target-height="42.796875" target-width="64.276" target-x="115.50305" target-y="102.09009"></path><path d="M 199.18 122.35 L 213.58 131.32 L 209.88 131.93 L 196.68 123.20 L 197.08 122.86 Z" fill="url(#linear-gradient-8)" fill-opacity="0.6" fill-rule="nonzero" group-id="1,4,11,24" id="路径_3138" node-id="70" stroke="none" target-height="9.579102" target-width="16.899902" target-x="196.67908" target-y="122.35303"></path><path d="M 183.07 123.45 L 180.80 125.35 L 177.20 124.89 L 180.50 122.93 L 179.52 117.67 L 176.00 114.57 L 181.29 118.07 L 190.75 121.71 Z" fill="#ecf5ed" fill-opacity="0.6" fill-rule="evenodd" group-id="1,4,11,25" id="路径_3139" node-id="71" stroke="none" target-height="10.783936" target-width="14.752991" target-x="175.99603" target-y="114.56909"></path><path d="M 83.05 102.74 L 85.82 109.40 L 84.70 111.07 L 82.16 110.65 L 84.00 107.90 L 80.97 110.36 L 83.40 107.06 L 79.63 110.23 L 82.91 106.14 L 78.26 110.45 L 80.09 107.84 Z" fill="url(#linear-gradient-9)" fill-opacity="0.6" fill-rule="nonzero" group-id="1,4,11,26" id="路径_3140" node-id="72" stroke="none" target-height="8.329834" target-width="7.5549927" target-x="78.264984" target-y="102.74414"></path><path d="M 78.23 115.39 L 81.12 120.94 L 78.69 129.50 L 80.77 130.11 L 87.17 124.95 L 81.67 130.66 L 89.10 125.38 L 82.70 131.42 L 90.51 126.24 L 84.20 132.52 L 92.23 127.10 L 85.51 133.48 L 92.90 128.59 L 95.75 130.69 L 100.48 131.56 L 104.50 131.12 L 105.33 128.52 L 105.48 127.15 L 102.12 125.71 L 89.66 114.78 L 103.55 124.49 L 108.36 125.67 L 113.92 125.21 L 109.72 120.00 L 109.14 117.72 L 104.68 115.67 L 107.80 114.31 L 94.46 110.18 L 90.92 108.36 L 83.15 102.55 L 86.32 109.45 L 84.90 111.32 L 75.29 109.59 Z" fill="url(#linear-gradient-10)" fill-opacity="0.6" fill-rule="evenodd" group-id="1,4,11,27" id="路径_3141" node-id="73" stroke="none" target-height="30.936035" target-width="38.623962" target-x="75.29401" target-y="102.545166"></path><path d="M 207.02 135.62 L 207.38 134.93 L 201.72 134.59 L 198.19 133.72 L 199.22 131.15 L 195.56 135.29 L 200.57 134.85 L 197.08 136.27 L 202.37 135.43 L 198.67 137.07 Z" fill="url(#linear-gradient-11)" fill-opacity="0.6" fill-rule="nonzero" group-id="1,4,11,28" id="路径_3142" node-id="74" stroke="none" target-height="5.9208984" target-width="11.817993" target-x="195.56104" target-y="131.14917"></path><path d="M 148.79 140.48 L 156.35 138.79 L 162.91 140.90 L 160.70 142.90 L 164.32 144.93 L 157.07 145.33 L 158.76 143.10 L 153.93 144.72 L 158.76 141.47 L 150.07 144.32 L 156.51 140.10 L 149.95 141.58 Z" fill="url(#linear-gradient-12)" fill-opacity="0.6" fill-rule="nonzero" group-id="1,4,11,29" id="路径_3143" node-id="75" stroke="none" target-height="6.5390625" target-width="15.531982" target-x="148.78607" target-y="138.79224"></path><path d="M 143.02 119.66 L 142.48 118.73 L 147.78 114.71 L 151.31 118.94 L 151.31 122.74 L 147.37 127.82 L 145.08 120.92 Z" fill="url(#linear-gradient-13)" fill-opacity="0.6" fill-rule="nonzero" group-id="1,4,11,30" id="路径_3144" node-id="76" stroke="none" target-height="13.106934" target-width="8.825012" target-x="142.482" target-y="114.713135"></path><path d="M 142.90 119.69 L 142.22 118.94 L 147.52 114.93 L 150.80 118.85 L 146.52 123.00 L 151.01 119.36 L 151.05 122.96 L 147.43 127.74 L 145.24 121.23 L 148.94 117.98 L 144.54 120.50 Z" fill="url(#linear-gradient-14)" fill-opacity="0.6" fill-rule="nonzero" group-id="1,4,11,31" id="路径_3145" node-id="77" stroke="none" target-height="12.809814" target-width="8.82605" target-x="142.22498" target-y="114.930176"></path><path d="M 64.34 117.27 L 73.40 107.56 L 72.17 104.92 L 79.28 107.60 L 80.38 107.27 L 80.02 107.91 L 78.76 109.67 L 74.62 108.98 Z" fill="url(#linear-gradient-15)" fill-opacity="0.6" fill-rule="evenodd" group-id="1,4,11,32" id="路径_3146" node-id="78" stroke="none" target-height="12.352051" target-width="16.04599" target-x="64.33899" target-y="104.920166"></path><path d="M 208.84 125.64 L 207.57 125.81 L 200.34 122.41 L 199.18 122.35 L 213.00 131.45 L 215.60 130.52 L 220.00 128.89 L 220.01 127.97 L 214.62 128.87 Z" fill="#ecf5ed" fill-opacity="0.6" fill-rule="evenodd" group-id="1,4,11,33" id="路径_3147" node-id="79" stroke="none" target-height="9.093018" target-width="20.82898" target-x="199.17804" target-y="122.354004"></path><path d="M 77.74 115.59 L 78.34 116.71 L 70.01 121.78 L 78.82 117.52 L 80.39 120.87 L 79.67 123.20 L 71.94 128.89 L 79.26 124.82 L 77.74 130.10 L 68.44 132.79 L 59.26 134.55 L 79.06 121.28 L 59.59 131.57 L 76.66 119.79 L 58.09 128.88 L 57.66 128.46 L 74.08 118.26 L 62.81 123.54 L 71.67 116.27 L 74.97 110.00 L 77.14 114.78 L 71.47 118.23 Z" fill="url(#linear-gradient-16)" fill-opacity="0.6" fill-rule="nonzero" group-id="1,4,11,34" id="路径_3148" node-id="80" stroke="none" target-height="24.542969" target-width="22.734009" target-x="57.659973" target-y="110.00415"></path><path d="M 183.81 129.59 L 186.36 127.73 L 180.73 130.09 L 187.49 126.73 L 189.37 125.06 L 181.92 128.07 L 183.14 127.52 L 185.85 126.28 L 188.58 125.01 L 189.88 124.36 L 191.30 122.42 L 190.51 122.73 L 188.95 123.45 L 188.15 123.77 L 189.12 123.21 L 190.86 122.28 L 191.83 121.73 L 192.55 120.60 L 189.84 121.38 L 186.76 122.27 L 184.08 123.06 L 182.94 123.40 L 180.85 125.15 L 180.82 125.57 L 188.23 122.93 L 179.39 127.10 L 174.34 130.00 L 179.97 127.87 L 172.90 131.36 L 171.92 132.27 L 172.77 132.94 L 180.58 131.76 L 174.14 133.89 L 180.76 132.73 L 175.59 134.98 L 181.63 134.16 L 176.64 136.26 L 177.21 137.81 L 173.82 139.11 L 180.21 138.89 L 187.61 134.23 L 190.64 134.99 L 192.15 133.49 L 188.71 132.36 L 184.36 133.78 L 187.18 132.09 L 181.77 132.82 L 185.00 130.87 L 183.30 130.81 Z" fill="url(#linear-gradient-17)" fill-opacity="0.6" fill-rule="nonzero" group-id="1,4,11,35" id="路径_3149" node-id="81" stroke="none" target-height="18.508057" target-width="20.630005" target-x="171.92401" target-y="120.59717"></path><path d="M 196.81 122.84 L 200.48 122.46 L 199.80 122.18 L 196.39 122.44 Z" fill="url(#linear-gradient-18)" fill-opacity="0.6" fill-rule="nonzero" group-id="1,4,11,36" id="路径_3150" node-id="82" stroke="none" target-height="0.6621094" target-width="4.0841064" target-x="196.39099" target-y="122.176025"></path><path d="M 192.04 130.94 L 195.45 129.58 L 193.55 131.41 L 196.54 130.38 L 194.55 132.10 L 197.79 131.74 L 195.60 135.25 L 199.04 131.33 L 198.25 130.89 L 196.32 131.32 L 197.86 130.57 L 195.26 128.24 Z" fill="url(#linear-gradient-19)" fill-opacity="0.6" fill-rule="nonzero" group-id="1,4,11,37" id="路径_3151" node-id="83" stroke="none" target-height="7.006836" target-width="7.001953" target-x="192.03802" target-y="128.24023"></path><path d="M 38.50 116.68 L 36.77 119.23 L 38.74 117.12 L 48.52 123.67 L 52.77 122.30 L 55.43 119.25 L 50.49 120.07 Z" fill="url(#linear-gradient-20)" fill-opacity="0.6" fill-rule="evenodd" group-id="1,4,11,38" id="路径_3152" node-id="84" stroke="none" target-height="6.986084" target-width="18.658997" target-x="36.768005" target-y="116.680176"></path><path d="M 38.61 117.01 L 36.89 119.11 L 34.57 121.92 L 27.87 126.73 L 32.30 127.35 L 42.02 121.77 L 33.88 127.89 L 44.08 122.11 L 36.11 128.81 L 46.11 122.95 L 38.14 129.65 L 48.64 123.67 Z" fill="url(#linear-gradient-21)" fill-opacity="0.6" fill-rule="nonzero" group-id="1,4,11,39" id="路径_3153" node-id="85" stroke="none" target-height="12.647217" target-width="20.768005" target-x="27.873993" target-y="117.00708"></path><path d="M 10.05 118.01 L 18.45 122.64 L 25.22 125.88 L 32.46 127.30 L 24.24 132.37 L 27.75 128.70 L 21.90 131.24 L 25.72 128.24 L 20.95 130.17 L 24.18 127.13 L 19.18 128.95 L 22.57 126.32 L 15.80 128.00 L 20.47 133.82 L 19.18 134.37 L 14.11 129.94 L 11.21 122.84 Z" fill="#ecf5ed" fill-opacity="0.6" fill-rule="evenodd" group-id="1,4,11,40" id="路径_3154" node-id="86" stroke="none" target-height="16.354004" target-width="22.407013" target-x="10.053986" target-y="118.01196"></path><path d="M 183.95 130.62 L 184.17 131.09 L 182.07 132.61 L 186.54 131.89 L 187.10 132.03 L 183.61 134.12 L 189.19 132.47 L 192.15 133.49 L 193.23 131.99 L 186.85 130.43 L 191.61 130.77 L 192.42 130.20 L 195.18 127.80 L 199.21 131.18 L 198.21 133.72 L 201.73 134.56 L 207.44 134.87 L 211.41 131.93 L 209.80 130.82 L 205.79 128.16 L 200.63 124.87 L 195.59 121.93 L 192.64 120.59 L 192.06 121.62 L 191.61 122.37 L 189.64 125.14 L 186.26 128.22 L 184.29 129.75 Z" fill="#ecf5ed" fill-opacity="0.6" fill-rule="evenodd" group-id="1,4,11,41" id="路径_3155" node-id="87" stroke="none" target-height="14.279053" target-width="29.343018" target-x="182.06897" target-y="120.588135"></path><path d="M -22.98 156.27 L -17.85 156.91 L -4.00 158.52 L 16.30 160.64 L 40.74 162.80 L 53.76 163.75 L 67.05 164.54 L 80.29 165.11 L 92.92 165.39 L 105.23 165.33 L 116.08 164.89 L 123.16 164.31 L 129.17 163.53 L 134.22 162.58 L 143.29 161.07 L 151.78 160.06 L 159.72 159.52 L 167.15 159.42 L 174.78 159.70 L 181.79 160.31 L 188.22 161.20 L 194.10 162.37 L 201.97 164.46 L 208.65 166.78 L 214.28 169.29 L 219.70 172.32 L 223.83 175.23 L 226.89 178.02 L 226.89 193.35 L 64.54 193.35 Z" fill="url(#linear-gradient-22)" fill-rule="nonzero" group-id="1,5" id="路径_3156" node-id="88" stroke="none" target-height="37.07788" target-width="249.87701" target-x="-22.983002" target-y="156.27197"></path><path d="M -2.03 188.56 L 1.43 188.60 L 11.10 188.24 L 17.64 187.70 L 25.94 186.73 L 34.72 185.36 L 44.89 183.35 L 55.38 180.79 L 66.92 177.38 L 78.68 174.25 L 89.89 171.77 L 100.58 169.91 L 111.37 168.52 L 121.22 167.72 L 130.21 167.45 L 139.24 167.69 L 146.93 168.41 L 153.45 169.54 L 158.41 170.86 L 162.38 172.35 L 165.51 173.99 L 167.94 175.75 L 161.98 199.68 L 0.30 214.30 Z" fill="url(#linear-gradient-23)" fill-rule="nonzero" group-id="1,6" id="路径_3157" node-id="89" stroke="none" target-height="46.849854" target-width="169.97299" target-x="-2.0279999" target-y="167.44824"></path><path d="M 162.02 49.27 L 161.81 51.51 L 161.25 53.56 L 160.34 55.45 L 159.13 57.17 L 157.67 58.63 L 155.95 59.85 L 154.05 60.76 L 152.00 61.31 L 149.77 61.52 L 147.53 61.31 L 145.48 60.76 L 143.58 59.85 L 141.87 58.63 L 140.41 57.17 L 139.19 55.45 L 138.28 53.56 L 137.73 51.51 L 137.52 49.27 L 137.73 47.04 L 138.28 44.99 L 139.19 43.09 L 140.41 41.37 L 141.87 39.91 L 143.58 38.69 L 145.48 37.79 L 147.53 37.23 L 149.77 37.02 L 152.00 37.23 L 154.05 37.79 L 155.95 38.69 L 157.67 39.91 L 159.13 41.37 L 160.34 43.09 L 161.25 44.99 L 161.81 47.04 L 162.02 49.27 Z" fill="url(#linear-gradient-24)" fill-opacity="0.4" fill-rule="nonzero" group-id="1,7" id="椭圆_148" node-id="90" stroke="none" target-height="24.5" target-width="24.5" target-x="137.517" target-y="37.022"></path><path d="M 161.39 49.27 L 161.19 51.39 L 160.66 53.34 L 159.80 55.14 L 158.65 56.77 L 157.27 58.15 L 155.63 59.31 L 153.83 60.17 L 151.89 60.70 L 149.77 60.90 L 147.65 60.70 L 145.70 60.17 L 143.90 59.31 L 142.27 58.15 L 140.88 56.77 L 139.73 55.14 L 138.87 53.34 L 138.34 51.39 L 138.14 49.27 L 138.34 47.15 L 138.87 45.21 L 139.73 43.40 L 140.88 41.77 L 142.27 40.39 L 143.90 39.23 L 145.70 38.37 L 147.65 37.84 L 149.77 37.65 L 151.89 37.84 L 153.83 38.37 L 155.63 39.23 L 157.27 40.39 L 158.65 41.77 L 159.80 43.40 L 160.66 45.21 L 161.19 47.15 L 161.39 49.27 Z" fill="url(#linear-gradient-24)" fill-rule="nonzero" group-id="1,8" id="椭圆_149" node-id="91" stroke="none" target-height="23.25" target-width="23.25" target-x="138.142" target-y="37.647"></path><path d="M 147.01 166.74 L 136.90 145.47 L 122.29 166.74 Z" fill="url(#linear-gradient-26)" fill-rule="nonzero" group-id="1,9,12" id="路径_3158" node-id="93" stroke="none" target-height="21.275146" target-width="24.71698" target-x="122.29401" target-y="145.46606"></path><path d="M 136.90 149.19 L 127.02 163.12 L 97.98 163.12 L 97.98 180.32 L 145.27 182.40 L 144.60 166.74 Z" fill="#c6ad99" fill-rule="nonzero" group-id="1,9,13" id="路径_3159" node-id="94" stroke="none" target-height="33.208984" target-width="47.28296" target-x="97.98401" target-y="149.18799"></path><path d="M 103.44 163.84 L 107.35 163.84 L 107.35 167.75 L 103.44 167.75 Z" fill="#f7f0e4" fill-rule="nonzero" group-id="1,9,14" id="矩形_132" node-id="96" stroke="#af9268" stroke-linecap="butt" stroke-width="1" target-height="3.9109955" target-width="3.911003" target-x="103.438995" target-y="163.836"></path><path d="M 107.35 163.84 L 111.26 163.84 L 111.26 167.75 L 107.35 167.75 Z" fill="#f7f0e4" fill-rule="nonzero" group-id="1,9,14,42" id="矩形_133" node-id="97" stroke="#af9268" stroke-linecap="butt" stroke-width="1" target-height="3.9109955" target-width="3.911003" target-x="107.35" target-y="163.836"></path><path d="M 103.44 167.75 L 107.35 167.75 L 107.35 171.66 L 103.44 171.66 Z" fill="#f7f0e4" fill-rule="nonzero" group-id="1,9,14,43" id="矩形_134" node-id="98" stroke="#af9268" stroke-linecap="butt" stroke-width="1" target-height="3.9109955" target-width="3.911003" target-x="103.438995" target-y="167.747"></path><path d="M 107.35 167.75 L 111.26 167.75 L 111.26 171.66 L 107.35 171.66 Z" fill="#f7f0e4" fill-rule="nonzero" group-id="1,9,14,44" id="矩形_135" node-id="99" stroke="#af9268" stroke-linecap="butt" stroke-width="1" target-height="3.9109955" target-width="3.911003" target-x="107.35" target-y="167.747"></path><path d="M 101.88 145.47 L 90.89 166.74 L 122.29 166.74 L 136.90 145.47 Z" fill="#8e796b" fill-rule="nonzero" group-id="1,9,15" id="路径_3160" node-id="100" stroke="none" target-height="21.275146" target-width="46.01001" target-x="90.89099" target-y="145.46509"></path><path d="M 126.93 165.52 L 126.93 163.12 L 136.90 149.19 L 144.60 166.74 L 145.27 182.40 L 126.93 182.40 Z" fill="#b79e8d" fill-rule="nonzero" group-id="1,9,16" id="路径_3161" node-id="101" stroke="none" target-height="33.208008" target-width="18.337036" target-x="126.93396" target-y="149.18994"></path><path d="M 144.60 166.74 L 136.90 150.52 L 125.26 166.74 L 122.29 166.74 L 136.90 145.47 L 147.01 166.74 Z" fill="#7a665c" fill-rule="nonzero" group-id="1,9,17" id="路径_3162" node-id="102" stroke="none" target-height="21.275146" target-width="24.71698" target-x="122.28998" target-y="145.46606"></path><path d="M 24.91 182.17 L 28.79 183.03 L 33.00 183.77 L 39.48 184.64 L 46.63 185.27 L 55.55 185.59 L 61.67 185.52 L 68.34 185.14 L 75.59 184.41 L 82.77 183.34 L 90.29 181.78 L 98.17 179.70 L 110.20 176.79 L 121.02 174.63 L 130.75 173.15 L 139.46 172.27 L 148.64 171.86 L 156.60 171.99 L 163.49 172.59 L 169.40 173.59 L 174.39 174.87 L 178.61 176.36 L 182.17 178.03 L 185.14 179.86 L 187.60 181.84 L 190.88 216.61 L 26.63 207.95 Z" fill="url(#linear-gradient-27)" fill-rule="nonzero" group-id="1,10" id="路径_3163" node-id="103" stroke="none" target-height="44.753418" target-width="165.96802" target-x="24.91101" target-y="171.85767"></path></g></g></svg>