<?xml version="1.0" standalone="no"?><!DOCTYPE svg PUBLIC "-//W3C//DTD SVG 1.1//EN" "http://www.w3.org/Graphics/SVG/1.1/DTD/svg11.dtd"><svg height="200" node-id="1" sillyvg="true" template-height="200" template-width="200" version="1.1" viewBox="0 0 200 200" width="200" xmlns="http://www.w3.org/2000/svg" xmlns:xlink="http://www.w3.org/1999/xlink"><defs node-id="152"><linearGradient gradientUnits="objectBoundingBox" id="linear-gradient" node-id="5" spreadMethod="pad" x1="0.5" x2="0.5" y1="0" y2="1"><stop offset="0" stop-color="#92e6f2"></stop><stop offset="1" stop-color="#4b889b"></stop></linearGradient><linearGradient gradientUnits="objectBoundingBox" id="linear-gradient-2" node-id="8" spreadMethod="pad" x1="0.5" x2="0.5" y1="0" y2="1"><stop offset="0" stop-color="#b4ebd4"></stop><stop offset="1" stop-color="#d0ebff"></stop></linearGradient><linearGradient gradientUnits="objectBoundingBox" id="linear-gradient-3" node-id="11" spreadMethod="pad" x1="0.5" x2="0.5" y1="122.369" y2="125.672"><stop offset="0" stop-color="#97dbc4"></stop><stop offset="1" stop-color="#7cdde3"></stop></linearGradient><linearGradient gradientUnits="objectBoundingBox" id="linear-gradient-4" node-id="14" spreadMethod="pad" x1="0.5" x2="0.5" y1="182.606" y2="187.092"><stop offset="0" stop-color="#ffffff" stop-opacity="0"></stop><stop offset="1" stop-color="#ffffff"></stop></linearGradient><linearGradient gradientUnits="objectBoundingBox" id="linear-gradient-5" node-id="17" spreadMethod="pad" x1="0.5" x2="0.5" y1="-0.228" y2="1.237"><stop offset="0" stop-color="#97dbc4"></stop><stop offset="1" stop-color="#7cdde3"></stop></linearGradient><linearGradient gradientUnits="objectBoundingBox" id="linear-gradient-6" node-id="18" spreadMethod="pad" x1="0.5" x2="0.5" y1="0" y2="1"><stop offset="0" stop-color="#19629e"></stop><stop offset="0.29" stop-color="#19629e"></stop><stop offset="0.508" stop-color="#19629e" stop-opacity="0.6"></stop><stop offset="1" stop-color="#19629e" stop-opacity="0"></stop></linearGradient><clipPath id="clip-path" node-id="3"><path d="M 200.00 100.00 C 200.00 155.23 155.23 200.00 100.00 200.00 C 44.77 200.00 0.00 155.23 0.00 100.00 C -0.00 44.77 44.77 0.00 100.00 0.00 C 155.23 -0.00 200.00 44.77 200.00 100.00 Z" fill="#000000" fill-rule="nonzero" id="椭圆_1" node-id="4" stroke="none" target-height="200" target-width="200" target-x="0" target-y="0"></path></clipPath></defs><g clip-path="url(#clip-path)" id="组_12" node-id="23"><path d="M -54.00 133.00 L 247.70 133.00 L 247.70 200.42 L -54.00 200.42 Z" fill="url(#linear-gradient)" fill-rule="nonzero" group-id="1" id="矩形_1" node-id="24" stroke="none" target-height="67.422" target-width="301.699" target-x="-54" target-y="133"></path><path d="M -5.04 -3.94 L 201.04 -3.94 L 201.04 133.44 L -5.04 133.44 Z" fill="url(#linear-gradient-2)" fill-rule="nonzero" group-id="2" id="矩形_2" node-id="25" stroke="none" target-height="137.385" target-width="206.078" target-x="-5.038" target-y="-3.943"></path><path d="M 241.64 150.61 L 237.69 150.38 L 234.96 149.78 L 232.67 148.79 L 231.22 147.71 L 230.17 146.43 L 229.64 145.29 L 229.43 144.17 L 229.48 143.44 L 229.24 142.96 L 227.97 142.51 L 226.27 142.31 L 223.87 142.26 L 221.33 142.40 L 218.63 142.71 L 215.98 143.21 L 213.70 143.86 L 210.76 144.71 L 208.04 145.22 L 205.51 145.40 L 202.95 145.32 L 200.97 145.01 L 199.45 144.54 L 197.98 144.37 L 196.06 144.86 L 191.44 146.55 L 188.69 147.13 L 185.39 147.15 L 181.93 146.63 L 178.63 145.90 L 175.54 144.97 L 173.34 144.07 L 172.07 143.30 L 171.58 142.73 L 171.52 142.26 L 171.50 142.02 L 170.81 142.40 L 167.81 144.25 L 165.58 145.32 L 162.54 146.37 L 159.18 147.07 L 154.99 147.32 L 150.87 146.98 L 146.84 146.28 L 142.90 145.21 L 139.02 143.78 L 135.24 142.95 L 132.45 141.89 L 130.06 140.63 L 128.68 139.74 L 127.77 139.20 L 127.73 139.41 L 127.68 139.83 L 127.23 140.35 L 126.08 141.05 L 124.09 141.87 L 121.29 142.71 L 118.30 143.37 L 115.16 143.84 L 112.18 143.82 L 109.68 143.29 L 105.50 141.76 L 103.76 141.32 L 102.43 141.47 L 100.21 142.06 L 96.94 142.25 L 93.44 141.90 L 89.52 140.86 L 87.45 140.27 L 85.06 139.81 L 82.61 139.53 L 80.31 139.41 L 78.13 139.45 L 76.59 139.64 L 75.44 140.05 L 75.23 140.48 L 75.28 141.14 L 75.08 142.16 L 74.60 143.19 L 73.65 144.35 L 72.34 145.32 L 70.26 146.22 L 67.79 146.77 L 64.21 146.97 L 61.33 146.68 L 59.02 146.05 L 56.90 145.16 L 55.05 144.18 L 51.48 142.43 L 49.62 141.93 L 47.47 141.86 L 45.19 142.30 L 42.18 143.53 L 40.19 144.35 L 38.00 144.93 L 35.56 145.29 L 31.85 145.44 L 28.11 145.23 L 24.45 144.75 L 21.30 144.12 L 21.92 145.49 L 21.98 146.87 L 21.71 147.73 L 21.14 148.53 L 20.22 149.28 L 19.12 149.80 L 17.60 150.17 L 15.50 150.33 L 12.86 150.14 L 11.34 149.73 L 10.17 149.05 L 9.50 148.31 L 8.59 146.60 L 8.07 145.83 L 7.21 145.16 L 6.05 144.74 L 3.96 144.53 L 1.30 144.67 L -0.35 145.03 L -1.74 145.60 L -2.77 146.20 L -4.97 147.38 L -6.37 147.74 L -8.60 147.88 L -10.29 147.66 L -11.08 147.27 L -12.09 146.16 L -12.64 145.75 L -13.76 145.50 L -15.24 145.60 L -18.20 146.24 L -21.74 147.31 L -27.54 149.33 L -31.07 150.42 L -34.12 151.01 L -36.75 151.20 L -39.38 151.05 L -41.66 150.62 L -43.63 149.95 L -46.34 148.52 L -48.49 146.84 L -50.28 144.92 L -51.59 143.10 L -51.59 133.28 L 253.65 133.28 L 253.65 146.51 L 250.33 148.29 L 248.54 149.14 L 246.50 149.88 L 244.30 150.38 L 241.64 150.61 Z" fill="url(#linear-gradient-3)" fill-opacity="0.4" fill-rule="nonzero" group-id="3" id="路径_1" node-id="26" stroke="none" target-height="17.921753" target-width="305.23898" target-x="-51.591" target-y="133.276"></path><path d="M 200.24 147.80 L 197.41 147.63 L 195.36 147.21 L 193.93 146.61 L 192.63 145.73 L 191.77 144.87 L 191.27 144.01 L 190.87 142.65 L 190.89 141.80 L 190.70 141.40 L 189.73 141.02 L 188.42 140.85 L 186.58 140.81 L 182.54 141.19 L 180.51 141.61 L 178.75 142.16 L 175.42 143.11 L 172.45 143.44 L 169.67 143.26 L 167.79 142.72 L 166.66 142.58 L 165.18 142.99 L 161.63 144.40 L 159.51 144.89 L 156.97 144.91 L 154.31 144.48 L 151.77 143.86 L 149.39 143.09 L 147.70 142.33 L 146.49 141.43 L 146.30 140.81 L 146.28 140.61 L 145.75 140.92 L 143.45 142.48 L 141.73 143.38 L 139.39 144.26 L 136.80 144.84 L 133.58 145.05 L 129.35 144.60 L 125.27 143.61 L 121.30 142.08 L 118.39 141.39 L 116.24 140.50 L 113.35 138.70 L 112.64 138.24 L 112.61 138.42 L 112.45 138.98 L 111.34 139.79 L 109.81 140.48 L 107.66 141.18 L 105.36 141.74 L 102.95 142.13 L 100.65 142.11 L 98.73 141.67 L 95.51 140.39 L 94.17 140.02 L 93.15 140.15 L 91.44 140.64 L 88.92 140.80 L 86.23 140.50 L 83.22 139.64 L 81.05 139.00 L 78.54 138.58 L 76.04 138.42 L 74.07 138.49 L 72.84 138.72 L 72.34 139.01 L 72.22 139.31 L 72.24 140.08 L 71.88 141.32 L 71.08 142.49 L 69.47 143.68 L 68.17 144.22 L 66.32 144.60 L 63.75 144.75 L 61.02 144.40 L 58.93 143.64 L 55.33 141.62 L 53.60 140.82 L 51.70 140.45 L 50.42 140.51 L 48.81 140.95 L 46.80 141.87 L 44.44 142.83 L 41.71 143.34 L 38.85 143.47 L 35.97 143.30 L 33.16 142.90 L 30.73 142.37 L 31.21 143.51 L 31.26 144.67 L 30.86 145.75 L 29.90 146.70 L 28.52 147.31 L 26.27 147.57 L 23.82 147.33 L 22.60 146.82 L 21.76 146.03 L 21.29 145.17 L 20.87 144.28 L 20.26 143.50 L 19.33 142.98 L 17.40 142.71 L 15.35 142.83 L 14.08 143.13 L 13.02 143.61 L 12.22 144.12 L 10.53 145.11 L 9.45 145.41 L 7.73 145.53 L 6.44 145.34 L 5.83 145.01 L 5.05 144.08 L 4.62 143.73 L 3.77 143.53 L 2.63 143.61 L 0.35 144.15 L -2.37 145.04 L -6.83 146.74 L -9.56 147.65 L -11.90 148.15 L -13.92 148.31 L -16.85 148.03 L -19.22 147.26 L -21.29 146.07 L -22.95 144.65 L -24.33 143.05 L -25.34 141.52 L -25.34 133.28 L 209.48 133.28 L 209.48 144.38 L 205.53 146.58 L 203.23 147.41 L 200.24 147.80 Z" fill="url(#linear-gradient-4)" fill-opacity="0.3" fill-rule="nonzero" group-id="4" id="路径_2" node-id="27" stroke="none" target-height="15.029114" target-width="234.82" target-x="-25.337997" target-y="133.276"></path><path d="M 200.24 103.21 L 198.15 103.37 L 196.47 103.86 L 195.11 104.63 L 193.42 106.26 L 192.23 108.23 L 191.44 110.38 L 191.02 112.42 L 190.85 114.36 L 190.89 115.63 L 190.79 116.29 L 190.43 116.81 L 189.73 117.25 L 188.41 117.60 L 186.58 117.68 L 184.63 117.45 L 182.54 116.91 L 180.54 116.06 L 178.75 114.90 L 176.42 113.39 L 174.34 112.54 L 172.45 112.23 L 170.54 112.37 L 169.02 112.88 L 167.79 113.73 L 167.23 114.03 L 166.63 114.03 L 165.91 113.70 L 163.53 111.74 L 162.13 110.60 L 160.57 109.64 L 159.46 109.21 L 158.27 109.06 L 156.97 109.20 L 154.34 110.09 L 151.77 111.36 L 149.44 112.94 L 147.70 114.54 L 146.79 115.74 L 146.37 116.77 L 146.30 117.68 L 146.29 118.10 L 146.00 117.80 L 144.58 115.71 L 143.49 114.27 L 142.04 112.67 L 140.36 111.21 L 138.37 109.97 L 136.15 109.16 L 133.58 108.91 L 131.25 109.23 L 129.01 109.91 L 126.84 110.96 L 123.84 112.92 L 121.30 115.05 L 119.13 116.01 L 117.30 117.32 L 115.73 118.88 L 114.52 120.36 L 112.96 122.63 L 112.63 123.01 L 112.61 122.63 L 112.55 121.81 L 112.17 120.88 L 111.34 119.78 L 109.77 118.33 L 107.66 116.91 L 105.33 115.75 L 102.95 114.95 L 101.22 114.86 L 99.68 115.35 L 98.27 116.22 L 97.00 117.25 L 94.85 119.03 L 93.92 119.36 L 93.15 119.05 L 92.03 118.28 L 90.65 117.82 L 88.92 117.70 L 87.21 117.97 L 85.33 118.74 L 83.22 120.11 L 81.01 121.45 L 78.54 122.29 L 76.04 122.63 L 74.07 122.49 L 72.95 122.08 L 72.39 121.52 L 72.22 120.77 L 72.26 119.63 L 72.11 117.87 L 71.72 116.02 L 71.01 114.07 L 69.93 112.29 L 68.40 110.81 L 67.17 110.11 L 65.64 109.67 L 63.75 109.52 L 62.26 109.76 L 60.94 110.29 L 59.75 111.10 L 58.16 112.63 L 56.70 114.35 L 55.29 116.05 L 53.95 117.39 L 52.98 118.07 L 51.96 118.39 L 50.87 118.39 L 49.81 118.04 L 48.49 117.15 L 46.80 115.48 L 45.19 114.01 L 43.50 113.01 L 41.71 112.43 L 38.85 112.17 L 35.97 112.53 L 33.18 113.36 L 30.73 114.45 L 31.21 112.13 L 31.26 109.69 L 30.83 107.37 L 29.90 105.50 L 28.98 104.54 L 27.80 103.94 L 26.27 103.69 L 24.85 103.84 L 23.82 104.20 L 23.08 104.73 L 22.22 105.83 L 21.66 107.20 L 20.96 110.16 L 20.53 111.55 L 19.90 112.66 L 18.95 113.42 L 17.40 113.76 L 15.39 113.51 L 14.08 112.88 L 13.05 111.93 L 12.22 110.84 L 11.43 109.74 L 10.53 108.80 L 9.41 108.17 L 7.73 107.93 L 6.50 108.27 L 5.83 108.99 L 5.05 110.91 L 4.57 111.69 L 3.77 112.06 L 2.66 111.90 L 0.35 110.77 L -2.34 108.95 L -6.83 105.41 L -9.64 103.48 L -11.97 102.48 L -13.92 102.18 L -15.88 102.42 L -17.62 103.13 L -19.22 104.34 L -21.23 106.72 L -22.95 109.74 L -24.31 113.01 L -25.34 116.23 L -25.34 133.27 L 209.48 133.27 L 209.48 110.31 L 206.93 107.22 L 205.52 105.72 L 203.99 104.46 L 202.25 103.58 L 200.24 103.21 Z" fill="url(#linear-gradient-5)" fill-rule="nonzero" group-id="5" id="路径_3" node-id="28" stroke="none" target-height="31.092712" target-width="234.82" target-x="-25.337997" target-y="102.177246"></path><path d="M 106.85 122.11 L 110.93 125.16 L 118.99 126.23 L 127.87 123.04 L 139.06 122.79 L 149.87 122.41 L 150.16 123.60 L 156.50 125.35 L 165.56 125.41 L 167.75 124.16 L 167.25 125.79 L 163.87 129.79 L 155.06 131.04 L 149.62 130.16 L 129.18 133.23 L 110.99 130.48 Z" fill="#155682" fill-rule="nonzero" group-id="6,9" id="路径_4" node-id="30" stroke="none" target-height="11.113953" target-width="60.89795" target-x="106.847046" target-y="122.11304"></path><path d="M 135.62 97.77 L 135.31 98.89 L 130.69 103.08 L 125.31 106.70 L 117.88 108.64 L 113.69 105.64 L 113.75 106.70 L 114.00 107.83 L 116.69 111.70 L 122.56 114.20 L 125.31 114.33 L 129.31 111.27 L 130.31 109.20 L 135.94 113.58 L 146.31 113.89 L 148.88 109.83 L 150.75 113.39 L 154.75 114.27 L 158.38 113.58 L 160.81 110.70 L 162.63 106.89 L 159.50 108.52 L 154.06 108.58 L 149.75 106.45 L 143.06 102.14 L 138.75 97.46 Z" fill="#195984" fill-rule="nonzero" group-id="6,10" id="路径_5" node-id="31" stroke="none" target-height="16.872986" target-width="48.93799" target-x="113.68799" target-y="97.45502"></path><path d="M 137.58 97.89 L 136.66 102.66 L 133.46 107.12 L 131.00 107.24 L 129.27 105.03 L 129.79 106.19 L 130.42 107.31 L 131.44 108.74 L 132.70 110.06 L 134.34 111.25 L 136.25 112.03 L 138.63 112.31 L 141.85 111.96 L 144.41 111.23 L 146.62 110.11 L 148.13 108.85 L 149.15 107.36 L 149.50 105.92 L 147.50 107.70 L 144.04 107.16 L 141.29 104.70 Z" fill="#195984" fill-rule="nonzero" group-id="6,11" id="路径_6" node-id="32" stroke="none" target-height="14.416016" target-width="20.229004" target-x="129.26996" target-y="97.890015"></path><path d="M 137.48 91.16 L 137.48 91.16 L 138.17 91.45 L 138.46 92.14 L 138.46 93.61 L 138.17 94.31 L 137.48 94.60 L 137.48 94.60 L 136.78 94.31 L 136.50 93.61 L 136.50 92.14 L 136.78 91.45 L 137.48 91.16 Z" fill="#195984" fill-rule="nonzero" group-id="6,12,19,80,89" id="矩形_3" node-id="36" stroke="none" target-height="3.439003" target-width="1.9649963" target-x="136.496" target-y="91.159"></path><path d="M 136.44 97.24 L 135.13 98.62 L 131.72 101.78 L 129.48 103.55 L 126.95 105.25 L 124.25 106.67 L 121.56 107.58 L 119.73 107.86 L 117.99 107.77 L 116.31 107.30 L 114.80 106.46 L 113.35 105.05 L 111.94 102.95 L 112.43 104.42 L 113.08 106.08 L 113.71 107.09 L 114.70 108.11 L 115.99 108.89 L 117.88 109.40 L 120.08 109.44 L 123.24 108.85 L 126.09 107.85 L 128.36 106.75 L 130.14 105.55 L 132.44 103.42 L 134.08 101.31 L 136.44 97.24 Z" fill="#19629e" fill-rule="nonzero" group-id="6,12,19,80,90" id="路径_8" node-id="38" stroke="none" target-height="12.200439" target-width="24.5" target-x="111.93506" target-y="97.23901"></path><path d="M 137.48 97.55 L 136.93 99.28 L 135.47 102.89 L 134.43 104.73 L 133.34 106.04 L 132.50 106.60 L 131.69 106.69 L 130.81 106.35 L 130.08 105.64 L 129.19 104.15 L 128.14 101.48 L 128.07 102.62 L 128.27 105.10 L 128.68 106.41 L 129.39 107.49 L 130.03 108.00 L 130.90 108.30 L 132.07 108.35 L 133.58 107.94 L 134.75 107.20 L 135.66 106.10 L 136.61 104.08 L 137.17 101.77 L 137.43 99.42 L 137.48 97.55 Z" fill="#19629e" fill-rule="nonzero" group-id="6,12,19,80,91" id="路径_9" node-id="39" stroke="none" target-height="10.80896" target-width="9.411865" target-x="128.06714" target-y="97.54602"></path><path d="M 150.75 101.48 L 150.26 102.91 L 149.66 104.22 L 148.76 105.61 L 147.60 106.70 L 146.18 107.21 L 145.20 107.13 L 143.99 106.57 L 142.44 105.31 L 141.13 103.78 L 139.49 101.29 L 137.48 97.54 L 137.89 99.03 L 138.43 100.51 L 139.32 102.46 L 140.48 104.38 L 142.04 106.25 L 143.26 107.32 L 144.68 108.19 L 146.32 108.85 L 147.74 108.74 L 149.00 108.03 L 149.99 106.85 L 150.69 105.24 L 150.96 103.45 L 150.75 101.48 Z" fill="#19629e" fill-rule="nonzero" group-id="6,12,19,80,92" id="路径_10" node-id="40" stroke="none" target-height="11.300049" target-width="13.484009" target-x="137.47906" target-y="97.54498"></path><path d="M 138.46 97.05 L 139.73 98.46 L 143.16 101.68 L 145.48 103.47 L 148.23 105.23 L 151.19 106.66 L 154.37 107.62 L 156.56 107.91 L 158.78 107.83 L 161.06 107.37 L 162.52 106.14 L 163.66 104.67 L 164.50 102.95 L 164.40 103.94 L 164.19 104.90 L 163.72 106.13 L 162.99 107.29 L 161.85 108.36 L 160.37 109.11 L 158.21 109.49 L 155.75 109.31 L 152.22 108.35 L 147.92 106.51 L 144.89 104.72 L 142.35 102.73 L 140.73 101.04 L 139.50 99.35 L 138.88 98.20 L 138.46 97.05 Z" fill="#19629e" fill-rule="nonzero" group-id="6,12,19,80,93" id="路径_11" node-id="41" stroke="none" target-height="12.434387" target-width="26.039001" target-x="138.46204" target-y="97.05499"></path><path d="M 137.48 93.62 L 137.48 93.62 L 138.25 93.77 L 138.87 94.19 L 139.29 94.81 L 139.44 95.58 L 139.44 95.58 L 139.29 96.35 L 138.87 96.97 L 138.25 97.39 L 137.48 97.55 L 137.48 97.55 L 136.71 97.39 L 136.09 96.97 L 135.67 96.35 L 135.51 95.58 L 135.51 95.58 L 135.67 94.81 L 136.09 94.19 L 136.71 93.77 L 137.48 93.62 Z" fill="#19629e" fill-rule="nonzero" group-id="6,12,19,80,94" id="矩形_4" node-id="42" stroke="none" target-height="3.9309998" target-width="3.9309998" target-x="135.514" target-y="93.616"></path><path d="M 135.27 97.05 L 139.69 97.05 L 140.21 97.27 L 140.43 97.79 L 140.43 97.79 L 140.21 98.31 L 139.69 98.53 L 135.27 98.53 L 134.75 98.31 L 134.53 97.79 L 134.53 97.79 L 134.75 97.27 L 135.27 97.05 Z" fill="#0c4768" fill-rule="nonzero" group-id="6,12,19,80,95" id="矩形_5" node-id="43" stroke="none" target-height="1.473999" target-width="5.895996" target-x="134.531" target-y="97.05499"></path><path d="M 124.21 119.65 L 122.90 120.69 L 119.61 122.79 L 117.52 123.75 L 115.30 124.42 L 113.78 124.61 L 112.34 124.49 L 110.95 124.08 L 108.54 122.70 L 107.14 121.45 L 106.17 120.11 L 105.75 119.16 L 105.55 118.17 L 105.69 119.34 L 106.01 120.48 L 106.71 121.98 L 107.77 123.40 L 109.49 124.81 L 110.83 125.53 L 112.60 126.11 L 114.88 126.53 L 119.28 126.68 L 122.22 126.33 L 124.70 125.60 L 126.06 124.93 L 127.17 124.07 L 130.11 124.07 L 131.53 124.62 L 133.04 125.08 L 135.21 125.54 L 137.57 125.80 L 140.27 125.73 L 143.00 125.21 L 145.84 124.07 L 150.17 123.59 L 152.04 124.41 L 153.98 125.12 L 156.61 125.88 L 159.41 126.41 L 162.32 126.56 L 164.24 126.35 L 165.99 125.82 L 167.60 124.96 L 168.94 123.77 L 170.04 122.04 L 170.89 119.65 L 170.23 120.81 L 169.42 121.87 L 168.10 123.13 L 166.47 124.17 L 164.26 124.90 L 162.67 125.08 L 160.77 124.94 L 158.47 124.40 L 156.28 123.54 L 153.65 122.08 L 150.50 119.90 Z" fill="#155682" fill-rule="nonzero" group-id="6,12,19,80,96" id="路径_12" node-id="44" stroke="none" target-height="8.50293" target-width="65.34503" target-x="105.547" target-y="118.17499"></path><path d="M 150.25 123.59 L 146.89 123.96 L 145.54 126.33 L 144.52 127.75 L 142.97 129.12 L 141.75 129.79 L 140.12 130.25 L 137.97 130.46 L 135.89 130.26 L 134.35 129.81 L 133.25 129.18 L 131.90 127.86 L 131.07 126.47 L 130.11 124.07 L 129.08 124.05 L 127.79 124.06 L 127.16 124.07 L 126.95 125.00 L 126.60 125.88 L 125.87 127.02 L 124.84 128.06 L 123.22 129.05 L 121.24 129.69 L 118.32 129.97 L 116.26 129.80 L 114.51 129.38 L 113.03 128.75 L 111.03 127.45 L 109.53 126.04 L 108.34 124.52 L 107.61 123.34 L 107.02 122.11 L 107.40 125.08 L 107.97 127.23 L 108.67 128.76 L 109.65 130.14 L 110.62 131.08 L 111.59 131.66 L 113.16 132.19 L 114.38 132.30 L 115.62 132.19 L 118.81 134.64 L 118.81 154.05 L 156.64 154.05 L 156.64 134.89 L 158.61 131.94 L 160.91 131.98 L 162.67 131.71 L 164.00 131.20 L 165.70 130.00 L 166.78 128.62 L 167.47 127.10 L 167.80 125.86 L 167.94 124.57 L 166.02 126.75 L 164.29 128.17 L 162.71 129.00 L 160.98 129.47 L 159.39 129.56 L 157.89 129.32 L 155.76 128.49 L 153.93 127.33 L 152.34 125.97 L 151.24 124.82 L 150.25 123.59 Z M 129.13 150.61 L 121.76 150.61 L 121.76 137.34 L 129.13 137.34 Z M 131.58 150.61 L 130.60 150.61 L 130.60 137.34 L 131.58 137.34 Z M 143.38 150.61 L 133.06 150.61 L 133.06 137.34 L 143.38 137.34 Z M 146.32 150.61 L 144.85 150.61 L 144.85 137.34 L 146.32 137.34 Z M 154.19 150.61 L 148.29 150.61 L 148.29 137.34 L 154.19 137.34 Z" fill="#19629e" fill-rule="nonzero" group-id="6,12,19,80,97" id="路径_13" node-id="45" stroke="none" target-height="31.935974" target-width="60.924988" target-x="107.01703" target-y="122.11304"></path><path d="M 156.47 154.43 L 150.53 155.12 L 144.57 155.52 L 138.58 155.60 L 132.47 155.49 L 127.20 155.18 L 122.30 154.67 L 118.80 154.07" fill="none" group-id="6,12,19,81" id="路径_14" node-id="46" stroke="#000000" stroke-linecap="butt" stroke-width="1" target-height="1.5360107" target-width="37.667053" target-x="118.80493" target-y="154.06897"></path><path d="M 118.81 153.86 L 120.36 153.13 L 123.28 152.55 L 126.61 152.28 L 130.75 152.19 L 139.53 152.46 L 147.91 153.04 L 154.18 153.62 L 156.65 153.89 L 156.63 155.03 L 144.50 156.03 L 133.27 156.03 L 122.62 155.28 L 121.60 155.16 L 119.73 154.73 L 119.00 154.32 L 118.81 153.86 Z" fill="#19629e" fill-rule="nonzero" group-id="6,12,19,82" id="路径_15" node-id="47" stroke="none" target-height="3.843811" target-width="37.83795" target-x="118.81305" target-y="152.18817"></path><path d="M 120.68 149.91 L 126.63 149.21 L 132.59 148.81 L 138.58 148.73 L 147.18 148.95 L 155.73 149.79" fill="none" group-id="6,12,19,83,98,99" id="路径_16" node-id="50" stroke="#19629e" stroke-linecap="butt" stroke-width="1" target-height="1.1799927" target-width="35.057007" target-x="120.677" target-y="148.72504"></path><path d="M 120.78 150.87 L 126.73 150.17 L 132.70 149.78 L 138.69 149.69 L 147.28 149.91 L 155.84 150.75" fill="none" group-id="6,12,19,83,98,100" id="路径_17" node-id="51" stroke="#19629e" stroke-linecap="butt" stroke-width="1" target-height="1.1799927" target-width="35.057007" target-x="120.77997" target-y="149.68799"></path><path d="M 120.68 148.92 L 126.63 148.22 L 132.59 147.83 L 138.58 147.74 L 147.18 147.97 L 155.73 148.80" fill="none" group-id="6,12,19,83,98,101" id="路径_18" node-id="52" stroke="#19629e" stroke-linecap="butt" stroke-width="1" target-height="1.1800537" target-width="35.057007" target-x="120.677" target-y="147.74298"></path><path d="M 124.17 148.64 L 124.17 150.45" fill="none" group-id="6,12,19,83,98,102" id="直线_1" node-id="53" stroke="#19629e" stroke-linecap="butt" stroke-width="1" target-height="1.802002" target-width="0" target-x="124.172005" target-y="148.644"></path><path d="M 122.78 148.64 L 122.78 150.45" fill="none" group-id="6,12,19,83,98,103" id="直线_2" node-id="54" stroke="#19629e" stroke-linecap="butt" stroke-width="1" target-height="1.802002" target-width="0" target-x="122.78" target-y="148.644"></path><path d="M 125.63 148.28 L 125.63 150.08" fill="none" group-id="6,12,19,83,98,104" id="直线_3" node-id="55" stroke="#19629e" stroke-linecap="butt" stroke-width="1" target-height="1.802002" target-width="0" target-x="125.626" target-y="148.275"></path><path d="M 126.83 148.34 L 126.83 150.14" fill="none" group-id="6,12,19,83,98,105" id="直线_4" node-id="56" stroke="#19629e" stroke-linecap="butt" stroke-width="1" target-height="1.802002" target-width="0" target-x="126.834" target-y="148.33699"></path><path d="M 128.08 148.21 L 128.08 150.02" fill="none" group-id="6,12,19,83,98,106" id="直线_5" node-id="57" stroke="#19629e" stroke-linecap="butt" stroke-width="1" target-height="1.802002" target-width="0" target-x="128.082" target-y="148.21399"></path><path d="M 131.01 148.09 L 131.01 149.89" fill="none" group-id="6,12,19,83,98,107" id="直线_6" node-id="58" stroke="#19629e" stroke-linecap="butt" stroke-width="1" target-height="1.802002" target-width="0" target-x="131.01001" target-y="148.091"></path><path d="M 133.67 147.93 L 133.67 149.73" fill="none" group-id="6,12,19,83,98,108" id="直线_7" node-id="59" stroke="#19629e" stroke-linecap="butt" stroke-width="1" target-height="1.802002" target-width="0" target-x="133.671" target-y="147.927"></path><path d="M 134.82 147.89 L 134.82 149.69" fill="none" group-id="6,12,19,83,98,109" id="直线_8" node-id="60" stroke="#19629e" stroke-linecap="butt" stroke-width="1" target-height="1.802002" target-width="0" target-x="134.81801" target-y="147.886"></path><path d="M 135.74 147.89 L 135.74 149.69" fill="none" group-id="6,12,19,83,98,110" id="直线_9" node-id="61" stroke="#19629e" stroke-linecap="butt" stroke-width="1" target-height="1.802002" target-width="0" target-x="135.739" target-y="147.886"></path><path d="M 136.74 147.87 L 136.74 149.67" fill="none" group-id="6,12,19,83,98,111" id="直线_10" node-id="62" stroke="#19629e" stroke-linecap="butt" stroke-width="1" target-height="1.802002" target-width="0" target-x="136.742" target-y="147.866"></path><path d="M 137.81 147.82 L 137.81 149.63" fill="none" group-id="6,12,19,83,98,112" id="直线_11" node-id="63" stroke="#19629e" stroke-linecap="butt" stroke-width="1" target-height="1.802002" target-width="0" target-x="137.806" target-y="147.825"></path><path d="M 138.95 147.82 L 138.95 149.63" fill="none" group-id="6,12,19,83,98,113" id="直线_12" node-id="64" stroke="#19629e" stroke-linecap="butt" stroke-width="1" target-height="1.802002" target-width="0" target-x="138.953" target-y="147.825"></path><path d="M 141.08 147.82 L 141.08 149.63" fill="none" group-id="6,12,19,83,98,114" id="直线_13" node-id="65" stroke="#19629e" stroke-linecap="butt" stroke-width="1" target-height="1.802002" target-width="0" target-x="141.082" target-y="147.825"></path><path d="M 142.17 147.89 L 142.17 149.69" fill="none" group-id="6,12,19,83,98,115" id="直线_14" node-id="66" stroke="#19629e" stroke-linecap="butt" stroke-width="1" target-height="1.802002" target-width="0" target-x="142.167" target-y="147.886"></path><path d="M 145.46 147.99 L 145.46 149.79" fill="none" group-id="6,12,19,83,98,116" id="直线_15" node-id="67" stroke="#19629e" stroke-linecap="butt" stroke-width="1" target-height="1.802002" target-width="0" target-x="145.463" target-y="147.989"></path><path d="M 148.88 148.17 L 148.88 149.97" fill="none" group-id="6,12,19,83,98,117" id="直线_16" node-id="68" stroke="#19629e" stroke-linecap="butt" stroke-width="1" target-height="1.802002" target-width="0" target-x="148.882" target-y="148.17299"></path><path d="M 150.11 148.32 L 150.11 150.12" fill="none" group-id="6,12,19,83,98,118" id="直线_17" node-id="69" stroke="#19629e" stroke-linecap="butt" stroke-width="1" target-height="1.802002" target-width="0" target-x="150.11" target-y="148.316"></path><path d="M 151.22 148.42 L 151.22 150.22" fill="none" group-id="6,12,19,83,98,119" id="直线_18" node-id="70" stroke="#19629e" stroke-linecap="butt" stroke-width="1" target-height="1.802002" target-width="0" target-x="151.215" target-y="148.418"></path><path d="M 152.36 148.52 L 152.36 150.32" fill="none" group-id="6,12,19,83,98,120" id="直线_19" node-id="71" stroke="#19629e" stroke-linecap="butt" stroke-width="1" target-height="1.802002" target-width="0" target-x="152.362" target-y="148.521"></path><path d="M 153.37 148.66 L 153.37 150.47" fill="none" group-id="6,12,19,83,98,121" id="直线_20" node-id="72" stroke="#19629e" stroke-linecap="butt" stroke-width="1" target-height="1.802002" target-width="0" target-x="153.365" target-y="148.664"></path><path d="M 140.04 147.78 L 140.04 149.59" fill="none" group-id="6,12,19,83,98,122" id="直线_21" node-id="73" stroke="#19629e" stroke-linecap="butt" stroke-width="1" target-height="1.802002" target-width="0" target-x="140.038" target-y="147.784"></path><path d="M 143.27 147.91 L 143.27 149.71" fill="none" group-id="6,12,19,83,98,123" id="直线_22" node-id="74" stroke="#19629e" stroke-linecap="butt" stroke-width="1" target-height="1.802002" target-width="0" target-x="143.272" target-y="147.907"></path><path d="M 118.75 152.26 L 121.85 152.26 L 121.85 162.76 L 118.75 162.76 Z" fill="url(#linear-gradient-6)" fill-rule="nonzero" group-id="6,12,19,84" id="矩形_6" node-id="75" stroke="none" target-height="10.498001" target-width="3.1039963" target-x="118.749" target-y="152.265"></path><path d="M 127.34 152.26 L 130.51 152.26 L 130.51 164.81 L 127.34 164.81 Z" fill="url(#linear-gradient-6)" fill-rule="nonzero" group-id="6,12,19,85" id="矩形_7" node-id="76" stroke="none" target-height="12.544998" target-width="3.1670074" target-x="127.343" target-y="152.265"></path><path d="M 136.00 152.26 L 139.17 152.26 L 139.17 166.10 L 136.00 166.10 Z" fill="url(#linear-gradient-6)" fill-rule="nonzero" group-id="6,12,19,86" id="矩形_8" node-id="77" stroke="none" target-height="13.832993" target-width="3.1670074" target-x="135.999" target-y="152.265"></path><path d="M 144.66 152.26 L 147.82 152.26 L 147.82 164.32 L 144.66 164.32 Z" fill="url(#linear-gradient-6)" fill-rule="nonzero" group-id="6,12,19,87" id="矩形_9" node-id="78" stroke="none" target-height="12.052002" target-width="3.1670074" target-x="144.656" target-y="152.265"></path><path d="M 153.41 152.26 L 156.57 152.26 L 156.57 162.76 L 153.41 162.76 Z" fill="url(#linear-gradient-6)" fill-rule="nonzero" group-id="6,12,19,88" id="矩形_10" node-id="79" stroke="none" target-height="10.498001" target-width="3.1670074" target-x="153.406" target-y="152.265"></path><path d="M 154.68 113.27 L 153.16 112.95 L 151.97 112.12 L 151.04 110.94 L 150.35 109.58 L 149.55 107.05 L 149.33 105.90 L 148.85 107.34 L 147.74 108.86 L 146.19 110.16 L 144.02 111.28 L 141.54 112.00 L 138.46 112.28 L 136.19 111.96 L 134.31 111.13 L 132.68 109.93 L 131.40 108.60 L 130.35 107.18 L 129.69 106.07 L 129.13 104.91 L 128.35 107.77 L 127.53 109.75 L 126.68 111.08 L 125.59 112.18 L 124.51 112.80 L 123.41 113.05 L 121.67 112.90 L 119.88 112.19 L 118.20 111.13 L 116.66 109.88 L 114.31 107.49 L 113.40 106.39 L 113.87 109.13 L 114.69 111.09 L 115.84 112.69 L 117.03 113.76 L 118.30 114.54 L 119.28 114.96 L 120.28 115.23 L 123.23 117.69 L 123.23 120.64 L 151.24 120.64 L 151.24 117.69 L 154.18 115.23 L 156.12 115.37 L 157.59 115.15 L 158.73 114.63 L 160.14 113.38 L 161.06 111.86 L 161.65 110.19 L 161.92 108.81 L 162.05 107.37 L 161.52 108.29 L 160.02 110.32 L 158.96 111.39 L 157.69 112.35 L 156.27 113.01 L 154.68 113.27 Z M 129.54 118.92 L 126.27 118.92 L 126.27 116.46 L 129.54 116.46 Z M 140.68 118.92 L 133.55 118.92 L 133.55 116.46 L 140.68 116.46 Z M 149.11 118.92 L 145.84 118.92 L 145.84 116.46 L 149.11 116.46 Z" fill="#19629e" fill-rule="nonzero" group-id="6,12,20" id="路径_19" node-id="80" stroke="none" target-height="15.723022" target-width="48.64099" target-x="113.40405" target-y="104.91498"></path><path d="M 123.23 120.64 L 127.16 124.08 L 130.11 124.08 Z" fill="#19629e" fill-rule="nonzero" group-id="6,13" id="路径_20" node-id="81" stroke="none" target-height="3.4389648" target-width="6.875" target-x="123.23102" target-y="120.63904"></path><path d="M 146.89 123.96 L 151.24 120.64 L 150.25 123.59 Z" fill="#19629e" fill-rule="nonzero" group-id="6,14" id="路径_21" node-id="82" stroke="none" target-height="3.3219604" target-width="4.348999" target-x="146.88696" target-y="120.63904"></path><path d="M 81.25 2.67 L 81.31 2.52 L 81.53 4.40 L 82.01 11.78 L 82.54 23.12 L 82.95 36.70 L 83.10 50.84 L 82.83 63.83" fill="none" group-id="7,15,21" id="路径_22" node-id="85" stroke="#000000" stroke-linecap="butt" stroke-width="1" target-height="61.313446" target-width="1.8478394" target-x="81.25195" target-y="2.5165558"></path><path d="M 80.11 1.44 L 79.32 2.77 L 77.71 6.04 L 76.95 8.09 L 76.41 10.24 L 76.23 12.40 L 76.55 14.32 L 76.45 13.24 L 76.52 12.13 L 76.89 10.53 L 77.62 8.89 L 79.00 6.97 L 81.69 1.76 Z" fill="#374107" fill-rule="nonzero" group-id="7,15,22" id="路径_23" node-id="86" stroke="none" target-height="12.880005" target-width="5.4595337" target-x="76.22748" target-y="1.4420013"></path><path d="M 76.19 2.19 L 75.84 2.85 L 75.30 4.36 L 75.21 5.24 L 75.36 6.07 L 75.68 4.70 L 76.27 3.48 L 77.14 2.39 Z" fill="#374107" fill-rule="nonzero" group-id="7,15,23" id="路径_24" node-id="87" stroke="none" target-height="3.871994" target-width="1.93573" target-x="75.20624" target-y="2.1930084"></path><path d="M 81.82 8.99 L 80.83 9.91 L 80.08 10.98 L 79.57 12.23 L 78.85 15.38 L 78.21 19.40 L 77.44 23.37 L 77.89 22.02 L 78.91 18.75 L 79.97 14.72 L 80.55 12.19 L 81.43 9.74 Z" fill="#374107" fill-rule="nonzero" group-id="7,15,24" id="路径_25" node-id="88" stroke="none" target-height="14.382019" target-width="4.3859863" target-x="77.438965" target-y="8.988998"></path><path d="M 82.68 27.37 L 82.98 27.29 L 83.24 27.44 L 83.68 28.19 L 84.05 29.33 L 84.52 31.80 L 84.87 34.84 L 85.21 39.86 L 84.89 38.48 L 84.19 35.34 L 83.48 31.95 L 83.16 29.82 L 83.03 28.57 L 82.68 27.37 Z" fill="#374107" fill-rule="nonzero" group-id="7,15,25" id="路径_26" node-id="89" stroke="none" target-height="12.56778" target-width="2.5290527" target-x="82.68396" target-y="27.288239"></path><path d="M 82.87 35.66 L 84.42 39.75 L 85.60 43.93 L 86.43 48.22 L 84.69 44.18 L 83.51 40.01 L 82.87 35.66 Z" fill="#374107" fill-rule="nonzero" group-id="7,15,26" id="路径_27" node-id="90" stroke="none" target-height="12.563995" target-width="3.5559692" target-x="82.87201" target-y="35.65799"></path><path d="M 82.95 60.47 L 84.49 64.56 L 85.68 68.74 L 86.50 73.04 L 84.76 69.00 L 83.58 64.82 L 82.95 60.47 Z" fill="#374107" fill-rule="nonzero" group-id="7,15,27" id="路径_28" node-id="91" stroke="none" target-height="12.565002" target-width="3.5560303" target-x="82.945984" target-y="60.470978"></path><path d="M 82.87 63.59 L 82.59 68.23 L 81.72 72.80 L 81.70 69.68 L 82.08 66.62 L 82.87 63.59 Z" fill="#374107" fill-rule="nonzero" group-id="7,15,28" id="路径_29" node-id="92" stroke="none" target-height="9.208008" target-width="1.1663818" target-x="81.70056" target-y="63.593018"></path><path d="M 83.09 52.88 L 85.65 57.07 L 87.65 61.55 L 85.75 58.86 L 84.23 55.98 L 83.09 52.88 Z" fill="#374107" fill-rule="nonzero" group-id="7,15,29" id="路径_30" node-id="93" stroke="none" target-height="8.664001" target-width="4.561035" target-x="83.091" target-y="52.882996"></path><path d="M 82.23 20.10 L 83.08 20.22 L 83.89 20.53 L 84.96 21.27 L 85.89 22.37 L 86.81 24.28 L 85.50 22.65 L 83.97 21.26 L 82.23 20.10 Z" fill="#374107" fill-rule="nonzero" group-id="7,15,30" id="路径_31" node-id="94" stroke="none" target-height="4.1879883" target-width="4.583008" target-x="82.23004" target-y="20.096008"></path><path d="M 82.54 26.56 L 81.49 28.23 L 80.54 29.97 L 79.45 32.33 L 78.57 34.84 L 78.05 37.42 L 78.59 36.34 L 79.82 33.83 L 81.13 30.97 L 81.92 28.83 L 82.17 27.57 L 82.26 27.07 L 82.54 26.56 Z" fill="#374107" fill-rule="nonzero" group-id="7,15,31" id="路径_32" node-id="95" stroke="none" target-height="10.864014" target-width="4.48999" target-x="78.04797" target-y="26.55597"></path><path d="M 83.02 43.01 L 82.18 43.92 L 80.43 46.26 L 79.56 47.78 L 78.87 49.46 L 78.52 51.22 L 78.63 52.97 L 79.02 51.95 L 79.89 49.64 L 80.83 47.16 L 81.81 45.03 L 83.02 43.01 Z" fill="#374107" fill-rule="nonzero" group-id="7,15,32" id="路径_33" node-id="96" stroke="none" target-height="9.957001" target-width="4.5042725" target-x="78.51575" target-y="43.012024"></path><path d="M 83.02 54.39 L 82.18 55.30 L 80.43 57.64 L 79.56 59.16 L 78.87 60.84 L 78.52 62.60 L 78.63 64.35 L 79.02 63.33 L 79.89 61.02 L 80.83 58.54 L 81.81 56.41 L 83.02 54.39 Z" fill="#374107" fill-rule="nonzero" group-id="7,15,33" id="路径_34" node-id="97" stroke="none" target-height="9.957001" target-width="4.5042725" target-x="78.51575" target-y="54.39102"></path><path d="M 85.58 18.08 L 85.53 16.85 L 85.12 13.96 L 84.66 12.27 L 83.96 10.59 L 82.96 9.09 L 81.64 7.94 L 82.09 8.93 L 83.11 11.18 L 84.20 13.60 L 85.01 15.80 L 85.58 18.08 Z" fill="#374107" fill-rule="nonzero" group-id="7,15,34" id="路径_35" node-id="98" stroke="none" target-height="10.141998" target-width="3.9390259" target-x="81.643005" target-y="7.9410095"></path><path d="M 69.06 15.29 L 67.83 19.19 L 64.85 29.72 L 63.10 36.69 L 61.19 45.15 L 59.46 54.03 L 57.90 63.75 L 56.74 73.67 L 56.07 83.78" fill="none" group-id="7,16,35" id="路径_36" node-id="100" stroke="#000000" stroke-linecap="butt" stroke-width="1" target-height="68.48599" target-width="13" target-x="56.065002" target-y="15.292999"></path><path d="M 65.48 27.55 L 66.29 30.18 L 66.63 32.84 L 66.53 35.58 L 65.71 31.61 L 65.48 27.55 Z" fill="#374107" fill-rule="nonzero" group-id="7,16,36" id="路径_37" node-id="101" stroke="none" target-height="8.032013" target-width="1.1497192" target-x="65.48401" target-y="27.552979"></path><path d="M 62.53 39.07 L 63.33 41.70 L 63.68 44.36 L 63.57 47.10 L 62.75 43.13 L 62.53 39.07 Z" fill="#374107" fill-rule="nonzero" group-id="7,16,37" id="路径_38" node-id="102" stroke="none" target-height="8.031982" target-width="1.1498413" target-x="62.526" target-y="39.072998"></path><path d="M 63.82 33.27 L 65.29 35.59 L 66.33 38.07 L 66.95 40.74 L 65.11 37.13 L 63.82 33.27 Z" fill="#374107" fill-rule="nonzero" group-id="7,16,38" id="路径_39" node-id="103" stroke="none" target-height="7.470978" target-width="3.130005" target-x="63.82199" target-y="33.274017"></path><path d="M 66.06 25.25 L 64.02 27.08 L 62.34 29.18 L 61.02 31.58 L 63.78 28.60 L 66.06 25.25 Z" fill="#374107" fill-rule="nonzero" group-id="7,16,39" id="路径_40" node-id="104" stroke="none" target-height="6.333008" target-width="5.049011" target-x="61.01599" target-y="25.247986"></path><path d="M 63.00 37.30 L 60.95 39.13 L 59.28 41.23 L 57.95 43.63 L 60.71 40.66 L 63.00 37.30 Z" fill="#374107" fill-rule="nonzero" group-id="7,16,40" id="路径_41" node-id="105" stroke="none" target-height="6.3329773" target-width="5.0489807" target-x="57.95102" target-y="37.302002"></path><path d="M 61.73 43.40 L 59.69 45.23 L 58.01 47.34 L 56.68 49.74 L 59.44 46.76 L 61.73 43.40 Z" fill="#374107" fill-rule="nonzero" group-id="7,16,41" id="路径_42" node-id="106" stroke="none" target-height="6.333008" target-width="5.0489807" target-x="56.683014" target-y="43.40399"></path><path d="M 59.83 51.96 L 57.78 53.79 L 56.11 55.90 L 54.78 58.30 L 57.54 55.32 L 59.83 51.96 Z" fill="#374107" fill-rule="nonzero" group-id="7,16,42" id="路径_43" node-id="107" stroke="none" target-height="6.333008" target-width="5.049011" target-x="54.78" target-y="51.96399"></path><path d="M 58.27 60.02 L 56.45 62.07 L 55.01 64.34 L 53.96 66.88 L 56.37 63.61 L 58.27 60.02 Z" fill="#374107" fill-rule="nonzero" group-id="7,16,43" id="路径_44" node-id="108" stroke="none" target-height="6.855011" target-width="4.3160095" target-x="53.958984" target-y="60.02301"></path><path d="M 55.95 82.32 L 54.12 84.37 L 52.69 86.64 L 51.64 89.18 L 54.05 85.91 L 55.95 82.32 Z" fill="#374107" fill-rule="nonzero" group-id="7,16,44" id="路径_45" node-id="109" stroke="none" target-height="6.854004" target-width="4.3150024" target-x="51.63501" target-y="82.323"></path><path d="M 58.51 59.29 L 59.46 61.86 L 60.81 64.19 L 62.56 66.31 L 60.80 62.65 L 58.51 59.29 Z" fill="#374107" fill-rule="nonzero" group-id="7,16,45" id="路径_46" node-id="110" stroke="none" target-height="7.0180054" target-width="4.0440063" target-x="58.511017" target-y="59.287994"></path><path d="M 56.40 78.10 L 57.35 80.67 L 58.69 83.00 L 60.44 85.12 L 58.68 81.46 L 56.40 78.10 Z" fill="#374107" fill-rule="nonzero" group-id="7,16,46" id="路径_47" node-id="111" stroke="none" target-height="7.0180054" target-width="4.0440063" target-x="56.397003" target-y="78.10101"></path><path d="M 60.59 47.50 L 60.91 50.23 L 61.66 52.81 L 62.86 55.28 L 62.02 51.30 L 60.59 47.50 Z" fill="#374107" fill-rule="nonzero" group-id="7,16,47" id="路径_48" node-id="112" stroke="none" target-height="7.7740173" target-width="2.2739868" target-x="60.58902" target-y="47.50299"></path><path d="M 57.48 67.65 L 57.41 70.08 L 57.94 72.45 L 57.89 70.03 L 57.48 67.65 Z" fill="#374107" fill-rule="nonzero" group-id="7,16,48" id="路径_49" node-id="113" stroke="none" target-height="4.8059998" target-width="0.5361328" target-x="57.405884" target-y="67.64801"></path><path d="M 56.97 70.53 L 55.20 72.20 L 53.90 74.26 L 55.58 72.51 L 56.97 70.53 Z" fill="#374107" fill-rule="nonzero" group-id="7,16,49" id="路径_50" node-id="114" stroke="none" target-height="3.725006" target-width="3.0720215" target-x="53.899994" target-y="70.535"></path><path d="M 53.73 -22.08 L 53.45 -18.00 L 53.01 -7.07 L 52.94 0.13 L 53.06 8.80 L 53.45 17.83 L 54.22 27.65 L 55.41 37.57 L 57.11 47.55" fill="none" group-id="7,17,50" id="路径_51" node-id="116" stroke="#000000" stroke-linecap="butt" stroke-width="1" target-height="69.628006" target-width="4.1760864" target-x="52.937897" target-y="-22.078003"></path><path d="M 53.12 -9.32 L 54.52 -6.96 L 55.48 -4.45 L 56.02 -1.76 L 54.29 -5.43 L 53.12 -9.32 Z" fill="#374107" fill-rule="nonzero" group-id="7,17,51" id="路径_52" node-id="117" stroke="none" target-height="7.5659943" target-width="2.8940125" target-x="53.121002" target-y="-9.320999"></path><path d="M 52.94 2.57 L 54.33 4.94 L 55.29 7.45 L 55.83 10.14 L 54.10 6.46 L 52.94 2.57 Z" fill="#374107" fill-rule="nonzero" group-id="7,17,52" id="路径_53" node-id="118" stroke="none" target-height="7.5650024" target-width="2.8930054" target-x="52.939026" target-y="2.5720062"></path><path d="M 52.84 -3.37 L 54.81 -1.46 L 56.40 0.71 L 57.63 3.16 L 54.99 0.08 L 52.84 -3.37 Z" fill="#374107" fill-rule="nonzero" group-id="7,17,53" id="路径_54" node-id="119" stroke="none" target-height="6.5319977" target-width="4.7900085" target-x="52.842957" target-y="-3.3700104"></path><path d="M 53.15 -11.69 L 51.59 -9.44 L 50.45 -7.00 L 49.72 -4.36 L 51.71 -7.90 L 53.15 -11.69 Z" fill="#374107" fill-rule="nonzero" group-id="7,17,54" id="路径_55" node-id="120" stroke="none" target-height="7.3389893" target-width="3.428009" target-x="49.72003" target-y="-11.694"></path><path d="M 52.99 0.74 L 51.43 2.99 L 50.29 5.43 L 49.56 8.08 L 51.55 4.53 L 52.99 0.74 Z" fill="#374107" fill-rule="nonzero" group-id="7,17,55" id="路径_56" node-id="121" stroke="none" target-height="7.3390045" target-width="3.428009" target-x="49.558014" target-y="0.7369995"></path><path d="M 53.18 6.97 L 51.62 9.23 L 50.48 11.66 L 49.75 14.31 L 51.74 10.77 L 53.18 6.97 Z" fill="#374107" fill-rule="nonzero" group-id="7,17,56" id="路径_57" node-id="122" stroke="none" target-height="7.3390045" target-width="3.428009" target-x="49.75299" target-y="6.9680023"></path><path d="M 53.33 15.74 L 51.77 17.99 L 50.63 20.43 L 49.91 23.07 L 51.89 19.53 L 53.33 15.74 Z" fill="#374107" fill-rule="nonzero" group-id="7,17,57" id="路径_58" node-id="123" stroke="none" target-height="7.3389893" target-width="3.4279785" target-x="49.90503" target-y="15.735992"></path><path d="M 53.71 23.94 L 52.41 26.35 L 51.55 28.90 L 51.11 31.61 L 52.70 27.87 L 53.71 23.94 Z" fill="#374107" fill-rule="nonzero" group-id="7,17,58" id="路径_59" node-id="124" stroke="none" target-height="7.6739807" target-width="2.5920105" target-x="51.11496" target-y="23.935028"></path><path d="M 56.66 46.16 L 55.36 48.58 L 54.50 51.12 L 54.07 53.83 L 55.65 50.09 L 56.66 46.16 Z" fill="#374107" fill-rule="nonzero" group-id="7,17,59" id="路径_60" node-id="125" stroke="none" target-height="7.674011" target-width="2.59198" target-x="54.070038" target-y="46.159973"></path><path d="M 53.76 23.17 L 55.29 25.44 L 57.14 27.39 L 59.34 29.04 L 56.77 25.90 L 53.76 23.17 Z" fill="#374107" fill-rule="nonzero" group-id="7,17,60" id="路径_61" node-id="126" stroke="none" target-height="5.8779907" target-width="5.572998" target-x="53.764008" target-y="23.165009"></path><path d="M 56.11 41.95 L 57.64 44.23 L 59.49 46.18 L 61.68 47.83 L 59.12 44.68 L 56.11 41.95 Z" fill="#374107" fill-rule="nonzero" group-id="7,17,61" id="路径_62" node-id="127" stroke="none" target-height="5.877014" target-width="5.572998" target-x="56.10901" target-y="41.94998"></path><path d="M 53.03 11.22 L 53.98 13.80 L 55.31 16.13 L 57.06 18.25 L 55.31 14.58 L 53.03 11.22 Z" fill="#374107" fill-rule="nonzero" group-id="7,17,62" id="路径_63" node-id="128" stroke="none" target-height="7.027008" target-width="4.0289917" target-x="53.028015" target-y="11.220993"></path><path d="M 54.72 31.54 L 55.22 33.92 L 56.29 36.10 L 55.68 33.76 L 54.72 31.54 Z" fill="#374107" fill-rule="nonzero" group-id="7,17,63" id="路径_64" node-id="129" stroke="none" target-height="4.5650024" target-width="1.572998" target-x="54.718994" target-y="31.537994"></path><path d="M 54.90 34.46 L 53.57 36.50 L 52.78 38.80 L 54.00 36.71 L 54.90 34.46 Z" fill="#374107" fill-rule="nonzero" group-id="7,17,64" id="路径_65" node-id="130" stroke="none" target-height="4.3399963" target-width="2.1159973" target-x="52.783997" target-y="34.460022"></path><path d="M 59.51 -21.39 L 60.28 -17.38 L 62.68 -6.70 L 64.45 0.27 L 66.80 8.62 L 69.51 17.25 L 72.77 26.53 L 76.47 35.81 L 80.69 45.02" fill="none" group-id="7,18,65" id="路径_66" node-id="132" stroke="#000000" stroke-linecap="butt" stroke-width="1" target-height="66.411" target-width="21.187988" target-x="59.50598" target-y="-21.390007"></path><path d="M 62.20 -8.90 L 64.15 -6.98 L 65.73 -4.80 L 66.94 -2.34 L 64.32 -5.44 L 62.20 -8.90 Z" fill="#374107" fill-rule="nonzero" group-id="7,18,66" id="路径_67" node-id="133" stroke="none" target-height="6.5659943" target-width="4.7430115" target-x="62.19699" target-y="-8.904999"></path><path d="M 65.08 2.63 L 67.04 4.56 L 68.61 6.74 L 69.83 9.20 L 67.21 6.09 L 65.08 2.63 Z" fill="#374107" fill-rule="nonzero" group-id="7,18,67" id="路径_68" node-id="134" stroke="none" target-height="6.5660095" target-width="4.742981" target-x="65.08203" target-y="2.6340027"></path><path d="M 63.46 -3.08 L 65.86 -1.74 L 67.95 -0.06 L 69.77 2.00 L 66.43 -0.31 L 63.46 -3.08 Z" fill="#374107" fill-rule="nonzero" group-id="7,18,68" id="路径_69" node-id="135" stroke="none" target-height="5.078003" target-width="6.309967" target-x="63.45999" target-y="-3.0829926"></path><path d="M 61.61 -11.21 L 60.68 -8.62 L 60.21 -5.98 L 60.19 -3.23 L 61.20 -7.16 L 61.61 -11.21 Z" fill="#374107" fill-rule="nonzero" group-id="7,18,69" id="路径_70" node-id="136" stroke="none" target-height="7.973999" target-width="1.4240112" target-x="60.18799" target-y="-11.205002"></path><path d="M 64.66 0.85 L 63.73 3.44 L 63.26 6.08 L 63.23 8.83 L 64.24 4.89 L 64.66 0.85 Z" fill="#374107" fill-rule="nonzero" group-id="7,18,70" id="路径_71" node-id="137" stroke="none" target-height="7.973999" target-width="1.4240112" target-x="63.231995" target-y="0.85398865"></path><path d="M 66.45 6.82 L 65.52 9.40 L 65.05 12.05 L 65.02 14.79 L 66.03 10.86 L 66.45 6.82 Z" fill="#374107" fill-rule="nonzero" group-id="7,18,71" id="路径_72" node-id="138" stroke="none" target-height="7.973999" target-width="1.4240112" target-x="65.02399" target-y="6.8200073"></path><path d="M 68.85 15.25 L 67.93 17.84 L 67.46 20.48 L 67.43 23.23 L 68.44 19.29 L 68.85 15.25 Z" fill="#374107" fill-rule="nonzero" group-id="7,18,72" id="路径_73" node-id="139" stroke="none" target-height="7.973999" target-width="1.4239502" target-x="67.43103" target-y="15.253998"></path><path d="M 71.32 23.08 L 70.69 25.75 L 70.51 28.43 L 70.79 31.16 L 71.36 27.14 L 71.32 23.08 Z" fill="#374107" fill-rule="nonzero" group-id="7,18,73" id="路径_74" node-id="140" stroke="none" target-height="8.083008" target-width="0.8475342" target-x="70.51056" target-y="23.079987"></path><path d="M 79.90 43.80 L 79.27 46.47 L 79.09 49.15 L 79.37 51.88 L 79.94 47.86 L 79.90 43.80 Z" fill="#374107" fill-rule="nonzero" group-id="7,18,74" id="路径_75" node-id="141" stroke="none" target-height="8.082001" target-width="0.8474121" target-x="79.08966" target-y="43.79599"></path><path d="M 71.18 22.32 L 73.24 24.13 L 75.53 25.54 L 78.08 26.57 L 74.79 24.19 L 71.18 22.32 Z" fill="#374107" fill-rule="nonzero" group-id="7,18,75" id="路径_76" node-id="142" stroke="none" target-height="4.2450256" target-width="6.8999634" target-x="71.17999" target-y="22.320984"></path><path d="M 78.28 39.87 L 80.35 41.68 L 82.64 43.09 L 85.18 44.11 L 81.89 41.73 L 78.28 39.87 Z" fill="#374107" fill-rule="nonzero" group-id="7,18,76" id="路径_77" node-id="143" stroke="none" target-height="4.244995" target-width="6.8999634" target-x="78.28198" target-y="39.869995"></path><path d="M 67.39 10.97 L 68.97 13.21 L 70.87 15.12 L 73.09 16.72 L 70.46 13.63 L 67.39 10.97 Z" fill="#374107" fill-rule="nonzero" group-id="7,18,77" id="路径_78" node-id="144" stroke="none" target-height="5.751999" target-width="5.700012" target-x="67.39496" target-y="10.968994"></path><path d="M 74.26 30.17 L 75.35 32.34 L 76.95 34.17 L 75.76 32.07 L 74.26 30.17 Z" fill="#374107" fill-rule="nonzero" group-id="7,18,78" id="路径_79" node-id="145" stroke="none" target-height="4.0059814" target-width="2.6950073" target-x="74.25897" target-y="30.16504"></path><path d="M 75.19 32.94 L 74.42 35.25 L 74.26 37.68 L 74.90 35.35 L 75.19 32.94 Z" fill="#374107" fill-rule="nonzero" group-id="7,18,79" id="路径_80" node-id="146" stroke="none" target-height="4.7380066" target-width="0.92700195" target-x="74.257996" target-y="32.942963"></path><text align="center" editable="true" ellipsis="false" fill="#374107" flags="1" font-family="'Noto Sans CJK SC'" font-size="8" font-stretch="normal" font-style="normal" font-weight="400" height="11.84" id="立春_" letter-spacing="0" node-id="147" stroke="none" target-x="140.004" target-y="55.850998" vertical-align="center" width="24" x="140.004" xml:space="preserve" y="65.131">立春。</text><path d="M 138.59 55.40 L 136.42 55.40 L 136.42 55.40 L 135.67 55.40 L 135.67 58.32 L 136.42 58.32 L 136.42 56.15 L 138.59 56.15 Z" fill="#374107" fill-rule="nonzero" group-id="8" id="路径_81" node-id="150" stroke="none" target-height="2.9169922" target-width="2.9180298" target-x="135.66699" target-y="55.399017"></path></g></svg>