<?xml version="1.0" standalone="no"?><!DOCTYPE svg PUBLIC "-//W3C//DTD SVG 1.1//EN" "http://www.w3.org/Graphics/SVG/1.1/DTD/svg11.dtd"><svg height="200" node-id="1" sillyvg="true" template-height="200" template-width="200" version="1.1" viewBox="0 0 200 200" width="200" xmlns="http://www.w3.org/2000/svg" xmlns:xlink="http://www.w3.org/1999/xlink"><defs node-id="79"><clipPath id="clip-path" node-id="3"><path d="M 200.00 100.00 C 200.00 155.23 155.23 200.00 100.00 200.00 C 44.77 200.00 0.00 155.23 0.00 100.00 C -0.00 44.77 44.77 0.00 100.00 0.00 C 155.23 -0.00 200.00 44.77 200.00 100.00 Z" fill="#000000" fill-rule="nonzero" id="椭圆_11" node-id="4" stroke="none" target-height="200" target-width="200" target-x="0" target-y="0"></path></clipPath></defs><g clip-path="url(#clip-path)" id="组_17" node-id="5"><path d="M -3.04 -9.14 L 203.04 -9.14 L 203.04 209.14 L -3.04 209.14 Z" fill="#ccaf9b" fill-rule="nonzero" group-id="1" id="矩形_11" node-id="6" stroke="none" target-height="218.272" target-width="206.078" target-x="-3.039" target-y="-9.136"></path><path d="M 107.58 179.54 L 107.39 180.01 L 106.75 180.53 L 105.36 181.12 L 103.00 181.72 L 99.53 182.24 L 95.76 182.55 L 91.33 182.67 L 86.90 182.55 L 83.13 182.24 L 79.66 181.72 L 77.30 181.12 L 75.91 180.53 L 75.27 180.01 L 75.08 179.54 L 75.27 179.07 L 75.91 178.55 L 77.30 177.97 L 79.66 177.37 L 83.13 176.84 L 86.90 176.54 L 91.33 176.42 L 95.76 176.54 L 99.53 176.84 L 103.00 177.37 L 105.36 177.97 L 106.75 178.55 L 107.39 179.07 L 107.58 179.54 Z" fill="#dfd7ce" fill-rule="nonzero" group-id="2" id="椭圆_2" node-id="9" stroke="none" target-height="6.25" target-width="32.5" target-x="75.08" target-y="176.418"></path><path d="M 125.85 182.51 L 125.66 182.98 L 125.02 183.50 L 123.63 184.09 L 121.27 184.69 L 117.80 185.21 L 114.03 185.52 L 109.60 185.64 L 105.17 185.52 L 101.40 185.21 L 97.93 184.69 L 95.57 184.09 L 94.17 183.50 L 93.54 182.98 L 93.35 182.51 L 93.54 182.04 L 94.17 181.52 L 95.57 180.93 L 97.93 180.34 L 101.40 179.81 L 105.17 179.50 L 109.60 179.39 L 114.03 179.50 L 117.80 179.81 L 121.27 180.34 L 123.63 180.93 L 125.02 181.52 L 125.66 182.04 L 125.85 182.51 Z" fill="#dfd7ce" fill-rule="nonzero" group-id="3" id="椭圆_3" node-id="10" stroke="none" target-height="6.25" target-width="32.5" target-x="93.348" target-y="179.387"></path><path d="M 85.60 167.26 L 85.34 167.93 L 84.47 168.68 L 82.56 169.55 L 79.28 170.48 L 74.28 171.42 L 68.78 172.11 L 62.01 172.68 L 54.89 173.01 L 46.97 173.14 L 39.05 173.01 L 31.94 172.68 L 25.17 172.11 L 19.66 171.42 L 14.67 170.48 L 11.38 169.55 L 9.47 168.68 L 8.60 167.93 L 8.35 167.26 L 8.60 166.60 L 9.47 165.85 L 11.38 164.98 L 14.67 164.04 L 19.66 163.11 L 25.17 162.41 L 31.94 161.85 L 39.05 161.51 L 46.97 161.39 L 54.89 161.51 L 62.01 161.85 L 68.78 162.41 L 74.28 163.11 L 79.28 164.04 L 82.56 164.98 L 84.47 165.85 L 85.34 166.60 L 85.60 167.26 Z" fill="#dfd7ce" fill-rule="nonzero" group-id="4" id="椭圆_4" node-id="11" stroke="none" target-height="11.75" target-width="77.25" target-x="8.348" target-y="161.387"></path><path d="M 213.60 173.26 L 213.34 173.93 L 212.47 174.68 L 210.56 175.55 L 207.28 176.48 L 202.28 177.42 L 196.78 178.11 L 190.01 178.68 L 182.89 179.01 L 174.97 179.14 L 167.05 179.01 L 159.94 178.68 L 153.17 178.11 L 147.66 177.42 L 142.67 176.48 L 139.38 175.55 L 137.47 174.68 L 136.60 173.93 L 136.35 173.26 L 136.60 172.60 L 137.47 171.85 L 139.38 170.98 L 142.67 170.04 L 147.66 169.11 L 153.17 168.41 L 159.94 167.85 L 167.05 167.51 L 174.97 167.39 L 182.89 167.51 L 190.01 167.85 L 196.78 168.41 L 202.28 169.11 L 207.28 170.04 L 210.56 170.98 L 212.47 171.85 L 213.34 172.60 L 213.60 173.26 Z" fill="#dfd7ce" fill-rule="nonzero" group-id="5" id="椭圆_5" node-id="12" stroke="none" target-height="11.75" target-width="77.25" target-x="136.348" target-y="167.387"></path><path d="M 73.47 182.95 L 73.20 183.59 L 72.29 184.31 L 70.28 185.13 L 66.89 185.95 L 61.90 186.67 L 56.47 187.10 L 50.10 187.26 L 43.72 187.10 L 38.30 186.67 L 33.31 185.95 L 29.91 185.13 L 27.90 184.31 L 26.99 183.59 L 26.72 182.95 L 26.99 182.31 L 27.90 181.59 L 29.91 180.77 L 33.31 179.95 L 38.30 179.23 L 43.72 178.80 L 50.10 178.64 L 56.47 178.80 L 61.90 179.23 L 66.89 179.95 L 70.28 180.77 L 72.29 181.59 L 73.20 182.31 L 73.47 182.95 Z" fill="#dfd7ce" fill-rule="nonzero" group-id="6" id="椭圆_6" node-id="13" stroke="none" target-height="8.623993" target-width="46.75" target-x="26.723" target-y="178.637"></path><path d="M 94.62 102.51 L 100.19 108.42 L 102.80 106.03 L 95.53 100.92 Z" fill="#fab001" fill-rule="nonzero" group-id="7,11" id="路径_82" node-id="15" stroke="none" target-height="7.4959717" target-width="8.178955" target-x="94.61902" target-y="100.92206"></path><path d="M 132.68 165.87 L 137.23 165.87 L 136.75 165.07 L 135.93 163.15 L 135.70 161.99 L 135.75 160.83 L 135.82 158.38 L 135.52 155.22 L 135.14 152.50 L 134.95 151.34 L 131.54 151.34 L 131.54 161.85 Z" fill="#ededed" fill-rule="nonzero" group-id="7,12" id="路径_83" node-id="16" stroke="none" target-height="14.528992" target-width="5.6920166" target-x="131.54004" target-y="151.34003"></path><path d="M 137.93 132.45 L 137.76 132.92 L 136.52 134.44 L 135.28 135.54 L 133.05 137.21 L 130.34 138.99 L 126.22 141.41 L 124.60 142.99 L 123.17 144.88 L 121.95 147.14 L 120.65 150.75 L 119.98 154.47 L 119.91 156.98 L 120.17 159.22 L 120.73 161.22 L 121.67 163.00 L 122.95 164.31 L 124.60 165.20 L 127.36 165.68 L 130.13 165.87 L 132.93 165.77 L 133.25 165.12 L 133.29 164.39 L 133.03 163.71 L 132.53 163.18 L 133.03 158.03 L 133.18 152.86 L 132.98 150.74 L 132.70 149.76 L 132.44 148.85 L 132.29 146.93 L 133.53 146.58 L 136.26 145.39 L 137.72 144.43 L 139.01 143.17 L 139.92 141.64 L 140.30 139.73 L 140.13 137.14 L 139.72 135.40 L 139.09 133.93 L 138.56 133.12 L 137.93 132.45 Z" fill="#463936" fill-rule="nonzero" group-id="7,13" id="路径_84" node-id="17" stroke="none" target-height="33.41443" target-width="20.385376" target-x="119.910645" target-y="132.453"></path><path d="M 131.32 147.58 L 133.13 152.03 L 133.56 152.89 L 133.92 153.93 L 134.36 155.85 L 134.66 158.10 L 134.79 161.46 L 135.62 161.72 L 137.44 161.99 L 138.41 161.87 L 139.24 161.46 L 139.34 155.65 L 141.10 153.57 L 142.49 151.32 L 143.54 148.87 L 144.23 146.30 L 144.52 143.67 L 144.42 140.95 L 144.21 139.25 L 143.95 138.28 L 143.26 137.03 L 142.68 136.08 L 142.54 135.44 L 142.53 134.27 L 138.73 133.56 L 137.25 133.93 Z" fill="#463936" fill-rule="nonzero" group-id="7,14" id="路径_85" node-id="18" stroke="none" target-height="28.433228" target-width="13.201904" target-x="131.31604" target-y="133.56"></path><path d="M 141.91 150.65 L 141.91 160.92 L 145.14 160.92 L 145.14 157.26 L 145.25 155.02 L 145.58 152.80 L 146.03 150.51 L 146.38 148.69 L 146.95 146.92 L 148.15 141.67 L 148.86 136.34 L 143.29 134.31 Z" fill="#463936" fill-rule="nonzero" group-id="7,15" id="路径_86" node-id="19" stroke="none" target-height="26.606018" target-width="6.9489746" target-x="141.91003" target-y="134.31201"></path><path d="M 136.60 128.57 L 135.88 128.97 L 134.50 129.95 L 133.91 130.59 L 133.63 131.21 L 133.87 131.71 L 134.81 132.11 L 137.22 132.42 L 138.54 132.45 L 139.56 130.51 Z" fill="#463936" fill-rule="nonzero" group-id="7,16" id="路径_87" node-id="20" stroke="none" target-height="3.882019" target-width="5.9300537" target-x="133.63391" target-y="128.57098"></path><path d="M 134.94 161.46 L 135.74 161.63 L 137.49 161.81 L 138.45 161.73 L 139.27 161.46 L 139.24 161.98 L 139.39 163.02 L 139.64 163.48 L 140.07 163.76 L 141.02 164.40 L 141.30 164.86 L 141.32 165.27 L 141.08 165.59 L 140.32 165.82 L 137.04 165.82 L 136.61 165.75 L 135.71 165.19 L 135.30 164.63 L 134.94 163.64 L 134.74 161.84 L 134.84 161.41 L 134.94 161.46 Z" fill="#ffffff" fill-rule="nonzero" group-id="7,17" id="路径_88" node-id="21" stroke="none" target-height="4.412903" target-width="6.5825195" target-x="134.73853" target-y="161.40515"></path><path d="M 139.24 159.25 L 140.37 158.00 L 141.50 156.39 L 143.27 153.27 L 145.01 149.47 L 147.17 143.61 L 148.12 140.36 L 148.63 138.02 L 148.91 135.83 L 149.02 133.73 L 149.15 128.57 L 149.07 127.38 L 148.83 126.87 L 148.51 126.73 L 147.81 126.93 L 146.73 127.80 L 144.54 130.34 L 142.69 132.93 L 142.11 134.33 L 142.10 135.85 L 142.45 137.13 L 143.12 138.27 L 143.64 139.25 L 144.13 141.58 L 144.21 143.31 L 144.01 145.40 L 143.48 147.93 L 142.62 150.34 L 141.22 152.97 L 139.17 155.85 Z" fill="#fffffe" fill-rule="nonzero" group-id="7,18" id="路径_89" node-id="22" stroke="none" target-height="32.520813" target-width="9.981079" target-x="139.172" target-y="126.7262"></path><path d="M 139.62 133.92 L 141.03 134.10 L 142.42 134.11 L 144.14 133.88 L 145.80 133.29 L 147.27 132.18 L 148.12 131.19 L 148.74 130.05 L 149.12 128.82 L 149.25 127.52 L 149.12 126.22 L 148.74 124.99 L 148.12 123.86 L 147.27 122.86 L 145.76 121.76 L 144.10 121.25 L 142.40 121.26 L 140.91 121.73 L 139.73 122.62 L 139.08 123.83 L 138.66 125.02 L 138.28 125.64 L 137.40 126.68 L 137.02 127.33 L 136.60 128.57 L 138.27 131.54 L 137.67 133.11 Z" fill="#463936" fill-rule="nonzero" group-id="7,19" id="路径_90" node-id="23" stroke="none" target-height="12.855957" target-width="12.655762" target-x="136.599" target-y="121.25311"></path><path d="M 141.91 160.92 L 145.14 160.92 L 145.13 161.44 L 145.27 162.52 L 145.48 163.05 L 145.82 163.43 L 146.65 164.13 L 146.94 164.54 L 147.01 164.84 L 146.85 165.05 L 146.22 165.15 L 144.07 165.11 L 143.20 164.80 L 142.37 163.93 L 142.06 161.91 L 141.91 160.92 Z" fill="#ffffff" fill-rule="nonzero" group-id="7,20" id="路径_91" node-id="24" stroke="none" target-height="4.2319946" target-width="5.098877" target-x="141.91003" target-y="160.919"></path><path d="M 143.46 126.05 L 143.68 126.37 L 143.74 126.76 L 143.40 127.60 L 142.63 128.07 L 142.23 128.07 L 141.89 127.90 L 141.67 127.59 L 141.60 127.19 L 141.94 126.36 L 142.71 125.89 L 143.12 125.89 L 143.46 126.05 Z" fill="#c6c47c" fill-rule="nonzero" group-id="7,21" id="椭圆_7" node-id="25" stroke="none" target-height="2.1836166" target-width="2.1424713" target-x="141.60173" target-y="125.886696"></path><path d="M 144.17 122.00 L 144.51 122.18 L 144.75 122.51 L 144.82 123.41 L 144.34 124.17 L 143.98 124.35 L 143.60 124.36 L 143.26 124.18 L 143.03 123.85 L 142.96 122.95 L 143.43 122.18 L 143.79 122.00 L 144.17 122.00 Z" fill="#c6c47c" fill-rule="nonzero" group-id="7,22" id="椭圆_8" node-id="26" stroke="none" target-height="2.356659" target-width="1.8592834" target-x="142.95695" target-y="121.99951"></path><path d="M 147.12 122.68 L 146.17 123.11 L 144.23 123.91 L 142.68 124.29 L 142.38 124.35 L 142.65 124.63 L 143.81 125.63 L 144.69 127.28 L 144.96 129.14 L 145.22 130.35 L 145.88 131.40 L 146.71 131.75 L 147.60 131.81 L 147.85 131.60 L 148.39 130.65 L 148.86 129.47 L 149.25 127.96 L 149.39 126.39 L 149.16 124.91 L 148.77 124.03 L 148.11 123.29 L 147.12 122.68 Z" fill="#fffffe" fill-rule="nonzero" group-id="7,23" id="路径_92" node-id="27" stroke="none" target-height="9.13501" target-width="7.005005" target-x="142.38269" target-y="122.676025"></path><path d="M 148.35 125.94 L 147.73 126.16 L 146.99 126.20 L 145.59 125.94 L 146.33 126.42 L 146.88 127.07 L 147.23 127.86 L 147.34 128.73" fill="none" group-id="7,24" id="路径_93" node-id="28" stroke="#b7acab" stroke-linecap="butt" stroke-width="1" target-height="2.7999878" target-width="2.7629395" target-x="145.58911" target-y="125.935"></path><path d="M 145.79 125.05 L 145.31 125.34 L 145.03 125.70 L 145.00 126.30 L 145.28 126.71 L 145.66 126.64 L 146.01 126.26 L 146.21 125.68 L 146.16 125.19 L 146.03 125.06 L 145.79 125.05 Z" fill="#b9808f" fill-rule="nonzero" group-id="7,25" id="路径_94" node-id="29" stroke="none" target-height="1.6542969" target-width="1.2099609" target-x="144.99707" target-y="125.054016"></path><path d="M 142.81 126.59 L 143.27 126.99 L 143.32 127.33 L 143.01 127.50 L 142.42 127.37 L 141.96 126.97 L 141.91 126.62 L 142.22 126.45 L 142.81 126.59 Z" fill="#191515" fill-rule="nonzero" group-id="7,26" id="椭圆_9" node-id="30" stroke="none" target-height="1.0510483" target-width="1.403244" target-x="141.91441" target-y="126.45248"></path><path d="M 143.86 122.74 L 144.43 122.96 L 144.59 123.27 L 144.36 123.53 L 143.76 123.61 L 143.19 123.40 L 143.03 123.09 L 143.26 122.82 L 143.86 122.74 Z" fill="#191515" fill-rule="nonzero" group-id="7,27" id="椭圆_10" node-id="31" stroke="none" target-height="0.87018585" target-width="1.5635529" target-x="143.02737" target-y="122.74232"></path><path d="M 134.67 131.11 L 136.59 130.10 L 136.81 130.14 L 136.95 130.41 L 137.05 131.16 L 137.05 131.58 L 136.52 131.62 L 135.47 131.55 L 134.98 131.39 L 134.67 131.11 Z" fill="#d8a4a1" fill-rule="nonzero" group-id="7,28" id="路径_95" node-id="32" stroke="none" target-height="1.5204468" target-width="2.3811035" target-x="134.67004" target-y="130.09705"></path><path d="M 133.13 152.03 L 132.91 151.15 L 132.47 150.34 L 131.48 149.29 L 130.09 148.42 L 127.68 147.62" fill="none" group-id="7,29" id="路径_96" node-id="33" stroke="#352b2a" stroke-linecap="butt" stroke-width="1" target-height="4.409973" target-width="5.453003" target-x="127.677" target-y="147.61603"></path><path d="M 100.24 160.14 L 100.97 158.48 L 101.85 156.84 L 103.27 154.67 L 105.01 152.55 L 107.27 150.45 L 108.98 149.26 L 110.92 148.29 L 113.13 147.55 L 115.41 147.18 L 118.01 147.21 L 120.99 147.72 L 121.23 145.69 L 121.62 143.62 L 122.39 140.76 L 123.49 137.81 L 125.12 134.66 L 126.46 132.68 L 128.09 130.84 L 130.04 129.13 L 132.20 127.74 L 134.77 126.66 L 137.80 125.91 L 137.80 125.91 L 138.25 124.37 L 139.61 120.68 L 140.64 118.48 L 141.95 116.19 L 143.52 114.07 L 145.32 112.28 L 146.68 111.33 L 148.16 110.67 L 149.76 110.31 L 148.36 109.17 L 147.08 107.94 L 145.69 106.27 L 144.60 104.39 L 144.07 102.40 L 144.14 101.09 L 144.69 99.75 L 145.82 98.34 L 148.61 96.19 L 150.59 95.25 L 152.45 94.87 L 153.58 94.95 L 154.61 95.31 L 152.26 94.78 L 149.84 94.35 L 146.52 93.97 L 143.02 93.84 L 139.34 94.10 L 136.91 94.56 L 134.69 95.32 L 132.65 96.37 L 126.31 100.09 L 117.90 104.61 L 109.42 109.00 L 102.87 112.32 L 100.24 113.64 L 88.57 132.87 L 84.18 142.57 L 84.48 163.47 L 84.58 162.16 L 84.79 160.87 L 85.26 159.24 L 85.99 157.67 L 87.10 156.25 L 88.04 155.50 L 89.21 154.98 L 90.69 154.68 L 92.93 154.79 L 94.80 155.34 L 96.47 156.23 L 97.79 157.24 L 99.62 159.22 L 100.24 160.14 Z" fill="#fab001" fill-rule="nonzero" group-id="7,30" id="路径_97" node-id="34" stroke="none" target-height="69.62537" target-width="70.426025" target-x="84.18201" target-y="93.8407"></path><path d="M 100.24 160.13 L 99.04 157.30 L 98.07 154.09 L 97.34 150.45 L 96.73 144.84 L 96.54 138.84 L 96.70 132.81 L 97.12 126.96 L 98.39 116.45 L 99.67 108.93 L 100.25 106.06 L 101.21 108.65 L 103.81 115.28 L 107.55 124.22 L 111.97 133.75 L 114.35 138.30 L 116.61 142.16 L 118.99 145.56 L 120.99 147.71" fill="none" group-id="7,31" id="路径_98" node-id="35" stroke="#926a2a" stroke-linecap="butt" stroke-width="1" target-height="54.067993" target-width="24.448853" target-x="96.536255" target-y="106.064026"></path><path d="M 137.80 125.90 L 135.63 124.54 L 130.02 121.10 L 122.32 116.55 L 113.89 111.88 L 109.72 109.75 L 106.08 108.06 L 102.63 106.70 L 100.25 106.06 L 103.17 105.11 L 106.30 104.29 L 110.98 103.37 L 116.11 102.74 L 122.29 102.53 L 126.51 102.72 L 130.96 103.30 L 135.69 104.28 L 140.29 105.68 L 144.97 107.68 L 149.76 110.30" fill="none" group-id="7,32" id="路径_99" node-id="36" stroke="#926a2a" stroke-linecap="butt" stroke-width="1" target-height="23.373596" target-width="49.515015" target-x="100.24707" target-y="102.530396"></path><path d="M 106.94 114.22 L 144.88 153.77" fill="none" group-id="7,33" id="直线_23" node-id="37" stroke="#f4f0df" stroke-linecap="butt" stroke-width="5" target-height="39.557007" target-width="37.938995" target-x="106.936005" target-y="114.215"></path><path d="M 100.69 131.96 L 101.20 129.90 L 101.95 127.78 L 103.39 124.74 L 105.33 121.62 L 108.25 118.06 L 110.51 115.85 L 113.33 113.63 L 116.76 111.41 L 120.38 109.55 L 124.73 107.86 L 129.92 106.36 L 130.50 104.89 L 131.26 103.45 L 132.64 101.51 L 134.41 99.65 L 136.95 97.76 L 138.87 96.73 L 141.22 95.86 L 144.07 95.18 L 146.97 94.84 L 150.45 94.86 L 154.61 95.31 L 154.92 95.06 L 155.06 94.80 L 154.98 94.45 L 154.62 94.12 L 153.50 93.64 L 151.98 93.25 L 149.16 92.81 L 140.67 92.13 L 131.27 91.85 L 127.41 91.97 L 124.20 92.30 L 121.15 92.89 L 118.22 93.76 L 115.32 94.93 L 112.06 96.54 L 104.47 100.91 L 103.26 102.39 L 100.26 105.77 L 96.46 109.47 L 94.46 111.00 L 92.81 111.90 L 90.97 114.30 L 89.23 116.97 L 86.96 121.15 L 85.58 124.19 L 84.26 127.77 L 83.03 131.96 L 82.14 136.22 L 81.60 140.95 L 81.45 146.23 L 81.80 151.48 L 82.79 157.20 L 84.48 163.46 L 84.28 161.32 L 84.26 159.07 L 84.52 155.78 L 85.17 152.27 L 86.48 148.15 L 87.68 145.46 L 89.32 142.67 L 91.45 139.77 L 93.87 137.14 L 96.92 134.54 L 100.69 131.96 Z" fill="#ffc810" fill-rule="nonzero" group-id="7,34" id="路径_100" node-id="38" stroke="none" target-height="71.612305" target-width="73.60889" target-x="81.451904" target-y="91.84772"></path><path d="M 100.69 131.96 L 99.83 130.37 L 99.16 128.52 L 98.69 126.39 L 98.36 123.09 L 98.34 119.61 L 98.57 116.14 L 98.94 113.02 L 99.81 108.04 L 100.25 106.06 L 102.63 105.62 L 108.59 104.75 L 112.29 104.37 L 116.32 104.13 L 120.34 104.13 L 124.03 104.44 L 126.41 104.89 L 128.35 105.54 L 129.92 106.36" fill="none" group-id="7,35" id="路径_101" node-id="39" stroke="#926a2a" stroke-linecap="butt" stroke-opacity="0.3" stroke-width="1" target-height="27.831787" target-width="31.581177" target-x="98.33984" target-y="104.13019"></path><path d="M 121.21 162.46 L 119.90 162.46 L 116.95 162.21 L 115.30 161.86 L 113.80 161.29 L 112.59 160.44 L 111.91 159.30 L 111.47 157.62 L 111.28 156.40 L 111.31 155.28 L 111.59 154.28 L 112.10 153.33 L 112.96 152.19 L 114.86 149.65 L 115.48 148.21 L 115.58 146.61 L 115.33 145.56 L 114.66 144.34 L 113.45 142.89 L 111.84 141.69 L 110.56 141.31 L 109.35 141.44 L 108.52 141.94 L 108.03 142.69 L 108.02 143.50 L 108.49 144.19 L 109.73 144.75 L 111.57 145.45 L 112.54 146.35 L 112.90 147.46 L 112.71 148.68 L 111.88 150.14 L 110.12 151.94 L 109.27 152.89 L 108.65 154.06 L 108.26 155.49 L 108.20 156.96 L 108.48 158.45 L 109.14 159.98 L 110.13 161.30 L 111.62 162.47 L 113.71 163.49 L 115.96 164.08 L 118.96 164.31 L 122.90 164.07 Z" fill="#463936" fill-rule="nonzero" group-id="7,36" id="路径_102" node-id="40" stroke="none" target-height="22.997986" target-width="14.881348" target-x="108.02075" target-y="141.31183"></path><path d="M 143.23 121.46 L 142.48 121.47 L 140.83 121.19 L 139.94 120.80 L 139.13 120.16 L 138.40 119.37 L 137.92 119.02 L 137.42 118.83 L 137.31 120.12 L 137.37 121.37 L 137.71 122.87 L 138.43 124.25 L 139.72 125.39 Z" fill="#463936" fill-rule="nonzero" group-id="7,37" id="路径_103" node-id="41" stroke="none" target-height="6.563965" target-width="5.921631" target-x="137.30835" target-y="118.82703"></path><path d="M 143.10 150.14 L 141.17 151.61 L 148.61 158.95 L 149.91 159.90 L 151.30 160.47 L 152.81 160.68 L 154.32 160.53 L 155.73 160.01 L 157.07 159.11 L 157.88 157.92 L 158.29 156.70 L 158.34 155.43 L 157.92 153.51 L 157.04 151.70 L 155.86 150.10 L 154.68 149.00 L 153.32 150.36 L 154.12 151.05 L 154.81 151.79 L 155.53 152.79 L 156.00 153.91 L 156.08 155.10 L 155.86 155.85 L 155.31 156.64 L 154.31 157.50 L 153.03 157.85 L 151.70 157.66 L 150.41 157.09 L 149.20 156.26 L 147.31 154.53 L 146.57 153.68 Z" fill="#f6d906" fill-rule="nonzero" group-id="7,38" id="路径_104" node-id="42" stroke="none" target-height="11.678406" target-width="17.176514" target-x="141.16602" target-y="149.00098"></path><path d="M 72.00 20.64 L 72.00 105.14" fill="none" group-id="8,39" id="直线_24" node-id="44" stroke="#eeebe5" stroke-linecap="butt" stroke-width="1" target-height="84.5" target-width="0" target-x="72" target-y="20.637001"></path><path d="M 84.00 -1.70 L 84.00 82.80" fill="none" group-id="8,40" id="直线_25" node-id="45" stroke="#eeebe5" stroke-linecap="butt" stroke-width="1" target-height="84.5" target-width="0" target-x="84" target-y="-1.6959991"></path><path d="M 41.00 -15.69 L 41.00 68.81" fill="none" group-id="8,41" id="直线_26" node-id="46" stroke="#eeebe5" stroke-linecap="butt" stroke-width="1" target-height="84.5" target-width="0" target-x="41" target-y="-15.690999"></path><path d="M 25.57 70.81 L 25.57 155.31" fill="none" group-id="8,42" id="直线_27" node-id="47" stroke="#eeebe5" stroke-linecap="butt" stroke-width="1" target-height="84.49999" target-width="0" target-x="25.574" target-y="70.809"></path><path d="M 48.79 57.81 L 48.79 142.31" fill="none" group-id="8,43" id="直线_28" node-id="48" stroke="#eeebe5" stroke-linecap="butt" stroke-width="1" target-height="84.49999" target-width="0" target-x="48.787" target-y="57.809"></path><path d="M 93.50 62.89 L 93.50 128.89" fill="none" group-id="8,44" id="直线_29" node-id="49" stroke="#eeebe5" stroke-linecap="butt" stroke-width="1" target-height="65.99999" target-width="0" target-x="93.5" target-y="62.887"></path><path d="M 140.00 40.55 L 140.00 93.89" fill="none" group-id="8,45" id="直线_30" node-id="50" stroke="#eeebe5" stroke-linecap="butt" stroke-width="1" target-height="53.331" target-width="0" target-x="140" target-y="40.554"></path><path d="M 99.00 -15.69 L 99.00 68.81" fill="none" group-id="8,46" id="直线_31" node-id="51" stroke="#eeebe5" stroke-linecap="butt" stroke-width="1" target-height="84.5" target-width="0" target-x="99" target-y="-15.690999"></path><path d="M 130.00 -25.32 L 130.00 59.18" fill="none" group-id="8,47" id="直线_32" node-id="52" stroke="#eeebe5" stroke-linecap="butt" stroke-width="1" target-height="84.5" target-width="0" target-x="130" target-y="-25.321"></path><path d="M 157.50 16.93 L 157.50 101.43" fill="none" group-id="8,48" id="直线_33" node-id="53" stroke="#eeebe5" stroke-linecap="butt" stroke-width="1" target-height="84.5" target-width="0" target-x="157.5" target-y="16.929"></path><path d="M 182.00 7.93 L 182.00 92.43" fill="none" group-id="8,49" id="直线_34" node-id="54" stroke="#eeebe5" stroke-linecap="butt" stroke-width="1" target-height="84.5" target-width="0" target-x="182" target-y="7.929001"></path><path d="M 168.50 54.93 L 168.50 139.43" fill="none" group-id="8,50" id="直线_35" node-id="55" stroke="#eeebe5" stroke-linecap="butt" stroke-width="1" target-height="84.5" target-width="0" target-x="168.5" target-y="54.929"></path><path d="M 193.50 70.81 L 193.50 155.31" fill="none" group-id="8,51" id="直线_36" node-id="56" stroke="#eeebe5" stroke-linecap="butt" stroke-width="1" target-height="84.49999" target-width="0" target-x="193.5" target-y="70.809"></path><path d="M 6.50 28.56 L 6.50 113.06" fill="none" group-id="8,52" id="直线_37" node-id="57" stroke="#eeebe5" stroke-linecap="butt" stroke-width="1" target-height="84.5" target-width="0" target-x="6.5" target-y="28.559002"></path><path d="M 20.50 10.56 L 20.50 95.06" fill="none" group-id="8,53" id="直线_38" node-id="58" stroke="#eeebe5" stroke-linecap="butt" stroke-width="1" target-height="84.5" target-width="0" target-x="20.5" target-y="10.559002"></path><path d="M 79.44 99.30 L 79.44 136.53" fill="none" group-id="9,54" id="直线_39" node-id="60" stroke="#eeebe5" stroke-linecap="butt" stroke-width="1" target-height="37.229004" target-width="0" target-x="79.441" target-y="99.304"></path><path d="M 108.73 24.43 L 108.73 108.93" fill="none" group-id="9,55" id="直线_40" node-id="61" stroke="#eeebe5" stroke-linecap="butt" stroke-width="1" target-height="84.5" target-width="0" target-x="108.728" target-y="24.434"></path><path d="M 58.69 24.43 L 58.69 108.93" fill="none" group-id="9,56" id="直线_41" node-id="62" stroke="#eeebe5" stroke-linecap="butt" stroke-width="1" target-height="84.5" target-width="0" target-x="58.686" target-y="24.434"></path><path d="M 43.26 110.93 L 43.26 195.43" fill="none" group-id="9,57" id="直线_42" node-id="63" stroke="#eeebe5" stroke-linecap="butt" stroke-width="1" target-height="84.49999" target-width="0" target-x="43.259003" target-y="110.934"></path><path d="M 66.47 97.93 L 66.47 182.43" fill="none" group-id="9,58" id="直线_43" node-id="64" stroke="#eeebe5" stroke-linecap="butt" stroke-width="1" target-height="84.49999" target-width="0" target-x="66.473" target-y="97.934"></path><path d="M 167.19 141.43 L 167.19 165.86" fill="none" group-id="9,59" id="直线_44" node-id="65" stroke="#eeebe5" stroke-linecap="butt" stroke-width="1" target-height="24.432007" target-width="0" target-x="167.186" target-y="141.426"></path><path d="M 116.69 24.43 L 116.69 108.93" fill="none" group-id="9,60" id="直线_45" node-id="66" stroke="#eeebe5" stroke-linecap="butt" stroke-width="1" target-height="84.5" target-width="0" target-x="116.686" target-y="24.434"></path><path d="M 147.69 14.80 L 147.69 99.30" fill="none" group-id="9,61" id="直线_46" node-id="67" stroke="#eeebe5" stroke-linecap="butt" stroke-width="1" target-height="84.5" target-width="0" target-x="147.686" target-y="14.804"></path><path d="M 175.19 57.05 L 175.19 141.55" fill="none" group-id="9,62" id="直线_47" node-id="68" stroke="#eeebe5" stroke-linecap="butt" stroke-width="1" target-height="84.5" target-width="0" target-x="175.186" target-y="57.054"></path><path d="M 199.69 48.05 L 199.69 132.55" fill="none" group-id="9,63" id="直线_48" node-id="69" stroke="#eeebe5" stroke-linecap="butt" stroke-width="1" target-height="84.5" target-width="0" target-x="199.686" target-y="48.054"></path><path d="M 186.19 95.05 L 186.19 179.55" fill="none" group-id="9,64" id="直线_49" node-id="70" stroke="#eeebe5" stroke-linecap="butt" stroke-width="1" target-height="84.5" target-width="0" target-x="186.186" target-y="95.054"></path><path d="M 211.19 110.93 L 211.19 195.43" fill="none" group-id="9,65" id="直线_50" node-id="71" stroke="#eeebe5" stroke-linecap="butt" stroke-width="1" target-height="84.49999" target-width="0" target-x="211.186" target-y="110.934"></path><path d="M 14.57 97.93 L 14.57 182.43" fill="none" group-id="9,66" id="直线_51" node-id="72" stroke="#eeebe5" stroke-linecap="butt" stroke-width="1" target-height="84.49999" target-width="0" target-x="14.569" target-y="97.934"></path><path d="M 38.19 50.68 L 38.19 135.18" fill="none" group-id="9,67" id="直线_52" node-id="73" stroke="#eeebe5" stroke-linecap="butt" stroke-width="1" target-height="84.5" target-width="0" target-x="38.186" target-y="50.684002"></path><text align="center" editable="true" ellipsis="false" fill="#463936" flags="1" font-family="'Noto Sans CJK SC'" font-size="8" font-stretch="normal" font-style="normal" font-weight="400" height="11.84" id="雨水_" letter-spacing="0" node-id="74" stroke="none" target-x="37.845" target-y="71.489" vertical-align="center" width="24" x="37.845" xml:space="preserve" y="80.769">雨水。</text><path d="M 35.68 71.29 L 33.51 71.29 L 33.51 71.29 L 32.76 71.29 L 32.76 74.20 L 33.51 74.20 L 33.51 72.04 L 35.68 72.04 Z" fill="#463936" fill-rule="nonzero" group-id="10" id="路径_105" node-id="77" stroke="none" target-height="2.9169922" target-width="2.9180908" target-x="32.75891" target-y="71.28601"></path></g></svg>