<?xml version="1.0" standalone="no"?><!DOCTYPE svg PUBLIC "-//W3C//DTD SVG 1.1//EN" "http://www.w3.org/Graphics/SVG/1.1/DTD/svg11.dtd"><svg height="200" node-id="1" sillyvg="true" template-height="200" template-width="200" version="1.1" viewBox="0 0 200 200" width="200" xmlns="http://www.w3.org/2000/svg" xmlns:xlink="http://www.w3.org/1999/xlink"><defs node-id="52"><clipPath id="clip-path" node-id="3"><path d="M 200.00 100.00 L 199.77 106.67 L 199.14 113.15 L 198.11 119.45 L 196.70 125.60 L 194.90 131.61 L 192.11 138.97 L 188.82 145.99 L 185.02 152.68 L 180.71 159.06 L 175.91 165.10 L 170.71 170.71 L 165.10 175.91 L 159.06 180.71 L 152.68 185.02 L 145.99 188.82 L 138.97 192.11 L 131.61 194.90 L 125.60 196.70 L 119.45 198.11 L 113.15 199.14 L 106.67 199.77 L 100.00 200.00 L 93.33 199.77 L 86.85 199.14 L 80.55 198.11 L 74.40 196.70 L 68.39 194.90 L 61.03 192.11 L 54.01 188.82 L 47.32 185.02 L 40.94 180.71 L 34.90 175.91 L 29.29 170.71 L 24.09 165.10 L 19.29 159.06 L 14.98 152.68 L 11.18 145.99 L 7.89 138.97 L 5.10 131.61 L 3.30 125.60 L 1.89 119.45 L 0.86 113.15 L 0.23 106.67 L 0.00 100.00 L 0.23 93.33 L 0.86 86.85 L 1.89 80.55 L 3.30 74.40 L 5.10 68.39 L 7.89 61.03 L 11.18 54.01 L 14.98 47.32 L 19.29 40.94 L 24.09 34.90 L 29.29 29.29 L 34.90 24.09 L 40.94 19.29 L 47.32 14.98 L 54.01 11.18 L 61.03 7.89 L 68.39 5.10 L 74.40 3.30 L 80.55 1.89 L 86.85 0.86 L 93.33 0.23 L 100.00 0.00 L 106.67 0.23 L 113.15 0.86 L 119.45 1.89 L 125.60 3.30 L 131.61 5.10 L 138.97 7.89 L 145.99 11.18 L 152.68 14.98 L 159.06 19.29 L 165.10 24.09 L 170.71 29.29 L 175.91 34.90 L 180.71 40.94 L 185.02 47.32 L 188.82 54.01 L 192.11 61.03 L 194.90 68.39 L 196.70 74.40 L 198.11 80.55 L 199.14 86.85 L 199.77 93.33 L 200.00 100.00 Z" fill="#000000" fill-rule="nonzero" id="椭圆_681" node-id="4" stroke="none" target-height="200" target-width="200" target-x="0" target-y="0"></path></clipPath></defs><g node-id="54"><g clip-path="url(#clip-path)" group-id="1" id="组_475" node-id="6"><path d="M 19.08 -30.40 L 222.21 4.51 L 185.23 219.66 L -17.90 184.75 Z" fill="#f2e6e2" fill-rule="nonzero" group-id="1,2" id="矩形_224" node-id="7" stroke="none" target-height="250.06802" target-width="240.11539" target-x="-17.900864" target-y="-30.404"></path><text align="center" editable="true" ellipsis="false" fill="#997b50" flags="1" font-family="'Noto Sans CJK SC'" font-size="9" font-stretch="normal" font-style="normal" font-weight="400" group-id="1" height="13.32" id="霜降_" letter-spacing="0" node-id="11" stroke="none" target-x="48.495" target-y="40.886" vertical-align="center" width="27" x="48.495" xml:space="preserve" y="51.326">霜降。</text><path d="M 46.73 40.09 L 44.56 40.09 L 44.56 40.09 L 43.81 40.09 L 43.81 43.01 L 44.56 43.01 L 44.56 40.84 L 46.73 40.84 Z" fill="#997b50" fill-rule="nonzero" group-id="1,3" id="路径_3555" node-id="14" stroke="none" target-height="2.9170074" target-width="2.9190063" target-x="43.81299" target-y="40.088997"></path><path d="M 49.91 198.56 L 49.91 130.75 L 36.44 117.34 L 36.44 198.56 Z" fill="#896e49" fill-rule="nonzero" group-id="1,4,9" id="路径_3556" node-id="16" stroke="none" target-height="81.22003" target-width="13.471008" target-x="36.43698" target-y="117.34198"></path><path d="M 252.74 61.35 L 32.12 104.56 L 114.98 210.29 L 252.74 210.29 Z" fill="#fff4eb" fill-rule="nonzero" group-id="1,4,10" id="路径_3557" node-id="17" stroke="none" target-height="148.944" target-width="220.62302" target-x="32.115997" target-y="61.347"></path><path d="M 32.12 111.67 L 32.12 104.56 L 114.98 210.29 L 107.35 210.29 Z" fill="#d4956b" fill-rule="nonzero" group-id="1,4,11" id="路径_3558" node-id="18" stroke="none" target-height="105.731964" target-width="82.859985" target-x="32.115997" target-y="104.55704"></path><path d="M 32.12 104.56 L 49.91 127.26 L 49.91 198.56 L 46.35 198.56 L 46.35 130.38 L 32.12 111.68 Z" fill="#997b50" fill-rule="nonzero" group-id="1,4,12" id="路径_3559" node-id="19" stroke="none" target-height="93.99997" target-width="17.791992" target-x="32.115997" target-y="104.55704"></path><path d="M 49.91 127.26 L 49.91 147.04 L 96.68 210.29 L 114.98 210.29 Z" fill="#896e49" fill-rule="nonzero" group-id="1,4,13" id="路径_3560" node-id="20" stroke="none" target-height="83.03003" target-width="65.06799" target-x="49.90802" target-y="127.26001"></path><path d="M 49.91 127.26 L 252.74 89.81 L 252.74 61.35 L 32.12 104.56 Z" fill="#997b50" fill-rule="nonzero" group-id="1,4,14" id="路径_3561" node-id="21" stroke="none" target-height="65.914" target-width="220.62302" target-x="32.115997" target-y="61.347"></path><path d="M 61.33 141.88 L 216.11 108.53 L 225.61 126.53 L 76.00 160.61 Z" fill="#f7eae2" fill-rule="nonzero" group-id="1,5" id="路径_3562" node-id="22" stroke="none" target-height="52.07898" target-width="164.28702" target-x="61.326996" target-y="108.52701"></path><path d="M 88.75 176.87 L 243.63 138.97 L 253.13 156.97 L 103.42 195.59 Z" fill="#f7eae2" fill-rule="nonzero" group-id="1,6" id="路径_3563" node-id="23" stroke="none" target-height="56.62201" target-width="164.38696" target-x="88.74802" target-y="138.97"></path><path d="M 168.37 129.30 L 168.11 132.58 L 167.41 135.73 L 166.26 138.78 L 164.65 141.76 L 162.69 144.50 L 160.37 147.11 L 157.65 149.58 L 154.51 151.93 L 150.05 154.59 L 145.06 156.88 L 139.47 158.78 L 133.71 160.14 L 127.59 160.99 L 121.05 161.30 L 114.51 160.99 L 108.38 160.14 L 102.63 158.78 L 97.04 156.88 L 92.05 154.59 L 87.59 151.93 L 84.44 149.58 L 81.73 147.11 L 79.40 144.50 L 77.45 141.76 L 75.83 138.78 L 74.69 135.73 L 73.99 132.58 L 73.73 129.30 L 73.99 126.02 L 74.69 122.87 L 75.83 119.82 L 77.45 116.85 L 79.40 114.10 L 81.73 111.50 L 84.44 109.02 L 87.59 106.67 L 92.05 104.02 L 97.04 101.72 L 102.63 99.82 L 108.38 98.46 L 114.51 97.61 L 121.05 97.30 L 127.59 97.61 L 133.71 98.46 L 139.47 99.82 L 145.06 101.72 L 150.05 104.02 L 154.51 106.67 L 157.65 109.02 L 160.37 111.50 L 162.69 114.10 L 164.65 116.85 L 166.26 119.82 L 167.41 122.87 L 168.11 126.02 L 168.37 129.30 Z" fill="#f4e4d7" fill-rule="nonzero" group-id="1,7,15,21" id="椭圆_674" node-id="26" stroke="none" target-height="63.995995" target-width="94.634" target-x="73.731" target-y="97.303"></path><path d="M 121.05 161.67 L 114.47 161.36 L 108.30 160.50 L 102.50 159.12 L 96.87 157.19 L 91.83 154.87 L 87.34 152.18 L 84.17 149.80 L 81.43 147.30 L 79.08 144.66 L 77.11 141.89 L 75.48 138.87 L 74.32 135.79 L 73.61 132.61 L 73.36 129.30 L 73.61 125.98 L 74.32 122.80 L 75.48 119.72 L 77.11 116.71 L 79.08 113.93 L 81.43 111.29 L 84.17 108.79 L 87.34 106.42 L 91.83 103.72 L 96.87 101.40 L 102.50 99.47 L 108.30 98.09 L 114.47 97.24 L 121.05 96.92 L 127.63 97.24 L 133.80 98.09 L 139.59 99.47 L 145.23 101.40 L 150.26 103.72 L 154.76 106.42 L 157.93 108.79 L 160.67 111.29 L 163.01 113.93 L 164.99 116.71 L 166.62 119.72 L 167.78 122.80 L 168.48 125.98 L 168.74 129.30 L 168.48 132.61 L 167.78 135.79 L 166.62 138.87 L 164.99 141.89 L 163.01 144.66 L 160.67 147.30 L 157.93 149.80 L 154.76 152.18 L 150.26 154.87 L 145.23 157.19 L 139.59 159.12 L 133.80 160.50 L 127.63 161.36 L 121.05 161.67 Z M 121.05 97.67 L 114.57 97.97 L 108.50 98.81 L 102.79 100.16 L 97.25 102.05 L 92.29 104.31 L 87.87 106.94 L 84.75 109.26 L 82.05 111.71 L 79.74 114.28 L 77.80 116.99 L 76.19 119.94 L 75.05 122.95 L 74.36 126.06 L 74.11 129.29 L 74.36 132.53 L 75.05 135.64 L 76.19 138.65 L 77.80 141.59 L 79.74 144.30 L 82.05 146.87 L 84.75 149.32 L 87.87 151.64 L 92.29 154.27 L 97.25 156.54 L 102.79 158.43 L 108.50 159.77 L 114.57 160.61 L 121.05 160.92 L 127.53 160.61 L 133.60 159.77 L 139.30 158.43 L 144.85 156.54 L 149.80 154.27 L 154.23 151.64 L 157.35 149.32 L 160.05 146.87 L 162.35 144.30 L 164.30 141.59 L 165.90 138.65 L 167.04 135.64 L 167.74 132.53 L 167.99 129.29 L 167.74 126.06 L 167.04 122.95 L 165.90 119.94 L 164.30 117.00 L 162.35 114.29 L 160.05 111.71 L 157.35 109.27 L 154.23 106.95 L 149.80 104.32 L 144.85 102.05 L 139.30 100.17 L 133.60 98.82 L 127.53 97.98 L 121.05 97.68 Z" fill="#f9f1ea" fill-rule="nonzero" group-id="1,7,15,22" id="路径_3564" node-id="27" stroke="none" target-height="64.746" target-width="95.38397" target-x="73.35602" target-y="96.923004"></path><path d="M 102.94 140.85 L 102.97 142.72 L 103.38 147.48 L 103.86 150.47 L 104.62 153.86 L 105.69 157.24 L 107.15 160.59 L 109.05 163.69 L 111.42 166.40 L 112.41 168.15 L 112.83 169.42 L 112.97 170.60 L 112.91 171.33 L 112.70 172.00 L 114.79 169.51 L 117.19 167.41 L 119.92 165.66 L 122.54 164.00 L 124.92 161.81 L 126.99 159.27 L 128.77 156.54 L 130.31 153.73 L 131.51 151.17 L 133.14 146.99 L 133.68 145.31 Z" fill="#446a0d" fill-rule="nonzero" group-id="1,7,16,23" id="路径_3565" node-id="29" stroke="none" target-height="31.148987" target-width="30.744995" target-x="102.935" target-y="140.84799"></path><path d="M 80.94 114.31 L 79.70 115.67 L 77.00 119.19 L 75.59 121.47 L 74.36 124.01 L 73.53 126.66 L 73.29 129.27 L 73.17 130.94 L 72.80 132.26 L 72.19 133.30 L 70.93 134.64 L 69.42 135.70 L 66.37 137.51 L 65.17 138.55 L 64.46 139.80 L 65.05 139.43 L 65.79 139.26 L 67.24 139.35 L 68.93 139.82 L 71.65 141.12 L 74.00 142.18 L 76.37 142.84 L 78.80 143.10 L 81.24 142.99 L 83.59 142.51 L 85.89 141.67 L 88.02 140.48 L 89.96 138.96 L 91.71 137.07 L 93.02 135.65 L 94.96 133.82 L 99.19 129.85 L 101.18 127.67 L 102.72 125.55 L 103.49 124.05 L 103.86 122.65 L 103.89 121.33 L 103.50 120.37 L 102.65 119.44 L 101.20 118.52 L 98.69 117.46 L 95.47 116.52 L 88.79 115.22 L 83.25 114.52 L 80.94 114.31 Z" fill="#446a0d" fill-rule="nonzero" group-id="1,7,17,24" id="路径_3566" node-id="31" stroke="none" target-height="28.79306" target-width="39.42401" target-x="64.461" target-y="114.30899"></path><path d="M 154.44 123.23 L 156.34 122.82 L 158.31 122.54 L 161.02 122.36 L 163.86 122.46 L 166.88 122.97 L 168.84 123.59 L 170.66 124.52 L 172.38 125.76 L 177.01 130.07 L 179.24 132.16 L 180.00 132.62 L 180.75 132.83 L 175.91 136.69 L 171.34 140.87 L 170.06 141.81 L 168.52 142.57 L 166.67 143.12 L 163.75 143.58 L 160.56 143.72 L 157.37 143.61 L 154.44 143.33 L 149.73 142.62 L 147.84 142.23 Z" fill="#446a0d" fill-rule="nonzero" group-id="1,7,18,25" id="路径_3567" node-id="33" stroke="none" target-height="21.361938" target-width="32.914" target-x="147.83704" target-y="122.3609"></path><path d="M 133.37 125.59 L 133.10 129.10 L 132.35 132.42 L 131.12 135.57 L 129.46 138.53 L 127.42 141.23 L 124.98 143.72 L 122.25 145.87 L 119.22 147.70 L 115.88 149.21 L 112.38 150.30 L 108.68 150.98 L 104.74 151.22 L 100.80 150.98 L 97.09 150.30 L 93.59 149.21 L 90.25 147.70 L 87.23 145.87 L 84.49 143.72 L 82.06 141.23 L 80.02 138.53 L 78.36 135.57 L 77.13 132.42 L 76.38 129.10 L 76.11 125.59 L 76.38 122.08 L 77.13 118.77 L 78.36 115.62 L 80.02 112.66 L 82.06 109.95 L 84.49 107.47 L 87.23 105.31 L 90.25 103.48 L 93.59 101.98 L 97.09 100.88 L 100.80 100.21 L 104.74 99.96 L 108.68 100.21 L 112.38 100.88 L 115.88 101.98 L 119.22 103.48 L 122.25 105.31 L 124.98 107.47 L 127.42 109.95 L 129.46 112.66 L 131.12 115.62 L 132.35 118.77 L 133.10 122.08 L 133.37 125.59 Z" fill="#ea4d20" fill-rule="nonzero" group-id="1,7,19" id="椭圆_675" node-id="35" stroke="none" target-height="51.257996" target-width="57.258003" target-x="76.109" target-y="99.964005"></path><path d="M 93.75 108.25 L 93.30 107.74 L 92.66 106.48 L 92.61 105.72 L 92.92 104.87 L 93.63 104.13 L 95.16 103.31 L 100.05 101.51 L 102.41 101.02 L 104.18 101.14 L 105.09 101.60 L 105.72 102.52 L 106.05 104.09 L 106.83 103.51 L 108.59 102.56 L 109.61 102.32 L 110.52 102.45 L 111.18 103.00 L 112.19 104.45 L 113.10 106.19 L 113.93 108.20 L 114.50 110.23 L 114.66 111.87 L 114.49 112.82 L 114.06 113.38 L 113.34 113.65 L 110.86 113.79 L 110.04 113.72 L 109.97 113.65 L 110.19 114.92 L 110.24 116.15 L 110.06 117.65 L 109.51 119.05 L 108.42 120.26 L 107.45 120.80 L 106.06 121.13 L 104.09 121.18 L 100.47 120.77 L 98.70 120.38 L 97.51 119.77 L 97.15 119.18 L 97.19 117.49 L 96.16 118.33 L 95.09 119.02 L 93.72 119.62 L 92.28 119.85 L 90.84 119.51 L 90.03 118.94 L 89.25 117.89 L 88.49 116.16 L 87.90 113.67 L 87.81 112.00 L 88.04 110.90 L 88.60 109.95 L 89.35 109.28 L 90.33 108.85 L 93.75 108.25 Z" fill="#446a0d" fill-rule="nonzero" group-id="1,7,19,26,33" id="路径_3568" node-id="37" stroke="none" target-height="20.158295" target-width="26.852356" target-x="87.80914" target-y="101.01672"></path><path d="M 105.01 109.58 L 104.97 110.55 L 104.35 111.54 L 103.32 112.35 L 101.87 112.95 L 100.30 113.15 L 99.01 112.97 L 97.98 112.41 L 97.47 111.60 L 97.51 110.63 L 98.13 109.64 L 99.15 108.84 L 100.61 108.24 L 102.17 108.03 L 103.46 108.22 L 104.49 108.77 L 105.01 109.58 Z" fill="#2e4907" fill-rule="nonzero" group-id="1,7,19,27,34" id="椭圆_676" node-id="39" stroke="none" target-height="5.120964" target-width="7.5425262" target-x="97.46549" target-y="108.03146"></path><path d="M 103.11 110.09 L 103.09 110.57 L 102.78 111.06 L 102.27 111.46 L 101.55 111.76 L 100.77 111.86 L 100.13 111.77 L 99.62 111.50 L 99.37 111.09 L 99.39 110.61 L 99.69 110.12 L 100.20 109.72 L 100.93 109.42 L 101.70 109.32 L 102.34 109.41 L 102.85 109.69 L 103.11 110.09 Z" fill="#243506" fill-rule="nonzero" group-id="1,7,19,28,35" id="椭圆_677" node-id="41" stroke="none" target-height="2.5414352" target-width="3.7422867" target-x="99.36592" target-y="109.321434"></path><path d="M 140.43 106.04 L 144.02 106.37 L 147.38 107.09 L 150.55 108.18 L 153.55 109.64 L 156.26 111.39 L 158.70 113.43 L 160.86 115.75 L 162.65 118.28 L 164.08 121.02 L 165.12 123.92 L 165.72 126.96 L 165.87 130.17 L 165.53 133.37 L 164.76 136.37 L 163.56 139.21 L 161.96 141.86 L 160.03 144.28 L 157.74 146.47 L 155.19 148.37 L 152.38 149.96 L 149.30 151.24 L 146.07 152.15 L 142.68 152.66 L 139.08 152.78 L 135.49 152.45 L 132.13 151.74 L 128.96 150.65 L 125.95 149.19 L 123.24 147.44 L 120.81 145.40 L 118.65 143.08 L 116.86 140.55 L 115.42 137.81 L 114.39 134.90 L 113.79 131.86 L 113.64 128.66 L 113.98 125.46 L 114.75 122.46 L 115.95 119.62 L 117.54 116.97 L 119.48 114.55 L 121.77 112.35 L 124.32 110.46 L 127.12 108.87 L 130.21 107.59 L 133.43 106.68 L 136.83 106.16 L 140.43 106.04 Z" fill="#f74b23" fill-rule="nonzero" group-id="1,7,20,29" id="椭圆_678" node-id="43" stroke="none" target-height="46.738327" target-width="52.236015" target-x="113.63607" target-y="106.044495"></path><path d="M 134.68 110.92 L 134.38 109.96 L 134.35 109.08 L 134.71 108.17 L 135.17 107.73 L 136.04 107.39 L 137.53 107.21 L 142.27 107.32 L 144.43 107.70 L 145.89 108.39 L 146.50 109.09 L 146.73 110.08 L 146.48 111.52 L 147.33 111.28 L 149.14 111.07 L 150.08 111.21 L 150.81 111.62 L 151.19 112.31 L 151.56 113.87 L 151.75 115.65 L 151.77 117.62 L 151.58 119.54 L 151.17 120.98 L 150.70 121.72 L 150.15 122.05 L 149.45 122.05 L 147.31 121.33 L 146.64 121.00 L 146.60 120.92 L 146.36 122.06 L 145.99 123.12 L 145.34 124.33 L 144.40 125.33 L 143.07 125.99 L 142.08 126.13 L 140.79 125.94 L 139.11 125.32 L 136.17 123.77 L 134.81 122.84 L 134.01 121.92 L 133.91 121.31 L 134.51 119.89 L 133.36 120.26 L 132.22 120.48 L 130.86 120.53 L 129.56 120.25 L 128.46 119.48 L 127.97 118.73 L 127.65 117.58 L 127.59 115.86 L 127.93 113.55 L 128.41 112.11 L 128.97 111.26 L 129.76 110.64 L 130.62 110.32 L 131.59 110.29 L 134.68 110.92 Z" fill="#446a0d" fill-rule="nonzero" group-id="1,7,20,30,36" id="路径_3569" node-id="45" stroke="none" target-height="18.91513" target-width="24.179138" target-x="127.59302" target-y="107.212006"></path><path d="M 140.49 113.21 L 141.88 113.56 L 142.91 114.15 L 143.59 114.96 L 143.76 115.82 L 143.40 116.62 L 142.55 117.26 L 141.41 117.59 L 139.98 117.61 L 138.59 117.27 L 137.56 116.68 L 136.87 115.87 L 136.70 115.00 L 137.06 114.20 L 137.92 113.57 L 139.05 113.23 L 140.49 113.21 Z" fill="#2e4907" fill-rule="nonzero" group-id="1,7,20,31,37" id="椭圆_679" node-id="47" stroke="none" target-height="4.4029617" target-width="7.0542603" target-x="136.70496" target-y="113.21152"></path><path d="M 140.36 114.32 L 141.05 114.49 L 141.56 114.78 L 141.90 115.19 L 141.98 115.61 L 141.80 116.01 L 141.38 116.33 L 140.82 116.49 L 140.11 116.50 L 139.42 116.33 L 138.91 116.04 L 138.56 115.64 L 138.48 115.21 L 138.66 114.81 L 139.08 114.50 L 139.65 114.33 L 140.36 114.32 Z" fill="#243506" fill-rule="nonzero" group-id="1,7,20,32,38" id="椭圆_680" node-id="49" stroke="none" target-height="2.1846008" target-width="3.4993439" target-x="138.4825" target-y="114.32003"></path><path d="M 141.94 -0.01 L 141.41 2.80 L 140.31 9.73 L 139.80 14.02 L 139.44 18.61 L 139.34 23.18 L 139.59 27.24 L 140.04 29.86 L 140.70 31.88 L 141.55 33.42 L 143.77 36.88 L 144.92 39.39 L 145.58 41.70 L 145.74 43.08 L 145.66 44.35 L 146.75 43.71 L 149.46 42.28 L 152.94 40.76 L 154.75 40.18 L 156.34 39.87 L 157.82 39.51 L 160.51 38.49 L 163.46 37.14 L 166.98 35.32 L 170.54 33.27 L 174.06 31.01 L 177.38 28.58 L 180.07 26.22 L 181.65 24.51 L 182.70 22.98 L 183.33 21.60 L 183.35 20.62 L 182.88 19.50 L 181.73 18.13 L 179.46 16.29 L 176.08 14.16 L 172.32 12.15 L 167.96 10.07 L 158.92 6.23 L 150.53 3.02 L 144.35 0.81 L 141.94 -0.01 Z" fill="#446a0d" fill-rule="nonzero" group-id="1,8" id="路径_3570" node-id="50" stroke="none" target-height="44.355" target-width="44.006897" target-x="139.34332" target-y="-0.0050001144"></path></g></g></svg>